<svg width="19" height="18" viewBox="0 0 19 18" fill="none" xmlns="http://www.w3.org/2000/svg">
<path fill-rule="evenodd" clip-rule="evenodd" d="M5.95859 2.3053C4.1561 3.36869 2.61438 5.57473 3.27146 9.84575C3.32084 10.1668 3.37718 10.5083 3.44625 10.8607C3.5187 11.2305 3.60516 11.6123 3.7123 11.9953C3.87081 12.5619 4.07458 13.131 4.34521 13.6673C4.71768 14.4053 5.21679 15.0811 5.89888 15.6024C6.48719 16.0521 7.21162 16.3868 8.1083 16.5473C8.49355 16.6163 8.91059 16.6531 9.3623 16.6531C9.72053 16.6531 10.1036 16.63 10.4969 16.5695C11.2271 16.4573 11.9923 16.2166 12.698 15.7573C13.3517 15.3318 13.9544 14.7187 14.4311 13.8464C14.7073 13.341 14.9413 12.7485 15.1183 12.055C15.2081 11.7034 15.2833 11.3258 15.3419 10.9204C15.3909 10.5819 15.4283 10.2241 15.4531 9.84575C15.7268 5.67187 14.4961 3.40516 12.7048 2.3053C12.5167 2.18985 12.3225 2.08727 12.1233 1.99668C11.1789 1.56737 10.1203 1.40754 9.06371 1.42608C8.36816 1.43828 7.45603 1.59225 6.55573 1.99668C6.35526 2.08673 6.15537 2.1892 5.95859 2.3053ZM9.06371 2.6799C6.15626 2.72767 5.42391 5.44665 5.42117 6.80016C5.38136 7.83521 6.05414 9.92918 9.06371 10.0247C12.8257 10.1441 13.0048 7.75559 13.1243 6.80016C13.2437 5.84474 12.698 2.62018 9.06371 2.6799ZM7.75002 10.8607H9.30258H10.8551C10.833 11.2431 10.6053 11.5073 10.3177 11.6842C9.98407 11.8894 9.56984 11.977 9.30258 11.9953C8.85198 11.9953 8.52323 11.8876 8.28744 11.7332C7.8983 11.4784 7.76241 11.0962 7.75002 10.8607ZM11.6911 14.2644C11.7867 13.0701 10.3177 13.1896 9.30258 13.1896C7.29619 13.1896 6.94847 13.6076 6.97374 14.2644C7.03345 15.817 8.04859 16.235 9.30258 16.2947C10.5566 16.3544 11.5717 15.7573 11.6911 14.2644Z" fill="#86C7DB"/>
<path d="M5.12259 0.171911C4.21494 0.93625 5.30173 1.87284 5.95859 2.3053C6.15537 2.1892 6.35526 2.08673 6.55573 1.99668C6.46019 -0.174131 5.54059 -0.180096 5.12259 0.171911Z" fill="#72B4C4"/>
<path d="M3.27146 9.84575C2.6146 9.10922 1.06204 7.95861 0.106618 9.24844C-0.214758 9.88539 0.00324123 11.0996 3.44625 10.8607C3.37718 10.5083 3.32084 10.1668 3.27146 9.84575Z" fill="#72B4C4"/>
<path d="M3.7123 11.9953C2.76917 12.0351 1.00234 12.461 1.48005 13.8464C1.75798 14.3042 2.7201 14.9093 4.34521 13.6673C4.07458 13.131 3.87081 12.5619 3.7123 11.9953Z" fill="#72B4C4"/>
<path d="M5.89888 15.6024C5.81927 16.0919 5.92277 17.0829 6.97374 17.1307C7.27231 17.1598 7.91722 17.0838 8.1083 16.5473C7.21162 16.3868 6.48719 16.0521 5.89888 15.6024Z" fill="#72B4C4"/>
<path d="M11.8106 17.1307C12.8138 17.1307 12.8202 16.2151 12.698 15.7573C11.9923 16.2166 11.2271 16.4573 10.4969 16.5695C10.8313 17.1238 11.512 17.1746 11.8106 17.1307Z" fill="#72B4C4"/>
<path d="M17.0654 13.6673C17.5431 12.5208 15.9664 12.1147 15.1183 12.055C14.9413 12.7485 14.7073 13.341 14.4311 13.8464C16.0976 14.7063 16.8817 14.0853 17.0654 13.6673Z" fill="#72B4C4"/>
<path d="M18.6777 9.54701C18.3194 7.99444 16.1498 9.04951 15.4531 9.84575C15.4283 10.2241 15.3909 10.5819 15.3419 10.9204C17.9759 11.1593 18.7999 10.0766 18.6777 9.54701Z" fill="#72B4C4"/>
<path d="M13.4826 0.0524831C12.336 -0.281915 12.0986 1.20928 12.1233 1.99668C12.3225 2.08727 12.5167 2.18985 12.7048 2.3053C14.3755 1.09796 13.9194 0.300364 13.4826 0.0524831Z" fill="#72B4C4"/>
<path d="M9.30258 13.1896C10.3177 13.1896 11.7867 13.0701 11.6911 14.2644C11.5717 15.7573 10.5566 16.3544 9.30258 16.2947C8.04859 16.235 7.03345 15.817 6.97374 14.2644C6.94847 13.6076 7.29619 13.1896 9.30258 13.1896Z" fill="#F7D27C"/>
<path d="M9.30258 10.8607H7.75002C7.76241 11.0962 7.8983 11.4784 8.28744 11.7332C8.34716 11.6016 8.63379 11.3384 9.30258 11.3384C9.97138 11.3384 10.258 11.5689 10.3177 11.6842C10.6053 11.5073 10.833 11.2431 10.8551 10.8607H9.30258Z" fill="#9F3645"/>
<path d="M8.28744 11.7332C8.52323 11.8876 8.85198 11.9953 9.30258 11.9953C9.56984 11.977 9.98407 11.8894 10.3177 11.6842C10.258 11.5689 9.97138 11.3384 9.30258 11.3384C8.63379 11.3384 8.34716 11.6016 8.28744 11.7332Z" fill="#F86A42"/>
<path fill-rule="evenodd" clip-rule="evenodd" d="M5.42117 6.80016C5.42391 5.44665 6.15626 2.72767 9.06371 2.6799C12.698 2.62018 13.2437 5.84474 13.1243 6.80016C13.0048 7.75559 12.8257 10.1441 9.06371 10.0247C6.05414 9.92918 5.38136 7.83521 5.42117 6.80016ZM8.1083 6.38216C8.1083 7.04175 8.643 7.57644 9.30258 7.57644C9.96216 7.57644 10.4969 7.04175 10.4969 6.38216C10.4969 5.72258 9.96216 5.18789 9.30258 5.18789C8.643 5.18789 8.1083 5.72258 8.1083 6.38216Z" fill="#FFF3E1"/>
<path fill-rule="evenodd" clip-rule="evenodd" d="M9.30258 7.57644C8.643 7.57644 8.1083 7.04175 8.1083 6.38216C8.1083 5.72258 8.643 5.18789 9.30258 5.18789C9.96216 5.18789 10.4969 5.72258 10.4969 6.38216C10.4969 7.04175 9.96216 7.57644 9.30258 7.57644ZM9.89972 6.50159C9.89972 6.1718 9.63237 5.90445 9.30258 5.90445C8.97279 5.90445 8.70544 6.1718 8.70544 6.50159C8.70544 6.83138 8.97279 7.09873 9.30258 7.09873C9.63237 7.09873 9.89972 6.83138 9.89972 6.50159Z" fill="#E55796"/>
<path d="M9.30258 5.90445C9.63237 5.90445 9.89972 6.1718 9.89972 6.50159C9.89972 6.83138 9.63237 7.09873 9.30258 7.09873C8.97279 7.09873 8.70544 6.83138 8.70544 6.50159C8.70544 6.1718 8.97279 5.90445 9.30258 5.90445Z" fill="#664A4E"/>
</svg>
