<svg width="40" height="40" viewBox="0 0 40 40" fill="none" xmlns="http://www.w3.org/2000/svg">
<path fill-rule="evenodd" clip-rule="evenodd" d="M40 10C40 4.47715 35.5228 0 30 0H10C4.47715 0 0 4.47715 0 10V30C0 35.5228 4.47715 40 10 40H30C35.5228 40 40 35.5228 40 30V10Z" fill="#F09ECE"/>
<path d="M14.1191 29.5842L15.1536 33.2048L11.5329 32.1704L12.7278 30.9754L14.1191 29.5842Z" fill="#EC098E"/>
<path d="M30.6706 28.0325V23.8946L33.2568 25.4463L32.1099 26.5932L30.6706 28.0325Z" fill="#EC098E"/>
<path d="M15.1536 33.2048C12.7399 30.8773 7.257 26.2735 6.36062 24.9291C5.32608 23.3774 6.87787 21.8257 8.42956 20.2739C9.46395 19.2395 11.0157 20.0153 12.0502 20.7912L24.4639 30.1014C27.05 31.9117 27.05 30.1014 27.05 29.0669V14.2308L30.6706 16.5385L34.4872 10.3846L25.2564 5C24.3162 6.02564 21.9231 8.07692 19.8718 8.07692C17.8205 8.07692 15.8716 6.02564 15.1536 5L5 10.3846L8.42956 16.5385L12.9487 14.2308V19.359M15.1536 33.2048L14.1191 29.5842L11.5329 32.1704L15.1536 33.2048ZM12.0502 24.9291L24.2052 33.9807C26.7913 36.0496 34.3947 35.429 32.7396 27.7739L30.6706 23.8946M30.6706 23.8946V28.0325L33.2568 25.4463L30.6706 23.8946Z" stroke="#EC098E" stroke-width="0.5"/>
</svg>
