<svg width="17" height="17" viewBox="0 0 17 17" fill="none" xmlns="http://www.w3.org/2000/svg">
<path d="M8.5 16C12.6421 16 16 12.6421 16 8.5C16 8.35934 15.9961 8.21958 15.9885 8.08083C14.8342 10.8971 11.9167 12.8966 8.5 12.8966C5.0833 12.8966 2.1658 10.8971 1.01152 8.08083C1.00387 8.21958 1 8.35934 1 8.5C1 12.6421 4.35786 16 8.5 16Z" fill="#FEEA41"/>
<path d="M1.01152 8.08083C2.1658 10.8971 5.0833 12.8966 8.5 12.8966C11.9167 12.8966 14.8342 10.8971 15.9885 8.08083C15.771 4.13368 12.5015 1 8.5 1C4.49853 1 1.22896 4.13368 1.01152 8.08083Z" fill="#FDEEA9"/>
<path d="M13.4138 11.8621C13.931 12.6379 11.3296 14.7069 8.75862 14.7069C6.18764 14.7069 3.84483 12.8966 3.06897 10.9136C3.06897 9.1996 6.18764 8.75862 8.75862 8.75862C11.3296 8.75862 13.4138 10.1481 13.4138 11.8621Z" fill="white"/>
<path d="M6.68499 2.27765C6.73363 2.41195 6.44644 2.63909 6.04355 2.78499C5.64066 2.9309 5.27462 2.9403 5.22599 2.806C5.17736 2.67171 5.46454 2.44456 5.86743 2.29866C6.27033 2.15276 6.63636 2.14335 6.68499 2.27765Z" fill="white"/>
<path d="M3.46232 4.56402C2.88482 5.19721 2.33112 5.63249 2.22559 5.53624C2.12005 5.43999 2.50265 4.84866 3.08015 4.21547C3.65765 3.58227 4.21135 3.14699 4.31688 3.24324C4.42242 3.33949 4.03981 3.93082 3.46232 4.56402Z" fill="white"/>
<path d="M8.5 16C12.6421 16 16 12.6421 16 8.5C16 4.35786 12.6421 1 8.5 1C4.35786 1 1 4.35786 1 8.5C1 12.6421 4.35786 16 8.5 16Z" stroke="#D0711F" stroke-width="0.5"/>
<path d="M5.65521 11.8621C5.65521 8.71979 8.20255 6.17245 11.3449 6.17245C12.0691 6.17245 12.7618 6.30777 13.3989 6.55451C12.4624 4.49837 10.3895 3.069 7.98279 3.069C6.47184 3.069 5.09246 3.63236 4.04326 4.5605C3.11512 5.6097 2.55176 6.98908 2.55176 8.50003C2.55176 10.9068 3.98112 12.9797 6.03726 13.9161C5.79053 13.279 5.65521 12.5864 5.65521 11.8621Z" fill="#FFA800"/>
<path d="M11.3449 6.17245C8.20255 6.17245 5.65521 8.71979 5.65521 11.8621C5.65521 12.5864 5.79053 13.279 6.03726 13.9161C6.7877 14.2579 7.62163 14.4483 8.50003 14.4483C10.011 14.4483 11.3904 13.8849 12.4396 12.9568C13.3677 11.9076 13.9311 10.5282 13.9311 9.01728C13.9311 8.13888 13.7407 7.30495 13.3989 6.55451C12.7618 6.30777 12.0691 6.17245 11.3449 6.17245Z" fill="#FFB400"/>
<path d="M14.2493 6.9686C13.5737 4.42561 11.2557 2.55176 8.50003 2.55176C6.72585 2.55176 5.13308 3.32851 4.04326 4.5605C5.09246 3.63236 6.47184 3.069 7.98279 3.069C10.3895 3.069 12.4624 4.49837 13.3989 6.55451C13.6952 6.66924 13.9794 6.80808 14.2493 6.9686Z" fill="#D0711F"/>
<path d="M14.4483 8.50003C14.4483 7.97055 14.3791 7.45722 14.2493 6.9686C13.9794 6.80808 13.6952 6.66924 13.3989 6.55451C13.7407 7.30495 13.9311 8.13888 13.9311 9.01728C13.9311 10.5282 13.3677 11.9076 12.4396 12.9568C13.6716 11.867 14.4483 10.2742 14.4483 8.50003Z" fill="#D0711F"/>
</svg>
