<svg width="37" height="23" viewBox="0 0 37 23" fill="none" xmlns="http://www.w3.org/2000/svg">
<path d="M12.4995 1H26.7862L25.8681 5.00027M22.7859 18.4297L25.8681 5.00027M8.78496 18.4297C8.78496 16.2204 10.5759 14.4295 12.7852 14.4295C14.9945 14.4295 16.7855 16.2204 16.7855 18.4297M8.78496 18.4297C8.78496 20.639 10.5759 22.43 12.7852 22.43C14.9945 22.43 16.7855 20.639 16.7855 18.4297M8.78496 18.4297H5.35616L6.21336 14.1437M16.7855 18.4297H25.0718M25.0718 18.4297C25.0718 16.2204 26.8627 14.4295 29.072 14.4295C31.2813 14.4295 33.0723 16.2204 33.0723 18.4297M25.0718 18.4297C25.0718 20.639 26.8627 22.43 29.072 22.43C31.2813 22.43 33.0723 20.639 33.0723 18.4297M33.0723 18.4297H35.0724L36.2154 13.0008L33.0723 10.7149L31.0722 5.00027H25.8681M4.21322 11.0007H13.071M14.7854 11.0007H18.2142M0.784424 7.57187H5.64189M7.07056 7.57187H16.7855M2.78456 4.14307H14.4996M5.64189 1H10.4994M28.2148 7.28613L27.6434 10.7149H30.215" stroke="black" stroke-width="0.5" stroke-linecap="round"/>
</svg>
