<svg width="40" height="40" viewBox="0 0 40 40" fill="none" xmlns="http://www.w3.org/2000/svg">
<path fill-rule="evenodd" clip-rule="evenodd" d="M40 10C40 4.47715 35.5228 0 30 0H10C4.47715 0 0 4.47715 0 10V30C0 35.5228 4.47715 40 10 40H30C35.5228 40 40 35.5228 40 30V10Z" fill="#C9F6EE"/>
<path d="M14.5153 29.971L15.476 33.3331L12.1139 32.3725L13.2235 31.2629L14.5153 29.971Z" fill="#81CFC1"/>
<path d="M29.8846 28.5302V24.6878L32.2861 26.1287L31.2211 27.1937L29.8846 28.5302Z" fill="#81CFC1"/>
<path d="M15.476 33.3331C13.2346 31.1718 8.1434 26.8969 7.31105 25.6484C6.35041 24.2075 7.79135 22.7667 9.23221 21.3258C10.1927 20.3653 11.6336 21.0856 12.5943 21.8061L24.1212 30.4513C26.5227 32.1323 26.5227 30.4513 26.5227 29.4907V27.8571L21.7619 23.0952V19.2857C23.3492 19.0476 26.5238 17.5714 26.5238 13.5714C26.5238 9.57143 24.9365 6.19048 24.1429 5H15.5714C14.7778 6.11111 13.1429 9.38095 12.9524 13.5714C12.7619 17.7619 16.2063 19.127 17.9524 19.2857V23.0952M15.476 33.3331L14.5153 29.971L12.1139 32.3725L15.476 33.3331ZM12.5943 25.6484L23.881 34.0535C26.2825 35.9747 33.3427 35.3983 31.8058 28.29L29.8846 24.6878M29.8846 24.6878V28.5302L32.2861 26.1287L29.8846 24.6878Z" stroke="#81CFC1" stroke-width="0.5"/>
</svg>
