<svg width="20" height="24" viewBox="0 0 20 24" fill="none" xmlns="http://www.w3.org/2000/svg">
<path d="M4.72179 12.4183C6.00279 13.9759 7.94488 14.9692 10.119 14.9692C10.442 14.9692 10.76 14.9472 11.0714 14.9048M4.72179 12.4183C3.72991 11.2123 3.13438 9.66798 3.13438 7.98459C3.13438 4.12711 6.26149 1 10.119 1C13.9765 1 17.1036 4.12711 17.1036 7.98459C17.1036 11.519 14.4783 14.4403 11.0714 14.9048M4.72179 12.4183L1.22949 20.5251L4.48368 19.5727L5.91234 22.43L8.69031 15.8423M11.0714 14.9048L14.0875 22.2713L15.5955 19.5727L18.7703 20.5251L15.8336 13.5405M15.6749 7.98459C15.6749 11.053 13.1874 13.5405 10.119 13.5405C7.05052 13.5405 4.56305 11.053 4.56305 7.98459C4.56305 4.91614 7.05052 2.42867 10.119 2.42867C13.1874 2.42867 15.6749 4.91614 15.6749 7.98459ZM8.69031 6.0797L10.0396 3.77796L11.4683 6.0797L14.0081 6.71467L12.3413 8.69893L12.5001 11.3975L10.0396 10.3657L7.65849 11.3975L7.73786 8.69893L5.91234 6.71467L8.69031 6.0797Z" stroke="black" stroke-width="0.5" stroke-linecap="round"/>
</svg>
