<svg width="103" height="121" viewBox="0 0 103 121" fill="none" xmlns="http://www.w3.org/2000/svg">
<path d="M38.5 120C42.6421 120 46 116.642 46 112.5C46 112.359 45.9961 112.22 45.9885 112.081C44.8342 114.897 41.9167 116.897 38.5 116.897C35.0833 116.897 32.1658 114.897 31.0115 112.081C31.0039 112.22 31 112.359 31 112.5C31 116.642 34.3579 120 38.5 120Z" fill="#FEEA41"/>
<path d="M31.0115 112.081C32.1658 114.897 35.0833 116.897 38.5 116.897C41.9167 116.897 44.8342 114.897 45.9885 112.081C45.771 108.134 42.5015 105 38.5 105C34.4985 105 31.229 108.134 31.0115 112.081Z" fill="#FDEEA9"/>
<path d="M43.4138 115.862C43.931 116.638 41.3296 118.707 38.7586 118.707C36.1876 118.707 33.8448 116.897 33.069 114.914C33.069 113.2 36.1876 112.759 38.7586 112.759C41.3296 112.759 43.4138 114.148 43.4138 115.862Z" fill="white"/>
<path d="M36.685 106.278C36.7336 106.412 36.4464 106.639 36.0436 106.785C35.6407 106.931 35.2746 106.94 35.226 106.806C35.1774 106.672 35.4645 106.445 35.8674 106.299C36.2703 106.153 36.6364 106.143 36.685 106.278Z" fill="white"/>
<path d="M33.4623 108.564C32.8848 109.197 32.3311 109.632 32.2256 109.536C32.1201 109.44 32.5027 108.849 33.0802 108.215C33.6576 107.582 34.2114 107.147 34.3169 107.243C34.4224 107.339 34.0398 107.931 33.4623 108.564Z" fill="white"/>
<path d="M38.5 120C42.6421 120 46 116.642 46 112.5C46 108.358 42.6421 105 38.5 105C34.3579 105 31 108.358 31 112.5C31 116.642 34.3579 120 38.5 120Z" stroke="#D0711F" stroke-width="0.5"/>
<path d="M35.6552 115.862C35.6552 112.72 38.2026 110.172 41.3449 110.172C42.0691 110.172 42.7618 110.308 43.3989 110.555C42.4624 108.498 40.3895 107.069 37.9828 107.069C36.4718 107.069 35.0925 107.632 34.0433 108.56C33.1151 109.61 32.5518 110.989 32.5518 112.5C32.5518 114.907 33.9811 116.98 36.0373 117.916C35.7905 117.279 35.6552 116.586 35.6552 115.862Z" fill="#FFA800"/>
<path d="M41.3449 110.172C38.2026 110.172 35.6552 112.72 35.6552 115.862C35.6552 116.586 35.7905 117.279 36.0373 117.916C36.7877 118.258 37.6216 118.448 38.5 118.448C40.011 118.448 41.3904 117.885 42.4396 116.957C43.3677 115.908 43.9311 114.528 43.9311 113.017C43.9311 112.139 43.7407 111.305 43.3989 110.555C42.7618 110.308 42.0691 110.172 41.3449 110.172Z" fill="#FFB400"/>
<path d="M44.2493 110.969C43.5737 108.426 41.2557 106.552 38.5 106.552C36.7258 106.552 35.1331 107.329 34.0433 108.56C35.0925 107.632 36.4718 107.069 37.9828 107.069C40.3895 107.069 42.4624 108.498 43.3989 110.555C43.6952 110.669 43.9794 110.808 44.2493 110.969Z" fill="#D0711F"/>
<path d="M44.4483 112.5C44.4483 111.971 44.3791 111.457 44.2493 110.969C43.9794 110.808 43.6952 110.669 43.3989 110.555C43.7407 111.305 43.9311 112.139 43.9311 113.017C43.9311 114.528 43.3677 115.908 42.4396 116.957C43.6716 115.867 44.4483 114.274 44.4483 112.5Z" fill="#D0711F"/>
<path d="M55.733 108.96V108.468H57.509V117H56.969V108.96H55.733ZM59.3665 112.692C59.3665 111.308 59.5665 110.244 59.9665 109.5C60.3665 108.748 61.1025 108.372 62.1745 108.372C63.2385 108.372 63.9705 108.748 64.3705 109.5C64.7705 110.244 64.9705 111.308 64.9705 112.692C64.9705 114.092 64.7705 115.172 64.3705 115.932C63.9705 116.684 63.2385 117.06 62.1745 117.06C61.1025 117.06 60.3665 116.684 59.9665 115.932C59.5665 115.172 59.3665 114.092 59.3665 112.692ZM64.4425 112.692C64.4425 111.892 64.3825 111.216 64.2625 110.664C64.1505 110.112 63.9265 109.676 63.5905 109.356C63.2625 109.028 62.7905 108.864 62.1745 108.864C61.5585 108.864 61.0825 109.028 60.7465 109.356C60.4185 109.676 60.1945 110.112 60.0745 110.664C59.9625 111.216 59.9065 111.892 59.9065 112.692C59.9065 113.508 59.9625 114.196 60.0745 114.756C60.1945 115.308 60.4185 115.748 60.7465 116.076C61.0825 116.404 61.5585 116.568 62.1745 116.568C62.7905 116.568 63.2625 116.404 63.5905 116.076C63.9265 115.748 64.1505 115.308 64.2625 114.756C64.3825 114.196 64.4425 113.508 64.4425 112.692ZM66.5853 112.692C66.5853 111.308 66.7853 110.244 67.1853 109.5C67.5853 108.748 68.3213 108.372 69.3933 108.372C70.4573 108.372 71.1893 108.748 71.5893 109.5C71.9893 110.244 72.1893 111.308 72.1893 112.692C72.1893 114.092 71.9893 115.172 71.5893 115.932C71.1893 116.684 70.4573 117.06 69.3933 117.06C68.3213 117.06 67.5853 116.684 67.1853 115.932C66.7853 115.172 66.5853 114.092 66.5853 112.692ZM71.6613 112.692C71.6613 111.892 71.6013 111.216 71.4813 110.664C71.3693 110.112 71.1453 109.676 70.8093 109.356C70.4813 109.028 70.0093 108.864 69.3933 108.864C68.7773 108.864 68.3013 109.028 67.9653 109.356C67.6373 109.676 67.4133 110.112 67.2933 110.664C67.1813 111.216 67.1253 111.892 67.1253 112.692C67.1253 113.508 67.1813 114.196 67.2933 114.756C67.4133 115.308 67.6373 115.748 67.9653 116.076C68.3013 116.404 68.7773 116.568 69.3933 116.568C70.0093 116.568 70.4813 116.404 70.8093 116.076C71.1453 115.748 71.3693 115.308 71.4813 114.756C71.6013 114.196 71.6613 113.508 71.6613 112.692Z" fill="black"/>
<path d="M17.0265 6.368V10.177H20.6665V10.671H17.0265V14.506H21.0565V15H16.4415V5.874H21.0565V6.368H17.0265ZM25.2192 14.363L27.8192 7.941H28.4432L25.5182 15H24.9072L21.9822 7.941H22.6192L25.2192 14.363ZM36.0905 10.996C36.0905 11.308 36.0818 11.542 36.0645 11.698H29.9675C29.9848 12.3307 30.1235 12.8637 30.3835 13.297C30.6435 13.7303 30.9858 14.0553 31.4105 14.272C31.8351 14.4887 32.2988 14.597 32.8015 14.597C33.4948 14.597 34.0755 14.428 34.5435 14.09C35.0115 13.7433 35.3061 13.2753 35.4275 12.686H36.0385C35.8998 13.4053 35.5445 13.9903 34.9725 14.441C34.4005 14.883 33.6768 15.104 32.8015 15.104C32.1428 15.104 31.5535 14.9567 31.0335 14.662C30.5135 14.3673 30.1061 13.947 29.8115 13.401C29.5168 12.8463 29.3695 12.2007 29.3695 11.464C29.3695 10.7273 29.5125 10.086 29.7985 9.54C30.0931 8.994 30.5005 8.578 31.0205 8.292C31.5405 7.99733 32.1341 7.85 32.8015 7.85C33.4775 7.85 34.0625 7.99733 34.5565 8.292C35.0591 8.578 35.4405 8.96367 35.7005 9.449C35.9605 9.92567 36.0905 10.4413 36.0905 10.996ZM35.5055 11.217C35.5315 10.593 35.4188 10.0643 35.1675 9.631C34.9248 9.19767 34.5911 8.877 34.1665 8.669C33.7418 8.45233 33.2825 8.344 32.7885 8.344C32.2945 8.344 31.8351 8.45233 31.4105 8.669C30.9945 8.877 30.6521 9.19767 30.3835 9.631C30.1235 10.0643 29.9848 10.593 29.9675 11.217H35.5055ZM38.4435 9.397C38.6168 8.877 38.9245 8.48267 39.3665 8.214C39.8085 7.93667 40.3718 7.798 41.0565 7.798V8.409H40.8615C40.1681 8.409 39.5918 8.60833 39.1325 9.007C38.6731 9.397 38.4435 10.0383 38.4435 10.931V15H37.8585V7.941H38.4435V9.397ZM47.9154 7.941L43.8074 18.315H43.2094L44.5224 15L41.5584 7.941H42.1954L44.8474 14.35L47.3174 7.941H47.9154ZM53.4747 9.8C53.6741 9.228 54.0337 8.76 54.5537 8.396C55.0824 8.032 55.7194 7.85 56.4647 7.85C57.1234 7.85 57.7084 7.99733 58.2197 8.292C58.7397 8.58667 59.1427 9.007 59.4287 9.553C59.7234 10.099 59.8707 10.736 59.8707 11.464C59.8707 12.192 59.7234 12.8333 59.4287 13.388C59.1427 13.934 58.7397 14.3587 58.2197 14.662C57.7084 14.9567 57.1234 15.104 56.4647 15.104C55.7281 15.104 55.0954 14.922 54.5667 14.558C54.0467 14.1853 53.6827 13.7173 53.4747 13.154V18.328H52.8897V7.941H53.4747V9.8ZM59.2727 11.464C59.2727 10.8227 59.1514 10.268 58.9087 9.8C58.6661 9.332 58.3237 8.97667 57.8817 8.734C57.4484 8.48267 56.9457 8.357 56.3737 8.357C55.8277 8.357 55.3337 8.487 54.8917 8.747C54.4497 8.99833 54.1031 9.36233 53.8517 9.839C53.6004 10.307 53.4747 10.8487 53.4747 11.464C53.4747 12.088 53.6004 12.6383 53.8517 13.115C54.1031 13.583 54.4497 13.947 54.8917 14.207C55.3337 14.4583 55.8277 14.584 56.3737 14.584C56.9457 14.584 57.4484 14.4583 57.8817 14.207C58.3237 13.9557 58.6661 13.596 58.9087 13.128C59.1514 12.66 59.2727 12.1053 59.2727 11.464ZM61.9358 6.368C61.7971 6.368 61.6801 6.32467 61.5848 6.238C61.4895 6.14267 61.4418 6.017 61.4418 5.861C61.4418 5.71367 61.4895 5.59233 61.5848 5.497C61.6801 5.40167 61.7971 5.354 61.9358 5.354C62.0745 5.354 62.1915 5.40167 62.2868 5.497C62.3821 5.59233 62.4298 5.71367 62.4298 5.861C62.4298 6.017 62.3821 6.14267 62.2868 6.238C62.1915 6.32467 62.0745 6.368 61.9358 6.368ZM62.2218 7.941V15H61.6368V7.941H62.2218ZM70.7233 10.996C70.7233 11.308 70.7146 11.542 70.6973 11.698H64.6003C64.6176 12.3307 64.7563 12.8637 65.0163 13.297C65.2763 13.7303 65.6186 14.0553 66.0433 14.272C66.468 14.4887 66.9316 14.597 67.4343 14.597C68.1276 14.597 68.7083 14.428 69.1763 14.09C69.6443 13.7433 69.939 13.2753 70.0603 12.686H70.6713C70.5326 13.4053 70.1773 13.9903 69.6053 14.441C69.0333 14.883 68.3096 15.104 67.4343 15.104C66.7756 15.104 66.1863 14.9567 65.6663 14.662C65.1463 14.3673 64.739 13.947 64.4443 13.401C64.1496 12.8463 64.0023 12.2007 64.0023 11.464C64.0023 10.7273 64.1453 10.086 64.4313 9.54C64.726 8.994 65.1333 8.578 65.6533 8.292C66.1733 7.99733 66.767 7.85 67.4343 7.85C68.1103 7.85 68.6953 7.99733 69.1893 8.292C69.692 8.578 70.0733 8.96367 70.3333 9.449C70.5933 9.92567 70.7233 10.4413 70.7233 10.996ZM70.1383 11.217C70.1643 10.593 70.0516 10.0643 69.8003 9.631C69.5576 9.19767 69.224 8.877 68.7993 8.669C68.3746 8.45233 67.9153 8.344 67.4213 8.344C66.9273 8.344 66.468 8.45233 66.0433 8.669C65.6273 8.877 65.285 9.19767 65.0163 9.631C64.7563 10.0643 64.6176 10.593 64.6003 11.217H70.1383ZM72.1273 11.464C72.1273 10.7273 72.2703 10.086 72.5563 9.54C72.851 8.994 73.254 8.578 73.7653 8.292C74.2853 7.99733 74.879 7.85 75.5463 7.85C76.4303 7.85 77.154 8.071 77.7173 8.513C78.2893 8.955 78.6446 9.54867 78.7833 10.294H78.1723C78.0596 9.68733 77.765 9.21067 77.2883 8.864C76.8203 8.51733 76.2396 8.344 75.5463 8.344C75.0263 8.344 74.554 8.461 74.1293 8.695C73.7046 8.92033 73.3623 9.27133 73.1023 9.748C72.851 10.216 72.7253 10.788 72.7253 11.464C72.7253 12.1487 72.851 12.725 73.1023 13.193C73.3623 13.661 73.7046 14.012 74.1293 14.246C74.554 14.48 75.0263 14.597 75.5463 14.597C76.2396 14.597 76.8203 14.4237 77.2883 14.077C77.765 13.7303 78.0596 13.2537 78.1723 12.647H78.7833C78.6446 13.3837 78.2893 13.9773 77.7173 14.428C77.1453 14.8787 76.4216 15.104 75.5463 15.104C74.879 15.104 74.2853 14.9567 73.7653 14.662C73.254 14.3673 72.851 13.947 72.5563 13.401C72.2703 12.8463 72.1273 12.2007 72.1273 11.464ZM86.9225 10.996C86.9225 11.308 86.9138 11.542 86.8965 11.698H80.7995C80.8168 12.3307 80.9555 12.8637 81.2155 13.297C81.4755 13.7303 81.8178 14.0553 82.2425 14.272C82.6672 14.4887 83.1308 14.597 83.6335 14.597C84.3268 14.597 84.9075 14.428 85.3755 14.09C85.8435 13.7433 86.1382 13.2753 86.2595 12.686H86.8705C86.7318 13.4053 86.3765 13.9903 85.8045 14.441C85.2325 14.883 84.5088 15.104 83.6335 15.104C82.9748 15.104 82.3855 14.9567 81.8655 14.662C81.3455 14.3673 80.9382 13.947 80.6435 13.401C80.3488 12.8463 80.2015 12.2007 80.2015 11.464C80.2015 10.7273 80.3445 10.086 80.6305 9.54C80.9252 8.994 81.3325 8.578 81.8525 8.292C82.3725 7.99733 82.9662 7.85 83.6335 7.85C84.3095 7.85 84.8945 7.99733 85.3885 8.292C85.8912 8.578 86.2725 8.96367 86.5325 9.449C86.7925 9.92567 86.9225 10.4413 86.9225 10.996ZM86.3375 11.217C86.3635 10.593 86.2508 10.0643 85.9995 9.631C85.7568 9.19767 85.4232 8.877 84.9985 8.669C84.5738 8.45233 84.1145 8.344 83.6205 8.344C83.1265 8.344 82.6672 8.45233 82.2425 8.669C81.8265 8.877 81.4842 9.19767 81.2155 9.631C80.9555 10.0643 80.8168 10.593 80.7995 11.217H86.3375ZM4.03284 29.397C4.20617 28.877 4.51384 28.4827 4.95584 28.214C5.39784 27.9367 5.96117 27.798 6.64584 27.798V28.409H6.45084C5.7575 28.409 5.18117 28.6083 4.72184 29.007C4.2625 29.397 4.03284 30.0383 4.03284 30.931V35H3.44784V27.941H4.03284V29.397ZM14.3498 30.996C14.3498 31.308 14.3411 31.542 14.3238 31.698H8.22676C8.24409 32.3307 8.38276 32.8637 8.64276 33.297C8.90276 33.7303 9.24509 34.0553 9.66976 34.272C10.0944 34.4887 10.5581 34.597 11.0608 34.597C11.7541 34.597 12.3348 34.428 12.8028 34.09C13.2708 33.7433 13.5654 33.2753 13.6868 32.686H14.2978C14.1591 33.4053 13.8038 33.9903 13.2318 34.441C12.6598 34.883 11.9361 35.104 11.0608 35.104C10.4021 35.104 9.81276 34.9567 9.29276 34.662C8.77276 34.3673 8.36542 33.947 8.07076 33.401C7.77609 32.8463 7.62876 32.2007 7.62876 31.464C7.62876 30.7273 7.77176 30.086 8.05776 29.54C8.35242 28.994 8.75976 28.578 9.27976 28.292C9.79976 27.9973 10.3934 27.85 11.0608 27.85C11.7368 27.85 12.3218 27.9973 12.8158 28.292C13.3184 28.578 13.6998 28.9637 13.9598 29.449C14.2198 29.9257 14.3498 30.4413 14.3498 30.996ZM13.7648 31.217C13.7908 30.593 13.6781 30.0643 13.4268 29.631C13.1841 29.1977 12.8504 28.877 12.4258 28.669C12.0011 28.4523 11.5418 28.344 11.0478 28.344C10.5538 28.344 10.0944 28.4523 9.66976 28.669C9.25376 28.877 8.91142 29.1977 8.64276 29.631C8.38276 30.0643 8.24409 30.593 8.22676 31.217H13.7648ZM15.7538 31.464C15.7538 30.7273 15.8968 30.086 16.1828 29.54C16.4774 28.994 16.8804 28.578 17.3918 28.292C17.9118 27.9973 18.5054 27.85 19.1728 27.85C20.0568 27.85 20.7804 28.071 21.3438 28.513C21.9158 28.955 22.2711 29.5487 22.4098 30.294H21.7988C21.6861 29.6873 21.3914 29.2107 20.9148 28.864C20.4468 28.5173 19.8661 28.344 19.1728 28.344C18.6528 28.344 18.1804 28.461 17.7558 28.695C17.3311 28.9203 16.9888 29.2713 16.7288 29.748C16.4774 30.216 16.3518 30.788 16.3518 31.464C16.3518 32.1487 16.4774 32.725 16.7288 33.193C16.9888 33.661 17.3311 34.012 17.7558 34.246C18.1804 34.48 18.6528 34.597 19.1728 34.597C19.8661 34.597 20.4468 34.4237 20.9148 34.077C21.3914 33.7303 21.6861 33.2537 21.7988 32.647H22.4098C22.2711 33.3837 21.9158 33.9773 21.3438 34.428C20.7718 34.8787 20.0481 35.104 19.1728 35.104C18.5054 35.104 17.9118 34.9567 17.3918 34.662C16.8804 34.3673 16.4774 33.947 16.1828 33.401C15.8968 32.8463 15.7538 32.2007 15.7538 31.464ZM29.704 27.941L25.596 38.315H24.998L26.311 35L23.347 27.941H23.984L26.636 34.35L29.106 27.941H29.704ZM30.6454 31.464C30.6454 30.7273 30.7884 30.086 31.0744 29.54C31.369 28.994 31.772 28.578 32.2834 28.292C32.8034 27.9973 33.397 27.85 34.0644 27.85C34.9484 27.85 35.672 28.071 36.2354 28.513C36.8074 28.955 37.1627 29.5487 37.3014 30.294H36.6904C36.5777 29.6873 36.283 29.2107 35.8064 28.864C35.3384 28.5173 34.7577 28.344 34.0644 28.344C33.5444 28.344 33.072 28.461 32.6474 28.695C32.2227 28.9203 31.8804 29.2713 31.6204 29.748C31.369 30.216 31.2434 30.788 31.2434 31.464C31.2434 32.1487 31.369 32.725 31.6204 33.193C31.8804 33.661 32.2227 34.012 32.6474 34.246C33.072 34.48 33.5444 34.597 34.0644 34.597C34.7577 34.597 35.3384 34.4237 35.8064 34.077C36.283 33.7303 36.5777 33.2537 36.6904 32.647H37.3014C37.1627 33.3837 36.8074 33.9773 36.2354 34.428C35.6634 34.8787 34.9397 35.104 34.0644 35.104C33.397 35.104 32.8034 34.9567 32.2834 34.662C31.772 34.3673 31.369 33.947 31.0744 33.401C30.7884 32.8463 30.6454 32.2007 30.6454 31.464ZM39.6686 25.38V35H39.0836V25.38H39.6686ZM48.1701 30.996C48.1701 31.308 48.1614 31.542 48.1441 31.698H42.0471C42.0644 32.3307 42.2031 32.8637 42.4631 33.297C42.7231 33.7303 43.0654 34.0553 43.4901 34.272C43.9147 34.4887 44.3784 34.597 44.8811 34.597C45.5744 34.597 46.1551 34.428 46.6231 34.09C47.0911 33.7433 47.3857 33.2753 47.5071 32.686H48.1181C47.9794 33.4053 47.6241 33.9903 47.0521 34.441C46.4801 34.883 45.7564 35.104 44.8811 35.104C44.2224 35.104 43.6331 34.9567 43.1131 34.662C42.5931 34.3673 42.1857 33.947 41.8911 33.401C41.5964 32.8463 41.4491 32.2007 41.4491 31.464C41.4491 30.7273 41.5921 30.086 41.8781 29.54C42.1727 28.994 42.5801 28.578 43.1001 28.292C43.6201 27.9973 44.2137 27.85 44.8811 27.85C45.5571 27.85 46.1421 27.9973 46.6361 28.292C47.1387 28.578 47.5201 28.9637 47.7801 29.449C48.0401 29.9257 48.1701 30.4413 48.1701 30.996ZM47.5851 31.217C47.6111 30.593 47.4984 30.0643 47.2471 29.631C47.0044 29.1977 46.6707 28.877 46.2461 28.669C45.8214 28.4523 45.3621 28.344 44.8681 28.344C44.3741 28.344 43.9147 28.4523 43.4901 28.669C43.0741 28.877 42.7317 29.1977 42.4631 29.631C42.2031 30.0643 42.0644 30.593 42.0471 31.217H47.5851ZM49.5741 31.464C49.5741 30.736 49.7171 30.099 50.0031 29.553C50.2977 29.007 50.7007 28.5867 51.2121 28.292C51.7321 27.9973 52.3214 27.85 52.9801 27.85C53.6994 27.85 54.3234 28.032 54.8521 28.396C55.3807 28.7513 55.7534 29.215 55.9701 29.787V25.38H56.5551V35H55.9701V33.128C55.7621 33.7087 55.3981 34.1853 54.8781 34.558C54.3581 34.922 53.7254 35.104 52.9801 35.104C52.3214 35.104 51.7321 34.9567 51.2121 34.662C50.7007 34.3587 50.2977 33.934 50.0031 33.388C49.7171 32.8333 49.5741 32.192 49.5741 31.464ZM55.9701 31.464C55.9701 30.8487 55.8401 30.307 55.5801 29.839C55.3287 29.3623 54.9821 28.9983 54.5401 28.747C54.0981 28.487 53.6041 28.357 53.0581 28.357C52.4861 28.357 51.9834 28.4827 51.5501 28.734C51.1167 28.9767 50.7787 29.332 50.5361 29.8C50.2934 30.268 50.1721 30.8227 50.1721 31.464C50.1721 32.1053 50.2934 32.66 50.5361 33.128C50.7787 33.596 51.1167 33.9557 51.5501 34.207C51.9921 34.4583 52.4947 34.584 53.0581 34.584C53.6041 34.584 54.0981 34.4583 54.5401 34.207C54.9907 33.947 55.3417 33.583 55.5931 33.115C55.8444 32.6383 55.9701 32.088 55.9701 31.464ZM62.9391 29.8C63.1558 29.228 63.5241 28.76 64.0441 28.396C64.5641 28.032 65.1924 27.85 65.9291 27.85C66.5878 27.85 67.1728 27.9973 67.6841 28.292C68.2041 28.5867 68.6071 29.007 68.8931 29.553C69.1878 30.099 69.3351 30.736 69.3351 31.464C69.3351 32.192 69.1878 32.8333 68.8931 33.388C68.6071 33.934 68.2041 34.3587 67.6841 34.662C67.1728 34.9567 66.5878 35.104 65.9291 35.104C65.1924 35.104 64.5598 34.922 64.0311 34.558C63.5111 34.194 63.1471 33.726 62.9391 33.154V35H62.3541V25.38H62.9391V29.8ZM68.7371 31.464C68.7371 30.8227 68.6158 30.268 68.3731 29.8C68.1304 29.332 67.7881 28.9767 67.3461 28.734C66.9128 28.4827 66.4101 28.357 65.8381 28.357C65.2921 28.357 64.7981 28.487 64.3561 28.747C63.9141 28.9983 63.5674 29.3623 63.3161 29.839C63.0648 30.307 62.9391 30.8487 62.9391 31.464C62.9391 32.088 63.0648 32.6383 63.3161 33.115C63.5674 33.583 63.9141 33.947 64.3561 34.207C64.7981 34.4583 65.2921 34.584 65.8381 34.584C66.4101 34.584 66.9128 34.4583 67.3461 34.207C67.7881 33.9557 68.1304 33.596 68.3731 33.128C68.6158 32.66 68.7371 32.1053 68.7371 31.464ZM71.6862 29.397C71.8595 28.877 72.1672 28.4827 72.6092 28.214C73.0512 27.9367 73.6145 27.798 74.2992 27.798V28.409H74.1042C73.4108 28.409 72.8345 28.6083 72.3752 29.007C71.9158 29.397 71.6862 30.0383 71.6862 30.931V35H71.1012V27.941H71.6862V29.397ZM75.9451 26.368C75.8064 26.368 75.6894 26.3247 75.5941 26.238C75.4987 26.1427 75.4511 26.017 75.4511 25.861C75.4511 25.7137 75.4987 25.5923 75.5941 25.497C75.6894 25.4017 75.8064 25.354 75.9451 25.354C76.0837 25.354 76.2007 25.4017 76.2961 25.497C76.3914 25.5923 76.4391 25.7137 76.4391 25.861C76.4391 26.017 76.3914 26.1427 76.2961 26.238C76.2007 26.3247 76.0837 26.368 75.9451 26.368ZM76.2311 27.941V35H75.6461V27.941H76.2311ZM81.5606 27.798C82.4012 27.798 83.0859 28.058 83.6146 28.578C84.1432 29.0893 84.4076 29.852 84.4076 30.866V35H83.8356V30.905C83.8356 30.0643 83.6232 29.423 83.1986 28.981C82.7739 28.5303 82.1976 28.305 81.4696 28.305C80.7069 28.305 80.0959 28.5477 79.6366 29.033C79.1859 29.5183 78.9606 30.2377 78.9606 31.191V35H78.3756V27.941H78.9606V29.436C79.1599 28.9073 79.4892 28.5043 79.9486 28.227C80.4166 27.941 80.9539 27.798 81.5606 27.798ZM89.5172 27.85C90.2625 27.85 90.8952 28.032 91.4152 28.396C91.9352 28.7513 92.2992 29.2107 92.5072 29.774V27.941H93.0922V35.221C93.0922 35.871 92.9492 36.4387 92.6632 36.924C92.3772 37.418 91.9915 37.795 91.5062 38.055C91.0208 38.3237 90.4792 38.458 89.8812 38.458C88.9972 38.458 88.2648 38.2457 87.6842 37.821C87.1035 37.3963 86.7222 36.8243 86.5402 36.105H87.1252C87.2985 36.6683 87.6235 37.1147 88.1002 37.444C88.5768 37.782 89.1705 37.951 89.8812 37.951C90.3752 37.951 90.8215 37.8383 91.2202 37.613C91.6188 37.3963 91.9308 37.08 92.1562 36.664C92.3902 36.2567 92.5072 35.7757 92.5072 35.221V33.154C92.2992 33.7173 91.9308 34.1853 91.4022 34.558C90.8822 34.922 90.2538 35.104 89.5172 35.104C88.8585 35.104 88.2692 34.9567 87.7492 34.662C87.2378 34.3587 86.8348 33.934 86.5402 33.388C86.2542 32.8333 86.1112 32.192 86.1112 31.464C86.1112 30.736 86.2542 30.099 86.5402 29.553C86.8348 29.007 87.2378 28.5867 87.7492 28.292C88.2692 27.9973 88.8585 27.85 89.5172 27.85ZM92.5072 31.464C92.5072 30.8487 92.3772 30.307 92.1172 29.839C91.8658 29.3623 91.5192 28.9983 91.0772 28.747C90.6352 28.487 90.1412 28.357 89.5952 28.357C89.0232 28.357 88.5205 28.4827 88.0872 28.734C87.6538 28.9767 87.3158 29.332 87.0732 29.8C86.8305 30.268 86.7092 30.8227 86.7092 31.464C86.7092 32.1053 86.8305 32.66 87.0732 33.128C87.3158 33.596 87.6538 33.9557 88.0872 34.207C88.5292 34.4583 89.0318 34.584 89.5952 34.584C90.1412 34.584 90.6352 34.4583 91.0772 34.207C91.5278 33.947 91.8788 33.583 92.1302 33.115C92.3815 32.6383 92.5072 32.088 92.5072 31.464ZM97.5753 35.104C96.7866 35.104 96.1409 34.9307 95.6383 34.584C95.1443 34.2373 94.8669 33.7433 94.8063 33.102H95.4043C95.4476 33.5613 95.6556 33.9253 96.0283 34.194C96.4096 34.4627 96.9253 34.597 97.5753 34.597C98.1126 34.597 98.5373 34.4627 98.8493 34.194C99.1699 33.9167 99.3303 33.5787 99.3303 33.18C99.3303 32.9027 99.2436 32.6773 99.0703 32.504C98.9056 32.322 98.6976 32.1833 98.4463 32.088C98.1949 31.9927 97.8526 31.8887 97.4193 31.776C96.8993 31.6373 96.4789 31.503 96.1583 31.373C95.8376 31.2343 95.5646 31.0307 95.3393 30.762C95.1139 30.4933 95.0013 30.1337 95.0013 29.683C95.0013 29.3537 95.1009 29.0503 95.3003 28.773C95.4996 28.487 95.7769 28.2617 96.1323 28.097C96.4876 27.9323 96.8906 27.85 97.3413 27.85C98.0779 27.85 98.6716 28.0363 99.1223 28.409C99.5816 28.773 99.8286 29.28 99.8633 29.93H99.2783C99.2523 29.462 99.0703 29.0807 98.7323 28.786C98.3943 28.4913 97.9263 28.344 97.3283 28.344C96.8256 28.344 96.4096 28.474 96.0803 28.734C95.7509 28.994 95.5863 29.3103 95.5863 29.683C95.5863 30.0123 95.6773 30.281 95.8593 30.489C96.0499 30.6883 96.2796 30.8443 96.5483 30.957C96.8256 31.061 97.1896 31.1737 97.6403 31.295C98.1343 31.425 98.5286 31.555 98.8233 31.685C99.1266 31.8063 99.3823 31.9883 99.5903 32.231C99.7983 32.465 99.9023 32.7813 99.9023 33.18C99.9023 33.544 99.8026 33.8733 99.6033 34.168C99.4039 34.4627 99.1266 34.6923 98.7713 34.857C98.4159 35.0217 98.0173 35.104 97.5753 35.104ZM15.7752 47.941V55H15.1902V53.466C14.9909 54.0033 14.6572 54.415 14.1892 54.701C13.7299 54.9783 13.2012 55.117 12.6032 55.117C11.7625 55.117 11.0735 54.8613 10.5362 54.35C10.0075 53.83 9.74319 53.063 9.74319 52.049V47.941H10.3152V52.01C10.3152 52.8507 10.5275 53.4963 10.9522 53.947C11.3769 54.389 11.9532 54.61 12.6812 54.61C13.4439 54.61 14.0505 54.3673 14.5012 53.882C14.9605 53.3967 15.1902 52.6773 15.1902 51.724V47.941H15.7752ZM20.2608 55.104C19.4721 55.104 18.8265 54.9307 18.3238 54.584C17.8298 54.2373 17.5525 53.7433 17.4918 53.102H18.0898C18.1331 53.5613 18.3411 53.9253 18.7138 54.194C19.0951 54.4627 19.6108 54.597 20.2608 54.597C20.7981 54.597 21.2228 54.4627 21.5348 54.194C21.8555 53.9167 22.0158 53.5787 22.0158 53.18C22.0158 52.9027 21.9291 52.6773 21.7558 52.504C21.5911 52.322 21.3831 52.1833 21.1318 52.088C20.8805 51.9927 20.5381 51.8887 20.1048 51.776C19.5848 51.6373 19.1645 51.503 18.8438 51.373C18.5231 51.2343 18.2501 51.0307 18.0248 50.762C17.7995 50.4933 17.6868 50.1337 17.6868 49.683C17.6868 49.3537 17.7865 49.0503 17.9858 48.773C18.1851 48.487 18.4625 48.2617 18.8178 48.097C19.1731 47.9323 19.5761 47.85 20.0268 47.85C20.7635 47.85 21.3571 48.0363 21.8078 48.409C22.2671 48.773 22.5141 49.28 22.5488 49.93H21.9638C21.9378 49.462 21.7558 49.0807 21.4178 48.786C21.0798 48.4913 20.6118 48.344 20.0138 48.344C19.5111 48.344 19.0951 48.474 18.7658 48.734C18.4365 48.994 18.2718 49.3103 18.2718 49.683C18.2718 50.0123 18.3628 50.281 18.5448 50.489C18.7355 50.6883 18.9651 50.8443 19.2338 50.957C19.5111 51.061 19.8751 51.1737 20.3258 51.295C20.8198 51.425 21.2141 51.555 21.5088 51.685C21.8121 51.8063 22.0678 51.9883 22.2758 52.231C22.4838 52.465 22.5878 52.7813 22.5878 53.18C22.5878 53.544 22.4881 53.8733 22.2888 54.168C22.0895 54.4627 21.8121 54.6923 21.4568 54.857C21.1015 55.0217 20.7028 55.104 20.2608 55.104ZM27.6747 51.464C27.6747 50.7273 27.8177 50.086 28.1037 49.54C28.3983 48.994 28.8013 48.578 29.3127 48.292C29.8327 47.9973 30.4263 47.85 31.0937 47.85C31.9777 47.85 32.7013 48.071 33.2647 48.513C33.8367 48.955 34.192 49.5487 34.3307 50.294H33.7197C33.607 49.6873 33.3123 49.2107 32.8357 48.864C32.3677 48.5173 31.787 48.344 31.0937 48.344C30.5737 48.344 30.1013 48.461 29.6767 48.695C29.252 48.9203 28.9097 49.2713 28.6497 49.748C28.3983 50.216 28.2727 50.788 28.2727 51.464C28.2727 52.1487 28.3983 52.725 28.6497 53.193C28.9097 53.661 29.252 54.012 29.6767 54.246C30.1013 54.48 30.5737 54.597 31.0937 54.597C31.787 54.597 32.3677 54.4237 32.8357 54.077C33.3123 53.7303 33.607 53.2537 33.7197 52.647H34.3307C34.192 53.3837 33.8367 53.9773 33.2647 54.428C32.6927 54.8787 31.969 55.104 31.0937 55.104C30.4263 55.104 29.8327 54.9567 29.3127 54.662C28.8013 54.3673 28.3983 53.947 28.1037 53.401C27.8177 52.8463 27.6747 52.2007 27.6747 51.464ZM36.6979 45.38V55H36.1129V45.38H36.6979ZM41.9494 55.104C41.2907 55.104 40.697 54.9567 40.1684 54.662C39.6397 54.3673 39.2237 53.947 38.9204 53.401C38.6257 52.8463 38.4784 52.2007 38.4784 51.464C38.4784 50.736 38.63 50.099 38.9334 49.553C39.2367 48.9983 39.6527 48.578 40.1814 48.292C40.7187 47.9973 41.3167 47.85 41.9754 47.85C42.634 47.85 43.2277 47.9973 43.7564 48.292C44.285 48.578 44.6967 48.994 44.9914 49.54C45.2947 50.086 45.4464 50.7273 45.4464 51.464C45.4464 52.2007 45.2947 52.8463 44.9914 53.401C44.688 53.947 44.2677 54.3673 43.7304 54.662C43.2017 54.9567 42.608 55.104 41.9494 55.104ZM41.9494 54.584C42.4607 54.584 42.9374 54.4713 43.3794 54.246C43.83 54.012 44.1897 53.661 44.4584 53.193C44.727 52.725 44.8614 52.1487 44.8614 51.464C44.8614 50.788 44.727 50.216 44.4584 49.748C44.1897 49.28 43.8344 48.9333 43.3924 48.708C42.9504 48.474 42.4737 48.357 41.9624 48.357C41.451 48.357 40.9744 48.474 40.5324 48.708C40.099 48.9333 39.748 49.28 39.4794 49.748C39.2107 50.216 39.0764 50.788 39.0764 51.464C39.0764 52.1487 39.2064 52.725 39.4664 53.193C39.735 53.661 40.086 54.012 40.5194 54.246C40.9614 54.4713 41.438 54.584 41.9494 54.584ZM49.5743 55.104C48.7856 55.104 48.1399 54.9307 47.6373 54.584C47.1433 54.2373 46.8659 53.7433 46.8053 53.102H47.4033C47.4466 53.5613 47.6546 53.9253 48.0273 54.194C48.4086 54.4627 48.9243 54.597 49.5743 54.597C50.1116 54.597 50.5363 54.4627 50.8483 54.194C51.1689 53.9167 51.3293 53.5787 51.3293 53.18C51.3293 52.9027 51.2426 52.6773 51.0693 52.504C50.9046 52.322 50.6966 52.1833 50.4453 52.088C50.1939 51.9927 49.8516 51.8887 49.4183 51.776C48.8983 51.6373 48.4779 51.503 48.1573 51.373C47.8366 51.2343 47.5636 51.0307 47.3383 50.762C47.1129 50.4933 47.0003 50.1337 47.0003 49.683C47.0003 49.3537 47.0999 49.0503 47.2993 48.773C47.4986 48.487 47.7759 48.2617 48.1313 48.097C48.4866 47.9323 48.8896 47.85 49.3403 47.85C50.0769 47.85 50.6706 48.0363 51.1213 48.409C51.5806 48.773 51.8276 49.28 51.8623 49.93H51.2773C51.2513 49.462 51.0693 49.0807 50.7313 48.786C50.3933 48.4913 49.9253 48.344 49.3273 48.344C48.8246 48.344 48.4086 48.474 48.0793 48.734C47.7499 48.994 47.5853 49.3103 47.5853 49.683C47.5853 50.0123 47.6763 50.281 47.8583 50.489C48.0489 50.6883 48.2786 50.8443 48.5473 50.957C48.8246 51.061 49.1886 51.1737 49.6393 51.295C50.1333 51.425 50.5276 51.555 50.8223 51.685C51.1256 51.8063 51.3813 51.9883 51.5893 52.231C51.7973 52.465 51.9013 52.7813 51.9013 53.18C51.9013 53.544 51.8016 53.8733 51.6023 54.168C51.4029 54.4627 51.1256 54.6923 50.7703 54.857C50.4149 55.0217 50.0163 55.104 49.5743 55.104ZM60.0402 50.996C60.0402 51.308 60.0315 51.542 60.0142 51.698H53.9172C53.9345 52.3307 54.0732 52.8637 54.3332 53.297C54.5932 53.7303 54.9355 54.0553 55.3602 54.272C55.7849 54.4887 56.2485 54.597 56.7512 54.597C57.4445 54.597 58.0252 54.428 58.4932 54.09C58.9612 53.7433 59.2559 53.2753 59.3772 52.686H59.9882C59.8495 53.4053 59.4942 53.9903 58.9222 54.441C58.3502 54.883 57.6265 55.104 56.7512 55.104C56.0925 55.104 55.5032 54.9567 54.9832 54.662C54.4632 54.3673 54.0559 53.947 53.7612 53.401C53.4665 52.8463 53.3192 52.2007 53.3192 51.464C53.3192 50.7273 53.4622 50.086 53.7482 49.54C54.0429 48.994 54.4502 48.578 54.9702 48.292C55.4902 47.9973 56.0839 47.85 56.7512 47.85C57.4272 47.85 58.0122 47.9973 58.5062 48.292C59.0089 48.578 59.3902 48.9637 59.6502 49.449C59.9102 49.9257 60.0402 50.4413 60.0402 50.996ZM59.4552 51.217C59.4812 50.593 59.3685 50.0643 59.1172 49.631C58.8745 49.1977 58.5409 48.877 58.1162 48.669C57.6915 48.4523 57.2322 48.344 56.7382 48.344C56.2442 48.344 55.7849 48.4523 55.3602 48.669C54.9442 48.877 54.6019 49.1977 54.3332 49.631C54.0732 50.0643 53.9345 50.593 53.9172 51.217H59.4552ZM62.3932 49.397C62.5665 48.877 62.8742 48.4827 63.3162 48.214C63.7582 47.9367 64.3215 47.798 65.0062 47.798V48.409H64.8112C64.1179 48.409 63.5415 48.6083 63.0822 49.007C62.6229 49.397 62.3932 50.0383 62.3932 50.931V55H61.8082V47.941H62.3932V49.397ZM70.8931 48.448V53.115C70.8931 53.635 70.9884 53.9947 71.1791 54.194C71.3697 54.3847 71.7077 54.48 72.1931 54.48H72.9861V55H72.1021C71.4867 55 71.0317 54.857 70.7371 54.571C70.4511 54.2763 70.3081 53.791 70.3081 53.115V48.448H69.2421V47.941H70.3081V46.147H70.8931V47.941H72.9861V48.448H70.8931ZM77.6359 55.104C76.9772 55.104 76.3836 54.9567 75.8549 54.662C75.3262 54.3673 74.9102 53.947 74.6069 53.401C74.3122 52.8463 74.1649 52.2007 74.1649 51.464C74.1649 50.736 74.3166 50.099 74.6199 49.553C74.9232 48.9983 75.3392 48.578 75.8679 48.292C76.4052 47.9973 77.0032 47.85 77.6619 47.85C78.3206 47.85 78.9142 47.9973 79.4429 48.292C79.9716 48.578 80.3832 48.994 80.6779 49.54C80.9812 50.086 81.1329 50.7273 81.1329 51.464C81.1329 52.2007 80.9812 52.8463 80.6779 53.401C80.3746 53.947 79.9542 54.3673 79.4169 54.662C78.8882 54.9567 78.2946 55.104 77.6359 55.104ZM77.6359 54.584C78.1472 54.584 78.6239 54.4713 79.0659 54.246C79.5166 54.012 79.8762 53.661 80.1449 53.193C80.4136 52.725 80.5479 52.1487 80.5479 51.464C80.5479 50.788 80.4136 50.216 80.1449 49.748C79.8762 49.28 79.5209 48.9333 79.0789 48.708C78.6369 48.474 78.1602 48.357 77.6489 48.357C77.1376 48.357 76.6609 48.474 76.2189 48.708C75.7856 48.9333 75.4346 49.28 75.1659 49.748C74.8972 50.216 74.7629 50.788 74.7629 51.464C74.7629 52.1487 74.8929 52.725 75.1529 53.193C75.4216 53.661 75.7726 54.012 76.2059 54.246C76.6479 54.4713 77.1246 54.584 77.6359 54.584ZM86.2127 51.464C86.2127 50.736 86.3557 50.099 86.6417 49.553C86.9364 49.007 87.3394 48.5867 87.8507 48.292C88.3707 47.9973 88.9601 47.85 89.6187 47.85C90.3641 47.85 90.9967 48.032 91.5167 48.396C92.0367 48.76 92.4007 49.2237 92.6087 49.787V47.941H93.1937V55H92.6087V53.141C92.4007 53.713 92.0324 54.1853 91.5037 54.558C90.9837 54.922 90.3554 55.104 89.6187 55.104C88.9601 55.104 88.3707 54.9567 87.8507 54.662C87.3394 54.3587 86.9364 53.934 86.6417 53.388C86.3557 52.8333 86.2127 52.192 86.2127 51.464ZM92.6087 51.464C92.6087 50.8487 92.4787 50.307 92.2187 49.839C91.9674 49.3623 91.6207 48.9983 91.1787 48.747C90.7367 48.487 90.2427 48.357 89.6967 48.357C89.1247 48.357 88.6221 48.4827 88.1887 48.734C87.7554 48.9767 87.4174 49.332 87.1747 49.8C86.9321 50.268 86.8107 50.8227 86.8107 51.464C86.8107 52.1053 86.9321 52.66 87.1747 53.128C87.4174 53.596 87.7554 53.9557 88.1887 54.207C88.6307 54.4583 89.1334 54.584 89.6967 54.584C90.2427 54.584 90.7367 54.4583 91.1787 54.207C91.6294 53.947 91.9804 53.583 92.2317 53.115C92.4831 52.6383 92.6087 52.088 92.6087 51.464ZM4.03598 71.464C4.03598 70.7273 4.17898 70.086 4.46498 69.54C4.75965 68.994 5.16265 68.578 5.67398 68.292C6.19398 67.9973 6.78765 67.85 7.45498 67.85C8.33898 67.85 9.06265 68.071 9.62598 68.513C10.198 68.955 10.5533 69.5487 10.692 70.294H10.081C9.96832 69.6873 9.67365 69.2107 9.19698 68.864C8.72898 68.5173 8.14832 68.344 7.45498 68.344C6.93498 68.344 6.46265 68.461 6.03798 68.695C5.61332 68.9203 5.27098 69.2713 5.01098 69.748C4.75965 70.216 4.63398 70.788 4.63398 71.464C4.63398 72.1487 4.75965 72.725 5.01098 73.193C5.27098 73.661 5.61332 74.012 6.03798 74.246C6.46265 74.48 6.93498 74.597 7.45498 74.597C8.14832 74.597 8.72898 74.4237 9.19698 74.077C9.67365 73.7303 9.96832 73.2537 10.081 72.647H10.692C10.5533 73.3837 10.198 73.9773 9.62598 74.428C9.05398 74.8787 8.33032 75.104 7.45498 75.104C6.78765 75.104 6.19398 74.9567 5.67398 74.662C5.16265 74.3673 4.75965 73.947 4.46498 73.401C4.17898 72.8463 4.03598 72.2007 4.03598 71.464ZM13.0592 65.38V75H12.4742V65.38H13.0592ZM21.5607 70.996C21.5607 71.308 21.552 71.542 21.5347 71.698H15.4377C15.455 72.3307 15.5937 72.8637 15.8537 73.297C16.1137 73.7303 16.456 74.0553 16.8807 74.272C17.3054 74.4887 17.769 74.597 18.2717 74.597C18.965 74.597 19.5457 74.428 20.0137 74.09C20.4817 73.7433 20.7764 73.2753 20.8977 72.686H21.5087C21.37 73.4053 21.0147 73.9903 20.4427 74.441C19.8707 74.883 19.147 75.104 18.2717 75.104C17.613 75.104 17.0237 74.9567 16.5037 74.662C15.9837 74.3673 15.5764 73.947 15.2817 73.401C14.987 72.8463 14.8397 72.2007 14.8397 71.464C14.8397 70.7273 14.9827 70.086 15.2687 69.54C15.5634 68.994 15.9707 68.578 16.4907 68.292C17.0107 67.9973 17.6044 67.85 18.2717 67.85C18.9477 67.85 19.5327 67.9973 20.0267 68.292C20.5294 68.578 20.9107 68.9637 21.1707 69.449C21.4307 69.9257 21.5607 70.4413 21.5607 70.996ZM20.9757 71.217C21.0017 70.593 20.889 70.0643 20.6377 69.631C20.395 69.1977 20.0614 68.877 19.6367 68.669C19.212 68.4523 18.7527 68.344 18.2587 68.344C17.7647 68.344 17.3054 68.4523 16.8807 68.669C16.4647 68.877 16.1224 69.1977 15.8537 69.631C15.5937 70.0643 15.455 70.593 15.4377 71.217H20.9757ZM22.9647 71.464C22.9647 70.736 23.1077 70.099 23.3937 69.553C23.6884 69.007 24.0914 68.5867 24.6027 68.292C25.1227 67.9973 25.712 67.85 26.3707 67.85C27.116 67.85 27.7487 68.032 28.2687 68.396C28.7887 68.76 29.1527 69.2237 29.3607 69.787V67.941H29.9457V75H29.3607V73.141C29.1527 73.713 28.7844 74.1853 28.2557 74.558C27.7357 74.922 27.1074 75.104 26.3707 75.104C25.712 75.104 25.1227 74.9567 24.6027 74.662C24.0914 74.3587 23.6884 73.934 23.3937 73.388C23.1077 72.8333 22.9647 72.192 22.9647 71.464ZM29.3607 71.464C29.3607 70.8487 29.2307 70.307 28.9707 69.839C28.7194 69.3623 28.3727 68.9983 27.9307 68.747C27.4887 68.487 26.9947 68.357 26.4487 68.357C25.8767 68.357 25.374 68.4827 24.9407 68.734C24.5074 68.9767 24.1694 69.332 23.9267 69.8C23.684 70.268 23.5627 70.8227 23.5627 71.464C23.5627 72.1053 23.684 72.66 23.9267 73.128C24.1694 73.596 24.5074 73.9557 24.9407 74.207C25.3827 74.4583 25.8854 74.584 26.4487 74.584C26.9947 74.584 27.4887 74.4583 27.9307 74.207C28.3814 73.947 28.7324 73.583 28.9837 73.115C29.235 72.6383 29.3607 72.088 29.3607 71.464ZM35.2608 67.798C36.1014 67.798 36.7861 68.058 37.3148 68.578C37.8434 69.0893 38.1078 69.852 38.1078 70.866V75H37.5358V70.905C37.5358 70.0643 37.3234 69.423 36.8988 68.981C36.4741 68.5303 35.8978 68.305 35.1698 68.305C34.4071 68.305 33.7961 68.5477 33.3368 69.033C32.8861 69.5183 32.6608 70.2377 32.6608 71.191V75H32.0758V67.941H32.6608V69.436C32.8601 68.9073 33.1894 68.5043 33.6488 68.227C34.1168 67.941 34.6541 67.798 35.2608 67.798ZM46.5324 70.996C46.5324 71.308 46.5237 71.542 46.5064 71.698H40.4094C40.4267 72.3307 40.5654 72.8637 40.8254 73.297C41.0854 73.7303 41.4277 74.0553 41.8524 74.272C42.277 74.4887 42.7407 74.597 43.2434 74.597C43.9367 74.597 44.5174 74.428 44.9854 74.09C45.4534 73.7433 45.748 73.2753 45.8694 72.686H46.4804C46.3417 73.4053 45.9864 73.9903 45.4144 74.441C44.8424 74.883 44.1187 75.104 43.2434 75.104C42.5847 75.104 41.9954 74.9567 41.4754 74.662C40.9554 74.3673 40.548 73.947 40.2534 73.401C39.9587 72.8463 39.8114 72.2007 39.8114 71.464C39.8114 70.7273 39.9544 70.086 40.2404 69.54C40.535 68.994 40.9424 68.578 41.4624 68.292C41.9824 67.9973 42.576 67.85 43.2434 67.85C43.9194 67.85 44.5044 67.9973 44.9984 68.292C45.501 68.578 45.8824 68.9637 46.1424 69.449C46.4024 69.9257 46.5324 70.4413 46.5324 70.996ZM45.9474 71.217C45.9734 70.593 45.8607 70.0643 45.6094 69.631C45.3667 69.1977 45.033 68.877 44.6084 68.669C44.1837 68.4523 43.7244 68.344 43.2304 68.344C42.7364 68.344 42.277 68.4523 41.8524 68.669C41.4364 68.877 41.094 69.1977 40.8254 69.631C40.5654 70.0643 40.4267 70.593 40.4094 71.217H45.9474ZM48.8854 69.397C49.0587 68.877 49.3664 68.4827 49.8084 68.214C50.2504 67.9367 50.8137 67.798 51.4984 67.798V68.409H51.3034C50.61 68.409 50.0337 68.6083 49.5744 69.007C49.115 69.397 48.8854 70.0383 48.8854 70.931V75H48.3004V67.941H48.8854V69.397ZM57.0992 69.8C57.2986 69.228 57.6582 68.76 58.1782 68.396C58.7069 68.032 59.3439 67.85 60.0892 67.85C60.7479 67.85 61.3329 67.9973 61.8442 68.292C62.3642 68.5867 62.7672 69.007 63.0532 69.553C63.3479 70.099 63.4952 70.736 63.4952 71.464C63.4952 72.192 63.3479 72.8333 63.0532 73.388C62.7672 73.934 62.3642 74.3587 61.8442 74.662C61.3329 74.9567 60.7479 75.104 60.0892 75.104C59.3526 75.104 58.7199 74.922 58.1912 74.558C57.6712 74.1853 57.3072 73.7173 57.0992 73.154V78.328H56.5142V67.941H57.0992V69.8ZM62.8972 71.464C62.8972 70.8227 62.7759 70.268 62.5332 69.8C62.2906 69.332 61.9482 68.9767 61.5062 68.734C61.0729 68.4827 60.5702 68.357 59.9982 68.357C59.4522 68.357 58.9582 68.487 58.5162 68.747C58.0742 68.9983 57.7276 69.3623 57.4762 69.839C57.2249 70.307 57.0992 70.8487 57.0992 71.464C57.0992 72.088 57.2249 72.6383 57.4762 73.115C57.7276 73.583 58.0742 73.947 58.5162 74.207C58.9582 74.4583 59.4522 74.584 59.9982 74.584C60.5702 74.584 61.0729 74.4583 61.5062 74.207C61.9482 73.9557 62.2906 73.596 62.5332 73.128C62.7759 72.66 62.8972 72.1053 62.8972 71.464ZM65.8463 65.38V75H65.2613V65.38H65.8463ZM67.6268 71.464C67.6268 70.736 67.7698 70.099 68.0558 69.553C68.3505 69.007 68.7535 68.5867 69.2648 68.292C69.7848 67.9973 70.3741 67.85 71.0328 67.85C71.7781 67.85 72.4108 68.032 72.9308 68.396C73.4508 68.76 73.8148 69.2237 74.0228 69.787V67.941H74.6078V75H74.0228V73.141C73.8148 73.713 73.4465 74.1853 72.9178 74.558C72.3978 74.922 71.7695 75.104 71.0328 75.104C70.3741 75.104 69.7848 74.9567 69.2648 74.662C68.7535 74.3587 68.3505 73.934 68.0558 73.388C67.7698 72.8333 67.6268 72.192 67.6268 71.464ZM74.0228 71.464C74.0228 70.8487 73.8928 70.307 73.6328 69.839C73.3815 69.3623 73.0348 68.9983 72.5928 68.747C72.1508 68.487 71.6568 68.357 71.1108 68.357C70.5388 68.357 70.0361 68.4827 69.6028 68.734C69.1695 68.9767 68.8315 69.332 68.5888 69.8C68.3461 70.268 68.2248 70.8227 68.2248 71.464C68.2248 72.1053 68.3461 72.66 68.5888 73.128C68.8315 73.596 69.1695 73.9557 69.6028 74.207C70.0448 74.4583 70.5475 74.584 71.1108 74.584C71.6568 74.584 72.1508 74.4583 72.5928 74.207C73.0435 73.947 73.3945 73.583 73.6458 73.115C73.8971 72.6383 74.0228 72.088 74.0228 71.464ZM79.9229 67.798C80.7635 67.798 81.4482 68.058 81.9769 68.578C82.5055 69.0893 82.7699 69.852 82.7699 70.866V75H82.1979V70.905C82.1979 70.0643 81.9855 69.423 81.5609 68.981C81.1362 68.5303 80.5599 68.305 79.8319 68.305C79.0692 68.305 78.4582 68.5477 77.9989 69.033C77.5482 69.5183 77.3229 70.2377 77.3229 71.191V75H76.7379V67.941H77.3229V69.436C77.5222 68.9073 77.8515 68.5043 78.3109 68.227C78.7789 67.941 79.3162 67.798 79.9229 67.798ZM91.1945 70.996C91.1945 71.308 91.1858 71.542 91.1685 71.698H85.0715C85.0888 72.3307 85.2275 72.8637 85.4875 73.297C85.7475 73.7303 86.0898 74.0553 86.5145 74.272C86.9392 74.4887 87.4028 74.597 87.9055 74.597C88.5988 74.597 89.1795 74.428 89.6475 74.09C90.1155 73.7433 90.4102 73.2753 90.5315 72.686H91.1425C91.0038 73.4053 90.6485 73.9903 90.0765 74.441C89.5045 74.883 88.7808 75.104 87.9055 75.104C87.2468 75.104 86.6575 74.9567 86.1375 74.662C85.6175 74.3673 85.2102 73.947 84.9155 73.401C84.6208 72.8463 84.4735 72.2007 84.4735 71.464C84.4735 70.7273 84.6165 70.086 84.9025 69.54C85.1972 68.994 85.6045 68.578 86.1245 68.292C86.6445 67.9973 87.2382 67.85 87.9055 67.85C88.5815 67.85 89.1665 67.9973 89.6605 68.292C90.1632 68.578 90.5445 68.9637 90.8045 69.449C91.0645 69.9257 91.1945 70.4413 91.1945 70.996ZM90.6095 71.217C90.6355 70.593 90.5228 70.0643 90.2715 69.631C90.0288 69.1977 89.6952 68.877 89.2705 68.669C88.8458 68.4523 88.3865 68.344 87.8925 68.344C87.3985 68.344 86.9392 68.4523 86.5145 68.669C86.0985 68.877 85.7562 69.1977 85.4875 69.631C85.2275 70.0643 85.0888 70.593 85.0715 71.217H90.6095ZM93.8335 68.448V73.115C93.8335 73.635 93.9288 73.9947 94.1195 74.194C94.3102 74.3847 94.6482 74.48 95.1335 74.48H95.9265V75H95.0425C94.4272 75 93.9722 74.857 93.6775 74.571C93.3915 74.2763 93.2485 73.791 93.2485 73.115V68.448H92.1825V67.941H93.2485V66.147H93.8335V67.941H95.9265V68.448H93.8335ZM98.3273 65.874L98.2623 72.777H97.7553L97.6773 65.874H98.3273ZM98.0413 75.039C97.894 75.039 97.7727 74.9913 97.6773 74.896C97.582 74.8007 97.5343 74.6793 97.5343 74.532C97.5343 74.3847 97.582 74.2633 97.6773 74.168C97.7727 74.0727 97.894 74.025 98.0413 74.025C98.18 74.025 98.297 74.0727 98.3923 74.168C98.4877 74.2633 98.5353 74.3847 98.5353 74.532C98.5353 74.6793 98.4877 74.8007 98.3923 74.896C98.297 74.9913 98.18 75.039 98.0413 75.039Z" fill="black"/>
<path d="M34.5914 90.98L32.3814 95.16V98H31.9314V95.16L29.7014 90.98H30.2114L32.1514 94.74L34.0814 90.98H34.5914ZM38.0616 98.08C37.5549 98.08 37.0982 97.9667 36.6916 97.74C36.2849 97.5133 35.9649 97.19 35.7316 96.77C35.5049 96.3433 35.3916 95.8467 35.3916 95.28C35.3916 94.72 35.5082 94.23 35.7416 93.81C35.9749 93.3833 36.2949 93.06 36.7016 92.84C37.1149 92.6133 37.5749 92.5 38.0816 92.5C38.5882 92.5 39.0449 92.6133 39.4516 92.84C39.8582 93.06 40.1749 93.38 40.4016 93.8C40.6349 94.22 40.7516 94.7133 40.7516 95.28C40.7516 95.8467 40.6349 96.3433 40.4016 96.77C40.1682 97.19 39.8449 97.5133 39.4316 97.74C39.0249 97.9667 38.5682 98.08 38.0616 98.08ZM38.0616 97.68C38.4549 97.68 38.8216 97.5933 39.1616 97.42C39.5082 97.24 39.7849 96.97 39.9916 96.61C40.1982 96.25 40.3016 95.8067 40.3016 95.28C40.3016 94.76 40.1982 94.32 39.9916 93.96C39.7849 93.6 39.5116 93.3333 39.1716 93.16C38.8316 92.98 38.4649 92.89 38.0716 92.89C37.6782 92.89 37.3116 92.98 36.9716 93.16C36.6382 93.3333 36.3682 93.6 36.1616 93.96C35.9549 94.32 35.8516 94.76 35.8516 95.28C35.8516 95.8067 35.9516 96.25 36.1516 96.61C36.3582 96.97 36.6282 97.24 36.9616 97.42C37.3016 97.5933 37.6682 97.68 38.0616 97.68ZM46.7069 92.57V98H46.2569V96.82C46.1035 97.2333 45.8469 97.55 45.4869 97.77C45.1335 97.9833 44.7269 98.09 44.2669 98.09C43.6202 98.09 43.0902 97.8933 42.6769 97.5C42.2702 97.1 42.0669 96.51 42.0669 95.73V92.57H42.5069V95.7C42.5069 96.3467 42.6702 96.8433 42.9969 97.19C43.3235 97.53 43.7669 97.7 44.3269 97.7C44.9135 97.7 45.3802 97.5133 45.7269 97.14C46.0802 96.7667 46.2569 96.2133 46.2569 95.48V92.57H46.7069ZM56.0596 94.92C56.0596 95.16 56.0529 95.34 56.0396 95.46H51.3496C51.3629 95.9467 51.4696 96.3567 51.6696 96.69C51.8696 97.0233 52.1329 97.2733 52.4596 97.44C52.7863 97.6067 53.1429 97.69 53.5296 97.69C54.0629 97.69 54.5096 97.56 54.8696 97.3C55.2296 97.0333 55.4563 96.6733 55.5496 96.22H56.0196C55.9129 96.7733 55.6396 97.2233 55.1996 97.57C54.7596 97.91 54.2029 98.08 53.5296 98.08C53.0229 98.08 52.5696 97.9667 52.1696 97.74C51.7696 97.5133 51.4563 97.19 51.2296 96.77C51.0029 96.3433 50.8896 95.8467 50.8896 95.28C50.8896 94.7133 50.9996 94.22 51.2196 93.8C51.4463 93.38 51.7596 93.06 52.1596 92.84C52.5596 92.6133 53.0163 92.5 53.5296 92.5C54.0496 92.5 54.4996 92.6133 54.8796 92.84C55.2663 93.06 55.5596 93.3567 55.7596 93.73C55.9596 94.0967 56.0596 94.4933 56.0596 94.92ZM55.6096 95.09C55.6296 94.61 55.5429 94.2033 55.3496 93.87C55.1629 93.5367 54.9063 93.29 54.5796 93.13C54.2529 92.9633 53.8996 92.88 53.5196 92.88C53.1396 92.88 52.7863 92.9633 52.4596 93.13C52.1396 93.29 51.8763 93.5367 51.6696 93.87C51.4696 94.2033 51.3629 94.61 51.3496 95.09H55.6096ZM57.1396 95.28C57.1396 94.72 57.2496 94.23 57.4696 93.81C57.6963 93.39 58.0063 93.0667 58.3996 92.84C58.7996 92.6133 59.2529 92.5 59.7596 92.5C60.3329 92.5 60.8196 92.64 61.2196 92.92C61.6196 93.2 61.8996 93.5567 62.0596 93.99V92.57H62.5096V98H62.0596V96.57C61.8996 97.01 61.6163 97.3733 61.2096 97.66C60.8096 97.94 60.3263 98.08 59.7596 98.08C59.2529 98.08 58.7996 97.9667 58.3996 97.74C58.0063 97.5067 57.6963 97.18 57.4696 96.76C57.2496 96.3333 57.1396 95.84 57.1396 95.28ZM62.0596 95.28C62.0596 94.8067 61.9596 94.39 61.7596 94.03C61.5663 93.6633 61.2996 93.3833 60.9596 93.19C60.6196 92.99 60.2396 92.89 59.8196 92.89C59.3796 92.89 58.9929 92.9867 58.6596 93.18C58.3263 93.3667 58.0663 93.64 57.8796 94C57.6929 94.36 57.5996 94.7867 57.5996 95.28C57.5996 95.7733 57.6929 96.2 57.8796 96.56C58.0663 96.92 58.3263 97.1967 58.6596 97.39C58.9996 97.5833 59.3863 97.68 59.8196 97.68C60.2396 97.68 60.6196 97.5833 60.9596 97.39C61.3063 97.19 61.5763 96.91 61.7696 96.55C61.9629 96.1833 62.0596 95.76 62.0596 95.28ZM64.5981 93.69C64.7315 93.29 64.9681 92.9867 65.3081 92.78C65.6481 92.5667 66.0815 92.46 66.6081 92.46V92.93H66.4581C65.9248 92.93 65.4815 93.0833 65.1281 93.39C64.7748 93.69 64.5981 94.1833 64.5981 94.87V98H64.1481V92.57H64.5981V93.69ZM70.0942 92.46C70.7409 92.46 71.2676 92.66 71.6742 93.06C72.0809 93.4533 72.2842 94.04 72.2842 94.82V98H71.8442V94.85C71.8442 94.2033 71.6809 93.71 71.3542 93.37C71.0276 93.0233 70.5842 92.85 70.0242 92.85C69.4376 92.85 68.9676 93.0367 68.6142 93.41C68.2676 93.7833 68.0942 94.3367 68.0942 95.07V98H67.6442V92.57H68.0942V93.72C68.2476 93.3133 68.5009 93.0033 68.8542 92.79C69.2142 92.57 69.6276 92.46 70.0942 92.46ZM73.8047 98.03C73.6914 98.03 73.598 97.9933 73.5247 97.92C73.4514 97.8467 73.4147 97.7533 73.4147 97.64C73.4147 97.5267 73.4514 97.4333 73.5247 97.36C73.598 97.2867 73.6914 97.25 73.8047 97.25C73.9114 97.25 74.0014 97.2867 74.0747 97.36C74.148 97.4333 74.1847 97.5267 74.1847 97.64C74.1847 97.7533 74.148 97.8467 74.0747 97.92C74.0014 97.9933 73.9114 98.03 73.8047 98.03ZM73.8047 93.59C73.6914 93.59 73.598 93.5533 73.5247 93.48C73.4514 93.4067 73.4147 93.3133 73.4147 93.2C73.4147 93.0867 73.4514 92.9933 73.5247 92.92C73.598 92.8467 73.6914 92.81 73.8047 92.81C73.9114 92.81 74.0014 92.8467 74.0747 92.92C74.148 92.9933 74.1847 93.0867 74.1847 93.2C74.1847 93.3133 74.148 93.4067 74.0747 93.48C74.0014 93.5533 73.9114 93.59 73.8047 93.59Z" fill="black"/>
</svg>
