<svg width="121" height="136" viewBox="0 0 121 136" fill="none" xmlns="http://www.w3.org/2000/svg">
<path d="M5.64734 115.384L3.87934 118.728V121H3.51934V118.728L1.73534 115.384H2.14334L3.69534 118.392L5.23934 115.384H5.64734ZM8.42347 121.064C8.01814 121.064 7.6528 120.973 7.32747 120.792C7.00214 120.611 6.74614 120.352 6.55947 120.016C6.37814 119.675 6.28747 119.277 6.28747 118.824C6.28747 118.376 6.3808 117.984 6.56747 117.648C6.75414 117.307 7.01014 117.048 7.33547 116.872C7.66614 116.691 8.03414 116.6 8.43947 116.6C8.8448 116.6 9.21014 116.691 9.53547 116.872C9.8608 117.048 10.1141 117.304 10.2955 117.64C10.4821 117.976 10.5755 118.371 10.5755 118.824C10.5755 119.277 10.4821 119.675 10.2955 120.016C10.1088 120.352 9.85014 120.611 9.51947 120.792C9.19414 120.973 8.8288 121.064 8.42347 121.064ZM8.42347 120.744C8.73814 120.744 9.03147 120.675 9.30347 120.536C9.5808 120.392 9.80214 120.176 9.96747 119.888C10.1328 119.6 10.2155 119.245 10.2155 118.824C10.2155 118.408 10.1328 118.056 9.96747 117.768C9.80214 117.48 9.58347 117.267 9.31147 117.128C9.03947 116.984 8.74614 116.912 8.43147 116.912C8.1168 116.912 7.82347 116.984 7.55147 117.128C7.2848 117.267 7.0688 117.48 6.90347 117.768C6.73814 118.056 6.65547 118.408 6.65547 118.824C6.65547 119.245 6.73547 119.6 6.89547 119.888C7.0608 120.176 7.2768 120.392 7.54347 120.536C7.81547 120.675 8.1088 120.744 8.42347 120.744ZM15.3397 116.656V121H14.9797V120.056C14.8571 120.387 14.6517 120.64 14.3637 120.816C14.0811 120.987 13.7557 121.072 13.3877 121.072C12.8704 121.072 12.4464 120.915 12.1157 120.6C11.7904 120.28 11.6277 119.808 11.6277 119.184V116.656H11.9797V119.16C11.9797 119.677 12.1104 120.075 12.3717 120.352C12.6331 120.624 12.9877 120.76 13.4357 120.76C13.9051 120.76 14.2784 120.611 14.5557 120.312C14.8384 120.013 14.9797 119.571 14.9797 118.984V116.656H15.3397ZM16.7481 114.648L16.6601 116.136H16.4041L16.3001 114.648H16.7481ZM19.1866 120.608L20.7866 116.656H21.1706L19.3706 121H18.9946L17.1946 116.656H17.5866L19.1866 120.608ZM25.8766 118.536C25.8766 118.728 25.8713 118.872 25.8606 118.968H22.1086C22.1193 119.357 22.2046 119.685 22.3646 119.952C22.5246 120.219 22.7353 120.419 22.9966 120.552C23.2579 120.685 23.5433 120.752 23.8526 120.752C24.2793 120.752 24.6366 120.648 24.9246 120.44C25.2126 120.227 25.3939 119.939 25.4686 119.576H25.8446C25.7593 120.019 25.5406 120.379 25.1886 120.656C24.8366 120.928 24.3913 121.064 23.8526 121.064C23.4473 121.064 23.0846 120.973 22.7646 120.792C22.4446 120.611 22.1939 120.352 22.0126 120.016C21.8313 119.675 21.7406 119.277 21.7406 118.824C21.7406 118.371 21.8286 117.976 22.0046 117.64C22.1859 117.304 22.4366 117.048 22.7566 116.872C23.0766 116.691 23.4419 116.6 23.8526 116.6C24.2686 116.6 24.6286 116.691 24.9326 116.872C25.2419 117.048 25.4766 117.285 25.6366 117.584C25.7966 117.877 25.8766 118.195 25.8766 118.536ZM25.5166 118.672C25.5326 118.288 25.4633 117.963 25.3086 117.696C25.1593 117.429 24.9539 117.232 24.6926 117.104C24.4313 116.971 24.1486 116.904 23.8446 116.904C23.5406 116.904 23.2579 116.971 22.9966 117.104C22.7406 117.232 22.5299 117.429 22.3646 117.696C22.2046 117.963 22.1193 118.288 22.1086 118.672H25.5166ZM29.5824 117.552C29.6891 117.232 29.8784 116.989 30.1504 116.824C30.4224 116.653 30.7691 116.568 31.1904 116.568V116.944H31.0704C30.6437 116.944 30.2891 117.067 30.0064 117.312C29.7237 117.552 29.5824 117.947 29.5824 118.496V121H29.2224V116.656H29.5824V117.552ZM33.9313 121.064C33.5259 121.064 33.1606 120.973 32.8353 120.792C32.5099 120.611 32.2539 120.352 32.0673 120.016C31.8859 119.675 31.7953 119.277 31.7953 118.824C31.7953 118.376 31.8886 117.984 32.0753 117.648C32.2619 117.307 32.5179 117.048 32.8433 116.872C33.1739 116.691 33.5419 116.6 33.9473 116.6C34.3526 116.6 34.7179 116.691 35.0433 116.872C35.3686 117.048 35.6219 117.304 35.8033 117.64C35.9899 117.976 36.0833 118.371 36.0833 118.824C36.0833 119.277 35.9899 119.675 35.8033 120.016C35.6166 120.352 35.3579 120.611 35.0273 120.792C34.7019 120.973 34.3366 121.064 33.9313 121.064ZM33.9313 120.744C34.2459 120.744 34.5393 120.675 34.8113 120.536C35.0886 120.392 35.3099 120.176 35.4753 119.888C35.6406 119.6 35.7233 119.245 35.7233 118.824C35.7233 118.408 35.6406 118.056 35.4753 117.768C35.3099 117.48 35.0913 117.267 34.8193 117.128C34.5473 116.984 34.2539 116.912 33.9393 116.912C33.6246 116.912 33.3313 116.984 33.0593 117.128C32.7926 117.267 32.5766 117.48 32.4113 117.768C32.2459 118.056 32.1633 118.408 32.1633 118.824C32.1633 119.245 32.2433 119.6 32.4033 119.888C32.5686 120.176 32.7846 120.392 33.0513 120.536C33.3233 120.675 33.6166 120.744 33.9313 120.744ZM36.9515 118.824C36.9515 118.371 37.0395 117.976 37.2155 117.64C37.3969 117.304 37.6449 117.048 37.9595 116.872C38.2795 116.691 38.6449 116.6 39.0555 116.6C39.5995 116.6 40.0449 116.736 40.3915 117.008C40.7435 117.28 40.9622 117.645 41.0475 118.104H40.6715C40.6022 117.731 40.4209 117.437 40.1275 117.224C39.8395 117.011 39.4822 116.904 39.0555 116.904C38.7355 116.904 38.4449 116.976 38.1835 117.12C37.9222 117.259 37.7115 117.475 37.5515 117.768C37.3969 118.056 37.3195 118.408 37.3195 118.824C37.3195 119.245 37.3969 119.6 37.5515 119.888C37.7115 120.176 37.9222 120.392 38.1835 120.536C38.4449 120.68 38.7355 120.752 39.0555 120.752C39.4822 120.752 39.8395 120.645 40.1275 120.432C40.4209 120.219 40.6022 119.925 40.6715 119.552H41.0475C40.9622 120.005 40.7435 120.371 40.3915 120.648C40.0395 120.925 39.5942 121.064 39.0555 121.064C38.6449 121.064 38.2795 120.973 37.9595 120.792C37.6449 120.611 37.3969 120.352 37.2155 120.016C37.0395 119.675 36.9515 119.277 36.9515 118.824ZM44.4003 121L42.5043 119.008V121H42.1443V115.08H42.5043V118.624L44.3683 116.656H44.8723L42.7683 118.816L44.8963 121H44.4003ZM49.5485 118.536C49.5485 118.728 49.5431 118.872 49.5325 118.968H45.7805C45.7911 119.357 45.8765 119.685 46.0365 119.952C46.1965 120.219 46.4071 120.419 46.6685 120.552C46.9298 120.685 47.2151 120.752 47.5245 120.752C47.9511 120.752 48.3085 120.648 48.5965 120.44C48.8845 120.227 49.0658 119.939 49.1405 119.576H49.5165C49.4311 120.019 49.2125 120.379 48.8605 120.656C48.5085 120.928 48.0631 121.064 47.5245 121.064C47.1191 121.064 46.7565 120.973 46.4365 120.792C46.1165 120.611 45.8658 120.352 45.6845 120.016C45.5031 119.675 45.4125 119.277 45.4125 118.824C45.4125 118.371 45.5005 117.976 45.6765 117.64C45.8578 117.304 46.1085 117.048 46.4285 116.872C46.7485 116.691 47.1138 116.6 47.5245 116.6C47.9405 116.6 48.3005 116.691 48.6045 116.872C48.9138 117.048 49.1485 117.285 49.3085 117.584C49.4685 117.877 49.5485 118.195 49.5485 118.536ZM49.1885 118.672C49.2045 118.288 49.1351 117.963 48.9805 117.696C48.8311 117.429 48.6258 117.232 48.3645 117.104C48.1031 116.971 47.8205 116.904 47.5165 116.904C47.2125 116.904 46.9298 116.971 46.6685 117.104C46.4125 117.232 46.2018 117.429 46.0365 117.696C45.8765 117.963 45.7911 118.288 45.7805 118.672H49.1885ZM51.1725 116.968V119.84C51.1725 120.16 51.2311 120.381 51.3485 120.504C51.4658 120.621 51.6738 120.68 51.9725 120.68H52.4605V121H51.9165C51.5378 121 51.2578 120.912 51.0765 120.736C50.9005 120.555 50.8125 120.256 50.8125 119.84V116.968H50.1565V116.656H50.8125V115.552H51.1725V116.656H52.4605V116.968H51.1725ZM57.3219 118.536C57.3219 118.728 57.3166 118.872 57.3059 118.968H53.5539C53.5646 119.357 53.6499 119.685 53.8099 119.952C53.9699 120.219 54.1806 120.419 54.4419 120.552C54.7032 120.685 54.9886 120.752 55.2979 120.752C55.7246 120.752 56.0819 120.648 56.3699 120.44C56.6579 120.227 56.8392 119.939 56.9139 119.576H57.2899C57.2046 120.019 56.9859 120.379 56.6339 120.656C56.2819 120.928 55.8366 121.064 55.2979 121.064C54.8926 121.064 54.5299 120.973 54.2099 120.792C53.8899 120.611 53.6392 120.352 53.4579 120.016C53.2766 119.675 53.1859 119.277 53.1859 118.824C53.1859 118.371 53.2739 117.976 53.4499 117.64C53.6312 117.304 53.8819 117.048 54.2019 116.872C54.5219 116.691 54.8872 116.6 55.2979 116.6C55.7139 116.6 56.0739 116.691 56.3779 116.872C56.6872 117.048 56.9219 117.285 57.0819 117.584C57.2419 117.877 57.3219 118.195 57.3219 118.536ZM56.9619 118.672C56.9779 118.288 56.9086 117.963 56.7539 117.696C56.6046 117.429 56.3992 117.232 56.1379 117.104C55.8766 116.971 55.5939 116.904 55.2899 116.904C54.9859 116.904 54.7032 116.971 54.4419 117.104C54.1859 117.232 53.9752 117.429 53.8099 117.696C53.6499 117.963 53.5646 118.288 53.5539 118.672H56.9619ZM58.1859 118.824C58.1859 118.376 58.2739 117.984 58.4499 117.648C58.6312 117.312 58.8792 117.053 59.1939 116.872C59.5139 116.691 59.8766 116.6 60.2819 116.6C60.7246 116.6 61.1086 116.712 61.4339 116.936C61.7592 117.155 61.9886 117.44 62.1219 117.792V115.08H62.4819V121H62.1219V119.848C61.9939 120.205 61.7699 120.499 61.4499 120.728C61.1299 120.952 60.7406 121.064 60.2819 121.064C59.8766 121.064 59.5139 120.973 59.1939 120.792C58.8792 120.605 58.6312 120.344 58.4499 120.008C58.2739 119.667 58.1859 119.272 58.1859 118.824ZM62.1219 118.824C62.1219 118.445 62.0419 118.112 61.8819 117.824C61.7272 117.531 61.5139 117.307 61.2419 117.152C60.9699 116.992 60.6659 116.912 60.3299 116.912C59.9779 116.912 59.6686 116.989 59.4019 117.144C59.1352 117.293 58.9272 117.512 58.7779 117.8C58.6286 118.088 58.5539 118.429 58.5539 118.824C58.5539 119.219 58.6286 119.56 58.7779 119.848C58.9272 120.136 59.1352 120.357 59.4019 120.512C59.6739 120.667 59.9832 120.744 60.3299 120.744C60.6659 120.744 60.9699 120.667 61.2419 120.512C61.5192 120.352 61.7352 120.128 61.8899 119.84C62.0446 119.547 62.1219 119.208 62.1219 118.824ZM66.5865 116.968V119.84C66.5865 120.16 66.6452 120.381 66.7625 120.504C66.8799 120.621 67.0879 120.68 67.3865 120.68H67.8745V121H67.3305C66.9519 121 66.6719 120.912 66.4905 120.736C66.3145 120.555 66.2265 120.256 66.2265 119.84V116.968H65.5705V116.656H66.2265V115.552H66.5865V116.656H67.8745V116.968H66.5865ZM70.736 121.064C70.3306 121.064 69.9653 120.973 69.64 120.792C69.3146 120.611 69.0586 120.352 68.872 120.016C68.6906 119.675 68.6 119.277 68.6 118.824C68.6 118.376 68.6933 117.984 68.88 117.648C69.0666 117.307 69.3226 117.048 69.648 116.872C69.9786 116.691 70.3466 116.6 70.752 116.6C71.1573 116.6 71.5226 116.691 71.848 116.872C72.1733 117.048 72.4266 117.304 72.608 117.64C72.7946 117.976 72.888 118.371 72.888 118.824C72.888 119.277 72.7946 119.675 72.608 120.016C72.4213 120.352 72.1626 120.611 71.832 120.792C71.5066 120.973 71.1413 121.064 70.736 121.064ZM70.736 120.744C71.0506 120.744 71.344 120.675 71.616 120.536C71.8933 120.392 72.1146 120.176 72.28 119.888C72.4453 119.6 72.528 119.245 72.528 118.824C72.528 118.408 72.4453 118.056 72.28 117.768C72.1146 117.48 71.896 117.267 71.624 117.128C71.352 116.984 71.0586 116.912 70.744 116.912C70.4293 116.912 70.136 116.984 69.864 117.128C69.5973 117.267 69.3813 117.48 69.216 117.768C69.0506 118.056 68.968 118.408 68.968 118.824C68.968 119.245 69.048 119.6 69.208 119.888C69.3733 120.176 69.5893 120.392 69.856 120.536C70.128 120.675 70.4213 120.744 70.736 120.744ZM75.9402 116.568C76.4576 116.568 76.8789 116.728 77.2042 117.048C77.5296 117.363 77.6922 117.832 77.6922 118.456V121H77.3402V118.48C77.3402 117.963 77.2096 117.568 76.9482 117.296C76.6869 117.019 76.3322 116.88 75.8842 116.88C75.4149 116.88 75.0389 117.029 74.7562 117.328C74.4789 117.627 74.3402 118.069 74.3402 118.656V121H73.9802V116.656H74.3402V117.576C74.4629 117.251 74.6656 117.003 74.9482 116.832C75.2362 116.656 75.5669 116.568 75.9402 116.568ZM80.4126 121.064C79.9273 121.064 79.5299 120.957 79.2206 120.744C78.9166 120.531 78.7459 120.227 78.7086 119.832H79.0766C79.1033 120.115 79.2313 120.339 79.4606 120.504C79.6953 120.669 80.0126 120.752 80.4126 120.752C80.7433 120.752 81.0046 120.669 81.1966 120.504C81.3939 120.333 81.4926 120.125 81.4926 119.88C81.4926 119.709 81.4393 119.571 81.3326 119.464C81.2313 119.352 81.1033 119.267 80.9486 119.208C80.7939 119.149 80.5833 119.085 80.3166 119.016C79.9966 118.931 79.7379 118.848 79.5406 118.768C79.3433 118.683 79.1753 118.557 79.0366 118.392C78.8979 118.227 78.8286 118.005 78.8286 117.728C78.8286 117.525 78.8899 117.339 79.0126 117.168C79.1353 116.992 79.3059 116.853 79.5246 116.752C79.7433 116.651 79.9913 116.6 80.2686 116.6C80.7219 116.6 81.0873 116.715 81.3646 116.944C81.6473 117.168 81.7993 117.48 81.8206 117.88H81.4606C81.4446 117.592 81.3326 117.357 81.1246 117.176C80.9166 116.995 80.6286 116.904 80.2606 116.904C79.9513 116.904 79.6953 116.984 79.4926 117.144C79.2899 117.304 79.1886 117.499 79.1886 117.728C79.1886 117.931 79.2446 118.096 79.3566 118.224C79.4739 118.347 79.6153 118.443 79.7806 118.512C79.9513 118.576 80.1753 118.645 80.4526 118.72C80.7566 118.8 80.9993 118.88 81.1806 118.96C81.3673 119.035 81.5246 119.147 81.6526 119.296C81.7806 119.44 81.8446 119.635 81.8446 119.88C81.8446 120.104 81.7833 120.307 81.6606 120.488C81.5379 120.669 81.3673 120.811 81.1486 120.912C80.9299 121.013 80.6846 121.064 80.4126 121.064ZM87.111 121.064C86.7056 121.064 86.3403 120.973 86.015 120.792C85.6896 120.611 85.4336 120.352 85.247 120.016C85.0656 119.675 84.975 119.277 84.975 118.824C84.975 118.376 85.0683 117.984 85.255 117.648C85.4416 117.307 85.6976 117.048 86.023 116.872C86.3536 116.691 86.7216 116.6 87.127 116.6C87.5323 116.6 87.8976 116.691 88.223 116.872C88.5483 117.048 88.8016 117.304 88.983 117.64C89.1696 117.976 89.263 118.371 89.263 118.824C89.263 119.277 89.1696 119.675 88.983 120.016C88.7963 120.352 88.5376 120.611 88.207 120.792C87.8816 120.973 87.5163 121.064 87.111 121.064ZM87.111 120.744C87.4256 120.744 87.719 120.675 87.991 120.536C88.2683 120.392 88.4896 120.176 88.655 119.888C88.8203 119.6 88.903 119.245 88.903 118.824C88.903 118.408 88.8203 118.056 88.655 117.768C88.4896 117.48 88.271 117.267 87.999 117.128C87.727 116.984 87.4336 116.912 87.119 116.912C86.8043 116.912 86.511 116.984 86.239 117.128C85.9723 117.267 85.7563 117.48 85.591 117.768C85.4256 118.056 85.343 118.408 85.343 118.824C85.343 119.245 85.423 119.6 85.583 119.888C85.7483 120.176 85.9643 120.392 86.231 120.536C86.503 120.675 86.7963 120.744 87.111 120.744ZM92.0112 116.976H90.8832V121H90.5232V116.976H89.8672V116.656H90.5232V116.352C90.5232 115.899 90.6379 115.563 90.8672 115.344C91.0966 115.12 91.4726 115.008 91.9952 115.008V115.328C91.5792 115.328 91.2886 115.408 91.1232 115.568C90.9632 115.728 90.8832 115.989 90.8832 116.352V116.656H92.0112V116.976ZM100.327 116.568C100.823 116.568 101.228 116.728 101.543 117.048C101.858 117.363 102.015 117.832 102.015 118.456V121H101.663V118.48C101.663 117.963 101.538 117.568 101.287 117.296C101.042 117.019 100.703 116.88 100.271 116.88C99.8232 116.88 99.4632 117.035 99.1912 117.344C98.9192 117.653 98.7832 118.101 98.7832 118.688V121H98.4312V118.48C98.4312 117.963 98.3058 117.568 98.0552 117.296C97.8098 117.019 97.4712 116.88 97.0392 116.88C96.5912 116.88 96.2312 117.035 95.9592 117.344C95.6872 117.653 95.5512 118.101 95.5512 118.688V121H95.1912V116.656H95.5512V117.6C95.6738 117.259 95.8712 117.003 96.1432 116.832C96.4205 116.656 96.7378 116.568 97.0952 116.568C97.4898 116.568 97.8285 116.672 98.1112 116.88C98.3992 117.083 98.5965 117.384 98.7032 117.784C98.8045 117.384 99.0018 117.083 99.2952 116.88C99.5885 116.672 99.9325 116.568 100.327 116.568ZM107.205 118.536C107.205 118.728 107.199 118.872 107.189 118.968H103.437C103.447 119.357 103.533 119.685 103.693 119.952C103.853 120.219 104.063 120.419 104.325 120.552C104.586 120.685 104.871 120.752 105.181 120.752C105.607 120.752 105.965 120.648 106.253 120.44C106.541 120.227 106.722 119.939 106.797 119.576H107.173C107.087 120.019 106.869 120.379 106.517 120.656C106.165 120.928 105.719 121.064 105.181 121.064C104.775 121.064 104.413 120.973 104.093 120.792C103.773 120.611 103.522 120.352 103.341 120.016C103.159 119.675 103.069 119.277 103.069 118.824C103.069 118.371 103.157 117.976 103.333 117.64C103.514 117.304 103.765 117.048 104.085 116.872C104.405 116.691 104.77 116.6 105.181 116.6C105.597 116.6 105.957 116.691 106.261 116.872C106.57 117.048 106.805 117.285 106.965 117.584C107.125 117.877 107.205 118.195 107.205 118.536ZM106.845 118.672C106.861 118.288 106.791 117.963 106.637 117.696C106.487 117.429 106.282 117.232 106.021 117.104C105.759 116.971 105.477 116.904 105.173 116.904C104.869 116.904 104.586 116.971 104.325 117.104C104.069 117.232 103.858 117.429 103.693 117.696C103.533 117.963 103.447 118.288 103.437 118.672H106.845ZM108.829 116.968V119.84C108.829 120.16 108.887 120.381 109.005 120.504C109.122 120.621 109.33 120.68 109.629 120.68H110.117V121H109.573C109.194 121 108.914 120.912 108.733 120.736C108.557 120.555 108.469 120.256 108.469 119.84V116.968H107.813V116.656H108.469V115.552H108.829V116.656H110.117V116.968H108.829ZM110.842 118.824C110.842 118.376 110.93 117.984 111.106 117.648C111.287 117.312 111.535 117.053 111.85 116.872C112.17 116.691 112.533 116.6 112.938 116.6C113.397 116.6 113.786 116.712 114.106 116.936C114.426 117.16 114.65 117.445 114.778 117.792V116.656H115.138V121H114.778V119.856C114.65 120.208 114.423 120.499 114.098 120.728C113.778 120.952 113.391 121.064 112.938 121.064C112.533 121.064 112.17 120.973 111.85 120.792C111.535 120.605 111.287 120.344 111.106 120.008C110.93 119.667 110.842 119.272 110.842 118.824ZM114.778 118.824C114.778 118.445 114.698 118.112 114.538 117.824C114.383 117.531 114.17 117.307 113.898 117.152C113.626 116.992 113.322 116.912 112.986 116.912C112.634 116.912 112.325 116.989 112.058 117.144C111.791 117.293 111.583 117.512 111.434 117.8C111.285 118.088 111.21 118.429 111.21 118.824C111.21 119.219 111.285 119.56 111.434 119.848C111.583 120.136 111.791 120.357 112.058 120.512C112.33 120.667 112.639 120.744 112.986 120.744C113.322 120.744 113.626 120.667 113.898 120.512C114.175 120.352 114.391 120.128 114.546 119.84C114.701 119.547 114.778 119.208 114.778 118.824ZM116.809 115.08V121H116.449V115.08H116.809ZM8.11725 128.656L6.74925 133H6.40525L5.02125 129.152L3.62925 133H3.28525L1.91725 128.656H2.29325L3.46125 132.592L4.85325 128.656H5.19725L6.58125 132.576L7.74925 128.656H8.11725ZM8.682 130.824C8.682 130.376 8.77 129.984 8.946 129.648C9.12733 129.312 9.37533 129.053 9.69 128.872C10.01 128.691 10.3727 128.6 10.778 128.6C11.2367 128.6 11.626 128.712 11.946 128.936C12.266 129.16 12.49 129.445 12.618 129.792V128.656H12.978V133H12.618V131.856C12.49 132.208 12.2633 132.499 11.938 132.728C11.618 132.952 11.2313 133.064 10.778 133.064C10.3727 133.064 10.01 132.973 9.69 132.792C9.37533 132.605 9.12733 132.344 8.946 132.008C8.77 131.667 8.682 131.272 8.682 130.824ZM12.618 130.824C12.618 130.445 12.538 130.112 12.378 129.824C12.2233 129.531 12.01 129.307 11.738 129.152C11.466 128.992 11.162 128.912 10.826 128.912C10.474 128.912 10.1647 128.989 9.898 129.144C9.63133 129.293 9.42333 129.512 9.274 129.8C9.12467 130.088 9.05 130.429 9.05 130.824C9.05 131.219 9.12467 131.56 9.274 131.848C9.42333 132.136 9.63133 132.357 9.898 132.512C10.17 132.667 10.4793 132.744 10.826 132.744C11.162 132.744 11.466 132.667 11.738 132.512C12.0153 132.352 12.2313 132.128 12.386 131.84C12.5407 131.547 12.618 131.208 12.618 130.824ZM15.7368 133.064C15.2515 133.064 14.8541 132.957 14.5448 132.744C14.2408 132.531 14.0701 132.227 14.0328 131.832H14.4008C14.4275 132.115 14.5555 132.339 14.7848 132.504C15.0195 132.669 15.3368 132.752 15.7368 132.752C16.0675 132.752 16.3288 132.669 16.5208 132.504C16.7181 132.333 16.8168 132.125 16.8168 131.88C16.8168 131.709 16.7635 131.571 16.6568 131.464C16.5555 131.352 16.4275 131.267 16.2728 131.208C16.1181 131.149 15.9075 131.085 15.6408 131.016C15.3208 130.931 15.0621 130.848 14.8648 130.768C14.6675 130.683 14.4995 130.557 14.3608 130.392C14.2221 130.227 14.1528 130.005 14.1528 129.728C14.1528 129.525 14.2141 129.339 14.3368 129.168C14.4595 128.992 14.6301 128.853 14.8488 128.752C15.0675 128.651 15.3155 128.6 15.5928 128.6C16.0461 128.6 16.4115 128.715 16.6888 128.944C16.9715 129.168 17.1235 129.48 17.1448 129.88H16.7848C16.7688 129.592 16.6568 129.357 16.4488 129.176C16.2408 128.995 15.9528 128.904 15.5848 128.904C15.2755 128.904 15.0195 128.984 14.8168 129.144C14.6141 129.304 14.5128 129.499 14.5128 129.728C14.5128 129.931 14.5688 130.096 14.6808 130.224C14.7981 130.347 14.9395 130.443 15.1048 130.512C15.2755 130.576 15.4995 130.645 15.7768 130.72C16.0808 130.8 16.3235 130.88 16.5048 130.96C16.6915 131.035 16.8488 131.147 16.9768 131.296C17.1048 131.44 17.1688 131.635 17.1688 131.88C17.1688 132.104 17.1075 132.307 16.9848 132.488C16.8621 132.669 16.6915 132.811 16.4728 132.912C16.2541 133.013 16.0088 133.064 15.7368 133.064ZM18.8014 128.968V131.84C18.8014 132.16 18.86 132.381 18.9774 132.504C19.0947 132.621 19.3027 132.68 19.6014 132.68H20.0894V133H19.5454C19.1667 133 18.8867 132.912 18.7054 132.736C18.5294 132.555 18.4414 132.256 18.4414 131.84V128.968H17.7854V128.656H18.4414V127.552H18.8014V128.656H20.0894V128.968H18.8014ZM24.9508 130.536C24.9508 130.728 24.9455 130.872 24.9348 130.968H21.1828C21.1935 131.357 21.2788 131.685 21.4388 131.952C21.5988 132.219 21.8095 132.419 22.0708 132.552C22.3321 132.685 22.6175 132.752 22.9268 132.752C23.3535 132.752 23.7108 132.648 23.9988 132.44C24.2868 132.227 24.4681 131.939 24.5428 131.576H24.9188C24.8335 132.019 24.6148 132.379 24.2628 132.656C23.9108 132.928 23.4655 133.064 22.9268 133.064C22.5215 133.064 22.1588 132.973 21.8388 132.792C21.5188 132.611 21.2681 132.352 21.0868 132.016C20.9055 131.675 20.8148 131.277 20.8148 130.824C20.8148 130.371 20.9028 129.976 21.0788 129.64C21.2601 129.304 21.5108 129.048 21.8308 128.872C22.1508 128.691 22.5161 128.6 22.9268 128.6C23.3428 128.6 23.7028 128.691 24.0068 128.872C24.3161 129.048 24.5508 129.285 24.7108 129.584C24.8708 129.877 24.9508 130.195 24.9508 130.536ZM24.5908 130.672C24.6068 130.288 24.5375 129.963 24.3828 129.696C24.2335 129.429 24.0281 129.232 23.7668 129.104C23.5055 128.971 23.2228 128.904 22.9188 128.904C22.6148 128.904 22.3321 128.971 22.0708 129.104C21.8148 129.232 21.6041 129.429 21.4388 129.696C21.2788 129.963 21.1935 130.288 21.1828 130.672H24.5908ZM28.4806 127.688C28.3953 127.688 28.3233 127.661 28.2646 127.608C28.206 127.549 28.1766 127.472 28.1766 127.376C28.1766 127.285 28.206 127.211 28.2646 127.152C28.3233 127.093 28.3953 127.064 28.4806 127.064C28.566 127.064 28.638 127.093 28.6966 127.152C28.7553 127.211 28.7846 127.285 28.7846 127.376C28.7846 127.472 28.7553 127.549 28.6966 127.608C28.638 127.661 28.566 127.688 28.4806 127.688ZM28.6566 128.656V133H28.2966V128.656H28.6566ZM31.9363 128.568C32.4536 128.568 32.875 128.728 33.2003 129.048C33.5256 129.363 33.6883 129.832 33.6883 130.456V133H33.3363V130.48C33.3363 129.963 33.2056 129.568 32.9443 129.296C32.683 129.019 32.3283 128.88 31.8803 128.88C31.411 128.88 31.035 129.029 30.7523 129.328C30.475 129.627 30.3363 130.069 30.3363 130.656V133H29.9763V128.656H30.3363V129.576C30.459 129.251 30.6616 129.003 30.9443 128.832C31.2323 128.656 31.563 128.568 31.9363 128.568ZM35.4967 128.968V131.84C35.4967 132.16 35.5554 132.381 35.6727 132.504C35.79 132.621 35.998 132.68 36.2967 132.68H36.7847V133H36.2407C35.862 133 35.582 132.912 35.4007 132.736C35.2247 132.555 35.1367 132.256 35.1367 131.84V128.968H34.4807V128.656H35.1367V127.552H35.4967V128.656H36.7847V128.968H35.4967ZM39.6461 133.064C39.2408 133.064 38.8755 132.973 38.5501 132.792C38.2248 132.611 37.9688 132.352 37.7821 132.016C37.6008 131.675 37.5101 131.277 37.5101 130.824C37.5101 130.376 37.6035 129.984 37.7901 129.648C37.9768 129.307 38.2328 129.048 38.5581 128.872C38.8888 128.691 39.2568 128.6 39.6621 128.6C40.0675 128.6 40.4328 128.691 40.7581 128.872C41.0835 129.048 41.3368 129.304 41.5181 129.64C41.7048 129.976 41.7981 130.371 41.7981 130.824C41.7981 131.277 41.7048 131.675 41.5181 132.016C41.3315 132.352 41.0728 132.611 40.7421 132.792C40.4168 132.973 40.0515 133.064 39.6461 133.064ZM39.6461 132.744C39.9608 132.744 40.2541 132.675 40.5261 132.536C40.8035 132.392 41.0248 132.176 41.1901 131.888C41.3555 131.6 41.4381 131.245 41.4381 130.824C41.4381 130.408 41.3555 130.056 41.1901 129.768C41.0248 129.48 40.8061 129.267 40.5341 129.128C40.2621 128.984 39.9688 128.912 39.6541 128.912C39.3395 128.912 39.0461 128.984 38.7741 129.128C38.5075 129.267 38.2915 129.48 38.1261 129.768C37.9608 130.056 37.8781 130.408 37.8781 130.824C37.8781 131.245 37.9581 131.6 38.1181 131.888C38.2835 132.176 38.4995 132.392 38.7661 132.536C39.0381 132.675 39.3315 132.744 39.6461 132.744ZM45.6842 128.968V131.84C45.6842 132.16 45.7429 132.381 45.8602 132.504C45.9775 132.621 46.1855 132.68 46.4842 132.68H46.9722V133H46.4282C46.0495 133 45.7695 132.912 45.5882 132.736C45.4122 132.555 45.3242 132.256 45.3242 131.84V128.968H44.6682V128.656H45.3242V127.552H45.6842V128.656H46.9722V128.968H45.6842ZM49.8896 128.568C50.4016 128.568 50.8203 128.728 51.1456 129.048C51.471 129.363 51.6336 129.832 51.6336 130.456V133H51.2816V130.48C51.2816 129.963 51.151 129.568 50.8896 129.296C50.6283 129.019 50.2736 128.88 49.8256 128.88C49.3563 128.88 48.9803 129.029 48.6976 129.328C48.4203 129.627 48.2816 130.069 48.2816 130.656V133H47.9216V127.08H48.2816V129.576C48.4043 129.251 48.6096 129.003 48.8976 128.832C49.1856 128.656 49.5163 128.568 49.8896 128.568ZM56.818 130.536C56.818 130.728 56.8127 130.872 56.802 130.968H53.05C53.0607 131.357 53.146 131.685 53.306 131.952C53.466 132.219 53.6767 132.419 53.938 132.552C54.1993 132.685 54.4847 132.752 54.794 132.752C55.2207 132.752 55.578 132.648 55.866 132.44C56.154 132.227 56.3353 131.939 56.41 131.576H56.786C56.7007 132.019 56.482 132.379 56.13 132.656C55.778 132.928 55.3327 133.064 54.794 133.064C54.3887 133.064 54.026 132.973 53.706 132.792C53.386 132.611 53.1353 132.352 52.954 132.016C52.7727 131.675 52.682 131.277 52.682 130.824C52.682 130.371 52.77 129.976 52.946 129.64C53.1273 129.304 53.378 129.048 53.698 128.872C54.018 128.691 54.3833 128.6 54.794 128.6C55.21 128.6 55.57 128.691 55.874 128.872C56.1833 129.048 56.418 129.285 56.578 129.584C56.738 129.877 56.818 130.195 56.818 130.536ZM56.458 130.672C56.474 130.288 56.4047 129.963 56.25 129.696C56.1007 129.429 55.8953 129.232 55.634 129.104C55.3727 128.971 55.09 128.904 54.786 128.904C54.482 128.904 54.1993 128.971 53.938 129.104C53.682 129.232 53.4713 129.429 53.306 129.696C53.146 129.963 53.0607 130.288 53.05 130.672H56.458ZM60.5238 129.552C60.6305 129.232 60.8198 128.989 61.0918 128.824C61.3638 128.653 61.7105 128.568 62.1318 128.568V128.944H62.0118C61.5851 128.944 61.2305 129.067 60.9478 129.312C60.6651 129.552 60.5238 129.947 60.5238 130.496V133H60.1638V128.656H60.5238V129.552ZM66.8727 130.536C66.8727 130.728 66.8674 130.872 66.8567 130.968H63.1047C63.1154 131.357 63.2007 131.685 63.3607 131.952C63.5207 132.219 63.7314 132.419 63.9927 132.552C64.254 132.685 64.5394 132.752 64.8487 132.752C65.2754 132.752 65.6327 132.648 65.9207 132.44C66.2087 132.227 66.39 131.939 66.4647 131.576H66.8407C66.7554 132.019 66.5367 132.379 66.1847 132.656C65.8327 132.928 65.3874 133.064 64.8487 133.064C64.4434 133.064 64.0807 132.973 63.7607 132.792C63.4407 132.611 63.19 132.352 63.0087 132.016C62.8274 131.675 62.7367 131.277 62.7367 130.824C62.7367 130.371 62.8247 129.976 63.0007 129.64C63.182 129.304 63.4327 129.048 63.7527 128.872C64.0727 128.691 64.438 128.6 64.8487 128.6C65.2647 128.6 65.6247 128.691 65.9287 128.872C66.238 129.048 66.4727 129.285 66.6327 129.584C66.7927 129.877 66.8727 130.195 66.8727 130.536ZM66.5127 130.672C66.5287 130.288 66.4594 129.963 66.3047 129.696C66.1554 129.429 65.95 129.232 65.6887 129.104C65.4274 128.971 65.1447 128.904 64.8407 128.904C64.5367 128.904 64.254 128.971 63.9927 129.104C63.7367 129.232 63.526 129.429 63.3607 129.696C63.2007 129.963 63.1154 130.288 63.1047 130.672H66.5127ZM67.7367 130.824C67.7367 130.371 67.8247 129.976 68.0007 129.64C68.182 129.304 68.43 129.048 68.7447 128.872C69.0647 128.691 69.43 128.6 69.8407 128.6C70.3847 128.6 70.83 128.736 71.1767 129.008C71.5287 129.28 71.7474 129.645 71.8327 130.104H71.4567C71.3874 129.731 71.206 129.437 70.9127 129.224C70.6247 129.011 70.2674 128.904 69.8407 128.904C69.5207 128.904 69.23 128.976 68.9687 129.12C68.7074 129.259 68.4967 129.475 68.3367 129.768C68.182 130.056 68.1047 130.408 68.1047 130.824C68.1047 131.245 68.182 131.6 68.3367 131.888C68.4967 132.176 68.7074 132.392 68.9687 132.536C69.23 132.68 69.5207 132.752 69.8407 132.752C70.2674 132.752 70.6247 132.645 70.9127 132.432C71.206 132.219 71.3874 131.925 71.4567 131.552H71.8327C71.7474 132.005 71.5287 132.371 71.1767 132.648C70.8247 132.925 70.3794 133.064 69.8407 133.064C69.43 133.064 69.0647 132.973 68.7447 132.792C68.43 132.611 68.182 132.352 68.0007 132.016C67.8247 131.675 67.7367 131.277 67.7367 130.824ZM76.3214 128.656L73.7934 135.04H73.4254L74.2334 133L72.4094 128.656H72.8014L74.4334 132.6L75.9534 128.656H76.3214ZM76.9008 130.824C76.9008 130.371 76.9888 129.976 77.1648 129.64C77.3461 129.304 77.5941 129.048 77.9088 128.872C78.2288 128.691 78.5941 128.6 79.0048 128.6C79.5488 128.6 79.9941 128.736 80.3408 129.008C80.6928 129.28 80.9114 129.645 80.9968 130.104H80.6208C80.5514 129.731 80.3701 129.437 80.0768 129.224C79.7888 129.011 79.4314 128.904 79.0048 128.904C78.6848 128.904 78.3941 128.976 78.1328 129.12C77.8714 129.259 77.6608 129.475 77.5008 129.768C77.3461 130.056 77.2688 130.408 77.2688 130.824C77.2688 131.245 77.3461 131.6 77.5008 131.888C77.6608 132.176 77.8714 132.392 78.1328 132.536C78.3941 132.68 78.6848 132.752 79.0048 132.752C79.4314 132.752 79.7888 132.645 80.0768 132.432C80.3701 132.219 80.5514 131.925 80.6208 131.552H80.9968C80.9114 132.005 80.6928 132.371 80.3408 132.648C79.9888 132.925 79.5434 133.064 79.0048 133.064C78.5941 133.064 78.2288 132.973 77.9088 132.792C77.5941 132.611 77.3461 132.352 77.1648 132.016C76.9888 131.675 76.9008 131.277 76.9008 130.824ZM82.4535 127.08V133H82.0935V127.08H82.4535ZM83.9572 127.688C83.8719 127.688 83.7999 127.661 83.7412 127.608C83.6825 127.549 83.6532 127.472 83.6532 127.376C83.6532 127.285 83.6825 127.211 83.7412 127.152C83.7999 127.093 83.8719 127.064 83.9572 127.064C84.0425 127.064 84.1145 127.093 84.1732 127.152C84.2319 127.211 84.2612 127.285 84.2612 127.376C84.2612 127.472 84.2319 127.549 84.1732 127.608C84.1145 127.661 84.0425 127.688 83.9572 127.688ZM84.1332 128.656V133H83.7732V128.656H84.1332ZM87.4129 128.568C87.9302 128.568 88.3515 128.728 88.6769 129.048C89.0022 129.363 89.1649 129.832 89.1649 130.456V133H88.8129V130.48C88.8129 129.963 88.6822 129.568 88.4209 129.296C88.1595 129.019 87.8049 128.88 87.3569 128.88C86.8875 128.88 86.5115 129.029 86.2289 129.328C85.9515 129.627 85.8129 130.069 85.8129 130.656V133H85.4529V128.656H85.8129V129.576C85.9355 129.251 86.1382 129.003 86.4209 128.832C86.7089 128.656 87.0395 128.568 87.4129 128.568ZM92.3093 128.6C92.7679 128.6 93.1573 128.712 93.4773 128.936C93.7973 129.155 94.0213 129.437 94.1493 129.784V128.656H94.5093V133.136C94.5093 133.536 94.4213 133.885 94.2453 134.184C94.0693 134.488 93.8319 134.72 93.5333 134.88C93.2346 135.045 92.9013 135.128 92.5333 135.128C91.9893 135.128 91.5386 134.997 91.1813 134.736C90.8239 134.475 90.5893 134.123 90.4773 133.68H90.8372C90.9439 134.027 91.1439 134.301 91.4373 134.504C91.7306 134.712 92.0959 134.816 92.5333 134.816C92.8373 134.816 93.1119 134.747 93.3573 134.608C93.6026 134.475 93.7946 134.28 93.9333 134.024C94.0773 133.773 94.1493 133.477 94.1493 133.136V131.864C94.0213 132.211 93.7946 132.499 93.4693 132.728C93.1493 132.952 92.7626 133.064 92.3093 133.064C91.9039 133.064 91.5413 132.973 91.2213 132.792C90.9066 132.605 90.6586 132.344 90.4773 132.008C90.3013 131.667 90.2133 131.272 90.2133 130.824C90.2133 130.376 90.3013 129.984 90.4773 129.648C90.6586 129.312 90.9066 129.053 91.2213 128.872C91.5413 128.691 91.9039 128.6 92.3093 128.6ZM94.1493 130.824C94.1493 130.445 94.0693 130.112 93.9093 129.824C93.7546 129.531 93.5413 129.307 93.2693 129.152C92.9973 128.992 92.6933 128.912 92.3573 128.912C92.0053 128.912 91.6959 128.989 91.4293 129.144C91.1626 129.293 90.9546 129.512 90.8053 129.8C90.6559 130.088 90.5813 130.429 90.5813 130.824C90.5813 131.219 90.6559 131.56 90.8053 131.848C90.9546 132.136 91.1626 132.357 91.4293 132.512C91.7013 132.667 92.0106 132.744 92.3573 132.744C92.6933 132.744 92.9973 132.667 93.2693 132.512C93.5466 132.352 93.7626 132.128 93.9173 131.84C94.0719 131.547 94.1493 131.208 94.1493 130.824ZM99.9899 133.064C99.5845 133.064 99.2192 132.973 98.8939 132.792C98.5685 132.611 98.3125 132.352 98.1259 132.016C97.9445 131.675 97.8539 131.277 97.8539 130.824C97.8539 130.376 97.9472 129.984 98.1339 129.648C98.3205 129.307 98.5765 129.048 98.9019 128.872C99.2325 128.691 99.6005 128.6 100.006 128.6C100.411 128.6 100.777 128.691 101.102 128.872C101.427 129.048 101.681 129.304 101.862 129.64C102.049 129.976 102.142 130.371 102.142 130.824C102.142 131.277 102.049 131.675 101.862 132.016C101.675 132.352 101.417 132.611 101.086 132.792C100.761 132.973 100.395 133.064 99.9899 133.064ZM99.9899 132.744C100.305 132.744 100.598 132.675 100.87 132.536C101.147 132.392 101.369 132.176 101.534 131.888C101.699 131.6 101.782 131.245 101.782 130.824C101.782 130.408 101.699 130.056 101.534 129.768C101.369 129.48 101.15 129.267 100.878 129.128C100.606 128.984 100.313 128.912 99.9979 128.912C99.6832 128.912 99.3899 128.984 99.1179 129.128C98.8512 129.267 98.6352 129.48 98.4699 129.768C98.3045 130.056 98.2219 130.408 98.2219 130.824C98.2219 131.245 98.3019 131.6 98.4619 131.888C98.6272 132.176 98.8432 132.392 99.1099 132.536C99.3819 132.675 99.6752 132.744 99.9899 132.744ZM103.594 129.552C103.701 129.232 103.89 128.989 104.162 128.824C104.434 128.653 104.781 128.568 105.202 128.568V128.944H105.082C104.655 128.944 104.301 129.067 104.018 129.312C103.735 129.552 103.594 129.947 103.594 130.496V133H103.234V128.656H103.594V129.552ZM106.391 129.8C106.524 129.448 106.751 129.16 107.071 128.936C107.391 128.712 107.778 128.6 108.231 128.6C108.636 128.6 108.996 128.691 109.311 128.872C109.631 129.053 109.879 129.312 110.055 129.648C110.236 129.984 110.327 130.376 110.327 130.824C110.327 131.272 110.236 131.667 110.055 132.008C109.879 132.344 109.631 132.605 109.311 132.792C108.996 132.973 108.636 133.064 108.231 133.064C107.778 133.064 107.388 132.952 107.063 132.728C106.743 132.504 106.519 132.216 106.391 131.864V133H106.031V127.08H106.391V129.8ZM109.959 130.824C109.959 130.429 109.884 130.088 109.735 129.8C109.586 129.512 109.375 129.293 109.103 129.144C108.836 128.989 108.527 128.912 108.175 128.912C107.839 128.912 107.535 128.992 107.263 129.152C106.991 129.307 106.778 129.531 106.623 129.824C106.468 130.112 106.391 130.445 106.391 130.824C106.391 131.208 106.468 131.547 106.623 131.84C106.778 132.128 106.991 132.352 107.263 132.512C107.535 132.667 107.839 132.744 108.175 132.744C108.527 132.744 108.836 132.667 109.103 132.512C109.375 132.357 109.586 132.136 109.735 131.848C109.884 131.56 109.959 131.219 109.959 130.824ZM111.598 127.688C111.512 127.688 111.44 127.661 111.382 127.608C111.323 127.549 111.294 127.472 111.294 127.376C111.294 127.285 111.323 127.211 111.382 127.152C111.44 127.093 111.512 127.064 111.598 127.064C111.683 127.064 111.755 127.093 111.814 127.152C111.872 127.211 111.902 127.285 111.902 127.376C111.902 127.472 111.872 127.549 111.814 127.608C111.755 127.661 111.683 127.688 111.598 127.688ZM111.774 128.656V133H111.414V128.656H111.774ZM113.63 128.968V131.84C113.63 132.16 113.688 132.381 113.806 132.504C113.923 132.621 114.131 132.68 114.43 132.68H114.918V133H114.374C113.995 133 113.715 132.912 113.534 132.736C113.358 132.555 113.27 132.256 113.27 131.84V128.968H112.614V128.656H113.27V127.552H113.63V128.656H114.918V128.968H113.63ZM116.395 127.384L116.355 131.632H116.043L115.995 127.384H116.395ZM116.219 133.024C116.128 133.024 116.054 132.995 115.995 132.936C115.936 132.877 115.907 132.803 115.907 132.712C115.907 132.621 115.936 132.547 115.995 132.488C116.054 132.429 116.128 132.4 116.219 132.4C116.304 132.4 116.376 132.429 116.435 132.488C116.494 132.547 116.523 132.621 116.523 132.712C116.523 132.803 116.494 132.877 116.435 132.936C116.376 132.995 116.304 133.024 116.219 133.024Z" fill="black"/>
<path d="M30.7348 4.66V13H29.3668V7.288L26.8228 13H25.8748L23.3188 7.288V13H21.9508V4.66H23.4268L26.3548 11.2L29.2708 4.66H30.7348ZM38.5928 9.532C38.5928 9.78 38.5768 10.004 38.5448 10.204H33.4928C33.5328 10.732 33.7288 11.156 34.0808 11.476C34.4328 11.796 34.8648 11.956 35.3768 11.956C36.1128 11.956 36.6328 11.648 36.9368 11.032H38.4128C38.2128 11.64 37.8488 12.14 37.3208 12.532C36.8008 12.916 36.1528 13.108 35.3768 13.108C34.7448 13.108 34.1768 12.968 33.6728 12.688C33.1768 12.4 32.7848 12 32.4968 11.488C32.2168 10.968 32.0768 10.368 32.0768 9.688C32.0768 9.008 32.2128 8.412 32.4848 7.9C32.7648 7.38 33.1528 6.98 33.6488 6.7C34.1528 6.42 34.7288 6.28 35.3768 6.28C36.0008 6.28 36.5568 6.416 37.0448 6.688C37.5328 6.96 37.9128 7.344 38.1848 7.84C38.4568 8.328 38.5928 8.892 38.5928 9.532ZM37.1648 9.1C37.1568 8.596 36.9768 8.192 36.6248 7.888C36.2728 7.584 35.8368 7.432 35.3168 7.432C34.8448 7.432 34.4408 7.584 34.1048 7.888C33.7688 8.184 33.5688 8.588 33.5048 9.1H37.1648ZM41.5351 7.504V11.164C41.5351 11.412 41.5911 11.592 41.7031 11.704C41.8231 11.808 42.0231 11.86 42.3031 11.86H43.1431V13H42.0631C41.4471 13 40.9751 12.856 40.6471 12.568C40.3191 12.28 40.1551 11.812 40.1551 11.164V7.504H39.3751V6.388H40.1551V4.744H41.5351V6.388H43.1431V7.504H41.5351ZM43.9479 9.664C43.9479 9 44.0839 8.412 44.3559 7.9C44.6359 7.388 45.0119 6.992 45.4839 6.712C45.9639 6.424 46.4919 6.28 47.0679 6.28C47.5879 6.28 48.0399 6.384 48.4239 6.592C48.8159 6.792 49.1279 7.044 49.3599 7.348V6.388H50.7399V13H49.3599V12.016C49.1279 12.328 48.8119 12.588 48.4119 12.796C48.0119 13.004 47.5559 13.108 47.0439 13.108C46.4759 13.108 45.9559 12.964 45.4839 12.676C45.0119 12.38 44.6359 11.972 44.3559 11.452C44.0839 10.924 43.9479 10.328 43.9479 9.664ZM49.3599 9.688C49.3599 9.232 49.2639 8.836 49.0719 8.5C48.8879 8.164 48.6439 7.908 48.3399 7.732C48.0359 7.556 47.7079 7.468 47.3559 7.468C47.0039 7.468 46.6759 7.556 46.3719 7.732C46.0679 7.9 45.8199 8.152 45.6279 8.488C45.4439 8.816 45.3519 9.208 45.3519 9.664C45.3519 10.12 45.4439 10.52 45.6279 10.864C45.8199 11.208 46.0679 11.472 46.3719 11.656C46.6839 11.832 47.0119 11.92 47.3559 11.92C47.7079 11.92 48.0359 11.832 48.3399 11.656C48.6439 11.48 48.8879 11.224 49.0719 10.888C49.2639 10.544 49.3599 10.144 49.3599 9.688ZM53.9047 4.12V13H52.5367V4.12H53.9047ZM67.602 4.66V13H66.234V7.288L63.69 13H62.742L60.186 7.288V13H58.818V4.66H60.294L63.222 11.2L66.138 4.66H67.602ZM70.096 5.512C69.848 5.512 69.64 5.428 69.472 5.26C69.304 5.092 69.22 4.884 69.22 4.636C69.22 4.388 69.304 4.18 69.472 4.012C69.64 3.844 69.848 3.76 70.096 3.76C70.336 3.76 70.54 3.844 70.708 4.012C70.876 4.18 70.96 4.388 70.96 4.636C70.96 4.884 70.876 5.092 70.708 5.26C70.54 5.428 70.336 5.512 70.096 5.512ZM70.768 6.388V13H69.4V6.388H70.768ZM74.9641 13.108C74.4441 13.108 73.9761 13.016 73.5601 12.832C73.1521 12.64 72.8281 12.384 72.5881 12.064C72.3481 11.736 72.2201 11.372 72.2041 10.972H73.6201C73.6441 11.252 73.7761 11.488 74.0161 11.68C74.2641 11.864 74.5721 11.956 74.9401 11.956C75.3241 11.956 75.6201 11.884 75.8281 11.74C76.0441 11.588 76.1521 11.396 76.1521 11.164C76.1521 10.916 76.0321 10.732 75.7921 10.612C75.5601 10.492 75.1881 10.36 74.6761 10.216C74.1801 10.08 73.7761 9.948 73.4641 9.82C73.1521 9.692 72.8801 9.496 72.6481 9.232C72.4241 8.968 72.3121 8.62 72.3121 8.188C72.3121 7.836 72.4161 7.516 72.6241 7.228C72.8321 6.932 73.1281 6.7 73.5121 6.532C73.9041 6.364 74.3521 6.28 74.8561 6.28C75.6081 6.28 76.2121 6.472 76.6681 6.856C77.1321 7.232 77.3801 7.748 77.4121 8.404H76.0441C76.0201 8.108 75.9001 7.872 75.6841 7.696C75.4681 7.52 75.1761 7.432 74.8081 7.432C74.4481 7.432 74.1721 7.5 73.9801 7.636C73.7881 7.772 73.6921 7.952 73.6921 8.176C73.6921 8.352 73.7561 8.5 73.8841 8.62C74.0121 8.74 74.1681 8.836 74.3521 8.908C74.5361 8.972 74.8081 9.056 75.1681 9.16C75.6481 9.288 76.0401 9.42 76.3441 9.556C76.6561 9.684 76.9241 9.876 77.1481 10.132C77.3721 10.388 77.4881 10.728 77.4961 11.152C77.4961 11.528 77.3921 11.864 77.1841 12.16C76.9761 12.456 76.6801 12.688 76.2961 12.856C75.9201 13.024 75.4761 13.108 74.9641 13.108ZM81.3742 13.108C80.8542 13.108 80.3862 13.016 79.9702 12.832C79.5622 12.64 79.2382 12.384 78.9982 12.064C78.7582 11.736 78.6302 11.372 78.6142 10.972H80.0302C80.0542 11.252 80.1862 11.488 80.4262 11.68C80.6742 11.864 80.9822 11.956 81.3502 11.956C81.7342 11.956 82.0302 11.884 82.2382 11.74C82.4542 11.588 82.5622 11.396 82.5622 11.164C82.5622 10.916 82.4422 10.732 82.2022 10.612C81.9702 10.492 81.5982 10.36 81.0862 10.216C80.5902 10.08 80.1862 9.948 79.8742 9.82C79.5622 9.692 79.2902 9.496 79.0582 9.232C78.8342 8.968 78.7222 8.62 78.7222 8.188C78.7222 7.836 78.8262 7.516 79.0342 7.228C79.2422 6.932 79.5382 6.7 79.9222 6.532C80.3142 6.364 80.7622 6.28 81.2662 6.28C82.0182 6.28 82.6222 6.472 83.0782 6.856C83.5422 7.232 83.7902 7.748 83.8222 8.404H82.4542C82.4302 8.108 82.3102 7.872 82.0942 7.696C81.8782 7.52 81.5862 7.432 81.2182 7.432C80.8582 7.432 80.5822 7.5 80.3902 7.636C80.1982 7.772 80.1022 7.952 80.1022 8.176C80.1022 8.352 80.1662 8.5 80.2942 8.62C80.4222 8.74 80.5782 8.836 80.7622 8.908C80.9462 8.972 81.2182 9.056 81.5782 9.16C82.0582 9.288 82.4502 9.42 82.7542 9.556C83.0662 9.684 83.3342 9.876 83.5582 10.132C83.7822 10.388 83.8982 10.728 83.9062 11.152C83.9062 11.528 83.8022 11.864 83.5942 12.16C83.3862 12.456 83.0902 12.688 82.7062 12.856C82.3302 13.024 81.8862 13.108 81.3742 13.108ZM86.0804 5.512C85.8324 5.512 85.6244 5.428 85.4564 5.26C85.2884 5.092 85.2044 4.884 85.2044 4.636C85.2044 4.388 85.2884 4.18 85.4564 4.012C85.6244 3.844 85.8324 3.76 86.0804 3.76C86.3204 3.76 86.5244 3.844 86.6924 4.012C86.8604 4.18 86.9444 4.388 86.9444 4.636C86.9444 4.884 86.8604 5.092 86.6924 5.26C86.5244 5.428 86.3204 5.512 86.0804 5.512ZM86.7524 6.388V13H85.3844V6.388H86.7524ZM91.4164 13.108C90.7924 13.108 90.2284 12.968 89.7244 12.688C89.2204 12.4 88.8244 12 88.5364 11.488C88.2484 10.968 88.1044 10.368 88.1044 9.688C88.1044 9.016 88.2524 8.42 88.5484 7.9C88.8444 7.38 89.2484 6.98 89.7604 6.7C90.2724 6.42 90.8444 6.28 91.4764 6.28C92.1084 6.28 92.6804 6.42 93.1924 6.7C93.7044 6.98 94.1084 7.38 94.4044 7.9C94.7004 8.42 94.8484 9.016 94.8484 9.688C94.8484 10.36 94.6964 10.956 94.3924 11.476C94.0884 11.996 93.6724 12.4 93.1444 12.688C92.6244 12.968 92.0484 13.108 91.4164 13.108ZM91.4164 11.92C91.7684 11.92 92.0964 11.836 92.4004 11.668C92.7124 11.5 92.9644 11.248 93.1564 10.912C93.3484 10.576 93.4444 10.168 93.4444 9.688C93.4444 9.208 93.3524 8.804 93.1684 8.476C92.9844 8.14 92.7404 7.888 92.4364 7.72C92.1324 7.552 91.8044 7.468 91.4524 7.468C91.1004 7.468 90.7724 7.552 90.4684 7.72C90.1724 7.888 89.9364 8.14 89.7604 8.476C89.5844 8.804 89.4964 9.208 89.4964 9.688C89.4964 10.4 89.6764 10.952 90.0364 11.344C90.4044 11.728 90.8644 11.92 91.4164 11.92ZM99.5368 6.28C100.057 6.28 100.521 6.388 100.929 6.604C101.345 6.82 101.669 7.14 101.901 7.564C102.133 7.988 102.249 8.5 102.249 9.1V13H100.893V9.304C100.893 8.712 100.745 8.26 100.449 7.948C100.153 7.628 99.7488 7.468 99.2368 7.468C98.7248 7.468 98.3168 7.628 98.0128 7.948C97.7168 8.26 97.5688 8.712 97.5688 9.304V13H96.2008V6.388H97.5688V7.144C97.7928 6.872 98.0768 6.66 98.4208 6.508C98.7728 6.356 99.1448 6.28 99.5368 6.28ZM105.71 4.66L105.554 10.48H104.414L104.258 4.66H105.71ZM105.026 13.084C104.778 13.084 104.57 13 104.402 12.832C104.234 12.664 104.15 12.456 104.15 12.208C104.15 11.96 104.234 11.752 104.402 11.584C104.57 11.416 104.778 11.332 105.026 11.332C105.266 11.332 105.47 11.416 105.638 11.584C105.806 11.752 105.89 11.96 105.89 12.208C105.89 12.456 105.806 12.664 105.638 12.832C105.47 13 105.266 13.084 105.026 13.084Z" fill="black"/>
<path d="M60.1514 50.6659C61.0124 50.4814 62.7344 49.9648 62.7344 49.3743C62.7376 49.3584 62.7409 49.3424 62.7443 49.3265C62.7489 49.3047 62.7536 49.283 62.7583 49.2614C63.0184 48.7051 65.3069 49.3259 65.1329 51.5884C65.003 53.277 63.7757 53.5024 62.8031 53.6811C62.3942 53.7562 62.0303 53.8231 61.8119 53.9869C61.4827 54.2338 61.6307 54.701 61.7811 55.1756C61.9679 55.7648 62.1583 56.3655 61.4429 56.5699C61.0124 56.6929 60.4999 56.6929 60.0079 56.6929C59.0238 56.6929 58.1218 56.6929 58.1218 57.6769C58.1218 58.4396 57.6785 59.0544 57.25 59.6488C56.8492 60.2047 56.4613 60.7428 56.4613 61.367C56.4613 61.7631 56.6696 62.1765 56.8758 62.586C57.3421 63.5118 57.7983 64.4174 55.8156 65.057C54.1194 65.6041 53.2994 64.6585 52.7205 63.9909C52.3234 63.5328 52.0396 63.2056 51.6643 63.581C51.2295 64.0157 51.6143 64.8192 52.0461 65.7211C52.5307 66.7331 53.0746 67.869 52.5868 68.747C52.2051 69.4341 51.5076 69.9948 50.8209 70.5467C49.8479 71.3288 48.8967 72.0934 48.8967 73.1751C47.6052 72.6216 45.0222 71.1087 45.0222 69.485C45.0222 68.6104 44.4397 67.3931 43.8063 66.0695C42.9699 64.3216 42.0447 62.3883 42.2547 60.8135C42.5149 58.8619 43.7843 58.103 44.8984 57.437C45.3642 57.1585 45.8028 56.8963 46.1292 56.5699C46.8587 55.8405 48.1489 55.4315 49.2608 55.079C49.8364 54.8965 50.3642 54.7292 50.7418 54.5404C51.2668 54.2779 51.3768 53.3511 51.5049 52.2722C51.6468 51.0764 51.8109 49.6937 52.5868 48.8208C53.7676 47.4924 58.1218 49.4973 60.1514 50.6659Z" fill="#4EB6B7"/>
<path d="M67.3469 50.4814C68.0849 50.6044 69.3764 51.1825 68.6384 52.5109C67.7159 54.1714 66.4244 53.6179 66.2399 53.2489C66.0554 52.8799 65.3174 50.4814 67.3469 50.4814Z" fill="#4EB6B7"/>
<path d="M90.2251 74.6511C91.3322 74.8971 93.1772 75.8688 91.7012 77.7876C90.8402 78.0951 89.1181 78.3042 89.1181 76.6806C89.1181 74.6511 89.6716 74.4833 90.2251 74.6511Z" fill="#4EB6B7"/>
<path d="M67.9004 37.7507C70.8871 37.7507 73.7909 38.1056 76.572 38.7754C77.5567 39.744 79.0051 41.267 80.2621 42.7924C75.0619 41.9771 64.3236 42.1401 62.7583 49.2614C62.7427 49.2948 62.7344 49.3325 62.7344 49.3743C62.7344 49.9648 61.0124 50.4814 60.1514 50.6659C60.5053 49.6041 59.1242 48.4669 57.7687 47.3508C57.0043 46.7213 56.248 46.0986 55.8156 45.4998C54.8561 44.1714 54.5907 41.4324 54.5779 40.229C58.7104 38.6285 63.2029 37.7507 67.9004 37.7507Z" fill="#90D4E1"/>
<path d="M54.5779 82.1234C53.1163 80.5515 51.1511 78.777 48.8967 77.2028C49.3314 76.3704 49.219 75.7214 49.076 74.8948C48.9917 74.4078 48.8967 73.8592 48.8967 73.1751C50.4056 73.6462 53.4921 75.1113 53.7677 77.2028C53.9 78.7922 54.2148 80.5407 54.5779 82.1234Z" fill="#90D4E1"/>
<path d="M31.0001 74.6468C31.0018 58.9667 40.7837 45.5715 54.5779 40.229C54.5907 41.4324 54.8561 44.1714 55.8156 45.4998C56.248 46.0986 57.0043 46.7213 57.7687 47.3508C59.1242 48.4669 60.5053 49.6041 60.1514 50.6659C58.1218 49.4973 53.7676 47.4924 52.5868 48.8208C51.8109 49.6937 51.6468 51.0764 51.5049 52.2722C51.3768 53.3511 51.2668 54.2779 50.7418 54.5404C50.3642 54.7292 49.8364 54.8965 49.2608 55.079C48.1489 55.4315 46.8587 55.8405 46.1292 56.5699C45.8028 56.8963 45.3642 57.1585 44.8984 57.437C43.7843 58.103 42.5149 58.8619 42.2547 60.8135C42.0447 62.3883 42.9699 64.3216 43.8063 66.0695C44.4397 67.3931 45.0222 68.6104 45.0222 69.485C45.0222 71.1087 47.6052 72.6216 48.8967 73.1751C48.8967 73.8592 48.9917 74.4078 49.076 74.8948C49.219 75.7214 49.3314 76.3704 48.8967 77.2028C43.5995 73.5037 36.7061 70.91 31.0001 74.6468Z" fill="#3E9FB2"/>
<path d="M69.2642 100.251C68.2642 100.084 66.2642 100.151 66.2642 101.751C66.2642 103.751 70.2642 104.251 70.2642 102.751C70.2642 102.654 70.3537 102.535 70.4595 102.396C70.8161 101.925 71.3567 101.211 69.2642 100.251Z" fill="#4EB6B7"/>
<path d="M31.0566 76.7111C31.0191 76.0292 31.0001 75.3424 31.0001 74.6511V74.6468C36.7061 70.91 43.5995 73.5037 48.8967 77.2028C49.2355 77.794 49.648 78.9362 48.5885 78.7753C43.3744 75.3181 36.7662 73.1099 31.0566 76.7111Z" fill="#3E9FB2"/>
<path fill-rule="evenodd" clip-rule="evenodd" d="M80.2621 42.7924C81.6744 44.5063 82.8451 46.2232 82.8451 47.1603C82.8451 48.4654 83.4861 48.873 84.2015 49.3277C84.6997 49.6445 85.2339 49.9841 85.6126 50.6659C85.9757 51.3194 85.9672 52.2015 85.9584 53.1211C85.9449 54.538 85.9304 56.0438 87.2731 56.9389C87.8913 57.351 89.1279 57.7631 90.5693 58.2435C94.2906 59.4836 99.3772 61.1788 98.7122 64.5035C98.233 66.8996 96.7083 67.7522 95.3535 68.5098C94.1004 69.2106 92.9927 69.83 92.9927 71.5146C92.9927 73.7971 93.9313 74.5934 94.7391 75.2787C95.1719 75.6459 95.5671 75.9812 95.7602 76.4961C95.8774 76.8085 95.9945 77.2496 96.1291 77.7565C96.5897 79.4906 97.2548 81.9953 98.8247 82.7548H101.614C106.96 67.0075 90.7609 43.6533 80.2621 42.7924ZM101.614 82.7548C101.605 82.7814 101.596 82.808 101.587 82.8346L101.614 82.7548Z" fill="#4EB6B7"/>
<path fill-rule="evenodd" clip-rule="evenodd" d="M103.908 82.7548C104.151 81.6699 104.347 80.5669 104.492 79.4481C104.696 77.878 104.801 76.2768 104.801 74.6511C104.801 57.2583 92.7675 42.676 76.572 38.7754C77.5567 39.744 79.0051 41.267 80.2621 42.7924C90.7609 43.6533 106.96 67.0075 101.614 82.7548H103.908Z" fill="#3E9FB2"/>
<path fill-rule="evenodd" clip-rule="evenodd" d="M100.407 83.7507H103.677C103.468 84.6087 103.242 85.4418 102.999 86.2507H98.7643L97.7643 86.7507L98.7643 87.2507H102.686C102.463 87.9353 102.227 88.6018 101.98 89.2507H94.5897C96.4556 87.1349 98.645 85.1673 100.407 83.7507ZM93.7643 90.2239L101.592 90.2326C96.6591 102.248 87.5794 107.961 78.6578 110.251C78.1727 107.451 81.8599 106.084 83.7641 105.751C86.7641 105.251 90.7641 102.751 90.5693 96.9758C90.5477 96.3363 90.6716 95.6563 90.9111 94.9518C91.4264 93.4356 92.4771 91.8062 93.7643 90.2239Z" fill="#3E9FB2"/>
<path d="M48.5885 78.7753C50.4535 80.0119 52.1401 81.4083 53.5435 82.7558C47.4523 82.9617 41.4217 86.3261 40.0407 90.5183C39.3642 89.3497 37.7159 86.902 36.5351 86.4592C35.0591 85.9057 36.1661 80.9242 37.6421 81.7718C38.6166 82.3314 39.3498 81.3002 40.1072 80.235C40.497 79.6867 40.8933 79.1294 41.3322 78.7753C42.3654 77.9419 46.6002 78.4281 48.5885 78.7753Z" fill="#90D4E1"/>
<path fill-rule="evenodd" clip-rule="evenodd" d="M54.7277 82.7562C54.6771 82.5488 54.6271 82.3376 54.5779 82.1234C53.1163 80.5515 51.1511 78.777 48.8967 77.2028C49.2355 77.794 49.648 78.9362 48.5885 78.7753C50.4535 80.0119 52.1401 81.4083 53.5435 82.7558C53.9384 82.7424 54.3335 82.7423 54.7277 82.7562Z" fill="#90D4E1"/>
<path fill-rule="evenodd" clip-rule="evenodd" d="M57.1234 83.0211C57.4815 82.218 57.8325 81.3151 58.1218 80.3801C59.1449 77.0736 59.3964 73.3659 56.4613 72.2526C53.999 71.3186 53.4945 73.9216 53.7677 77.2028C53.9 78.7922 54.2148 80.5407 54.5779 82.1234C54.6271 82.3376 54.6771 82.5488 54.7277 82.7562C55.0249 82.7666 55.3214 82.7849 55.6169 82.8114C55.8243 82.83 56.0311 82.8527 56.2372 82.8794C56.5343 82.918 56.8299 82.9651 57.1234 83.0211Z" fill="#ADDEE2"/>
<path fill-rule="evenodd" clip-rule="evenodd" d="M57.5217 83.1029C59.1254 81.276 61.4411 79.0954 62.7344 79.4481V77.9721C62.0051 77.7324 60.0616 77.8783 58.1218 80.3801C57.8325 81.3151 57.4815 82.218 57.1234 83.0211C57.2567 83.0465 57.3894 83.0738 57.5217 83.1029Z" fill="#ADDEE2"/>
<path fill-rule="evenodd" clip-rule="evenodd" d="M57.5217 83.1029C59.1254 81.276 61.4411 79.0954 62.7344 79.4481V77.9721C62.0051 77.7324 60.0616 77.8783 58.1218 80.3801C59.1449 77.0736 59.3964 73.3659 56.4613 72.2526C53.999 71.3186 53.4945 73.9216 53.7677 77.2028C53.4921 75.1113 50.4056 73.6462 48.8967 73.1751C48.8967 72.0934 49.8479 71.3288 50.8209 70.5467C51.5076 69.9948 52.2051 69.4341 52.5868 68.747C53.0746 67.869 52.5307 66.7331 52.0461 65.7211C51.6143 64.8192 51.2295 64.0157 51.6643 63.581C52.0396 63.2056 52.3234 63.5328 52.7205 63.9909C53.2994 64.6585 54.1194 65.6041 55.8156 65.057C57.7983 64.4174 57.3421 63.5118 56.8758 62.586C56.6696 62.1765 56.4613 61.7631 56.4613 61.367C56.4613 60.7428 56.8492 60.2047 57.25 59.6488C57.6785 59.0544 58.1218 58.4396 58.1218 57.6769C58.1218 56.6929 59.0238 56.6929 60.0079 56.6929C60.4999 56.6929 61.0124 56.6929 61.4429 56.5699C62.1583 56.3655 61.9679 55.7648 61.7811 55.1756C61.6307 54.701 61.4827 54.2338 61.8119 53.9869C62.0303 53.8231 62.3942 53.7562 62.8031 53.6811C63.7757 53.5024 65.003 53.277 65.1329 51.5884C65.3069 49.3259 63.0184 48.7051 62.7583 49.2614C64.3236 42.1401 75.0619 41.9771 80.2621 42.7924C81.6744 44.5063 82.8451 46.2232 82.8451 47.1603C82.8451 48.4654 83.4861 48.873 84.2015 49.3277C84.6997 49.6445 85.2339 49.9841 85.6126 50.6659C85.9757 51.3194 85.9672 52.2015 85.9584 53.1211C85.9449 54.538 85.9304 56.0438 87.2731 56.9389C87.8913 57.351 89.1279 57.7631 90.5693 58.2435C94.2906 59.4836 99.3772 61.1788 98.7122 64.5035C98.233 66.8996 96.7083 67.7522 95.3535 68.5098C94.1004 69.2106 92.9927 69.83 92.9927 71.5146C92.9927 73.7971 93.9313 74.5934 94.7391 75.2787C95.1719 75.6459 95.5671 75.9812 95.7602 76.4961C95.8774 76.8085 95.9945 77.2496 96.1291 77.7565C96.5897 79.4906 97.2548 81.9953 98.8247 82.7548H96.7643L96.4354 83.0116L60.7174 84.2391C59.7061 83.7201 58.6307 83.3466 57.5217 83.1029ZM68.6384 52.5109C69.3764 51.1825 68.0849 50.6044 67.3469 50.4814C65.3174 50.4814 66.0554 52.8799 66.2399 53.2489C66.4244 53.6179 67.7159 54.1714 68.6384 52.5109ZM91.7012 77.7876C93.1772 75.8688 91.3322 74.8971 90.2251 74.6511C89.6716 74.4833 89.1181 74.6511 89.1181 76.6806C89.1181 78.3042 90.8402 78.0951 91.7012 77.7876Z" fill="#ADDEE2"/>
<path fill-rule="evenodd" clip-rule="evenodd" d="M31.0566 76.7111C31.4701 84.226 34.1322 91.1417 38.3815 96.7967C38.7697 94.6583 39.3788 92.5272 40.0407 90.5183C39.3642 89.3497 37.7159 86.902 36.5351 86.4592C35.0591 85.9057 36.1661 80.9242 37.6421 81.7718C38.6166 82.3314 39.3498 81.3002 40.1072 80.235C40.497 79.6867 40.8933 79.1294 41.3322 78.7753C42.3654 77.9419 46.6002 78.4281 48.5885 78.7753C43.3744 75.3181 36.7662 73.1099 31.0566 76.7111Z" fill="#3E9FB2"/>
<path fill-rule="evenodd" clip-rule="evenodd" d="M90.5693 96.9758C90.7641 102.751 86.7641 105.251 83.7641 105.751C81.8599 106.084 78.1727 107.451 78.6578 110.251C73.5623 111.559 68.5184 111.75 64.3282 111.361C65.284 110.357 66.0257 109.303 66.4634 108.304C69.6927 109.126 75.8724 109.028 76.2641 102.326C76.6641 95.4842 86.1954 94.5591 90.9111 94.9518C90.6716 95.6563 90.5477 96.3363 90.5693 96.9758ZM60.2451 110.398C60.2121 110.507 60.1872 110.621 60.1711 110.741C60.182 110.691 60.193 110.641 60.2039 110.591C60.2177 110.527 60.2314 110.463 60.2451 110.398Z" fill="#4EB6B7"/>
<path fill-rule="evenodd" clip-rule="evenodd" d="M96.4354 83.0116L60.7174 84.2391C63.7509 85.7956 66.2078 88.66 67.2643 93.2507C68.1467 97.0851 65.2313 101.36 63.5712 103.251C65.5282 103.701 66.5378 104.616 66.8248 105.751C67.0138 106.498 66.8694 107.377 66.4634 108.304C69.6927 109.126 75.8724 109.028 76.2641 102.326C76.6641 95.4842 86.1954 94.5591 90.9111 94.9518C91.4264 93.4356 92.4771 91.8062 93.7643 90.2239L92.7643 89.7507L93.7643 89.2507H94.5897C96.4556 87.1349 98.645 85.1673 100.407 83.7507H96.7643L96.1291 83.2507L96.4354 83.0116ZM69.2642 100.251C68.2642 100.084 66.2642 100.151 66.2642 101.751C66.2642 103.751 70.2642 104.251 70.2642 102.751C70.2642 102.654 70.3537 102.535 70.4595 102.396C70.8161 101.925 71.3567 101.211 69.2642 100.251Z" fill="#ADDEE2"/>
<path d="M101.98 89.2507L101.977 89.2575C101.852 89.5871 101.723 89.9121 101.592 90.2326L93.7643 90.2239C94.0302 89.897 94.3062 89.5722 94.5897 89.2507H101.98Z" fill="#3E9FB2"/>
<path d="M97.7643 86.7507L98.7643 86.2507H102.999C102.897 86.5883 102.793 86.9216 102.686 87.2507H98.7643L97.7643 86.7507Z" fill="#3E9FB2"/>
<path d="M101.587 82.8346L103.908 82.7548C103.834 83.0905 103.756 83.4224 103.677 83.7507H100.407C100.828 83.412 101.225 83.1048 101.587 82.8346Z" fill="#3E9FB2"/>
<path d="M103.908 82.7548L101.587 82.8346L101.614 82.7548H103.908Z" fill="#3E9FB2"/>
<path d="M101.587 82.8346L99.2657 82.9144C99.1112 82.8762 98.9644 82.8224 98.8247 82.7548H101.614L101.587 82.8346Z" fill="#4EB6B7"/>
<path d="M99.2657 82.9144L101.587 82.8346C101.225 83.1048 100.828 83.412 100.407 83.7507C99.7208 83.7507 99.3603 83.1932 99.2657 82.9144Z" fill="#4EB6B7"/>
<path d="M99.2657 82.9144C99.3603 83.1932 99.7208 83.7507 100.407 83.7507H96.7643L96.1291 83.2507L96.4354 83.0116L99.2657 82.9144Z" fill="#ADDEE2"/>
<path d="M96.4354 83.0116L96.7643 82.7548H98.8247C98.9644 82.8224 99.1112 82.8762 99.2657 82.9144L96.4354 83.0116Z" fill="#ADDEE2"/>
<path d="M92.7643 89.7507L93.7643 89.2507H94.5897C94.3062 89.5722 94.0302 89.897 93.7643 90.2239L92.7643 89.7507Z" fill="#ADDEE2"/>
<path d="M56.5591 85.7157C59.971 86.3957 63.6012 88.6423 67.2643 93.2507C66.0396 97.2357 63.7636 100.026 61.1519 101.944C61.238 96.1991 60.2338 89.7137 56.5591 85.7157Z" fill="#ADDEE2"/>
<path d="M55.8156 84.4075L56.4613 84.3853L58.1218 84.3283L60.7174 84.2391C63.7509 85.7956 66.2078 88.66 67.2643 93.2507C63.6012 88.6423 59.971 86.3957 56.5591 85.7157C56.1328 85.2519 55.6705 84.8215 55.1698 84.4297L55.8156 84.4075Z" fill="#ADDEE2"/>
<path d="M55.8156 84.4075L55.1698 84.4297C55.0231 83.9164 54.8731 83.3521 54.7277 82.7562C55.0249 82.7666 55.3214 82.7849 55.6169 82.8114C55.6797 83.3906 55.7483 83.9329 55.8156 84.4075Z" fill="#ADDEE2"/>
<path d="M55.8156 84.4075C55.7483 83.9329 55.6797 83.3906 55.6169 82.8114C55.8243 82.83 56.0311 82.8527 56.2372 82.8794C56.0936 83.438 55.9491 83.9573 55.8156 84.4075Z" fill="#ADDEE2"/>
<path d="M56.4613 84.3853L55.8156 84.4075C55.9491 83.9573 56.0936 83.438 56.2372 82.8794C56.5343 82.918 56.8299 82.9651 57.1234 83.0211C56.9011 83.5197 56.676 83.9799 56.4613 84.3853Z" fill="#ADDEE2"/>
<path d="M56.4613 84.3853C56.676 83.9799 56.9011 83.5197 57.1234 83.0211C57.2567 83.0465 57.3894 83.0738 57.5217 83.1029C57.1122 83.5695 56.7491 84.013 56.4613 84.3853Z" fill="#ADDEE2"/>
<path d="M58.1218 84.3283L56.4613 84.3853C56.7491 84.013 57.1122 83.5695 57.5217 83.1029C58.6307 83.3466 59.7061 83.7201 60.7174 84.2391L58.1218 84.3283Z" fill="#ADDEE2"/>
<path d="M40.7888 92.924C40.6422 92.1977 40.481 91.399 40.0407 90.5183C41.4217 86.3261 47.4523 82.9617 53.5435 82.7558C54.1393 83.3279 54.6841 83.8912 55.1698 84.4297C55.6705 84.8215 56.1328 85.2519 56.5591 85.7157C50.1387 84.4362 44.4908 88.704 40.8493 93.2205C40.829 93.123 40.809 93.0242 40.7888 92.924Z" fill="#90D4E1"/>
<path d="M55.1698 84.4297C54.6841 83.8912 54.1393 83.3279 53.5435 82.7558C53.9384 82.7424 54.3335 82.7423 54.7277 82.7562C54.8731 83.3521 55.0231 83.9164 55.1698 84.4297Z" fill="#90D4E1"/>
<path d="M49.9928 105.749C49.7972 102.698 48.6391 98.0092 45.0222 96.9758C41.8506 96.0696 41.252 94.9548 40.921 93.546C40.8959 93.4392 40.8723 93.3307 40.8493 93.2205C44.4908 88.704 50.1387 84.4362 56.5591 85.7157C60.2338 89.7137 61.238 96.1991 61.1519 101.944C57.5846 104.563 53.391 105.552 50.3947 105.729C50.2582 105.737 50.1242 105.744 49.9928 105.749Z" fill="#90D4E1"/>
<path d="M50.0222 106.939C45.463 104.409 41.4959 100.941 38.3815 96.7967C39.0448 95.6544 39.8753 94.4286 40.8493 93.2205C40.8723 93.3307 40.8959 93.4392 40.921 93.546C41.252 94.9548 41.8506 96.0696 45.0222 96.9758C48.6391 98.0092 49.7972 102.698 49.9928 105.749C49.6025 105.763 49.2356 105.763 48.8967 105.751C49.244 105.901 49.6181 106.044 50.0146 106.177C50.0246 106.449 50.0268 106.705 50.0222 106.939Z" fill="#3E9FB2"/>
<path d="M40.7888 92.924C40.809 93.0242 40.829 93.123 40.8493 93.2205C39.8753 94.4286 39.0448 95.6544 38.3815 96.7967C38.7697 94.6583 39.3788 92.5272 40.0407 90.5183C40.481 91.399 40.6422 92.1977 40.7888 92.924Z" fill="#3E9FB2"/>
<path d="M50.3947 105.729C53.391 105.552 57.5846 104.563 61.1519 101.944C61.1338 103.147 61.0679 104.318 60.9687 105.427C57.4313 107.532 53.239 107.207 50.2346 106.249L50.3947 105.729Z" fill="#90D4E1"/>
<path d="M67.2643 93.2507C68.1467 97.0851 65.2313 101.36 63.5712 103.251C62.7701 104.163 61.8917 104.878 60.9687 105.427C61.0679 104.318 61.1338 103.147 61.1519 101.944C63.7636 100.026 66.0396 97.2357 67.2643 93.2507Z" fill="#ADDEE2"/>
<path d="M60.1711 110.741C56.565 109.972 53.1539 108.677 50.0222 106.939L50.2346 106.249C53.239 107.207 57.4313 107.532 60.9687 105.427C60.8001 107.312 60.535 109.018 60.2451 110.398C60.2121 110.507 60.1872 110.621 60.1711 110.741Z" fill="#90D4E1"/>
<path d="M63.5712 103.251C65.5282 103.701 66.5378 104.616 66.8248 105.751C66.2266 106.664 65.6058 107.482 64.9668 108.211C63.112 108.256 60.7464 108.738 60.2451 110.398C60.535 109.018 60.8001 107.312 60.9687 105.427C61.8917 104.878 62.7701 104.163 63.5712 103.251Z" fill="#ADDEE2"/>
<path d="M66.2642 108.251C65.8935 108.217 65.4473 108.199 64.9668 108.211C65.6058 107.482 66.2266 106.664 66.8248 105.751C67.0138 106.498 66.8694 107.377 66.4634 108.304C66.3957 108.286 66.3292 108.269 66.2642 108.251Z" fill="#ADDEE2"/>
<path d="M64.3282 111.361C63.4434 111.279 62.5967 111.171 61.7956 111.042C62.8872 110.305 63.9501 109.371 64.9668 108.211C65.4473 108.199 65.8935 108.217 66.2642 108.251C66.3292 108.269 66.3957 108.286 66.4634 108.304C66.0257 109.303 65.284 110.357 64.3282 111.361Z" fill="#4EB6B7"/>
<path d="M61.7956 111.042C61.2305 110.952 60.6881 110.85 60.1711 110.741C60.182 110.691 60.193 110.641 60.2039 110.591C60.2177 110.527 60.2314 110.463 60.2451 110.398C60.7464 108.738 63.112 108.256 64.9668 108.211C63.9501 109.371 62.8872 110.305 61.7956 111.042Z" fill="#4EB6B7"/>
<path d="M48.8967 105.751C49.2356 105.763 49.6025 105.763 49.9928 105.749C50.0023 105.895 50.0094 106.039 50.0146 106.177C49.6181 106.044 49.244 105.901 48.8967 105.751Z" fill="#3E9FB2"/>
<path d="M49.9928 105.749C50.1242 105.744 50.2582 105.737 50.3947 105.729L50.2346 106.249C50.1605 106.226 50.0872 106.202 50.0146 106.177C50.0094 106.039 50.0023 105.895 49.9928 105.749Z" fill="#90D4E1"/>
<path d="M50.0222 106.939C50.0268 106.705 50.0246 106.449 50.0146 106.177C50.0872 106.202 50.1605 106.226 50.2346 106.249L50.0222 106.939Z" fill="#90D4E1"/>
<path d="M104.801 74.6511L118 73.2507C118 72.2166 118.314 70.2658 119.5 69.8359C120 70.8399 120.7 73.8464 119.5 77.8412L104.492 79.4481C104.696 77.878 104.801 76.2768 104.801 74.6511Z" fill="#ADDEE2"/>
<path d="M23.9999 43.2507C21.9999 43.9174 19.3 46.3507 24.5 50.7507C25 52.7507 33.8325 42.6959 37.2403 37.6092C32.4833 39.9696 27.6885 41.9334 23.9999 43.2507Z" fill="#A8A8A8"/>
<path d="M11.5 23.7507C9.5 25.3507 12.3333 27.4174 13.9999 28.2508C17.6447 26.0748 22.6603 23.4229 28 21.1436C23.3333 21.346 13.5 22.1507 11.5 23.7507Z" fill="#A8A8A8"/>
<path d="M55.9999 19.2508C54.3608 17.1295 51.7203 16.1665 48.5 16.02C48.6008 17.7592 48.9458 20.4375 49.6526 22.7507C50.1999 24.5418 50.9641 26.114 52 26.8621C52.2495 27.0423 52.5148 27.1746 52.7966 27.2507C55.3374 24.589 56.6812 21.8622 55.9999 19.2508Z" fill="#041B2B"/>
<path d="M13.1664 39.7507C11.7775 39.5841 9.19985 39.8507 9.99992 42.2507C11 45.2507 14 48.2507 15.5 48.2507C16.7 48.2507 17.3333 46.4017 17.5 45.4772C16.6988 44.7708 15.7454 43.7404 14.78 42.3739C13.8039 41.6725 12.3765 42.6662 11.7848 43.2507C11.6126 42.4507 13.0096 41.2507 13.7296 40.7507C13.5399 40.4308 13.3519 40.0975 13.1664 39.7507Z" fill="#041B2B"/>
<path d="M10.1844 31.2507C8.7896 30.7507 6 30.2507 6 32.2507C6 34.7507 7.99984 38.7507 9.99992 38.7507C11.6 38.7507 11.8565 37.4174 11.7848 36.7507C11.4036 35.7802 11.052 34.7355 10.7438 33.6156C9.73888 33.1075 8.49588 33.494 8 33.7507C8 32.9507 9.59944 32.4174 10.3992 32.2507C10.3237 31.9232 10.252 31.5899 10.1844 31.2507Z" fill="#041B2B"/>
<path d="M42 20.7507C42.8333 20.0841 44.8 19.3507 46 21.7507C46.3333 22.4174 46.6 23.9507 45 24.7507C45.5 23.4174 45.6 20.7507 42 20.7507Z" fill="#041B2B"/>
<path fill-rule="evenodd" clip-rule="evenodd" d="M34.9999 18.4725C22.3333 17.5652 -0.40008 18.6507 9.99992 30.2507C10.0575 30.5896 10.119 30.9229 10.1844 31.2507C10.252 31.5899 10.3237 31.9232 10.3992 32.2507C10.5067 32.7175 10.6219 33.1724 10.7438 33.6156C11.052 34.7355 11.4036 35.7802 11.7848 36.7507C12.2143 37.8442 12.6813 38.8436 13.1664 39.7507C13.3519 40.0975 13.5399 40.4308 13.7296 40.7507C14.0483 41.2884 14.3713 41.7883 14.6935 42.2507C28.8484 35.8507 43.8974 26.5841 49.6526 22.7507C48.9458 20.4375 48.6008 17.7592 48.5 16.02C44.6006 15.8425 39.851 16.8623 34.9999 18.4725C32.6623 19.2484 30.301 20.1614 28 21.1436C22.6603 23.4229 17.6447 26.0748 13.9999 28.2508C12.3333 27.4174 9.5 25.3507 11.5 23.7507C13.5 22.1507 23.3333 21.346 28 21.1436C30.301 20.1614 32.6623 19.2484 34.9999 18.4725ZM46 21.7507C44.8 19.3507 42.8333 20.0841 42 20.7507C45.6 20.7507 45.5 23.4174 45 24.7507C46.6 23.9507 46.3333 22.4174 46 21.7507Z" fill="#EEEEEE"/>
<path d="M38.1311 42.7507C40.5012 39.6874 42.7107 36.4641 44.5 33.6214C43.686 34.1216 42.8502 34.6127 42 35.0931C38.9445 40.9099 30.8669 53.0144 23 54.8972C25.9677 55.2514 30.0019 52.0867 34 47.6996C34.4282 47.2297 34.856 46.7458 35.282 46.2507C36.246 45.1305 37.2009 43.9529 38.1311 42.7507Z" fill="#EEEEEE"/>
<path fill-rule="evenodd" clip-rule="evenodd" d="M23 54.8972C30.8669 53.0144 38.9445 40.9099 42 35.0931C40.4471 35.9706 38.8458 36.8125 37.2403 37.6092C33.8325 42.6959 25 52.7507 24.5 50.7507C19.3 46.3507 21.9999 43.9174 23.9999 43.2507C34.8805 39.2507 47.2002 30.6583 52 26.8621C50.9641 26.114 50.1999 24.5418 49.6526 22.7507C43.8974 26.5841 28.8484 35.8507 14.6935 42.2507C14.7224 42.2921 14.7512 42.3332 14.78 42.3739C15.7454 43.7404 16.6988 44.7708 17.5 45.4772C17.8705 45.804 18.2085 46.0614 18.5 46.2507C18.9601 52.1169 20.644 54.616 23 54.8972Z" fill="#CACCCB"/>
<path d="M44.5 33.6214C47.7724 31.6107 50.6943 29.453 52.7966 27.2507C52.5148 27.1746 52.2495 27.0423 52 26.8621C47.2002 30.6583 34.8805 39.2507 23.9999 43.2507C27.6885 41.9334 32.4833 39.9696 37.2403 37.6092C38.8458 36.8125 40.4471 35.9706 42 35.0931C42.8502 34.6127 43.686 34.1216 44.5 33.6214Z" fill="#EEEEEE"/>
<path d="M14.6935 42.2507C14.3713 41.7883 14.0483 41.2884 13.7296 40.7507C13.0096 41.2507 11.6126 42.4507 11.7848 43.2507C12.3765 42.6662 13.8039 41.6725 14.78 42.3739C14.7512 42.3332 14.7224 42.2921 14.6935 42.2507Z" fill="#EEEEEE"/>
<path d="M10.3992 32.2507C9.59944 32.4174 8 32.9507 8 33.7507C8.49588 33.494 9.73888 33.1075 10.7438 33.6156C10.6219 33.1724 10.5067 32.7175 10.3992 32.2507Z" fill="#EEEEEE"/>
<path d="M43.5 53.2507L38.1311 42.7507C37.2009 43.9529 36.246 45.1305 35.282 46.2507L41.237 56.0608C42.2063 55.663 43.105 54.8306 43.5 53.2507Z" fill="#3E9FB2"/>
<path d="M34 47.6996L38.5 56.2507C39.175 56.4195 40.2431 56.4686 41.237 56.0608L35.282 46.2507C34.856 46.7458 34.4282 47.2297 34 47.6996Z" fill="#4EB6B7"/>
<path d="M86.1744 67.4638C85.995 68.259 85.5273 68.8309 85.1297 68.7413C84.7321 68.6516 84.5552 67.9342 84.7345 67.139C84.9139 66.3438 85.3816 65.7719 85.7792 65.8616C86.1768 65.9512 86.3537 66.6686 86.1744 67.4638Z" fill="black"/>
<path d="M77.5353 65.5153C77.3559 66.3105 76.8882 66.8825 76.4906 66.7928C76.093 66.7031 75.9161 65.9858 76.0954 65.1906C76.2748 64.3954 76.7425 63.8234 77.1401 63.9131C77.5377 64.0028 77.7146 64.7201 77.5353 65.5153Z" fill="black"/>
<path d="M80.9167 74.5281C80.7374 75.3233 80.2696 75.8953 79.872 75.8056C79.4744 75.7159 79.2975 74.9986 79.4769 74.2034C79.6562 73.4082 80.1239 72.8362 80.5215 72.9259C80.9191 73.0156 81.0961 73.7329 80.9167 74.5281Z" fill="black"/>
</svg>
