<svg width="127" height="136" viewBox="0 0 127 136" fill="none" xmlns="http://www.w3.org/2000/svg">
<path d="M11.5497 115.384L9.78169 118.728V121H9.42169V118.728L7.63769 115.384H8.04569L9.59769 118.392L11.1417 115.384H11.5497ZM14.3258 121.064C13.9205 121.064 13.5551 120.973 13.2298 120.792C12.9045 120.611 12.6485 120.352 12.4618 120.016C12.2805 119.675 12.1898 119.277 12.1898 118.824C12.1898 118.376 12.2831 117.984 12.4698 117.648C12.6565 117.307 12.9125 117.048 13.2378 116.872C13.5685 116.691 13.9365 116.6 14.3418 116.6C14.7471 116.6 15.1125 116.691 15.4378 116.872C15.7631 117.048 16.0165 117.304 16.1978 117.64C16.3845 117.976 16.4778 118.371 16.4778 118.824C16.4778 119.277 16.3845 119.675 16.1978 120.016C16.0111 120.352 15.7525 120.611 15.4218 120.792C15.0965 120.973 14.7311 121.064 14.3258 121.064ZM14.3258 120.744C14.6405 120.744 14.9338 120.675 15.2058 120.536C15.4831 120.392 15.7045 120.176 15.8698 119.888C16.0351 119.6 16.1178 119.245 16.1178 118.824C16.1178 118.408 16.0351 118.056 15.8698 117.768C15.7045 117.48 15.4858 117.267 15.2138 117.128C14.9418 116.984 14.6485 116.912 14.3338 116.912C14.0191 116.912 13.7258 116.984 13.4538 117.128C13.1871 117.267 12.9711 117.48 12.8058 117.768C12.6405 118.056 12.5578 118.408 12.5578 118.824C12.5578 119.245 12.6378 119.6 12.7978 119.888C12.9631 120.176 13.1791 120.392 13.4458 120.536C13.7178 120.675 14.0111 120.744 14.3258 120.744ZM21.2421 116.656V121H20.8821V120.056C20.7594 120.387 20.5541 120.64 20.2661 120.816C19.9834 120.987 19.6581 121.072 19.2901 121.072C18.7727 121.072 18.3487 120.915 18.0181 120.6C17.6927 120.28 17.5301 119.808 17.5301 119.184V116.656H17.8821V119.16C17.8821 119.677 18.0127 120.075 18.2741 120.352C18.5354 120.624 18.8901 120.76 19.3381 120.76C19.8074 120.76 20.1807 120.611 20.4581 120.312C20.7407 120.013 20.8821 119.571 20.8821 118.984V116.656H21.2421ZM22.5864 115.384H23.0424L22.4184 117.024H22.1464L22.5864 115.384ZM25.4014 120.608L27.0014 116.656H27.3854L25.5854 121H25.2094L23.4094 116.656H23.8014L25.4014 120.608ZM32.0914 118.536C32.0914 118.728 32.0861 118.872 32.0754 118.968H28.3234C28.3341 119.357 28.4194 119.685 28.5794 119.952C28.7394 120.219 28.9501 120.419 29.2114 120.552C29.4728 120.685 29.7581 120.752 30.0674 120.752C30.4941 120.752 30.8514 120.648 31.1394 120.44C31.4274 120.227 31.6088 119.939 31.6834 119.576H32.0594C31.9741 120.019 31.7554 120.379 31.4034 120.656C31.0514 120.928 30.6061 121.064 30.0674 121.064C29.6621 121.064 29.2994 120.973 28.9794 120.792C28.6594 120.611 28.4088 120.352 28.2274 120.016C28.0461 119.675 27.9554 119.277 27.9554 118.824C27.9554 118.371 28.0434 117.976 28.2194 117.64C28.4008 117.304 28.6514 117.048 28.9714 116.872C29.2914 116.691 29.6568 116.6 30.0674 116.6C30.4834 116.6 30.8434 116.691 31.1474 116.872C31.4568 117.048 31.6914 117.285 31.8514 117.584C32.0114 117.877 32.0914 118.195 32.0914 118.536ZM31.7314 118.672C31.7474 118.288 31.6781 117.963 31.5234 117.696C31.3741 117.429 31.1688 117.232 30.9074 117.104C30.6461 116.971 30.3634 116.904 30.0594 116.904C29.7554 116.904 29.4728 116.971 29.2114 117.104C28.9554 117.232 28.7448 117.429 28.5794 117.696C28.4194 117.963 28.3341 118.288 28.3234 118.672H31.7314ZM37.6933 121L35.7973 119.008V121H35.4373V115.08H35.7973V118.624L37.6613 116.656H38.1653L36.0613 118.816L38.1893 121H37.6933ZM40.8894 116.568C41.4068 116.568 41.8281 116.728 42.1534 117.048C42.4788 117.363 42.6414 117.832 42.6414 118.456V121H42.2894V118.48C42.2894 117.963 42.1588 117.568 41.8974 117.296C41.6361 117.019 41.2814 116.88 40.8334 116.88C40.3641 116.88 39.9881 117.029 39.7054 117.328C39.4281 117.627 39.2894 118.069 39.2894 118.656V121H38.9294V116.656H39.2894V117.576C39.4121 117.251 39.6148 117.003 39.8974 116.832C40.1854 116.656 40.5161 116.568 40.8894 116.568ZM45.8258 121.064C45.4205 121.064 45.0551 120.973 44.7298 120.792C44.4045 120.611 44.1485 120.352 43.9618 120.016C43.7805 119.675 43.6898 119.277 43.6898 118.824C43.6898 118.376 43.7831 117.984 43.9698 117.648C44.1565 117.307 44.4125 117.048 44.7378 116.872C45.0685 116.691 45.4365 116.6 45.8418 116.6C46.2471 116.6 46.6125 116.691 46.9378 116.872C47.2631 117.048 47.5165 117.304 47.6978 117.64C47.8845 117.976 47.9778 118.371 47.9778 118.824C47.9778 119.277 47.8845 119.675 47.6978 120.016C47.5111 120.352 47.2525 120.611 46.9218 120.792C46.5965 120.973 46.2311 121.064 45.8258 121.064ZM45.8258 120.744C46.1405 120.744 46.4338 120.675 46.7058 120.536C46.9831 120.392 47.2045 120.176 47.3698 119.888C47.5351 119.6 47.6178 119.245 47.6178 118.824C47.6178 118.408 47.5351 118.056 47.3698 117.768C47.2045 117.48 46.9858 117.267 46.7138 117.128C46.4418 116.984 46.1485 116.912 45.8338 116.912C45.5191 116.912 45.2258 116.984 44.9538 117.128C44.6871 117.267 44.4711 117.48 44.3058 117.768C44.1405 118.056 44.0578 118.408 44.0578 118.824C44.0578 119.245 44.1378 119.6 44.2978 119.888C44.4631 120.176 44.6791 120.392 44.9458 120.536C45.2178 120.675 45.5111 120.744 45.8258 120.744ZM48.8461 118.824C48.8461 118.371 48.9341 117.976 49.1101 117.64C49.2914 117.304 49.5394 117.048 49.8541 116.872C50.1741 116.691 50.5394 116.6 50.9501 116.6C51.4941 116.6 51.9394 116.736 52.2861 117.008C52.6381 117.28 52.8567 117.645 52.9421 118.104H52.5661C52.4967 117.731 52.3154 117.437 52.0221 117.224C51.7341 117.011 51.3767 116.904 50.9501 116.904C50.6301 116.904 50.3394 116.976 50.0781 117.12C49.8167 117.259 49.6061 117.475 49.4461 117.768C49.2914 118.056 49.2141 118.408 49.2141 118.824C49.2141 119.245 49.2914 119.6 49.4461 119.888C49.6061 120.176 49.8167 120.392 50.0781 120.536C50.3394 120.68 50.6301 120.752 50.9501 120.752C51.3767 120.752 51.7341 120.645 52.0221 120.432C52.3154 120.219 52.4967 119.925 52.5661 119.552H52.9421C52.8567 120.005 52.6381 120.371 52.2861 120.648C51.9341 120.925 51.4887 121.064 50.9501 121.064C50.5394 121.064 50.1741 120.973 49.8541 120.792C49.5394 120.611 49.2914 120.352 49.1101 120.016C48.9341 119.675 48.8461 119.277 48.8461 118.824ZM56.2948 121L54.3988 119.008V121H54.0388V115.08H54.3988V118.624L56.2628 116.656H56.7668L54.6628 118.816L56.7908 121H56.2948ZM61.443 118.536C61.443 118.728 61.4377 118.872 61.427 118.968H57.675C57.6857 119.357 57.771 119.685 57.931 119.952C58.091 120.219 58.3017 120.419 58.563 120.552C58.8243 120.685 59.1097 120.752 59.419 120.752C59.8457 120.752 60.203 120.648 60.491 120.44C60.779 120.227 60.9603 119.939 61.035 119.576H61.411C61.3257 120.019 61.107 120.379 60.755 120.656C60.403 120.928 59.9577 121.064 59.419 121.064C59.0137 121.064 58.651 120.973 58.331 120.792C58.011 120.611 57.7603 120.352 57.579 120.016C57.3977 119.675 57.307 119.277 57.307 118.824C57.307 118.371 57.395 117.976 57.571 117.64C57.7523 117.304 58.003 117.048 58.323 116.872C58.643 116.691 59.0083 116.6 59.419 116.6C59.835 116.6 60.195 116.691 60.499 116.872C60.8083 117.048 61.043 117.285 61.203 117.584C61.363 117.877 61.443 118.195 61.443 118.536ZM61.083 118.672C61.099 118.288 61.0297 117.963 60.875 117.696C60.7257 117.429 60.5203 117.232 60.259 117.104C59.9977 116.971 59.715 116.904 59.411 116.904C59.107 116.904 58.8243 116.971 58.563 117.104C58.307 117.232 58.0963 117.429 57.931 117.696C57.771 117.963 57.6857 118.288 57.675 118.672H61.083ZM62.307 118.824C62.307 118.376 62.395 117.984 62.571 117.648C62.7523 117.312 63.0003 117.053 63.315 116.872C63.635 116.691 63.9977 116.6 64.403 116.6C64.8457 116.6 65.2297 116.712 65.555 116.936C65.8803 117.155 66.1097 117.44 66.243 117.792V115.08H66.603V121H66.243V119.848C66.115 120.205 65.891 120.499 65.571 120.728C65.251 120.952 64.8617 121.064 64.403 121.064C63.9977 121.064 63.635 120.973 63.315 120.792C63.0003 120.605 62.7523 120.344 62.571 120.008C62.395 119.667 62.307 119.272 62.307 118.824ZM66.243 118.824C66.243 118.445 66.163 118.112 66.003 117.824C65.8483 117.531 65.635 117.307 65.363 117.152C65.091 116.992 64.787 116.912 64.451 116.912C64.099 116.912 63.7897 116.989 63.523 117.144C63.2563 117.293 63.0483 117.512 62.899 117.8C62.7497 118.088 62.675 118.429 62.675 118.824C62.675 119.219 62.7497 119.56 62.899 119.848C63.0483 120.136 63.2563 120.357 63.523 120.512C63.795 120.667 64.1043 120.744 64.451 120.744C64.787 120.744 65.091 120.667 65.363 120.512C65.6403 120.352 65.8563 120.128 66.011 119.84C66.1657 119.547 66.243 119.208 66.243 118.824ZM72.0836 121.064C71.6783 121.064 71.313 120.973 70.9876 120.792C70.6623 120.611 70.4063 120.352 70.2196 120.016C70.0383 119.675 69.9476 119.277 69.9476 118.824C69.9476 118.376 70.041 117.984 70.2276 117.648C70.4143 117.307 70.6703 117.048 70.9956 116.872C71.3263 116.691 71.6943 116.6 72.0996 116.6C72.505 116.6 72.8703 116.691 73.1956 116.872C73.521 117.048 73.7743 117.304 73.9556 117.64C74.1423 117.976 74.2356 118.371 74.2356 118.824C74.2356 119.277 74.1423 119.675 73.9556 120.016C73.769 120.352 73.5103 120.611 73.1796 120.792C72.8543 120.973 72.489 121.064 72.0836 121.064ZM72.0836 120.744C72.3983 120.744 72.6916 120.675 72.9636 120.536C73.241 120.392 73.4623 120.176 73.6276 119.888C73.793 119.6 73.8756 119.245 73.8756 118.824C73.8756 118.408 73.793 118.056 73.6276 117.768C73.4623 117.48 73.2436 117.267 72.9716 117.128C72.6996 116.984 72.4063 116.912 72.0916 116.912C71.777 116.912 71.4836 116.984 71.2116 117.128C70.945 117.267 70.729 117.48 70.5636 117.768C70.3983 118.056 70.3156 118.408 70.3156 118.824C70.3156 119.245 70.3956 119.6 70.5556 119.888C70.721 120.176 70.937 120.392 71.2036 120.536C71.4756 120.675 71.769 120.744 72.0836 120.744ZM78.9999 116.656V121H78.6399V120.056C78.5172 120.387 78.3119 120.64 78.0239 120.816C77.7412 120.987 77.4159 121.072 77.0479 121.072C76.5305 121.072 76.1065 120.915 75.7759 120.6C75.4505 120.28 75.2879 119.808 75.2879 119.184V116.656H75.6399V119.16C75.6399 119.677 75.7705 120.075 76.0319 120.352C76.2932 120.624 76.6479 120.76 77.0959 120.76C77.5652 120.76 77.9385 120.611 78.2159 120.312C78.4985 120.013 78.6399 119.571 78.6399 118.984V116.656H78.9999ZM80.8483 116.968V119.84C80.8483 120.16 80.9069 120.381 81.0243 120.504C81.1416 120.621 81.3496 120.68 81.6483 120.68H82.1363V121H81.5923C81.2136 121 80.9336 120.912 80.7523 120.736C80.5763 120.555 80.4883 120.256 80.4883 119.84V116.968H79.8323V116.656H80.4883V115.552H80.8483V116.656H82.1363V116.968H80.8483ZM85.8795 116.968V119.84C85.8795 120.16 85.9382 120.381 86.0555 120.504C86.1728 120.621 86.3808 120.68 86.6795 120.68H87.1675V121H86.6235C86.2448 121 85.9648 120.912 85.7835 120.736C85.6075 120.555 85.5195 120.256 85.5195 119.84V116.968H84.8635V116.656H85.5195V115.552H85.8795V116.656H87.1675V116.968H85.8795ZM90.0289 121.064C89.6236 121.064 89.2583 120.973 88.9329 120.792C88.6076 120.611 88.3516 120.352 88.1649 120.016C87.9836 119.675 87.8929 119.277 87.8929 118.824C87.8929 118.376 87.9863 117.984 88.1729 117.648C88.3596 117.307 88.6156 117.048 88.9409 116.872C89.2716 116.691 89.6396 116.6 90.0449 116.6C90.4503 116.6 90.8156 116.691 91.1409 116.872C91.4663 117.048 91.7196 117.304 91.9009 117.64C92.0876 117.976 92.1809 118.371 92.1809 118.824C92.1809 119.277 92.0876 119.675 91.9009 120.016C91.7143 120.352 91.4556 120.611 91.1249 120.792C90.7996 120.973 90.4343 121.064 90.0289 121.064ZM90.0289 120.744C90.3436 120.744 90.6369 120.675 90.9089 120.536C91.1863 120.392 91.4076 120.176 91.5729 119.888C91.7383 119.6 91.8209 119.245 91.8209 118.824C91.8209 118.408 91.7383 118.056 91.5729 117.768C91.4076 117.48 91.1889 117.267 90.9169 117.128C90.6449 116.984 90.3516 116.912 90.0369 116.912C89.7223 116.912 89.4289 116.984 89.1569 117.128C88.8903 117.267 88.6743 117.48 88.5089 117.768C88.3436 118.056 88.2609 118.408 88.2609 118.824C88.2609 119.245 88.3409 119.6 88.5009 119.888C88.6663 120.176 88.8823 120.392 89.1489 120.536C89.4209 120.675 89.7143 120.744 90.0289 120.744ZM95.2332 116.568C95.7505 116.568 96.1719 116.728 96.4972 117.048C96.8225 117.363 96.9852 117.832 96.9852 118.456V121H96.6332V118.48C96.6332 117.963 96.5025 117.568 96.2412 117.296C95.9799 117.019 95.6252 116.88 95.1772 116.88C94.7079 116.88 94.3319 117.029 94.0492 117.328C93.7719 117.627 93.6332 118.069 93.6332 118.656V121H93.2732V116.656H93.6332V117.576C93.7559 117.251 93.9585 117.003 94.2412 116.832C94.5292 116.656 94.8599 116.568 95.2332 116.568ZM99.7056 121.064C99.2202 121.064 98.8229 120.957 98.5136 120.744C98.2096 120.531 98.0389 120.227 98.0016 119.832H98.3696C98.3962 120.115 98.5242 120.339 98.7536 120.504C98.9882 120.669 99.3056 120.752 99.7056 120.752C100.036 120.752 100.298 120.669 100.49 120.504C100.687 120.333 100.786 120.125 100.786 119.88C100.786 119.709 100.732 119.571 100.626 119.464C100.524 119.352 100.396 119.267 100.242 119.208C100.087 119.149 99.8762 119.085 99.6096 119.016C99.2896 118.931 99.0309 118.848 98.8336 118.768C98.6362 118.683 98.4682 118.557 98.3296 118.392C98.1909 118.227 98.1216 118.005 98.1216 117.728C98.1216 117.525 98.1829 117.339 98.3056 117.168C98.4282 116.992 98.5989 116.853 98.8176 116.752C99.0362 116.651 99.2842 116.6 99.5616 116.6C100.015 116.6 100.38 116.715 100.658 116.944C100.94 117.168 101.092 117.48 101.114 117.88H100.754C100.738 117.592 100.626 117.357 100.418 117.176C100.21 116.995 99.9216 116.904 99.5536 116.904C99.2442 116.904 98.9882 116.984 98.7856 117.144C98.5829 117.304 98.4816 117.499 98.4816 117.728C98.4816 117.931 98.5376 118.096 98.6496 118.224C98.7669 118.347 98.9082 118.443 99.0736 118.512C99.2442 118.576 99.4682 118.645 99.7456 118.72C100.05 118.8 100.292 118.88 100.474 118.96C100.66 119.035 100.818 119.147 100.946 119.296C101.074 119.44 101.138 119.635 101.138 119.88C101.138 120.104 101.076 120.307 100.954 120.488C100.831 120.669 100.66 120.811 100.442 120.912C100.223 121.013 99.9776 121.064 99.7056 121.064ZM106.404 121.064C105.999 121.064 105.633 120.973 105.308 120.792C104.983 120.611 104.727 120.352 104.54 120.016C104.359 119.675 104.268 119.277 104.268 118.824C104.268 118.376 104.361 117.984 104.548 117.648C104.735 117.307 104.991 117.048 105.316 116.872C105.647 116.691 106.015 116.6 106.42 116.6C106.825 116.6 107.191 116.691 107.516 116.872C107.841 117.048 108.095 117.304 108.276 117.64C108.463 117.976 108.556 118.371 108.556 118.824C108.556 119.277 108.463 119.675 108.276 120.016C108.089 120.352 107.831 120.611 107.5 120.792C107.175 120.973 106.809 121.064 106.404 121.064ZM106.404 120.744C106.719 120.744 107.012 120.675 107.284 120.536C107.561 120.392 107.783 120.176 107.948 119.888C108.113 119.6 108.196 119.245 108.196 118.824C108.196 118.408 108.113 118.056 107.948 117.768C107.783 117.48 107.564 117.267 107.292 117.128C107.02 116.984 106.727 116.912 106.412 116.912C106.097 116.912 105.804 116.984 105.532 117.128C105.265 117.267 105.049 117.48 104.884 117.768C104.719 118.056 104.636 118.408 104.636 118.824C104.636 119.245 104.716 119.6 104.876 119.888C105.041 120.176 105.257 120.392 105.524 120.536C105.796 120.675 106.089 120.744 106.404 120.744ZM111.304 116.976H110.176V121H109.816V116.976H109.16V116.656H109.816V116.352C109.816 115.899 109.931 115.563 110.16 115.344C110.39 115.12 110.766 115.008 111.288 115.008V115.328C110.872 115.328 110.582 115.408 110.416 115.568C110.256 115.728 110.176 115.989 110.176 116.352V116.656H111.304V116.976ZM33.6605 129.8C33.7832 129.448 34.0045 129.16 34.3245 128.936C34.6499 128.712 35.0419 128.6 35.5005 128.6C35.9059 128.6 36.2659 128.691 36.5805 128.872C36.9005 129.053 37.1485 129.312 37.3245 129.648C37.5059 129.984 37.5965 130.376 37.5965 130.824C37.5965 131.272 37.5059 131.667 37.3245 132.008C37.1485 132.344 36.9005 132.605 36.5805 132.792C36.2659 132.973 35.9059 133.064 35.5005 133.064C35.0472 133.064 34.6579 132.952 34.3325 132.728C34.0125 132.499 33.7885 132.211 33.6605 131.864V135.048H33.3005V128.656H33.6605V129.8ZM37.2285 130.824C37.2285 130.429 37.1539 130.088 37.0045 129.8C36.8552 129.512 36.6445 129.293 36.3725 129.144C36.1059 128.989 35.7965 128.912 35.4445 128.912C35.1085 128.912 34.8045 128.992 34.5325 129.152C34.2605 129.307 34.0472 129.531 33.8925 129.824C33.7379 130.112 33.6605 130.445 33.6605 130.824C33.6605 131.208 33.7379 131.547 33.8925 131.84C34.0472 132.128 34.2605 132.352 34.5325 132.512C34.8045 132.667 35.1085 132.744 35.4445 132.744C35.7965 132.744 36.1059 132.667 36.3725 132.512C36.6445 132.357 36.8552 132.136 37.0045 131.848C37.1539 131.56 37.2285 131.219 37.2285 130.824ZM39.0433 127.08V133H38.6833V127.08H39.0433ZM40.139 130.824C40.139 130.376 40.227 129.984 40.403 129.648C40.5844 129.312 40.8324 129.053 41.147 128.872C41.467 128.691 41.8297 128.6 42.235 128.6C42.6937 128.6 43.083 128.712 43.403 128.936C43.723 129.16 43.947 129.445 44.075 129.792V128.656H44.435V133H44.075V131.856C43.947 132.208 43.7204 132.499 43.395 132.728C43.075 132.952 42.6884 133.064 42.235 133.064C41.8297 133.064 41.467 132.973 41.147 132.792C40.8324 132.605 40.5844 132.344 40.403 132.008C40.227 131.667 40.139 131.272 40.139 130.824ZM44.075 130.824C44.075 130.445 43.995 130.112 43.835 129.824C43.6804 129.531 43.467 129.307 43.195 129.152C42.923 128.992 42.619 128.912 42.283 128.912C41.931 128.912 41.6217 128.989 41.355 129.144C41.0884 129.293 40.8804 129.512 40.731 129.8C40.5817 130.088 40.507 130.429 40.507 130.824C40.507 131.219 40.5817 131.56 40.731 131.848C40.8804 132.136 41.0884 132.357 41.355 132.512C41.627 132.667 41.9364 132.744 42.283 132.744C42.619 132.744 42.923 132.667 43.195 132.512C43.4724 132.352 43.6884 132.128 43.843 131.84C43.9977 131.547 44.075 131.208 44.075 130.824ZM47.1938 133.064C46.7085 133.064 46.3112 132.957 46.0018 132.744C45.6978 132.531 45.5272 132.227 45.4898 131.832H45.8578C45.8845 132.115 46.0125 132.339 46.2418 132.504C46.4765 132.669 46.7938 132.752 47.1938 132.752C47.5245 132.752 47.7858 132.669 47.9778 132.504C48.1752 132.333 48.2738 132.125 48.2738 131.88C48.2738 131.709 48.2205 131.571 48.1138 131.464C48.0125 131.352 47.8845 131.267 47.7298 131.208C47.5752 131.149 47.3645 131.085 47.0978 131.016C46.7778 130.931 46.5192 130.848 46.3218 130.768C46.1245 130.683 45.9565 130.557 45.8178 130.392C45.6792 130.227 45.6098 130.005 45.6098 129.728C45.6098 129.525 45.6712 129.339 45.7938 129.168C45.9165 128.992 46.0872 128.853 46.3058 128.752C46.5245 128.651 46.7725 128.6 47.0498 128.6C47.5032 128.6 47.8685 128.715 48.1458 128.944C48.4285 129.168 48.5805 129.48 48.6018 129.88H48.2418C48.2258 129.592 48.1138 129.357 47.9058 129.176C47.6978 128.995 47.4098 128.904 47.0418 128.904C46.7325 128.904 46.4765 128.984 46.2738 129.144C46.0712 129.304 45.9698 129.499 45.9698 129.728C45.9698 129.931 46.0258 130.096 46.1378 130.224C46.2552 130.347 46.3965 130.443 46.5618 130.512C46.7325 130.576 46.9565 130.645 47.2338 130.72C47.5378 130.8 47.7805 130.88 47.9618 130.96C48.1485 131.035 48.3058 131.147 48.4338 131.296C48.5618 131.44 48.6258 131.635 48.6258 131.88C48.6258 132.104 48.5645 132.307 48.4418 132.488C48.3192 132.669 48.1485 132.811 47.9298 132.912C47.7112 133.013 47.4658 133.064 47.1938 133.064ZM50.2584 128.968V131.84C50.2584 132.16 50.3171 132.381 50.4344 132.504C50.5517 132.621 50.7597 132.68 51.0584 132.68H51.5464V133H51.0024C50.6237 133 50.3437 132.912 50.1624 132.736C49.9864 132.555 49.8984 132.256 49.8984 131.84V128.968H49.2424V128.656H49.8984V127.552H50.2584V128.656H51.5464V128.968H50.2584ZM52.6798 127.688C52.5945 127.688 52.5225 127.661 52.4638 127.608C52.4052 127.549 52.3758 127.472 52.3758 127.376C52.3758 127.285 52.4052 127.211 52.4638 127.152C52.5225 127.093 52.5945 127.064 52.6798 127.064C52.7652 127.064 52.8372 127.093 52.8958 127.152C52.9545 127.211 52.9838 127.285 52.9838 127.376C52.9838 127.472 52.9545 127.549 52.8958 127.608C52.8372 127.661 52.7652 127.688 52.6798 127.688ZM52.8558 128.656V133H52.4958V128.656H52.8558ZM53.9515 130.824C53.9515 130.371 54.0395 129.976 54.2155 129.64C54.3969 129.304 54.6449 129.048 54.9595 128.872C55.2795 128.691 55.6449 128.6 56.0555 128.6C56.5995 128.6 57.0449 128.736 57.3915 129.008C57.7435 129.28 57.9622 129.645 58.0475 130.104H57.6715C57.6022 129.731 57.4209 129.437 57.1275 129.224C56.8395 129.011 56.4822 128.904 56.0555 128.904C55.7355 128.904 55.4449 128.976 55.1835 129.12C54.9222 129.259 54.7115 129.475 54.5515 129.768C54.3969 130.056 54.3195 130.408 54.3195 130.824C54.3195 131.245 54.3969 131.6 54.5515 131.888C54.7115 132.176 54.9222 132.392 55.1835 132.536C55.4449 132.68 55.7355 132.752 56.0555 132.752C56.4822 132.752 56.8395 132.645 57.1275 132.432C57.4209 132.219 57.6022 131.925 57.6715 131.552H58.0475C57.9622 132.005 57.7435 132.371 57.3915 132.648C57.0395 132.925 56.5942 133.064 56.0555 133.064C55.6449 133.064 55.2795 132.973 54.9595 132.792C54.6449 132.611 54.3969 132.352 54.2155 132.016C54.0395 131.675 53.9515 131.277 53.9515 130.824ZM67.0821 128.656L65.7141 133H65.3701L63.9861 129.152L62.5941 133H62.2501L60.8821 128.656H61.2581L62.4261 132.592L63.8181 128.656H64.1621L65.5461 132.576L66.7141 128.656H67.0821ZM67.6468 130.824C67.6468 130.376 67.7348 129.984 67.9108 129.648C68.0922 129.312 68.3402 129.053 68.6548 128.872C68.9748 128.691 69.3375 128.6 69.7428 128.6C70.2015 128.6 70.5908 128.712 70.9108 128.936C71.2308 129.16 71.4548 129.445 71.5828 129.792V128.656H71.9428V133H71.5828V131.856C71.4548 132.208 71.2282 132.499 70.9028 132.728C70.5828 132.952 70.1962 133.064 69.7428 133.064C69.3375 133.064 68.9748 132.973 68.6548 132.792C68.3402 132.605 68.0922 132.344 67.9108 132.008C67.7348 131.667 67.6468 131.272 67.6468 130.824ZM71.5828 130.824C71.5828 130.445 71.5028 130.112 71.3428 129.824C71.1882 129.531 70.9748 129.307 70.7028 129.152C70.4308 128.992 70.1268 128.912 69.7908 128.912C69.4388 128.912 69.1295 128.989 68.8628 129.144C68.5962 129.293 68.3882 129.512 68.2388 129.8C68.0895 130.088 68.0148 130.429 68.0148 130.824C68.0148 131.219 68.0895 131.56 68.2388 131.848C68.3882 132.136 68.5962 132.357 68.8628 132.512C69.1348 132.667 69.4442 132.744 69.7908 132.744C70.1268 132.744 70.4308 132.667 70.7028 132.512C70.9802 132.352 71.1962 132.128 71.3508 131.84C71.5055 131.547 71.5828 131.208 71.5828 130.824ZM74.7017 133.064C74.2163 133.064 73.819 132.957 73.5097 132.744C73.2057 132.531 73.035 132.227 72.9977 131.832H73.3657C73.3923 132.115 73.5203 132.339 73.7497 132.504C73.9843 132.669 74.3017 132.752 74.7017 132.752C75.0323 132.752 75.2937 132.669 75.4857 132.504C75.683 132.333 75.7817 132.125 75.7817 131.88C75.7817 131.709 75.7283 131.571 75.6217 131.464C75.5203 131.352 75.3923 131.267 75.2377 131.208C75.083 131.149 74.8723 131.085 74.6057 131.016C74.2857 130.931 74.027 130.848 73.8297 130.768C73.6323 130.683 73.4643 130.557 73.3257 130.392C73.187 130.227 73.1177 130.005 73.1177 129.728C73.1177 129.525 73.179 129.339 73.3017 129.168C73.4243 128.992 73.595 128.853 73.8137 128.752C74.0323 128.651 74.2803 128.6 74.5577 128.6C75.011 128.6 75.3763 128.715 75.6537 128.944C75.9363 129.168 76.0883 129.48 76.1097 129.88H75.7497C75.7337 129.592 75.6217 129.357 75.4137 129.176C75.2057 128.995 74.9177 128.904 74.5497 128.904C74.2403 128.904 73.9843 128.984 73.7817 129.144C73.579 129.304 73.4777 129.499 73.4777 129.728C73.4777 129.931 73.5337 130.096 73.6457 130.224C73.763 130.347 73.9043 130.443 74.0697 130.512C74.2403 130.576 74.4643 130.645 74.7417 130.72C75.0457 130.8 75.2883 130.88 75.4697 130.96C75.6563 131.035 75.8137 131.147 75.9417 131.296C76.0697 131.44 76.1337 131.635 76.1337 131.88C76.1337 132.104 76.0723 132.307 75.9497 132.488C75.827 132.669 75.6563 132.811 75.4377 132.912C75.219 133.013 74.9737 133.064 74.7017 133.064ZM77.7662 128.968V131.84C77.7662 132.16 77.8249 132.381 77.9422 132.504C78.0596 132.621 78.2676 132.68 78.5662 132.68H79.0542V133H78.5102C78.1316 133 77.8516 132.912 77.6702 132.736C77.4942 132.555 77.4062 132.256 77.4062 131.84V128.968H76.7502V128.656H77.4062V127.552H77.7662V128.656H79.0542V128.968H77.7662ZM83.9157 130.536C83.9157 130.728 83.9103 130.872 83.8997 130.968H80.1477C80.1583 131.357 80.2437 131.685 80.4037 131.952C80.5637 132.219 80.7743 132.419 81.0357 132.552C81.297 132.685 81.5823 132.752 81.8917 132.752C82.3183 132.752 82.6757 132.648 82.9637 132.44C83.2517 132.227 83.433 131.939 83.5077 131.576H83.8837C83.7983 132.019 83.5797 132.379 83.2277 132.656C82.8757 132.928 82.4303 133.064 81.8917 133.064C81.4863 133.064 81.1237 132.973 80.8037 132.792C80.4837 132.611 80.233 132.352 80.0517 132.016C79.8703 131.675 79.7797 131.277 79.7797 130.824C79.7797 130.371 79.8677 129.976 80.0437 129.64C80.225 129.304 80.4757 129.048 80.7957 128.872C81.1157 128.691 81.481 128.6 81.8917 128.6C82.3077 128.6 82.6677 128.691 82.9717 128.872C83.281 129.048 83.5157 129.285 83.6757 129.584C83.8357 129.877 83.9157 130.195 83.9157 130.536ZM83.5557 130.672C83.5717 130.288 83.5023 129.963 83.3477 129.696C83.1983 129.429 82.993 129.232 82.7317 129.104C82.4703 128.971 82.1877 128.904 81.8837 128.904C81.5797 128.904 81.297 128.971 81.0357 129.104C80.7797 129.232 80.569 129.429 80.4037 129.696C80.2437 129.963 80.1583 130.288 80.1477 130.672H83.5557ZM85.5317 127.384L85.4917 131.632H85.1797L85.1317 127.384H85.5317ZM85.3557 133.024C85.265 133.024 85.1903 132.995 85.1317 132.936C85.073 132.877 85.0437 132.803 85.0437 132.712C85.0437 132.621 85.073 132.547 85.1317 132.488C85.1903 132.429 85.265 132.4 85.3557 132.4C85.441 132.4 85.513 132.429 85.5717 132.488C85.6303 132.547 85.6597 132.621 85.6597 132.712C85.6597 132.803 85.6303 132.877 85.5717 132.936C85.513 132.995 85.441 133.024 85.3557 133.024Z" fill="black"/>
<path d="M25.0074 7.144C25.0074 7.568 24.9074 7.968 24.7074 8.344C24.5074 8.72 24.1874 9.028 23.7474 9.268C23.3074 9.5 22.7434 9.616 22.0554 9.616H20.5434V13H19.1754V4.66H22.0554C22.6954 4.66 23.2354 4.772 23.6754 4.996C24.1234 5.212 24.4554 5.508 24.6714 5.884C24.8954 6.26 25.0074 6.68 25.0074 7.144ZM22.0554 8.5C22.5754 8.5 22.9634 8.384 23.2194 8.152C23.4754 7.912 23.6034 7.576 23.6034 7.144C23.6034 6.232 23.0874 5.776 22.0554 5.776H20.5434V8.5H22.0554ZM27.6801 4.12V13H26.3121V4.12H27.6801ZM29.0202 9.664C29.0202 9 29.1562 8.412 29.4282 7.9C29.7082 7.388 30.0842 6.992 30.5562 6.712C31.0362 6.424 31.5642 6.28 32.1402 6.28C32.6602 6.28 33.1122 6.384 33.4962 6.592C33.8882 6.792 34.2002 7.044 34.4322 7.348V6.388H35.8122V13H34.4322V12.016C34.2002 12.328 33.8842 12.588 33.4842 12.796C33.0842 13.004 32.6282 13.108 32.1162 13.108C31.5482 13.108 31.0282 12.964 30.5562 12.676C30.0842 12.38 29.7082 11.972 29.4282 11.452C29.1562 10.924 29.0202 10.328 29.0202 9.664ZM34.4322 9.688C34.4322 9.232 34.3362 8.836 34.1442 8.5C33.9602 8.164 33.7162 7.908 33.4122 7.732C33.1082 7.556 32.7802 7.468 32.4282 7.468C32.0762 7.468 31.7482 7.556 31.4442 7.732C31.1402 7.9 30.8922 8.152 30.7002 8.488C30.5162 8.816 30.4242 9.208 30.4242 9.664C30.4242 10.12 30.5162 10.52 30.7002 10.864C30.8922 11.208 31.1402 11.472 31.4442 11.656C31.7562 11.832 32.0842 11.92 32.4282 11.92C32.7802 11.92 33.1082 11.832 33.4122 11.656C33.7162 11.48 33.9602 11.224 34.1442 10.888C34.3362 10.544 34.4322 10.144 34.4322 9.688ZM40.009 13.108C39.489 13.108 39.021 13.016 38.605 12.832C38.197 12.64 37.873 12.384 37.633 12.064C37.393 11.736 37.265 11.372 37.249 10.972H38.665C38.689 11.252 38.821 11.488 39.061 11.68C39.309 11.864 39.617 11.956 39.985 11.956C40.369 11.956 40.665 11.884 40.873 11.74C41.089 11.588 41.197 11.396 41.197 11.164C41.197 10.916 41.077 10.732 40.837 10.612C40.605 10.492 40.233 10.36 39.721 10.216C39.225 10.08 38.821 9.948 38.509 9.82C38.197 9.692 37.925 9.496 37.693 9.232C37.469 8.968 37.357 8.62 37.357 8.188C37.357 7.836 37.461 7.516 37.669 7.228C37.877 6.932 38.173 6.7 38.557 6.532C38.949 6.364 39.397 6.28 39.901 6.28C40.653 6.28 41.257 6.472 41.713 6.856C42.177 7.232 42.425 7.748 42.457 8.404H41.089C41.065 8.108 40.945 7.872 40.729 7.696C40.513 7.52 40.221 7.432 39.853 7.432C39.493 7.432 39.217 7.5 39.025 7.636C38.833 7.772 38.737 7.952 38.737 8.176C38.737 8.352 38.801 8.5 38.929 8.62C39.057 8.74 39.213 8.836 39.397 8.908C39.581 8.972 39.853 9.056 40.213 9.16C40.693 9.288 41.085 9.42 41.389 9.556C41.701 9.684 41.969 9.876 42.193 10.132C42.417 10.388 42.533 10.728 42.541 11.152C42.541 11.528 42.437 11.864 42.229 12.16C42.021 12.456 41.725 12.688 41.341 12.856C40.965 13.024 40.521 13.108 40.009 13.108ZM45.6151 7.504V11.164C45.6151 11.412 45.6711 11.592 45.7831 11.704C45.9031 11.808 46.1031 11.86 46.3831 11.86H47.2231V13H46.1431C45.5271 13 45.0551 12.856 44.7271 12.568C44.3991 12.28 44.2351 11.812 44.2351 11.164V7.504H43.4551V6.388H44.2351V4.744H45.6151V6.388H47.2231V7.504H45.6151ZM49.18 5.512C48.932 5.512 48.724 5.428 48.556 5.26C48.388 5.092 48.304 4.884 48.304 4.636C48.304 4.388 48.388 4.18 48.556 4.012C48.724 3.844 48.932 3.76 49.18 3.76C49.42 3.76 49.624 3.844 49.792 4.012C49.96 4.18 50.044 4.388 50.044 4.636C50.044 4.884 49.96 5.092 49.792 5.26C49.624 5.428 49.42 5.512 49.18 5.512ZM49.852 6.388V13H48.484V6.388H49.852ZM51.192 9.688C51.192 9.008 51.328 8.412 51.6 7.9C51.88 7.38 52.264 6.98 52.752 6.7C53.24 6.42 53.8 6.28 54.432 6.28C55.232 6.28 55.892 6.472 56.412 6.856C56.94 7.232 57.296 7.772 57.48 8.476H56.004C55.884 8.148 55.692 7.892 55.428 7.708C55.164 7.524 54.832 7.432 54.432 7.432C53.872 7.432 53.424 7.632 53.088 8.032C52.76 8.424 52.596 8.976 52.596 9.688C52.596 10.4 52.76 10.956 53.088 11.356C53.424 11.756 53.872 11.956 54.432 11.956C55.224 11.956 55.748 11.608 56.004 10.912H57.48C57.288 11.584 56.928 12.12 56.4 12.52C55.872 12.912 55.216 13.108 54.432 13.108C53.8 13.108 53.24 12.968 52.752 12.688C52.264 12.4 51.88 12 51.6 11.488C51.328 10.968 51.192 10.368 51.192 9.688ZM61.5045 8.812C61.5045 7.996 61.6925 7.264 62.0685 6.616C62.4525 5.968 62.9685 5.464 63.6165 5.104C64.2725 4.736 64.9885 4.552 65.7645 4.552C66.6525 4.552 67.4405 4.772 68.1285 5.212C68.8245 5.644 69.3285 6.26 69.6405 7.06H67.9965C67.7805 6.62 67.4805 6.292 67.0965 6.076C66.7125 5.86 66.2685 5.752 65.7645 5.752C65.2125 5.752 64.7205 5.876 64.2885 6.124C63.8565 6.372 63.5165 6.728 63.2685 7.192C63.0285 7.656 62.9085 8.196 62.9085 8.812C62.9085 9.428 63.0285 9.968 63.2685 10.432C63.5165 10.896 63.8565 11.256 64.2885 11.512C64.7205 11.76 65.2125 11.884 65.7645 11.884C66.2685 11.884 66.7125 11.776 67.0965 11.56C67.4805 11.344 67.7805 11.016 67.9965 10.576H69.6405C69.3285 11.376 68.8245 11.992 68.1285 12.424C67.4405 12.856 66.6525 13.072 65.7645 13.072C64.9805 13.072 64.2645 12.892 63.6165 12.532C62.9685 12.164 62.4525 11.656 62.0685 11.008C61.6925 10.36 61.5045 9.628 61.5045 8.812ZM74.6618 6.28C75.1658 6.28 75.6138 6.388 76.0058 6.604C76.4058 6.82 76.7178 7.14 76.9418 7.564C77.1738 7.988 77.2898 8.5 77.2898 9.1V13H75.9338V9.304C75.9338 8.712 75.7858 8.26 75.4898 7.948C75.1938 7.628 74.7898 7.468 74.2778 7.468C73.7658 7.468 73.3578 7.628 73.0538 7.948C72.7578 8.26 72.6098 8.712 72.6098 9.304V13H71.2418V4.12H72.6098V7.156C72.8418 6.876 73.1338 6.66 73.4858 6.508C73.8458 6.356 74.2378 6.28 74.6618 6.28ZM78.5788 9.664C78.5788 9 78.7148 8.412 78.9868 7.9C79.2668 7.388 79.6428 6.992 80.1148 6.712C80.5948 6.424 81.1228 6.28 81.6988 6.28C82.2188 6.28 82.6708 6.384 83.0548 6.592C83.4468 6.792 83.7588 7.044 83.9908 7.348V6.388H85.3708V13H83.9908V12.016C83.7588 12.328 83.4428 12.588 83.0428 12.796C82.6428 13.004 82.1868 13.108 81.6748 13.108C81.1068 13.108 80.5868 12.964 80.1148 12.676C79.6428 12.38 79.2668 11.972 78.9868 11.452C78.7148 10.924 78.5788 10.328 78.5788 9.664ZM83.9908 9.688C83.9908 9.232 83.8948 8.836 83.7028 8.5C83.5188 8.164 83.2748 7.908 82.9708 7.732C82.6668 7.556 82.3388 7.468 81.9868 7.468C81.6348 7.468 81.3068 7.556 81.0028 7.732C80.6988 7.9 80.4508 8.152 80.2588 8.488C80.0748 8.816 79.9828 9.208 79.9828 9.664C79.9828 10.12 80.0748 10.52 80.2588 10.864C80.4508 11.208 80.6988 11.472 81.0028 11.656C81.3148 11.832 81.6428 11.92 81.9868 11.92C82.3388 11.92 82.6668 11.832 82.9708 11.656C83.2748 11.48 83.5188 11.224 83.7028 10.888C83.8948 10.544 83.9908 10.144 83.9908 9.688ZM95.1716 6.28C95.6916 6.28 96.1556 6.388 96.5636 6.604C96.9796 6.82 97.3036 7.14 97.5356 7.564C97.7756 7.988 97.8956 8.5 97.8956 9.1V13H96.5396V9.304C96.5396 8.712 96.3916 8.26 96.0956 7.948C95.7996 7.628 95.3956 7.468 94.8836 7.468C94.3716 7.468 93.9636 7.628 93.6596 7.948C93.3636 8.26 93.2156 8.712 93.2156 9.304V13H91.8596V9.304C91.8596 8.712 91.7116 8.26 91.4156 7.948C91.1196 7.628 90.7156 7.468 90.2036 7.468C89.6916 7.468 89.2836 7.628 88.9796 7.948C88.6836 8.26 88.5356 8.712 88.5356 9.304V13H87.1676V6.388H88.5356V7.144C88.7596 6.872 89.0436 6.66 89.3876 6.508C89.7316 6.356 90.0996 6.28 90.4916 6.28C91.0196 6.28 91.4916 6.392 91.9076 6.616C92.3236 6.84 92.6436 7.164 92.8676 7.588C93.0676 7.188 93.3796 6.872 93.8036 6.64C94.2276 6.4 94.6836 6.28 95.1716 6.28ZM101.004 7.36C101.236 7.056 101.552 6.8 101.952 6.592C102.352 6.384 102.804 6.28 103.308 6.28C103.884 6.28 104.408 6.424 104.88 6.712C105.36 6.992 105.736 7.388 106.008 7.9C106.28 8.412 106.416 9 106.416 9.664C106.416 10.328 106.28 10.924 106.008 11.452C105.736 11.972 105.36 12.38 104.88 12.676C104.408 12.964 103.884 13.108 103.308 13.108C102.804 13.108 102.356 13.008 101.964 12.808C101.572 12.6 101.252 12.344 101.004 12.04V16.144H99.6363V6.388H101.004V7.36ZM105.024 9.664C105.024 9.208 104.928 8.816 104.736 8.488C104.552 8.152 104.304 7.9 103.992 7.732C103.688 7.556 103.36 7.468 103.008 7.468C102.664 7.468 102.336 7.556 102.024 7.732C101.72 7.908 101.472 8.164 101.28 8.5C101.096 8.836 101.004 9.232 101.004 9.688C101.004 10.144 101.096 10.544 101.28 10.888C101.472 11.224 101.72 11.48 102.024 11.656C102.336 11.832 102.664 11.92 103.008 11.92C103.36 11.92 103.688 11.832 103.992 11.656C104.304 11.472 104.552 11.208 104.736 10.864C104.928 10.52 105.024 10.12 105.024 9.664ZM109.485 4.66L109.329 10.48H108.189L108.033 4.66H109.485ZM108.801 13.084C108.553 13.084 108.345 13 108.177 12.832C108.009 12.664 107.925 12.456 107.925 12.208C107.925 11.96 108.009 11.752 108.177 11.584C108.345 11.416 108.553 11.332 108.801 11.332C109.041 11.332 109.245 11.416 109.413 11.584C109.581 11.752 109.665 11.96 109.665 12.208C109.665 12.456 109.581 12.664 109.413 12.832C109.245 13 109.041 13.084 108.801 13.084Z" fill="black"/>
<path d="M30.1512 39.9151C31.0122 39.7306 32.7342 39.214 32.7342 38.6236C32.7375 38.6076 32.7408 38.5917 32.7442 38.5758C32.7487 38.554 32.7534 38.5323 32.7582 38.5106C33.0183 37.9543 35.3068 38.5751 35.1328 40.8376C35.0029 42.5263 33.7756 42.7517 32.803 42.9304C32.3941 43.0055 32.0302 43.0723 31.8117 43.2362C31.4825 43.4831 31.6306 43.9503 31.781 44.4248C31.9677 45.0141 32.1581 45.6148 31.4427 45.8192C31.0122 45.9422 30.4997 45.9422 30.0077 45.9422C29.0237 45.9422 28.1217 45.9422 28.1217 46.9262C28.1217 47.6888 27.6784 48.3037 27.2499 48.8981C26.8491 49.454 26.4612 49.992 26.4612 50.6162C26.4612 51.0123 26.6694 51.4258 26.8757 51.8353C27.342 52.761 27.7981 53.6667 25.8154 54.3063C24.1193 54.8534 23.2993 53.9078 22.7204 53.2401C22.3232 52.7821 22.0395 52.4549 21.6641 52.8303C21.2294 53.265 21.6141 54.0684 22.046 54.9704C22.5305 55.9824 23.0744 57.1183 22.5866 57.9963C22.2049 58.6833 21.5074 59.244 20.8207 59.796C19.8478 60.5781 18.8966 61.3427 18.8966 62.4244C17.6051 61.8708 15.0221 60.3579 15.0221 58.7343C15.0221 57.8597 14.4395 56.6424 13.8061 55.3187C12.9697 53.5709 12.0446 51.6376 12.2545 50.0627C12.5147 48.1112 13.7842 47.3523 14.8982 46.6863C15.364 46.4078 15.8027 46.1456 16.1291 45.8192C16.8585 45.0897 18.1487 44.6807 19.2607 44.3282C19.8362 44.1458 20.364 43.9785 20.7416 43.7897C21.2667 43.5271 21.3767 42.6004 21.5047 41.5215C21.6466 40.3257 21.8107 38.943 22.5866 38.0701C23.7674 36.7417 28.1217 38.7466 30.1512 39.9151Z" fill="#4EB6B7"/>
<path d="M37.3468 39.7306C38.0848 39.8536 39.3763 40.4317 38.6383 41.7601C37.7158 43.4207 36.4243 42.8672 36.2398 42.4982C36.0553 42.1292 35.3173 39.7306 37.3468 39.7306Z" fill="#4EB6B7"/>
<path d="M60.225 63.9004C61.332 64.1464 63.177 65.1181 61.701 67.0369C60.84 67.3444 59.118 67.5535 59.118 65.9299C59.118 63.9004 59.6715 63.7326 60.225 63.9004Z" fill="#4EB6B7"/>
<path d="M37.9003 27C40.887 27 43.7908 27.3548 46.5719 28.0246C47.5565 28.9933 49.0049 30.5163 50.2619 32.0417C45.0617 31.2264 34.3234 31.3894 32.7582 38.5106C32.7425 38.5441 32.7342 38.5818 32.7342 38.6236C32.7342 39.214 31.0122 39.7306 30.1512 39.9151C30.5051 38.8534 29.1241 37.7162 27.7686 36.6C27.0041 35.9706 26.2479 35.3478 25.8154 34.7491C24.856 33.4207 24.5906 30.6817 24.5778 29.4783C28.7102 27.8778 33.2027 27 37.9003 27Z" fill="#90D4E1"/>
<path d="M24.5778 71.3727C23.1162 69.8008 21.1509 68.0263 18.8966 66.4521C19.3312 65.6197 19.2189 64.9706 19.0758 64.1441C18.9916 63.6571 18.8966 63.1084 18.8966 62.4244C20.4054 62.8955 23.4919 64.3606 23.7675 66.4521C23.8998 68.0415 24.2146 69.79 24.5778 71.3727Z" fill="#90D4E1"/>
<path d="M0.999916 63.8961C1.0017 48.216 10.7836 34.8207 24.5778 29.4783C24.5906 30.6817 24.856 33.4207 25.8154 34.7491C26.2479 35.3478 27.0041 35.9706 27.7686 36.6C29.1241 37.7162 30.5051 38.8534 30.1512 39.9151C28.1217 38.7466 23.7674 36.7417 22.5866 38.0701C21.8107 38.943 21.6466 40.3257 21.5047 41.5215C21.3767 42.6004 21.2667 43.5271 20.7416 43.7897C20.364 43.9785 19.8362 44.1458 19.2607 44.3282C18.1487 44.6807 16.8585 45.0897 16.1291 45.8192C15.8027 46.1456 15.364 46.4078 14.8982 46.6863C13.7842 47.3523 12.5147 48.1112 12.2545 50.0627C12.0446 51.6376 12.9697 53.5709 13.8061 55.3187C14.4395 56.6424 15.0221 57.8597 15.0221 58.7343C15.0221 60.3579 17.6051 61.8708 18.8966 62.4244C18.8966 63.1084 18.9916 63.6571 19.0758 64.1441C19.2189 64.9706 19.3312 65.6197 18.8966 66.4521C13.5994 62.7529 6.70598 60.1592 0.999916 63.8961Z" fill="#3E9FB2"/>
<path d="M39.264 89.5C38.264 89.3333 36.264 89.4 36.264 91C36.264 93 40.264 93.5 40.264 92C40.264 91.903 40.3536 91.7847 40.4593 91.6451C40.816 91.1742 41.3565 90.4606 39.264 89.5Z" fill="#4EB6B7"/>
<path d="M1.05645 65.9603C1.01893 65.2785 0.999916 64.5916 0.999916 63.9004V63.8961C6.70598 60.1592 13.5994 62.7529 18.8966 66.4521C19.2353 67.0433 19.6478 68.1854 18.5884 68.0246C13.3743 64.5674 6.76608 62.3591 1.05645 65.9603Z" fill="#3E9FB2"/>
<path d="M80.764 67.5H85.2641C82.764 60 104.764 52 108.264 68.5C100.664 56.9 86.9549 62.5 86.764 70H80.1768C80.3708 69.0565 80.5736 68.2072 80.764 67.5Z" fill="#F7B4B8"/>
<path d="M96.264 84C96.5974 82.3333 95.964 78.8 90.764 78C92.6694 77 97.2084 76.7 100.122 83.5C98.7161 83.8076 97.3649 83.9601 96.264 84Z" fill="#D63E4D"/>
<path d="M95.4217 85.5C95.7409 85.1156 96.0251 84.6213 96.264 84C97.3649 83.9601 98.7161 83.8076 100.122 83.5C103.456 82.7706 107.098 81.1693 108.443 78.1297C107.274 82.8245 103.743 86.6782 95.4217 85.5Z" fill="#D04145"/>
<path d="M86.764 83C85.564 85.4 82.264 85.6667 80.764 85.5C80.2842 84.8146 79.9346 83.9628 79.6905 83C82.0484 83 86.764 82.4 86.764 80C88.764 82.3333 93.4641 86.4 96.264 84C96.0251 84.6213 95.7409 85.1156 95.4217 85.5C93.0698 88.3329 88.8186 85.2013 86.764 83Z" fill="#D1444B"/>
<path d="M73.6765 73C73.7563 72.6717 73.8335 72.3397 73.908 72.0041H79.8061C79.7524 72.3305 79.7009 72.663 79.6522 73H73.6765Z" fill="#EFEFEF"/>
<path d="M89.7642 72.0041L90.764 72.5L89.7642 73H79.6522C79.7009 72.663 79.7524 72.3305 79.8061 72.0041H89.7642Z" fill="#EFEFEF"/>
<path d="M71.5868 72.0839L73.908 72.0041C73.8335 72.3397 73.7563 72.6717 73.6765 73H70.4066C70.8279 72.6613 71.2247 72.3541 71.5868 72.0839Z" fill="#EFEFEF"/>
<path d="M69.2656 72.1636L71.5868 72.0839C71.2247 72.3541 70.8279 72.6613 70.4066 73C69.7206 73 69.3601 72.4424 69.2656 72.1636Z" fill="#EFEFEF"/>
<path d="M69.2656 72.1636C69.3601 72.4424 69.7206 73 70.4066 73H66.7642L66.129 72.5L66.4352 72.2609L69.2656 72.1636Z" fill="#EFEFEF"/>
<path d="M66.4352 72.2609L66.7642 72.0041H68.8246C68.9643 72.0717 69.1111 72.1255 69.2656 72.1636L66.4352 72.2609Z" fill="#EFEFEF"/>
<path fill-rule="evenodd" clip-rule="evenodd" d="M50.2619 32.0417C51.6742 33.7555 52.8449 35.4725 52.8449 36.4096C52.8449 37.7147 53.486 38.1222 54.2013 38.577C54.6995 38.8938 55.2337 39.2334 55.6125 39.9151C55.9755 40.5686 55.9671 41.4508 55.9583 42.3703C55.9447 43.7873 55.9303 45.2931 57.273 46.1882C57.8911 46.6003 59.1277 47.0124 60.5692 47.4928C64.2905 48.7329 69.377 50.428 68.7121 53.7528C68.2329 56.1488 66.7081 57.0015 65.3534 57.7591C64.1002 58.4599 62.9925 59.0793 62.9925 60.7638C62.9925 63.0464 63.9312 63.8427 64.7389 64.528C65.1717 64.8951 65.567 65.2304 65.7601 65.7454C65.8772 66.0578 65.9943 66.4988 66.129 67.0058C66.5895 68.7399 67.2547 71.2445 68.8246 72.0041H71.6141C76.9599 56.2568 60.7608 32.9026 50.2619 32.0417ZM71.6141 72.0041C71.6051 72.0307 71.596 72.0573 71.5868 72.0839L71.6141 72.0041Z" fill="#4EB6B7"/>
<path d="M71.5868 72.0839L69.2656 72.1636C69.1111 72.1255 68.9643 72.0717 68.8246 72.0041H71.6141L71.5868 72.0839Z" fill="#EFEFEF"/>
<path fill-rule="evenodd" clip-rule="evenodd" d="M73.908 72.0041C74.4923 69.3964 74.8007 66.6844 74.8007 63.9004C74.8007 46.5075 62.7673 31.9253 46.5719 28.0246C47.5565 28.9933 49.0049 30.5163 50.2619 32.0417C60.7608 32.9026 76.9599 56.2568 71.6141 72.0041H73.908Z" fill="#3E9FB2"/>
<path d="M73.908 72.0041L71.5868 72.0839L71.6141 72.0041H73.908Z" fill="#EFEFEF"/>
<path d="M79.3597 75.5C79.3303 75.8327 79.3049 76.1665 79.2841 76.5H72.6854C72.7927 76.1708 72.8971 75.8375 72.9985 75.5H79.3597Z" fill="#EFEFEF"/>
<path d="M67.7642 76L68.7642 75.5H72.9985C72.8971 75.8375 72.7927 76.1708 72.6854 76.5H68.7642L67.7642 76Z" fill="#EFEFEF"/>
<path fill-rule="evenodd" clip-rule="evenodd" d="M70.4066 73H73.6765C73.468 73.8579 73.2417 74.6911 72.9985 75.5H68.7642L67.7642 76L68.7642 76.5H72.6854C72.4624 77.1845 72.227 77.8511 71.9798 78.5H64.5895C66.4555 76.3841 68.6448 74.4165 70.4066 73ZM63.7642 79.4731L71.5914 79.4819C66.659 91.4968 57.5793 97.2099 48.6576 99.5C48.1725 96.7 51.8598 95.3333 53.764 95C56.764 94.5 60.764 92 60.5692 86.2251C60.5476 85.5856 60.6715 84.9055 60.9109 84.2011C61.4263 82.6848 62.4769 81.0554 63.7642 79.4731Z" fill="#3E9FB2"/>
<path d="M71.9798 78.5L71.9772 78.5068C71.8516 78.8363 71.7229 79.1614 71.5914 79.4819L63.7642 79.4731C64.0301 79.1463 64.3061 78.8214 64.5895 78.5H71.9798Z" fill="#EFEFEF"/>
<path d="M62.7642 79L63.7642 78.5H64.5895C64.3061 78.8214 64.0301 79.1463 63.7642 79.4731L62.7642 79Z" fill="#EFEFEF"/>
<path d="M79.218 78.5C79.2177 78.8334 79.2232 79.164 79.2351 79.4905L71.5914 79.4819C71.7229 79.1614 71.8516 78.8363 71.9772 78.5068L71.9798 78.5H79.218Z" fill="#EFEFEF"/>
<path d="M85.7642 75.5L86.764 76L85.7642 76.5H79.2841C79.3049 76.1665 79.3303 75.8327 79.3597 75.5H85.7642Z" fill="#EFEFEF"/>
<path fill-rule="evenodd" clip-rule="evenodd" d="M96.264 84C96.5974 82.3333 95.964 78.8 90.764 78C92.6694 77 97.2084 76.7 100.122 83.5C103.456 82.7706 107.098 81.1693 108.443 78.1297C108.736 76.9507 108.881 75.7187 108.915 74.5C108.975 72.3336 108.686 70.2093 108.264 68.5C100.664 56.9 86.9549 62.5 86.764 70H80.1768C80.0472 70.6307 79.9215 71.3035 79.8061 72.0041H89.7642L90.764 72.5L89.7642 73H79.6522C79.5349 73.8133 79.4344 74.6534 79.3597 75.5H85.7642L86.764 76L85.7642 76.5H79.2841C79.2422 77.171 79.2187 77.841 79.218 78.5H87.7642L88.7642 79L87.7642 79.5L79.2351 79.4905C79.281 80.7456 79.4218 81.9401 79.6905 83C82.0484 83 86.764 82.4 86.764 80C88.764 82.3333 93.4641 86.4 96.264 84Z" fill="#FF4747"/>
<path d="M87.7642 78.5L88.7642 79L87.7642 79.5L79.2351 79.4905C79.2232 79.164 79.2177 78.8334 79.218 78.5H87.7642Z" fill="#EFEFEF"/>
<path d="M19.9927 94.9979C19.797 91.9471 18.6389 87.2585 15.0221 86.2251C11.8504 85.3189 11.2519 84.2041 10.9208 82.7953C10.8958 82.6885 10.8722 82.58 10.8492 82.4697C14.4906 77.9533 20.1385 73.6854 26.5589 74.965C30.2337 78.963 31.2378 85.4484 31.1517 91.1931C27.5845 93.812 23.3909 94.8014 20.3946 94.9787C20.2581 94.9868 20.1241 94.9932 19.9927 94.9979Z" fill="#FF4747"/>
<path d="M18.5884 68.0246C20.4534 69.2612 22.14 70.6576 23.5433 72.005C17.4521 72.211 11.4216 75.5754 10.0405 79.7675C9.36401 78.599 7.71578 76.1513 6.53497 75.7085C5.05896 75.155 6.16597 70.1734 7.64198 71.0211C8.61642 71.5807 9.34962 70.5495 10.107 69.4843C10.4969 68.936 10.8931 68.3786 11.332 68.0246C12.3652 67.1912 16.6001 67.6773 18.5884 68.0246Z" fill="#90D4E1"/>
<path d="M10.7886 82.1733C10.6421 81.4469 10.4809 80.6483 10.0405 79.7675C11.4216 75.5754 17.4521 72.211 23.5433 72.005C24.1392 72.5771 24.684 73.1405 25.1697 73.679C25.6703 74.0708 26.1326 74.5011 26.5589 74.965C20.1385 73.6854 14.4906 77.9533 10.8492 82.4697C10.8288 82.3723 10.8089 82.2735 10.7886 82.1733Z" fill="#F7B4B8"/>
<path d="M26.5589 74.965C29.9709 75.6449 33.601 77.8915 37.2642 82.5C36.0395 86.485 33.7635 89.2758 31.1517 91.1931C31.2378 85.4484 30.2337 78.963 26.5589 74.965Z" fill="#FF4747"/>
<path d="M25.8154 73.6568L26.4612 73.6346L28.1217 73.5775L30.7173 73.4883C33.7507 75.0449 36.2077 77.9093 37.2642 82.5C33.601 77.8915 29.9709 75.6449 26.5589 74.965C26.1326 74.5011 25.6703 74.0708 25.1697 73.679L25.8154 73.6568Z" fill="#F7B4B8"/>
<path fill-rule="evenodd" clip-rule="evenodd" d="M24.7276 72.0054C24.677 71.7981 24.6269 71.5869 24.5778 71.3727C23.1162 69.8008 21.1509 68.0263 18.8966 66.4521C19.2353 67.0433 19.6478 68.1854 18.5884 68.0246C20.4534 69.2612 22.14 70.6576 23.5433 72.005C23.9382 71.9917 24.3334 71.9916 24.7276 72.0054Z" fill="#90D4E1"/>
<path d="M25.1697 73.679C24.684 73.1405 24.1392 72.5771 23.5433 72.005C23.9382 71.9917 24.3334 71.9916 24.7276 72.0054C24.873 72.6014 25.023 73.1656 25.1697 73.679Z" fill="#F7B4B8"/>
<path d="M25.8154 73.6568L25.1697 73.679C25.023 73.1656 24.873 72.6014 24.7276 72.0054C25.0247 72.0159 25.3213 72.0342 25.6168 72.0607C25.6796 72.6399 25.7481 73.1822 25.8154 73.6568Z" fill="#F7B4B8"/>
<path d="M25.8154 73.6568C25.7481 73.1822 25.6796 72.6399 25.6168 72.0607C25.8241 72.0793 26.031 72.1019 26.2371 72.1287C26.0934 72.6873 25.949 73.2066 25.8154 73.6568Z" fill="#F7B4B8"/>
<path fill-rule="evenodd" clip-rule="evenodd" d="M27.1233 72.2704C27.4814 71.4673 27.8324 70.5643 28.1217 69.6293C29.1447 66.3229 29.3963 62.6152 26.4612 61.5018C23.9989 60.5679 23.4943 63.1709 23.7675 66.4521C23.8998 68.0415 24.2146 69.79 24.5778 71.3727C24.6269 71.5869 24.677 71.7981 24.7276 72.0054C25.0247 72.0159 25.3213 72.0342 25.6168 72.0607C25.8241 72.0793 26.031 72.1019 26.2371 72.1287C26.5342 72.1673 26.8297 72.2144 27.1233 72.2704Z" fill="#ADDEE2"/>
<path d="M26.4612 73.6346L25.8154 73.6568C25.949 73.2066 26.0934 72.6873 26.2371 72.1287C26.5342 72.1673 26.8297 72.2144 27.1233 72.2704C26.9009 72.769 26.6759 73.2291 26.4612 73.6346Z" fill="#F7B4B8"/>
<path fill-rule="evenodd" clip-rule="evenodd" d="M27.5216 72.3522C29.1252 70.5253 31.4409 68.3447 32.7342 68.6974V67.2214C32.005 66.9817 30.0615 67.1276 28.1217 69.6293C27.8324 70.5643 27.4814 71.4673 27.1233 72.2704C27.2565 72.2958 27.3893 72.3231 27.5216 72.3522Z" fill="#ADDEE2"/>
<path d="M26.4612 73.6346C26.6759 73.2291 26.9009 72.769 27.1233 72.2704C27.2565 72.2958 27.3893 72.3231 27.5216 72.3522C27.112 72.8187 26.7489 73.2622 26.4612 73.6346Z" fill="#F7B4B8"/>
<path fill-rule="evenodd" clip-rule="evenodd" d="M27.5216 72.3522C29.1252 70.5253 31.4409 68.3447 32.7342 68.6974V67.2214C32.005 66.9817 30.0615 67.1276 28.1217 69.6293C29.1447 66.3229 29.3963 62.6152 26.4612 61.5018C23.9989 60.5679 23.4943 63.1709 23.7675 66.4521C23.4919 64.3606 20.4054 62.8955 18.8966 62.4244C18.8966 61.3427 19.8478 60.5781 20.8207 59.796C21.5074 59.244 22.2049 58.6833 22.5866 57.9963C23.0744 57.1183 22.5305 55.9824 22.046 54.9704C21.6141 54.0684 21.2294 53.265 21.6641 52.8303C22.0395 52.4549 22.3232 52.7821 22.7204 53.2401C23.2993 53.9078 24.1193 54.8534 25.8154 54.3063C27.7981 53.6667 27.342 52.761 26.8757 51.8353C26.6694 51.4258 26.4612 51.0123 26.4612 50.6162C26.4612 49.992 26.8491 49.454 27.2499 48.8981C27.6784 48.3037 28.1217 47.6888 28.1217 46.9262C28.1217 45.9422 29.0237 45.9422 30.0077 45.9422C30.4997 45.9422 31.0122 45.9422 31.4427 45.8192C32.1581 45.6148 31.9677 45.0141 31.781 44.4248C31.6306 43.9503 31.4825 43.4831 31.8117 43.2362C32.0302 43.0723 32.3941 43.0055 32.803 42.9304C33.7756 42.7517 35.0029 42.5263 35.1328 40.8376C35.3068 38.5751 33.0183 37.9543 32.7582 38.5106C34.3234 31.3894 45.0617 31.2264 50.2619 32.0417C51.6742 33.7555 52.8449 35.4725 52.8449 36.4096C52.8449 37.7147 53.486 38.1222 54.2013 38.577C54.6995 38.8938 55.2337 39.2334 55.6125 39.9151C55.9755 40.5686 55.9671 41.4508 55.9583 42.3703C55.9447 43.7873 55.9303 45.2931 57.273 46.1882C57.8911 46.6003 59.1277 47.0124 60.5692 47.4928C64.2905 48.7329 69.377 50.428 68.7121 53.7528C68.2329 56.1488 66.7081 57.0015 65.3534 57.7591C64.1002 58.4599 62.9925 59.0793 62.9925 60.7638C62.9925 63.0464 63.9312 63.8427 64.7389 64.528C65.1717 64.8951 65.567 65.2304 65.7601 65.7454C65.8772 66.0578 65.9943 66.4988 66.129 67.0058C66.5895 68.7399 67.2547 71.2445 68.8246 72.0041H66.7642L66.4352 72.2609L30.7173 73.4883C29.706 72.9694 28.6306 72.5959 27.5216 72.3522ZM38.6383 41.7601C39.3763 40.4317 38.0848 39.8536 37.3468 39.7306C35.3173 39.7306 36.0553 42.1292 36.2398 42.4982C36.4243 42.8672 37.7158 43.4207 38.6383 41.7601ZM61.701 67.0369C63.177 65.1181 61.332 64.1464 60.225 63.9004C59.6715 63.7326 59.118 63.9004 59.118 65.9299C59.118 67.5535 60.84 67.3444 61.701 67.0369Z" fill="#ADDEE2"/>
<path d="M28.1217 73.5775L26.4612 73.6346C26.7489 73.2622 27.112 72.8187 27.5216 72.3522C28.6306 72.5959 29.706 72.9694 30.7173 73.4883L28.1217 73.5775Z" fill="#F7B4B8"/>
<path d="M20.022 96.1882C15.4628 93.6583 11.4958 90.1907 8.38134 86.046C9.04465 84.9037 9.87513 83.6778 10.8492 82.4697C10.8722 82.58 10.8958 82.6885 10.9208 82.7953C11.2519 84.2041 11.8504 85.3189 15.0221 86.2251C18.6389 87.2585 19.797 91.9471 19.9927 94.9979C19.6024 95.0122 19.2355 95.0122 18.8966 95C19.2439 95.1499 19.618 95.2935 20.0144 95.4264C20.0245 95.6987 20.0266 95.9542 20.022 96.1882Z" fill="#FF4747"/>
<path d="M10.7886 82.1733C10.8089 82.2735 10.8288 82.3723 10.8492 82.4697C9.87513 83.6778 9.04465 84.9037 8.38134 86.046C8.76954 83.9076 9.37869 81.7765 10.0405 79.7675C10.4809 80.6483 10.6421 81.4469 10.7886 82.1733Z" fill="#F7B4B8"/>
<path d="M20.022 96.1882C23.1537 97.926 26.5648 99.2213 30.1709 99.9899C30.688 100.1 31.2303 100.201 31.7954 100.292C22.1574 106.802 10.2739 97.9508 8.12996 93C7.79351 90.7762 7.95278 88.4067 8.38134 86.046C11.4958 90.1907 15.4628 93.6583 20.022 96.1882Z" fill="#FF4747"/>
<path d="M20.3946 94.9787C23.3909 94.8014 27.5845 93.812 31.1517 91.1931C31.1337 92.3966 31.0678 93.5675 30.9686 94.6763C27.4311 96.7816 23.2389 96.4559 20.2345 95.4984L20.3946 94.9787Z" fill="#D63E4D"/>
<path d="M37.2642 82.5C38.1466 86.3344 35.2312 90.6095 33.571 92.5C32.7699 93.4122 31.8916 94.127 30.9686 94.6763C31.0678 93.5675 31.1337 92.3966 31.1517 91.1931C33.7635 89.2758 36.0395 86.485 37.2642 82.5Z" fill="#D63E4D"/>
<path d="M19.9927 94.9979C20.1241 94.9932 20.2581 94.9868 20.3946 94.9787L20.2345 95.4984C20.1604 95.4748 20.087 95.4508 20.0144 95.4264C20.0093 95.2878 20.0021 95.1448 19.9927 94.9979Z" fill="#D63E4D"/>
<path fill-rule="evenodd" clip-rule="evenodd" d="M1.05645 65.9603C1.46996 73.4753 4.13207 80.3909 8.38134 86.046C8.76954 83.9076 9.37869 81.7765 10.0405 79.7675C9.36401 78.599 7.71578 76.1513 6.53497 75.7085C5.05896 75.155 6.16597 70.1734 7.64198 71.0211C8.61642 71.5807 9.34962 70.5495 10.107 69.4843C10.4969 68.936 10.8931 68.3786 11.332 68.0246C12.3652 67.1912 16.6001 67.6773 18.5884 68.0246C13.3743 64.5674 6.76608 62.3591 1.05645 65.9603Z" fill="#3E9FB2"/>
<path d="M18.8966 95C19.2355 95.0122 19.6024 95.0122 19.9927 94.9979C20.0021 95.1448 20.0093 95.2878 20.0144 95.4264C19.618 95.2935 19.2439 95.1499 18.8966 95Z" fill="#D63E4D"/>
<path d="M22.7204 105.5C12.3115 104.142 8.96517 98.5204 8.12996 93C10.2739 97.9508 22.1574 106.802 31.7954 100.292C32.5965 100.421 33.4432 100.528 34.328 100.611C31.5371 103.543 26.9212 106.048 22.7204 105.5Z" fill="#D63E4D"/>
<path d="M30.1709 99.9899C26.5648 99.2213 23.1537 97.926 20.022 96.1882L20.2345 95.4984C23.2389 96.4559 27.4311 96.7816 30.9686 94.6763C30.7999 96.5616 30.5349 98.2671 30.245 99.6469C30.212 99.7561 30.1871 99.8703 30.1709 99.9899Z" fill="#FF4747"/>
<path d="M20.022 96.1882C20.0266 95.9542 20.0245 95.6987 20.0144 95.4264C20.087 95.4508 20.1604 95.4748 20.2345 95.4984L20.022 96.1882Z" fill="#FF4747"/>
<path d="M33.571 92.5C35.528 92.9502 36.5377 93.8654 36.8247 95C36.2265 95.9137 35.6057 96.7315 34.9666 97.4603C33.1119 97.5058 30.7462 97.9875 30.245 99.6469C30.5349 98.2671 30.7999 96.5616 30.9686 94.6763C31.8916 94.127 32.7699 93.4122 33.571 92.5Z" fill="#FF4747"/>
<path d="M31.7954 100.292C31.2303 100.201 30.688 100.1 30.1709 99.9899C30.1819 99.9404 30.1928 99.8905 30.2038 99.8401C30.2175 99.7764 30.2313 99.712 30.245 99.6469C30.7462 97.9875 33.1119 97.5058 34.9666 97.4603C33.95 98.6199 32.8871 99.5544 31.7954 100.292Z" fill="#FF4747"/>
<path fill-rule="evenodd" clip-rule="evenodd" d="M60.5692 86.2251C60.764 92 56.764 94.5 53.764 95C51.8598 95.3333 48.1725 96.7 48.6576 99.5C43.5622 100.808 38.5183 100.999 34.328 100.611C35.2838 99.6063 36.0256 98.5519 36.4633 97.5529C39.6925 98.3749 45.8722 98.2772 46.264 91.5756C46.664 84.7335 56.1953 83.8084 60.9109 84.2011C60.6715 84.9055 60.5476 85.5856 60.5692 86.2251ZM30.245 99.6469C30.212 99.7561 30.1871 99.8703 30.1709 99.9899C30.1819 99.9404 30.1928 99.8905 30.2038 99.8401C30.2175 99.7764 30.2313 99.712 30.245 99.6469Z" fill="#4EB6B7"/>
<path d="M34.328 100.611C33.4432 100.528 32.5965 100.421 31.7954 100.292C32.8871 99.5544 33.95 98.6199 34.9666 97.4603C35.4471 97.4486 35.8934 97.4661 36.264 97.5C36.3291 97.518 36.3955 97.5357 36.4633 97.5529C36.0256 98.5519 35.2838 99.6063 34.328 100.611Z" fill="#D63E4D"/>
<path fill-rule="evenodd" clip-rule="evenodd" d="M66.4352 72.2609L30.7173 73.4883C33.7507 75.0449 36.2077 77.9093 37.2642 82.5C38.1466 86.3344 35.2312 90.6095 33.571 92.5C35.528 92.9502 36.5377 93.8654 36.8247 95C37.0137 95.7472 36.8693 96.6263 36.4633 97.5529C39.6925 98.3749 45.8722 98.2772 46.264 91.5756C46.664 84.7335 56.1953 83.8084 60.9109 84.2011C61.4263 82.6848 62.4769 81.0554 63.7642 79.4731L62.7642 79L63.7642 78.5H64.5895C66.4555 76.3841 68.6448 74.4165 70.4066 73H66.7642L66.129 72.5L66.4352 72.2609ZM39.264 89.5C38.264 89.3333 36.264 89.4 36.264 91C36.264 93 40.264 93.5 40.264 92C40.264 91.903 40.3536 91.7847 40.4593 91.6451C40.816 91.1742 41.3565 90.4606 39.264 89.5Z" fill="#ADDEE2"/>
<path d="M36.264 97.5C35.8934 97.4661 35.4471 97.4486 34.9666 97.4603C35.6057 96.7315 36.2265 95.9137 36.8247 95C37.0137 95.7472 36.8693 96.6263 36.4633 97.5529C36.3955 97.5357 36.3291 97.518 36.264 97.5Z" fill="#D63E4D"/>
<path d="M99.574 50.2679C98.4151 52.7641 97.3274 58.238 102.249 60.1637C100.198 57.1325 97.9158 50.3213 105.191 47.3258C112.465 44.3304 118.028 49.9802 119.9 53.1796C118.846 51.118 116.374 47.4675 113.749 46.2561C110.272 44.6513 106.528 44.3839 106.26 44.3839L105.935 43.8489L99.0972 49.4655L99.574 50.2679Z" fill="#9FD7F0"/>
<path d="M105.191 47.3258C97.9158 50.3213 100.198 57.1325 102.249 60.1637C101.39 56.9624 100.886 50.8342 104.656 48.9303C105.19 48.6604 105.81 48.4754 106.528 48.3957C109.79 48.0332 112.978 49.0119 115.505 50.2679C117.453 51.2361 119.008 52.369 119.9 53.1796C118.028 49.9802 112.465 44.3304 105.191 47.3258Z" fill="#B6E5FF"/>
<path d="M104.656 48.9303C100.886 50.8342 101.39 56.9624 102.249 60.1637C103.07 60.1154 104.168 59.9519 105.393 59.6287C106.261 59.3998 107.192 59.0906 108.133 58.6854C108.133 54.9352 105.815 50.6194 104.656 48.9303Z" fill="#DDF4FC"/>
<path d="M106.528 48.3957C106.82 50.3636 107.711 54.3495 109.16 56.6867C110.969 55.5278 114.771 52.6215 115.505 50.2679C112.978 49.0119 109.79 48.0332 106.528 48.3957Z" fill="#CEF0FA"/>
<path d="M121.238 69.792C118.028 74.6061 111.716 85.1438 112.144 88.7812C114.819 88.4246 120.917 88.3533 123.912 90.9209C124.715 86.8199 125.303 76.8527 121.238 69.792Z" fill="#DDF4FC"/>
<path d="M122.842 70.0595C124.352 72.2558 125.316 74.3289 125.911 76.2109C126.005 74.6062 126.165 71.2897 126.052 70.8618C125.911 70.3269 124.18 67.3849 124.447 63.6406C123.568 61.8237 122.111 58.743 121.216 56.6631C118.443 53.6864 115.975 52.7639 115.086 52.675C114.117 54.4758 112.747 55.8768 111.235 56.9542C111.449 57.4891 112.84 58.8799 116.691 60.1637C121.505 61.7684 123.377 65.2453 122.842 70.0595Z" fill="#CEF0FA"/>
<path d="M120.435 54.5471C120.435 54.3505 120.243 53.8488 119.9 53.1796C119.008 52.369 117.453 51.2361 115.505 50.2679C114.771 52.6215 110.969 55.5278 109.16 56.6867C109.418 57.1023 109.694 57.4658 109.987 57.7565C110.41 57.5116 110.828 57.2447 111.235 56.9542C112.747 55.8768 114.117 54.4758 115.086 52.675C115.975 52.7639 118.443 53.6864 121.216 56.6631C120.749 55.5792 120.435 54.767 120.435 54.5471Z" fill="#B6E5FF"/>
<path d="M106.528 48.3957C105.81 48.4754 105.19 48.6604 104.656 48.9303C105.815 50.6194 108.133 54.9352 108.133 58.6854C108.4 58.5703 108.667 58.4476 108.935 58.3167C109.287 58.1443 109.639 57.9579 109.987 57.7565C109.694 57.4658 109.418 57.1023 109.16 56.6867C107.711 54.3495 106.82 50.3636 106.528 48.3957Z" fill="#B6E5FF"/>
<path d="M105.458 90.9209C105.725 91.7232 106.528 95.4676 111.877 96.2699C109.853 95.547 106.961 94.0266 108.45 92.793C107.882 92.4364 106.916 91.2953 107.598 89.5836C107.667 90.5642 108.133 92.4721 109.44 92.2581C109.682 92.1657 109.958 92.0763 110.272 91.9906C111 91.7921 111.716 91.6836 112.412 91.6475C112.323 91.0852 112.251 89.8318 112.679 89.3161C112.679 89.9719 112.786 91.3543 113.214 91.6371C114.361 91.6666 115.443 91.8828 116.424 92.2002C116.78 91.7738 117.493 90.5999 117.493 89.3161C117.641 90.0293 117.811 91.6697 117.313 92.5255C118.334 92.9421 119.214 93.452 119.9 93.9355C120.528 93.6345 121.708 92.8732 121.982 92.0071C122.005 91.8786 122.024 91.7575 122.04 91.6475C122.04 91.7687 122.02 91.8889 121.982 92.0071C121.788 93.1028 121.347 94.7355 120.744 94.5946C121.183 94.9804 121.449 95.2999 121.505 95.4675C121.773 96.2699 118.831 96.7953 117.226 96.8C120.463 96.9481 123.025 96.7078 123.377 96.0025C123.912 94.9327 125.517 91.7232 125.517 91.1883C125.517 90.6534 125.784 86.909 126.052 86.1067C126.251 85.5102 127.632 81.6623 125.911 76.2109C125.316 74.3289 124.352 72.2558 122.842 70.0595C123.377 65.2453 121.505 61.7684 116.691 60.1637C112.84 58.8799 111.449 57.4891 111.235 56.9542C110.828 57.2447 110.41 57.5116 109.987 57.7565C109.639 57.9579 109.287 58.1443 108.935 58.3167C109.113 58.6649 109.898 59.4148 111.609 59.6287C113.749 59.8962 120.97 62.3033 120.435 68.1872C120.435 68.9005 119.9 70.8083 117.761 72.734C115.354 77.6373 110.54 87.7114 110.54 88.7812C110.968 89.4231 111.788 89.0486 112.144 88.7812C111.716 85.1438 118.028 74.6061 121.238 69.792C125.303 76.8527 124.715 86.8199 123.912 90.9209C120.917 88.3533 114.819 88.4246 112.144 88.7812C111.788 89.0486 110.968 89.4231 110.54 88.7812C108.846 88.5138 105.458 88.5673 105.458 90.9209Z" fill="#B6E5FF"/>
<path d="M108.133 58.6854C107.192 59.0906 106.261 59.3998 105.393 59.6287C105.504 60.5202 107.009 62.7847 112.144 64.7103C117.279 66.636 118.028 70.8618 117.761 72.734C119.9 70.8083 120.435 68.9005 120.435 68.1872C120.97 62.3033 113.749 59.8962 111.609 59.6287C109.898 59.4148 109.113 58.6649 108.935 58.3167C108.667 58.4476 108.4 58.5703 108.133 58.6854Z" fill="#9FD7F0"/>
<path d="M106.939 86.1067C106.105 88.2491 105.316 90.4958 105.458 90.9209C105.458 88.5673 108.846 88.5138 110.54 88.7812C110.54 87.7114 115.354 77.6373 117.761 72.734L106.939 86.1067Z" fill="#9FD7F0"/>
<path d="M102.249 60.1637L108.667 66.0476C109.113 65.7802 110.058 65.3523 110.272 65.7802C110.486 66.2081 109.47 66.85 108.935 67.1175L108.132 83.1647C107.801 83.9477 107.364 85.0137 106.939 86.1067L117.761 72.734C118.028 70.8618 117.279 66.636 112.144 64.7103C107.009 62.7847 105.504 60.5202 105.393 59.6287C104.168 59.9519 103.07 60.1154 102.249 60.1637Z" fill="#B6E5FF"/>
<path fill-rule="evenodd" clip-rule="evenodd" d="M111.877 96.2699C113.699 96.5433 115.553 96.7235 117.226 96.8C118.831 96.7953 121.773 96.2699 121.505 95.4675C121.449 95.2999 121.183 94.9804 120.744 94.5946C120.51 94.3894 120.227 94.1654 119.9 93.9355C119.214 93.452 118.334 92.9421 117.313 92.5255C117.027 92.4089 116.73 92.2996 116.424 92.2002C115.443 91.8828 114.361 91.6666 113.214 91.6371C112.95 91.6303 112.682 91.6334 112.412 91.6475C111.716 91.6836 111 91.7921 110.272 91.9906C109.958 92.0763 109.682 92.1657 109.44 92.2581C108.999 92.4274 108.674 92.6069 108.45 92.793C106.961 94.0266 109.853 95.547 111.877 96.2699ZM111.877 93.3279C111.021 94.1838 112.59 95.1109 113.482 95.4675C116.049 96.5374 117.583 95.735 118.028 95.2001C117.761 92.5255 112.947 92.2581 111.877 93.3279Z" fill="#9FD7F0"/>
<path d="M113.482 95.4675C112.59 95.1109 111.021 94.1838 111.877 93.3279C112.947 92.2581 117.761 92.5255 118.028 95.2001C117.583 95.735 116.049 96.5374 113.482 95.4675Z" fill="#B6E5FF"/>
<path d="M96.8994 47.5933L98.7716 49.733L99.0972 49.4655L105.935 43.8489L106.26 43.5815C105.904 43.1358 105.084 42.0838 104.656 41.4419C104.228 40.8 103.586 40.9961 103.318 41.1744C101.714 42.5117 98.2902 45.4002 97.4343 46.2561C96.5785 47.1119 96.7211 47.5042 96.8994 47.5933Z" fill="#2B6CAF"/>
<path d="M46.9785 63.8265H53.0671" stroke="black" stroke-width="0.5" stroke-linecap="round"/>
<path d="M55.0963 58.476C55.0963 59.2912 54.7658 59.952 54.3583 59.952C53.9507 59.952 53.6202 59.2912 53.6202 58.476C53.6202 57.6608 53.9507 57 54.3583 57C54.7658 57 55.0963 57.6608 55.0963 58.476Z" fill="black"/>
<path d="M46.2402 58.476C46.2402 59.2912 45.9098 59.952 45.5022 59.952C45.0946 59.952 44.7642 59.2912 44.7642 58.476C44.7642 57.6608 45.0946 57 45.5022 57C45.9098 57 46.2402 57.6608 46.2402 58.476Z" fill="black"/>
</svg>
