<svg width="119" height="139" viewBox="0 0 119 139" fill="none" xmlns="http://www.w3.org/2000/svg">
<path d="M16.5731 106.384L14.8051 109.728V112H14.4451V109.728L12.6611 106.384H13.0691L14.6211 109.392L16.1651 106.384H16.5731ZM19.3493 112.064C18.9439 112.064 18.5786 111.973 18.2533 111.792C17.9279 111.611 17.6719 111.352 17.4853 111.016C17.3039 110.675 17.2133 110.277 17.2133 109.824C17.2133 109.376 17.3066 108.984 17.4933 108.648C17.6799 108.307 17.9359 108.048 18.2613 107.872C18.5919 107.691 18.9599 107.6 19.3653 107.6C19.7706 107.6 20.1359 107.691 20.4613 107.872C20.7866 108.048 21.0399 108.304 21.2213 108.64C21.4079 108.976 21.5013 109.371 21.5013 109.824C21.5013 110.277 21.4079 110.675 21.2213 111.016C21.0346 111.352 20.7759 111.611 20.4453 111.792C20.1199 111.973 19.7546 112.064 19.3493 112.064ZM19.3493 111.744C19.6639 111.744 19.9573 111.675 20.2293 111.536C20.5066 111.392 20.7279 111.176 20.8932 110.888C21.0586 110.6 21.1413 110.245 21.1413 109.824C21.1413 109.408 21.0586 109.056 20.8932 108.768C20.7279 108.48 20.5093 108.267 20.2373 108.128C19.9653 107.984 19.6719 107.912 19.3573 107.912C19.0426 107.912 18.7493 107.984 18.4773 108.128C18.2106 108.267 17.9946 108.48 17.8293 108.768C17.6639 109.056 17.5813 109.408 17.5813 109.824C17.5813 110.245 17.6613 110.6 17.8213 110.888C17.9866 111.176 18.2026 111.392 18.4693 111.536C18.7413 111.675 19.0346 111.744 19.3493 111.744ZM26.2655 107.656V112H25.9055V111.056C25.7828 111.387 25.5775 111.64 25.2895 111.816C25.0068 111.987 24.6815 112.072 24.3135 112.072C23.7962 112.072 23.3722 111.915 23.0415 111.6C22.7162 111.28 22.5535 110.808 22.5535 110.184V107.656H22.9055V110.16C22.9055 110.677 23.0362 111.075 23.2975 111.352C23.5588 111.624 23.9135 111.76 24.3615 111.76C24.8308 111.76 25.2042 111.611 25.4815 111.312C25.7642 111.013 25.9055 110.571 25.9055 109.984V107.656H26.2655ZM27.6099 106.384H28.0659L27.4419 108.024H27.1699L27.6099 106.384ZM30.4249 111.608L32.0249 107.656H32.4089L30.6089 112H30.2329L28.4329 107.656H28.8249L30.4249 111.608ZM37.1149 109.536C37.1149 109.728 37.1095 109.872 37.0989 109.968H33.3469C33.3575 110.357 33.4429 110.685 33.6029 110.952C33.7629 111.219 33.9735 111.419 34.2349 111.552C34.4962 111.685 34.7815 111.752 35.0909 111.752C35.5175 111.752 35.8749 111.648 36.1629 111.44C36.4509 111.227 36.6322 110.939 36.7069 110.576H37.0829C36.9975 111.019 36.7789 111.379 36.4269 111.656C36.0749 111.928 35.6295 112.064 35.0909 112.064C34.6855 112.064 34.3229 111.973 34.0029 111.792C33.6829 111.611 33.4322 111.352 33.2509 111.016C33.0695 110.675 32.9789 110.277 32.9789 109.824C32.9789 109.371 33.0669 108.976 33.2429 108.64C33.4242 108.304 33.6749 108.048 33.9949 107.872C34.3149 107.691 34.6802 107.6 35.0909 107.6C35.5069 107.6 35.8669 107.691 36.1709 107.872C36.4802 108.048 36.7149 108.285 36.8749 108.584C37.0349 108.877 37.1149 109.195 37.1149 109.536ZM36.7549 109.672C36.7709 109.288 36.7015 108.963 36.5469 108.696C36.3975 108.429 36.1922 108.232 35.9309 108.104C35.6695 107.971 35.3869 107.904 35.0829 107.904C34.7789 107.904 34.4962 107.971 34.2349 108.104C33.9789 108.232 33.7682 108.429 33.6029 108.696C33.4429 108.963 33.3575 109.288 33.3469 109.672H36.7549ZM40.8207 108.552C40.9274 108.232 41.1167 107.989 41.3887 107.824C41.6607 107.653 42.0074 107.568 42.4287 107.568V107.944H42.3087C41.882 107.944 41.5274 108.067 41.2447 108.312C40.962 108.552 40.8207 108.947 40.8207 109.496V112H40.4607V107.656H40.8207V108.552ZM47.1696 109.536C47.1696 109.728 47.1642 109.872 47.1536 109.968H43.4016C43.4122 110.357 43.4976 110.685 43.6576 110.952C43.8176 111.219 44.0282 111.419 44.2896 111.552C44.5509 111.685 44.8362 111.752 45.1456 111.752C45.5722 111.752 45.9296 111.648 46.2176 111.44C46.5056 111.227 46.6869 110.939 46.7616 110.576H47.1376C47.0522 111.019 46.8336 111.379 46.4816 111.656C46.1296 111.928 45.6842 112.064 45.1456 112.064C44.7402 112.064 44.3776 111.973 44.0576 111.792C43.7376 111.611 43.4869 111.352 43.3056 111.016C43.1242 110.675 43.0336 110.277 43.0336 109.824C43.0336 109.371 43.1216 108.976 43.2976 108.64C43.4789 108.304 43.7296 108.048 44.0496 107.872C44.3696 107.691 44.7349 107.6 45.1456 107.6C45.5616 107.6 45.9216 107.691 46.2256 107.872C46.5349 108.048 46.7696 108.285 46.9296 108.584C47.0896 108.877 47.1696 109.195 47.1696 109.536ZM46.8096 109.672C46.8256 109.288 46.7562 108.963 46.6016 108.696C46.4522 108.429 46.2469 108.232 45.9856 108.104C45.7242 107.971 45.4416 107.904 45.1376 107.904C44.8336 107.904 44.5509 107.971 44.2896 108.104C44.0336 108.232 43.8229 108.429 43.6576 108.696C43.4976 108.963 43.4122 109.288 43.4016 109.672H46.8096ZM48.0336 109.824C48.0336 109.371 48.1216 108.976 48.2976 108.64C48.4789 108.304 48.7269 108.048 49.0416 107.872C49.3616 107.691 49.7269 107.6 50.1376 107.6C50.6816 107.6 51.1269 107.736 51.4736 108.008C51.8256 108.28 52.0442 108.645 52.1296 109.104H51.7536C51.6842 108.731 51.5029 108.437 51.2096 108.224C50.9216 108.011 50.5642 107.904 50.1376 107.904C49.8176 107.904 49.5269 107.976 49.2656 108.12C49.0042 108.259 48.7936 108.475 48.6336 108.768C48.4789 109.056 48.4016 109.408 48.4016 109.824C48.4016 110.245 48.4789 110.6 48.6336 110.888C48.7936 111.176 49.0042 111.392 49.2656 111.536C49.5269 111.68 49.8176 111.752 50.1376 111.752C50.5642 111.752 50.9216 111.645 51.2096 111.432C51.5029 111.219 51.6842 110.925 51.7536 110.552H52.1296C52.0442 111.005 51.8256 111.371 51.4736 111.648C51.1216 111.925 50.6762 112.064 50.1376 112.064C49.7269 112.064 49.3616 111.973 49.0416 111.792C48.7269 111.611 48.4789 111.352 48.2976 111.016C48.1216 110.675 48.0336 110.277 48.0336 109.824ZM56.6183 107.656L54.0903 114.04H53.7223L54.5303 112L52.7063 107.656H53.0983L54.7303 111.6L56.2503 107.656H56.6183ZM57.1976 109.824C57.1976 109.371 57.2856 108.976 57.4616 108.64C57.643 108.304 57.891 108.048 58.2056 107.872C58.5256 107.691 58.891 107.6 59.3016 107.6C59.8456 107.6 60.291 107.736 60.6376 108.008C60.9896 108.28 61.2083 108.645 61.2936 109.104H60.9176C60.8483 108.731 60.667 108.437 60.3736 108.224C60.0856 108.011 59.7283 107.904 59.3016 107.904C58.9816 107.904 58.691 107.976 58.4296 108.12C58.1683 108.259 57.9576 108.475 57.7976 108.768C57.643 109.056 57.5656 109.408 57.5656 109.824C57.5656 110.245 57.643 110.6 57.7976 110.888C57.9576 111.176 58.1683 111.392 58.4296 111.536C58.691 111.68 58.9816 111.752 59.3016 111.752C59.7283 111.752 60.0856 111.645 60.3736 111.432C60.667 111.219 60.8483 110.925 60.9176 110.552H61.2936C61.2083 111.005 60.9896 111.371 60.6376 111.648C60.2856 111.925 59.8403 112.064 59.3016 112.064C58.891 112.064 58.5256 111.973 58.2056 111.792C57.891 111.611 57.643 111.352 57.4616 111.016C57.2856 110.675 57.1976 110.277 57.1976 109.824ZM62.7504 106.08V112H62.3904V106.08H62.7504ZM67.9821 109.536C67.9821 109.728 67.9767 109.872 67.9661 109.968H64.2141C64.2247 110.357 64.3101 110.685 64.4701 110.952C64.6301 111.219 64.8407 111.419 65.1021 111.552C65.3634 111.685 65.6487 111.752 65.9581 111.752C66.3847 111.752 66.7421 111.648 67.0301 111.44C67.3181 111.227 67.4994 110.939 67.5741 110.576H67.9501C67.8647 111.019 67.6461 111.379 67.2941 111.656C66.9421 111.928 66.4967 112.064 65.9581 112.064C65.5527 112.064 65.1901 111.973 64.8701 111.792C64.5501 111.611 64.2994 111.352 64.1181 111.016C63.9367 110.675 63.8461 110.277 63.8461 109.824C63.8461 109.371 63.9341 108.976 64.1101 108.64C64.2914 108.304 64.5421 108.048 64.8621 107.872C65.1821 107.691 65.5474 107.6 65.9581 107.6C66.3741 107.6 66.7341 107.691 67.0381 107.872C67.3474 108.048 67.5821 108.285 67.7421 108.584C67.9021 108.877 67.9821 109.195 67.9821 109.536ZM67.6221 109.672C67.6381 109.288 67.5687 108.963 67.4141 108.696C67.2647 108.429 67.0594 108.232 66.7981 108.104C66.5367 107.971 66.2541 107.904 65.9501 107.904C65.6461 107.904 65.3634 107.971 65.1021 108.104C64.8461 108.232 64.6354 108.429 64.4701 108.696C64.3101 108.963 64.2247 109.288 64.2141 109.672H67.6221ZM68.8461 109.824C68.8461 109.376 68.9341 108.984 69.1101 108.648C69.2914 108.312 69.5394 108.053 69.8541 107.872C70.1741 107.691 70.5367 107.6 70.9421 107.6C71.3847 107.6 71.7687 107.712 72.0941 107.936C72.4194 108.155 72.6487 108.44 72.7821 108.792V106.08H73.1421V112H72.7821V110.848C72.6541 111.205 72.4301 111.499 72.1101 111.728C71.7901 111.952 71.4007 112.064 70.9421 112.064C70.5367 112.064 70.1741 111.973 69.8541 111.792C69.5394 111.605 69.2914 111.344 69.1101 111.008C68.9341 110.667 68.8461 110.272 68.8461 109.824ZM72.7821 109.824C72.7821 109.445 72.7021 109.112 72.5421 108.824C72.3874 108.531 72.1741 108.307 71.9021 108.152C71.6301 107.992 71.3261 107.912 70.9901 107.912C70.6381 107.912 70.3287 107.989 70.0621 108.144C69.7954 108.293 69.5874 108.512 69.4381 108.8C69.2887 109.088 69.2141 109.429 69.2141 109.824C69.2141 110.219 69.2887 110.56 69.4381 110.848C69.5874 111.136 69.7954 111.357 70.0621 111.512C70.3341 111.667 70.6434 111.744 70.9901 111.744C71.3261 111.744 71.6301 111.667 71.9021 111.512C72.1794 111.352 72.3954 111.128 72.5501 110.84C72.7047 110.547 72.7821 110.208 72.7821 109.824ZM80.6227 109.536C80.6227 109.728 80.6174 109.872 80.6067 109.968H76.8547C76.8654 110.357 76.9507 110.685 77.1107 110.952C77.2707 111.219 77.4814 111.419 77.7427 111.552C78.004 111.685 78.2894 111.752 78.5987 111.752C79.0254 111.752 79.3827 111.648 79.6707 111.44C79.9587 111.227 80.14 110.939 80.2147 110.576H80.5907C80.5054 111.019 80.2867 111.379 79.9347 111.656C79.5827 111.928 79.1374 112.064 78.5987 112.064C78.1934 112.064 77.8307 111.973 77.5107 111.792C77.1907 111.611 76.94 111.352 76.7587 111.016C76.5774 110.675 76.4867 110.277 76.4867 109.824C76.4867 109.371 76.5747 108.976 76.7507 108.64C76.932 108.304 77.1827 108.048 77.5027 107.872C77.8227 107.691 78.188 107.6 78.5987 107.6C79.0147 107.6 79.3747 107.691 79.6787 107.872C79.988 108.048 80.2227 108.285 80.3827 108.584C80.5427 108.877 80.6227 109.195 80.6227 109.536ZM80.2627 109.672C80.2787 109.288 80.2094 108.963 80.0547 108.696C79.9054 108.429 79.7 108.232 79.4387 108.104C79.1774 107.971 78.8947 107.904 78.5907 107.904C78.2867 107.904 78.004 107.971 77.7427 108.104C77.4867 108.232 77.276 108.429 77.1107 108.696C76.9507 108.963 76.8654 109.288 76.8547 109.672H80.2627ZM83.6707 107.568C84.188 107.568 84.6094 107.728 84.9347 108.048C85.26 108.363 85.4227 108.832 85.4227 109.456V112H85.0707V109.48C85.0707 108.963 84.94 108.568 84.6787 108.296C84.4174 108.019 84.0627 107.88 83.6147 107.88C83.1454 107.88 82.7694 108.029 82.4867 108.328C82.2094 108.627 82.0707 109.069 82.0707 109.656V112H81.7107V107.656H82.0707V108.576C82.1934 108.251 82.396 108.003 82.6787 107.832C82.9667 107.656 83.2974 107.568 83.6707 107.568ZM88.6071 112.064C88.2017 112.064 87.8364 111.973 87.5111 111.792C87.1857 111.611 86.9297 111.352 86.7431 111.016C86.5617 110.675 86.4711 110.277 86.4711 109.824C86.4711 109.376 86.5644 108.984 86.7511 108.648C86.9377 108.307 87.1937 108.048 87.5191 107.872C87.8497 107.691 88.2177 107.6 88.6231 107.6C89.0284 107.6 89.3937 107.691 89.7191 107.872C90.0444 108.048 90.2977 108.304 90.4791 108.64C90.6657 108.976 90.7591 109.371 90.7591 109.824C90.7591 110.277 90.6657 110.675 90.4791 111.016C90.2924 111.352 90.0337 111.611 89.7031 111.792C89.3777 111.973 89.0124 112.064 88.6071 112.064ZM88.6071 111.744C88.9217 111.744 89.2151 111.675 89.4871 111.536C89.7644 111.392 89.9857 111.176 90.1511 110.888C90.3164 110.6 90.3991 110.245 90.3991 109.824C90.3991 109.408 90.3164 109.056 90.1511 108.768C89.9857 108.48 89.7671 108.267 89.4951 108.128C89.2231 107.984 88.9297 107.912 88.6151 107.912C88.3004 107.912 88.0071 107.984 87.7351 108.128C87.4684 108.267 87.2524 108.48 87.0871 108.768C86.9217 109.056 86.8391 109.408 86.8391 109.824C86.8391 110.245 86.9191 110.6 87.0791 110.888C87.2444 111.176 87.4604 111.392 87.7271 111.536C87.9991 111.675 88.2924 111.744 88.6071 111.744ZM95.5233 107.656V112H95.1633V111.056C95.0406 111.387 94.8353 111.64 94.5473 111.816C94.2646 111.987 93.9393 112.072 93.5713 112.072C93.054 112.072 92.63 111.915 92.2993 111.6C91.974 111.28 91.8113 110.808 91.8113 110.184V107.656H92.1633V110.16C92.1633 110.677 92.294 111.075 92.5553 111.352C92.8166 111.624 93.1713 111.76 93.6193 111.76C94.0886 111.76 94.462 111.611 94.7393 111.312C95.022 111.013 95.1633 110.571 95.1633 109.984V107.656H95.5233ZM98.7077 107.6C99.1664 107.6 99.5557 107.712 99.8757 107.936C100.196 108.155 100.42 108.437 100.548 108.784V107.656H100.908V112.136C100.908 112.536 100.82 112.885 100.644 113.184C100.468 113.488 100.23 113.72 99.9317 113.88C99.633 114.045 99.2997 114.128 98.9317 114.128C98.3877 114.128 97.937 113.997 97.5797 113.736C97.2224 113.475 96.9877 113.123 96.8757 112.68H97.2357C97.3424 113.027 97.5424 113.301 97.8357 113.504C98.129 113.712 98.4944 113.816 98.9317 113.816C99.2357 113.816 99.5104 113.747 99.7557 113.608C100.001 113.475 100.193 113.28 100.332 113.024C100.476 112.773 100.548 112.477 100.548 112.136V110.864C100.42 111.211 100.193 111.499 99.8677 111.728C99.5477 111.952 99.161 112.064 98.7077 112.064C98.3024 112.064 97.9397 111.973 97.6197 111.792C97.305 111.605 97.057 111.344 96.8757 111.008C96.6997 110.667 96.6117 110.272 96.6117 109.824C96.6117 109.376 96.6997 108.984 96.8757 108.648C97.057 108.312 97.305 108.053 97.6197 107.872C97.9397 107.691 98.3024 107.6 98.7077 107.6ZM100.548 109.824C100.548 109.445 100.468 109.112 100.308 108.824C100.153 108.531 99.9397 108.307 99.6677 108.152C99.3957 107.992 99.0917 107.912 98.7557 107.912C98.4037 107.912 98.0944 107.989 97.8277 108.144C97.561 108.293 97.353 108.512 97.2037 108.8C97.0544 109.088 96.9797 109.429 96.9797 109.824C96.9797 110.219 97.0544 110.56 97.2037 110.848C97.353 111.136 97.561 111.357 97.8277 111.512C98.0997 111.667 98.409 111.744 98.7557 111.744C99.0917 111.744 99.3957 111.667 99.6677 111.512C99.945 111.352 100.161 111.128 100.316 110.84C100.47 110.547 100.548 110.208 100.548 109.824ZM104.187 107.568C104.699 107.568 105.117 107.728 105.443 108.048C105.768 108.363 105.931 108.832 105.931 109.456V112H105.579V109.48C105.579 108.963 105.448 108.568 105.187 108.296C104.925 108.019 104.571 107.88 104.123 107.88C103.653 107.88 103.277 108.029 102.995 108.328C102.717 108.627 102.579 109.069 102.579 109.656V112H102.219V106.08H102.579V108.576C102.701 108.251 102.907 108.003 103.195 107.832C103.483 107.656 103.813 107.568 104.187 107.568ZM5.44569 120.8C5.56835 120.448 5.78969 120.16 6.10969 119.936C6.43502 119.712 6.82702 119.6 7.28569 119.6C7.69102 119.6 8.05102 119.691 8.36569 119.872C8.68569 120.053 8.93369 120.312 9.10969 120.648C9.29102 120.984 9.38169 121.376 9.38169 121.824C9.38169 122.272 9.29102 122.667 9.10969 123.008C8.93369 123.344 8.68569 123.605 8.36569 123.792C8.05102 123.973 7.69102 124.064 7.28569 124.064C6.83235 124.064 6.44302 123.952 6.11769 123.728C5.79769 123.499 5.57369 123.211 5.44569 122.864V126.048H5.08569V119.656H5.44569V120.8ZM9.01369 121.824C9.01369 121.429 8.93902 121.088 8.78969 120.8C8.64035 120.512 8.42969 120.293 8.15769 120.144C7.89102 119.989 7.58169 119.912 7.22969 119.912C6.89369 119.912 6.58969 119.992 6.31769 120.152C6.04569 120.307 5.83235 120.531 5.67769 120.824C5.52302 121.112 5.44569 121.445 5.44569 121.824C5.44569 122.208 5.52302 122.547 5.67769 122.84C5.83235 123.128 6.04569 123.352 6.31769 123.512C6.58969 123.667 6.89369 123.744 7.22969 123.744C7.58169 123.744 7.89102 123.667 8.15769 123.512C8.42969 123.357 8.64035 123.136 8.78969 122.848C8.93902 122.56 9.01369 122.219 9.01369 121.824ZM10.2445 121.824C10.2445 121.376 10.3325 120.984 10.5085 120.648C10.6898 120.312 10.9378 120.053 11.2525 119.872C11.5725 119.691 11.9352 119.6 12.3405 119.6C12.7992 119.6 13.1885 119.712 13.5085 119.936C13.8285 120.16 14.0525 120.445 14.1805 120.792V119.656H14.5405V124H14.1805V122.856C14.0525 123.208 13.8258 123.499 13.5005 123.728C13.1805 123.952 12.7938 124.064 12.3405 124.064C11.9352 124.064 11.5725 123.973 11.2525 123.792C10.9378 123.605 10.6898 123.344 10.5085 123.008C10.3325 122.667 10.2445 122.272 10.2445 121.824ZM14.1805 121.824C14.1805 121.445 14.1005 121.112 13.9405 120.824C13.7858 120.531 13.5725 120.307 13.3005 120.152C13.0285 119.992 12.7245 119.912 12.3885 119.912C12.0365 119.912 11.7272 119.989 11.4605 120.144C11.1938 120.293 10.9858 120.512 10.8365 120.8C10.6872 121.088 10.6125 121.429 10.6125 121.824C10.6125 122.219 10.6872 122.56 10.8365 122.848C10.9858 123.136 11.1938 123.357 11.4605 123.512C11.7325 123.667 12.0418 123.744 12.3885 123.744C12.7245 123.744 13.0285 123.667 13.3005 123.512C13.5778 123.352 13.7938 123.128 13.9485 122.84C14.1032 122.547 14.1805 122.208 14.1805 121.824ZM16.2113 120.8C16.334 120.448 16.5553 120.16 16.8753 119.936C17.2006 119.712 17.5926 119.6 18.0513 119.6C18.4566 119.6 18.8166 119.691 19.1313 119.872C19.4513 120.053 19.6993 120.312 19.8753 120.648C20.0566 120.984 20.1473 121.376 20.1473 121.824C20.1473 122.272 20.0566 122.667 19.8753 123.008C19.6993 123.344 19.4513 123.605 19.1313 123.792C18.8166 123.973 18.4566 124.064 18.0513 124.064C17.598 124.064 17.2086 123.952 16.8833 123.728C16.5633 123.499 16.3393 123.211 16.2113 122.864V126.048H15.8513V119.656H16.2113V120.8ZM19.7793 121.824C19.7793 121.429 19.7046 121.088 19.5553 120.8C19.406 120.512 19.1953 120.293 18.9233 120.144C18.6566 119.989 18.3473 119.912 17.9953 119.912C17.6593 119.912 17.3553 119.992 17.0833 120.152C16.8113 120.307 16.598 120.531 16.4433 120.824C16.2886 121.112 16.2113 121.445 16.2113 121.824C16.2113 122.208 16.2886 122.547 16.4433 122.84C16.598 123.128 16.8113 123.352 17.0833 123.512C17.3553 123.667 17.6593 123.744 17.9953 123.744C18.3473 123.744 18.6566 123.667 18.9233 123.512C19.1953 123.357 19.406 123.136 19.5553 122.848C19.7046 122.56 19.7793 122.219 19.7793 121.824ZM25.1461 121.536C25.1461 121.728 25.1408 121.872 25.1301 121.968H21.3781C21.3888 122.357 21.4741 122.685 21.6341 122.952C21.7941 123.219 22.0048 123.419 22.2661 123.552C22.5275 123.685 22.8128 123.752 23.1221 123.752C23.5488 123.752 23.9061 123.648 24.1941 123.44C24.4821 123.227 24.6635 122.939 24.7381 122.576H25.1141C25.0288 123.019 24.8101 123.379 24.4581 123.656C24.1061 123.928 23.6608 124.064 23.1221 124.064C22.7168 124.064 22.3541 123.973 22.0341 123.792C21.7141 123.611 21.4635 123.352 21.2821 123.016C21.1008 122.675 21.0101 122.277 21.0101 121.824C21.0101 121.371 21.0981 120.976 21.2741 120.64C21.4555 120.304 21.7061 120.048 22.0261 119.872C22.3461 119.691 22.7115 119.6 23.1221 119.6C23.5381 119.6 23.8981 119.691 24.2021 119.872C24.5115 120.048 24.7461 120.285 24.9061 120.584C25.0661 120.877 25.1461 121.195 25.1461 121.536ZM24.7861 121.672C24.8021 121.288 24.7328 120.963 24.5781 120.696C24.4288 120.429 24.2235 120.232 23.9621 120.104C23.7008 119.971 23.4181 119.904 23.1141 119.904C22.8101 119.904 22.5275 119.971 22.2661 120.104C22.0101 120.232 21.7995 120.429 21.6341 120.696C21.4741 120.963 21.3888 121.288 21.3781 121.672H24.7861ZM26.5941 120.552C26.7008 120.232 26.8901 119.989 27.1621 119.824C27.4341 119.653 27.7808 119.568 28.2021 119.568V119.944H28.0821C27.6555 119.944 27.3008 120.067 27.0181 120.312C26.7355 120.552 26.5941 120.947 26.5941 121.496V124H26.2341V119.656H26.5941V120.552ZM31.8248 119.968V122.84C31.8248 123.16 31.8835 123.381 32.0008 123.504C32.1181 123.621 32.3261 123.68 32.6248 123.68H33.1128V124H32.5688C32.1901 124 31.9101 123.912 31.7288 123.736C31.5528 123.555 31.4648 123.256 31.4648 122.84V119.968H30.8088V119.656H31.4648V118.552H31.8248V119.656H33.1128V119.968H31.8248ZM35.9743 124.064C35.5689 124.064 35.2036 123.973 34.8783 123.792C34.5529 123.611 34.2969 123.352 34.1103 123.016C33.9289 122.675 33.8383 122.277 33.8383 121.824C33.8383 121.376 33.9316 120.984 34.1183 120.648C34.3049 120.307 34.5609 120.048 34.8863 119.872C35.2169 119.691 35.5849 119.6 35.9903 119.6C36.3956 119.6 36.7609 119.691 37.0863 119.872C37.4116 120.048 37.6649 120.304 37.8463 120.64C38.0329 120.976 38.1263 121.371 38.1263 121.824C38.1263 122.277 38.0329 122.675 37.8463 123.016C37.6596 123.352 37.4009 123.611 37.0703 123.792C36.7449 123.973 36.3796 124.064 35.9743 124.064ZM35.9743 123.744C36.2889 123.744 36.5823 123.675 36.8543 123.536C37.1316 123.392 37.3529 123.176 37.5182 122.888C37.6836 122.6 37.7663 122.245 37.7663 121.824C37.7663 121.408 37.6836 121.056 37.5182 120.768C37.3529 120.48 37.1343 120.267 36.8623 120.128C36.5903 119.984 36.2969 119.912 35.9823 119.912C35.6676 119.912 35.3743 119.984 35.1023 120.128C34.8356 120.267 34.6196 120.48 34.4543 120.768C34.2889 121.056 34.2063 121.408 34.2063 121.824C34.2063 122.245 34.2863 122.6 34.4463 122.888C34.6116 123.176 34.8276 123.392 35.0943 123.536C35.3663 123.675 35.6596 123.744 35.9743 123.744ZM47.1563 119.656L45.7883 124H45.4443L44.0603 120.152L42.6683 124H42.3243L40.9563 119.656H41.3323L42.5003 123.592L43.8923 119.656H44.2363L45.6203 123.576L46.7883 119.656H47.1563ZM48.3051 120.552C48.4117 120.232 48.6011 119.989 48.8731 119.824C49.1451 119.653 49.4917 119.568 49.9131 119.568V119.944H49.7931C49.3664 119.944 49.0117 120.067 48.7291 120.312C48.4464 120.552 48.3051 120.947 48.3051 121.496V124H47.9451V119.656H48.3051V120.552ZM50.9259 118.688C50.8406 118.688 50.7686 118.661 50.7099 118.608C50.6513 118.549 50.6219 118.472 50.6219 118.376C50.6219 118.285 50.6513 118.211 50.7099 118.152C50.7686 118.093 50.8406 118.064 50.9259 118.064C51.0113 118.064 51.0833 118.093 51.1419 118.152C51.2006 118.211 51.2299 118.285 51.2299 118.376C51.2299 118.472 51.2006 118.549 51.1419 118.608C51.0833 118.661 51.0113 118.688 50.9259 118.688ZM51.1019 119.656V124H50.7419V119.656H51.1019ZM52.9576 119.968V122.84C52.9576 123.16 53.0163 123.381 53.1336 123.504C53.251 123.621 53.459 123.68 53.7576 123.68H54.2456V124H53.7016C53.323 124 53.043 123.912 52.8616 123.736C52.6856 123.555 52.5976 123.256 52.5976 122.84V119.968H51.9416V119.656H52.5976V118.552H52.9576V119.656H54.2456V119.968H52.9576ZM59.1071 121.536C59.1071 121.728 59.1017 121.872 59.0911 121.968H55.3391C55.3497 122.357 55.4351 122.685 55.5951 122.952C55.7551 123.219 55.9657 123.419 56.2271 123.552C56.4884 123.685 56.7737 123.752 57.0831 123.752C57.5097 123.752 57.8671 123.648 58.1551 123.44C58.4431 123.227 58.6244 122.939 58.6991 122.576H59.0751C58.9897 123.019 58.7711 123.379 58.4191 123.656C58.0671 123.928 57.6217 124.064 57.0831 124.064C56.6777 124.064 56.3151 123.973 55.9951 123.792C55.6751 123.611 55.4244 123.352 55.2431 123.016C55.0617 122.675 54.9711 122.277 54.9711 121.824C54.9711 121.371 55.0591 120.976 55.2351 120.64C55.4164 120.304 55.6671 120.048 55.9871 119.872C56.3071 119.691 56.6724 119.6 57.0831 119.6C57.4991 119.6 57.8591 119.691 58.1631 119.872C58.4724 120.048 58.7071 120.285 58.8671 120.584C59.0271 120.877 59.1071 121.195 59.1071 121.536ZM58.7471 121.672C58.7631 121.288 58.6937 120.963 58.5391 120.696C58.3897 120.429 58.1844 120.232 57.9231 120.104C57.6617 119.971 57.3791 119.904 57.0751 119.904C56.7711 119.904 56.4884 119.971 56.2271 120.104C55.9711 120.232 55.7604 120.429 55.5951 120.696C55.4351 120.963 55.3497 121.288 55.3391 121.672H58.7471ZM63.9009 124.064C63.4155 124.064 63.0182 123.957 62.7089 123.744C62.4049 123.531 62.2342 123.227 62.1969 122.832H62.5649C62.5915 123.115 62.7195 123.339 62.9489 123.504C63.1835 123.669 63.5009 123.752 63.9009 123.752C64.2315 123.752 64.4929 123.669 64.6849 123.504C64.8822 123.333 64.9809 123.125 64.9809 122.88C64.9809 122.709 64.9275 122.571 64.8209 122.464C64.7195 122.352 64.5915 122.267 64.4369 122.208C64.2822 122.149 64.0715 122.085 63.8049 122.016C63.4849 121.931 63.2262 121.848 63.0289 121.768C62.8315 121.683 62.6635 121.557 62.5249 121.392C62.3862 121.227 62.3169 121.005 62.3169 120.728C62.3169 120.525 62.3782 120.339 62.5009 120.168C62.6235 119.992 62.7942 119.853 63.0129 119.752C63.2315 119.651 63.4795 119.6 63.7569 119.6C64.2102 119.6 64.5755 119.715 64.8529 119.944C65.1355 120.168 65.2875 120.48 65.3089 120.88H64.9489C64.9329 120.592 64.8209 120.357 64.6129 120.176C64.4049 119.995 64.1169 119.904 63.7489 119.904C63.4395 119.904 63.1835 119.984 62.9809 120.144C62.7782 120.304 62.6769 120.499 62.6769 120.728C62.6769 120.931 62.7329 121.096 62.8449 121.224C62.9622 121.347 63.1035 121.443 63.2689 121.512C63.4395 121.576 63.6635 121.645 63.9409 121.72C64.2449 121.8 64.4875 121.88 64.6689 121.96C64.8555 122.035 65.0129 122.147 65.1409 122.296C65.2689 122.44 65.3329 122.635 65.3329 122.88C65.3329 123.104 65.2715 123.307 65.1489 123.488C65.0262 123.669 64.8555 123.811 64.6369 123.912C64.4182 124.013 64.1729 124.064 63.9009 124.064ZM66.9654 119.968V122.84C66.9654 123.16 67.0241 123.381 67.1414 123.504C67.2588 123.621 67.4668 123.68 67.7654 123.68H68.2534V124H67.7094C67.3308 124 67.0508 123.912 66.8694 123.736C66.6934 123.555 66.6054 123.256 66.6054 122.84V119.968H65.9494V119.656H66.6054V118.552H66.9654V119.656H68.2534V119.968H66.9654ZM71.1149 124.064C70.7095 124.064 70.3442 123.973 70.0189 123.792C69.6935 123.611 69.4375 123.352 69.2509 123.016C69.0695 122.675 68.9789 122.277 68.9789 121.824C68.9789 121.376 69.0722 120.984 69.2589 120.648C69.4455 120.307 69.7015 120.048 70.0269 119.872C70.3575 119.691 70.7255 119.6 71.1309 119.6C71.5362 119.6 71.9015 119.691 72.2269 119.872C72.5522 120.048 72.8055 120.304 72.9869 120.64C73.1735 120.976 73.2669 121.371 73.2669 121.824C73.2669 122.277 73.1735 122.675 72.9869 123.016C72.8002 123.352 72.5415 123.611 72.2109 123.792C71.8855 123.973 71.5202 124.064 71.1149 124.064ZM71.1149 123.744C71.4295 123.744 71.7229 123.675 71.9949 123.536C72.2722 123.392 72.4935 123.176 72.6589 122.888C72.8242 122.6 72.9069 122.245 72.9069 121.824C72.9069 121.408 72.8242 121.056 72.6589 120.768C72.4935 120.48 72.2749 120.267 72.0029 120.128C71.7309 119.984 71.4375 119.912 71.1229 119.912C70.8082 119.912 70.5149 119.984 70.2429 120.128C69.9762 120.267 69.7602 120.48 69.5949 120.768C69.4295 121.056 69.3469 121.408 69.3469 121.824C69.3469 122.245 69.4269 122.6 69.5869 122.888C69.7522 123.176 69.9682 123.392 70.2349 123.536C70.5069 123.675 70.8002 123.744 71.1149 123.744ZM74.7191 120.552C74.8258 120.232 75.0151 119.989 75.2871 119.824C75.5591 119.653 75.9058 119.568 76.3271 119.568V119.944H76.2071C75.7805 119.944 75.4258 120.067 75.1431 120.312C74.8605 120.552 74.7191 120.947 74.7191 121.496V124H74.3591V119.656H74.7191V120.552ZM77.34 118.688C77.2547 118.688 77.1827 118.661 77.124 118.608C77.0653 118.549 77.036 118.472 77.036 118.376C77.036 118.285 77.0653 118.211 77.124 118.152C77.1827 118.093 77.2547 118.064 77.34 118.064C77.4253 118.064 77.4973 118.093 77.556 118.152C77.6147 118.211 77.644 118.285 77.644 118.376C77.644 118.472 77.6147 118.549 77.556 118.608C77.4973 118.661 77.4253 118.688 77.34 118.688ZM77.516 119.656V124H77.156V119.656H77.516ZM82.7477 121.536C82.7477 121.728 82.7424 121.872 82.7317 121.968H78.9797C78.9904 122.357 79.0757 122.685 79.2357 122.952C79.3957 123.219 79.6064 123.419 79.8677 123.552C80.129 123.685 80.4144 123.752 80.7237 123.752C81.1504 123.752 81.5077 123.648 81.7957 123.44C82.0837 123.227 82.265 122.939 82.3397 122.576H82.7157C82.6304 123.019 82.4117 123.379 82.0597 123.656C81.7077 123.928 81.2624 124.064 80.7237 124.064C80.3184 124.064 79.9557 123.973 79.6357 123.792C79.3157 123.611 79.065 123.352 78.8837 123.016C78.7024 122.675 78.6117 122.277 78.6117 121.824C78.6117 121.371 78.6997 120.976 78.8757 120.64C79.057 120.304 79.3077 120.048 79.6277 119.872C79.9477 119.691 80.313 119.6 80.7237 119.6C81.1397 119.6 81.4997 119.691 81.8037 119.872C82.113 120.048 82.3477 120.285 82.5077 120.584C82.6677 120.877 82.7477 121.195 82.7477 121.536ZM82.3877 121.672C82.4037 121.288 82.3344 120.963 82.1797 120.696C82.0304 120.429 81.825 120.232 81.5637 120.104C81.3024 119.971 81.0197 119.904 80.7157 119.904C80.4117 119.904 80.129 119.971 79.8677 120.104C79.6117 120.232 79.401 120.429 79.2357 120.696C79.0757 120.963 78.9904 121.288 78.9797 121.672H82.3877ZM85.2837 124.064C84.7984 124.064 84.401 123.957 84.0917 123.744C83.7877 123.531 83.617 123.227 83.5797 122.832H83.9477C83.9744 123.115 84.1024 123.339 84.3317 123.504C84.5664 123.669 84.8837 123.752 85.2837 123.752C85.6144 123.752 85.8757 123.669 86.0677 123.504C86.265 123.333 86.3637 123.125 86.3637 122.88C86.3637 122.709 86.3104 122.571 86.2037 122.464C86.1024 122.352 85.9744 122.267 85.8197 122.208C85.665 122.149 85.4544 122.085 85.1877 122.016C84.8677 121.931 84.609 121.848 84.4117 121.768C84.2144 121.683 84.0464 121.557 83.9077 121.392C83.769 121.227 83.6997 121.005 83.6997 120.728C83.6997 120.525 83.761 120.339 83.8837 120.168C84.0064 119.992 84.177 119.853 84.3957 119.752C84.6144 119.651 84.8624 119.6 85.1397 119.6C85.593 119.6 85.9584 119.715 86.2357 119.944C86.5184 120.168 86.6704 120.48 86.6917 120.88H86.3317C86.3157 120.592 86.2037 120.357 85.9957 120.176C85.7877 119.995 85.4997 119.904 85.1317 119.904C84.8224 119.904 84.5664 119.984 84.3637 120.144C84.161 120.304 84.0597 120.499 84.0597 120.728C84.0597 120.931 84.1157 121.096 84.2277 121.224C84.345 121.347 84.4864 121.443 84.6517 121.512C84.8224 121.576 85.0464 121.645 85.3237 121.72C85.6277 121.8 85.8704 121.88 86.0517 121.96C86.2384 122.035 86.3957 122.147 86.5237 122.296C86.6517 122.44 86.7157 122.635 86.7157 122.88C86.7157 123.104 86.6544 123.307 86.5317 123.488C86.409 123.669 86.2384 123.811 86.0197 123.912C85.801 124.013 85.5557 124.064 85.2837 124.064ZM91.9821 124.064C91.5767 124.064 91.2114 123.973 90.8861 123.792C90.5607 123.611 90.3047 123.352 90.1181 123.016C89.9367 122.675 89.8461 122.277 89.8461 121.824C89.8461 121.376 89.9394 120.984 90.1261 120.648C90.3127 120.307 90.5687 120.048 90.8941 119.872C91.2247 119.691 91.5927 119.6 91.9981 119.6C92.4034 119.6 92.7687 119.691 93.0941 119.872C93.4194 120.048 93.6727 120.304 93.8541 120.64C94.0407 120.976 94.1341 121.371 94.1341 121.824C94.1341 122.277 94.0407 122.675 93.8541 123.016C93.6674 123.352 93.4087 123.611 93.0781 123.792C92.7527 123.973 92.3874 124.064 91.9821 124.064ZM91.9821 123.744C92.2967 123.744 92.5901 123.675 92.8621 123.536C93.1394 123.392 93.3607 123.176 93.5261 122.888C93.6914 122.6 93.7741 122.245 93.7741 121.824C93.7741 121.408 93.6914 121.056 93.5261 120.768C93.3607 120.48 93.1421 120.267 92.8701 120.128C92.5981 119.984 92.3047 119.912 91.9901 119.912C91.6754 119.912 91.3821 119.984 91.1101 120.128C90.8434 120.267 90.6274 120.48 90.4621 120.768C90.2967 121.056 90.2141 121.408 90.2141 121.824C90.2141 122.245 90.2941 122.6 90.4541 122.888C90.6194 123.176 90.8354 123.392 91.1021 123.536C91.3741 123.675 91.6674 123.744 91.9821 123.744ZM97.1863 119.568C97.7036 119.568 98.125 119.728 98.4503 120.048C98.7756 120.363 98.9383 120.832 98.9383 121.456V124H98.5863V121.48C98.5863 120.963 98.4556 120.568 98.1943 120.296C97.933 120.019 97.5783 119.88 97.1303 119.88C96.661 119.88 96.285 120.029 96.0023 120.328C95.725 120.627 95.5863 121.069 95.5863 121.656V124H95.2263V119.656H95.5863V120.576C95.709 120.251 95.9116 120.003 96.1943 119.832C96.4823 119.656 96.813 119.568 97.1863 119.568ZM103.005 119.968V122.84C103.005 123.16 103.063 123.381 103.181 123.504C103.298 123.621 103.506 123.68 103.805 123.68H104.293V124H103.749C103.37 124 103.09 123.912 102.909 123.736C102.733 123.555 102.645 123.256 102.645 122.84V119.968H101.989V119.656H102.645V118.552H103.005V119.656H104.293V119.968H103.005ZM107.21 119.568C107.722 119.568 108.141 119.728 108.466 120.048C108.791 120.363 108.954 120.832 108.954 121.456V124H108.602V121.48C108.602 120.963 108.471 120.568 108.21 120.296C107.949 120.019 107.594 119.88 107.146 119.88C106.677 119.88 106.301 120.029 106.018 120.328C105.741 120.627 105.602 121.069 105.602 121.656V124H105.242V118.08H105.602V120.576C105.725 120.251 105.93 120.003 106.218 119.832C106.506 119.656 106.837 119.568 107.21 119.568ZM114.138 121.536C114.138 121.728 114.133 121.872 114.122 121.968H110.37C110.381 122.357 110.466 122.685 110.626 122.952C110.786 123.219 110.997 123.419 111.258 123.552C111.52 123.685 111.805 123.752 112.114 123.752C112.541 123.752 112.898 123.648 113.186 123.44C113.474 123.227 113.656 122.939 113.73 122.576H114.106C114.021 123.019 113.802 123.379 113.45 123.656C113.098 123.928 112.653 124.064 112.114 124.064C111.709 124.064 111.346 123.973 111.026 123.792C110.706 123.611 110.456 123.352 110.274 123.016C110.093 122.675 110.002 122.277 110.002 121.824C110.002 121.371 110.09 120.976 110.266 120.64C110.448 120.304 110.698 120.048 111.018 119.872C111.338 119.691 111.704 119.6 112.114 119.6C112.53 119.6 112.89 119.691 113.194 119.872C113.504 120.048 113.738 120.285 113.898 120.584C114.058 120.877 114.138 121.195 114.138 121.536ZM113.778 121.672C113.794 121.288 113.725 120.963 113.57 120.696C113.421 120.429 113.216 120.232 112.954 120.104C112.693 119.971 112.41 119.904 112.106 119.904C111.802 119.904 111.52 119.971 111.258 120.104C111.002 120.232 110.792 120.429 110.626 120.696C110.466 120.963 110.381 121.288 110.37 121.672H113.778ZM52.5889 131.568C53.0849 131.568 53.4902 131.728 53.8049 132.048C54.1195 132.363 54.2769 132.832 54.2769 133.456V136H53.9249V133.48C53.9249 132.963 53.7995 132.568 53.5489 132.296C53.3035 132.019 52.9649 131.88 52.5329 131.88C52.0849 131.88 51.7249 132.035 51.4529 132.344C51.1809 132.653 51.0449 133.101 51.0449 133.688V136H50.6929V133.48C50.6929 132.963 50.5675 132.568 50.3169 132.296C50.0715 132.019 49.7329 131.88 49.3009 131.88C48.8529 131.88 48.4929 132.035 48.2209 132.344C47.9489 132.653 47.8129 133.101 47.8129 133.688V136H47.4529V131.656H47.8129V132.6C47.9355 132.259 48.1329 132.003 48.4049 131.832C48.6822 131.656 48.9995 131.568 49.3569 131.568C49.7515 131.568 50.0902 131.672 50.3729 131.88C50.6609 132.083 50.8582 132.384 50.9649 132.784C51.0662 132.384 51.2635 132.083 51.5569 131.88C51.8502 131.672 52.1942 131.568 52.5889 131.568ZM57.4664 136.064C57.0611 136.064 56.6958 135.973 56.3704 135.792C56.0451 135.611 55.7891 135.352 55.6024 135.016C55.4211 134.675 55.3304 134.277 55.3304 133.824C55.3304 133.376 55.4238 132.984 55.6104 132.648C55.7971 132.307 56.0531 132.048 56.3784 131.872C56.7091 131.691 57.0771 131.6 57.4824 131.6C57.8878 131.6 58.2531 131.691 58.5784 131.872C58.9038 132.048 59.1571 132.304 59.3384 132.64C59.5251 132.976 59.6184 133.371 59.6184 133.824C59.6184 134.277 59.5251 134.675 59.3384 135.016C59.1518 135.352 58.8931 135.611 58.5624 135.792C58.2371 135.973 57.8718 136.064 57.4664 136.064ZM57.4664 135.744C57.7811 135.744 58.0744 135.675 58.3464 135.536C58.6238 135.392 58.8451 135.176 59.0104 134.888C59.1758 134.6 59.2584 134.245 59.2584 133.824C59.2584 133.408 59.1758 133.056 59.0104 132.768C58.8451 132.48 58.6264 132.267 58.3544 132.128C58.0824 131.984 57.7891 131.912 57.4744 131.912C57.1598 131.912 56.8664 131.984 56.5944 132.128C56.3278 132.267 56.1118 132.48 55.9464 132.768C55.7811 133.056 55.6984 133.408 55.6984 133.824C55.6984 134.245 55.7784 134.6 55.9384 134.888C56.1038 135.176 56.3198 135.392 56.5864 135.536C56.8584 135.675 57.1518 135.744 57.4664 135.744ZM62.6227 136.064C62.2174 136.064 61.852 135.973 61.5267 135.792C61.2014 135.611 60.9454 135.352 60.7587 135.016C60.5774 134.675 60.4867 134.277 60.4867 133.824C60.4867 133.376 60.58 132.984 60.7667 132.648C60.9534 132.307 61.2094 132.048 61.5347 131.872C61.8654 131.691 62.2334 131.6 62.6387 131.6C63.044 131.6 63.4094 131.691 63.7347 131.872C64.06 132.048 64.3134 132.304 64.4947 132.64C64.6814 132.976 64.7747 133.371 64.7747 133.824C64.7747 134.277 64.6814 134.675 64.4947 135.016C64.308 135.352 64.0494 135.611 63.7187 135.792C63.3934 135.973 63.028 136.064 62.6227 136.064ZM62.6227 135.744C62.9374 135.744 63.2307 135.675 63.5027 135.536C63.78 135.392 64.0014 135.176 64.1667 134.888C64.332 134.6 64.4147 134.245 64.4147 133.824C64.4147 133.408 64.332 133.056 64.1667 132.768C64.0014 132.48 63.7827 132.267 63.5107 132.128C63.2387 131.984 62.9454 131.912 62.6307 131.912C62.316 131.912 62.0227 131.984 61.7507 132.128C61.484 132.267 61.268 132.48 61.1027 132.768C60.9374 133.056 60.8547 133.408 60.8547 133.824C60.8547 134.245 60.9347 134.6 61.0947 134.888C61.26 135.176 61.476 135.392 61.7427 135.536C62.0147 135.675 62.308 135.744 62.6227 135.744ZM67.8269 131.568C68.3443 131.568 68.7656 131.728 69.0909 132.048C69.4163 132.363 69.5789 132.832 69.5789 133.456V136H69.2269V133.48C69.2269 132.963 69.0963 132.568 68.8349 132.296C68.5736 132.019 68.2189 131.88 67.7709 131.88C67.3016 131.88 66.9256 132.029 66.6429 132.328C66.3656 132.627 66.2269 133.069 66.2269 133.656V136H65.8669V131.656H66.2269V132.576C66.3496 132.251 66.5523 132.003 66.8349 131.832C67.1229 131.656 67.4536 131.568 67.8269 131.568ZM71.3793 130.384L71.3393 134.632H71.0273L70.9793 130.384H71.3793ZM71.2033 136.024C71.1126 136.024 71.038 135.995 70.9793 135.936C70.9206 135.877 70.8913 135.803 70.8913 135.712C70.8913 135.621 70.9206 135.547 70.9793 135.488C71.038 135.429 71.1126 135.4 71.2033 135.4C71.2886 135.4 71.3606 135.429 71.4193 135.488C71.478 135.547 71.5073 135.621 71.5073 135.712C71.5073 135.803 71.478 135.877 71.4193 135.936C71.3606 135.995 71.2886 136.024 71.2033 136.024Z" fill="black"/>
<path d="M40.8675 20.8012C39.4555 21.6484 37.4552 19.0398 36.6316 17.6296C35.993 18.0801 35.4017 18.5932 34.8666 19.1599C35.6296 22.884 36.1501 30.332 32.1282 30.332C32.5729 31.9043 33.3395 33.3415 34.3523 34.5679C34.7094 34.2511 36.0182 33.7478 38.3965 34.2692C41.3694 34.9209 40.8703 33.2645 43.6928 34.2692C44.1813 34.1386 44.7639 34.1083 45.4564 34.2149L45.8093 34.2692C46.2746 32.8045 48.1598 29.9914 51.9786 30.4565C48.2641 29.8751 47.5743 26.8021 49.6922 26.4491C51.3866 26.1667 51.3395 23.6563 51.1042 22.4797C51.0358 22.4579 50.9684 22.434 50.902 22.4081C49.0605 21.6903 47.9791 19.4334 47.5974 17.9773C45.9209 18.3666 42.7783 17.6296 42.2794 17.6296C41.5735 17.6296 42.6324 19.7422 40.8675 20.8012Z" fill="#E9DEDC"/>
<path d="M54.8302 29.0716C54.9334 28.4481 54.9871 27.8078 54.9871 27.1551C54.9871 25.3883 54.5938 23.7134 53.8899 22.2132C52.8249 22.7007 51.8978 22.7323 51.1042 22.4797C51.3395 23.6563 51.3866 26.1667 49.6922 26.4491C47.5743 26.8021 48.2641 29.8751 51.9786 30.4565C52.5956 29.7804 53.4941 29.2385 54.8302 29.0716Z" fill="#C1BCB9"/>
<path d="M45.8093 34.2692C50.0455 34.9204 50.0545 34.9023 50.3982 34.2149C50.6345 33.7424 50.7301 31.8247 51.9786 30.4565C48.1598 29.9914 46.2746 32.8045 45.8093 34.2692Z" fill="#D7D7D7"/>
<path d="M41.3694 38.6381C41.669 38.6891 41.9725 38.7286 42.2794 38.7563C42.6282 38.7877 42.9814 38.8038 43.3384 38.8038C43.6954 38.8038 44.0486 38.7877 44.3974 38.7563C49.6967 38.2787 53.9726 34.2522 54.8302 29.0716C53.4941 29.2385 52.5956 29.7804 51.9786 30.4565C50.7301 31.8247 50.6345 33.7424 50.3982 34.2149C50.0545 34.9023 50.0455 34.9204 45.8093 34.2692L45.4564 34.2149C44.7639 34.1083 44.1813 34.1386 43.6928 34.2692C41.5919 34.831 41.2337 37.2508 41.3694 38.6381Z" fill="#C1BCB9"/>
<path d="M34.3523 34.5679C36.0925 36.675 38.5595 38.1597 41.3694 38.6381C41.2337 37.2508 41.5919 34.831 43.6928 34.2692C40.8703 33.2645 41.3694 34.9209 38.3965 34.2692C36.0182 33.7478 34.7094 34.2511 34.3523 34.5679Z" fill="#D7D7D7"/>
<path d="M34.8666 19.1599C32.8971 21.2461 31.6897 24.0596 31.6897 27.1551C31.6897 28.2564 31.8425 29.3221 32.1282 30.332C36.1501 30.332 35.6296 22.884 34.8666 19.1599Z" fill="#C1BCB9"/>
<path d="M48.6333 16.7765C48.7368 17.4598 48.2935 17.8156 47.5974 17.9773C47.9791 19.4334 49.0605 21.6903 50.902 22.4081C50.9684 22.434 51.0358 22.4579 51.1042 22.4797C51.8978 22.7323 52.8249 22.7007 53.8899 22.2132C52.7904 19.8695 50.9329 17.9521 48.6333 16.7765Z" fill="#D7D7D7"/>
<path d="M43.3384 15.5063C40.8414 15.5063 38.5279 16.292 36.6316 17.6296C37.4552 19.0398 39.4555 21.6484 40.8675 20.8012C42.6324 19.7422 41.5735 17.6296 42.2794 17.6296C42.7783 17.6296 45.9209 18.3666 47.5974 17.9773C48.2935 17.8156 48.7368 17.4598 48.6333 16.7765C47.0447 15.9644 45.245 15.5063 43.3384 15.5063Z" fill="#C1BCB9"/>
<path d="M43.3384 38.8038C42.9814 38.8038 42.6282 38.7877 42.2794 38.7563L40.5145 42.6867L43.1619 42.6867L43.6914 42.6867L45.8093 42.6867L44.3974 38.7563C44.0486 38.7877 43.6954 38.8038 43.3384 38.8038Z" fill="#E9DEDC"/>
<path d="M43.1619 42.6867L43.1619 79.0448L43.6914 79.0448L43.6914 42.6867L43.1619 42.6867Z" fill="#C1BCB9"/>
<path d="M86.9144 67.5547C86.4695 67.1205 85.6352 66.164 85.8573 65.8113C85.8614 65.8005 85.8654 65.7898 85.8694 65.779C85.8749 65.7642 85.8802 65.7495 85.8856 65.7348C85.9395 65.3046 84.3388 64.8144 83.5915 66.2314C83.0337 67.289 83.682 67.8854 84.1958 68.3581C84.4118 68.5568 84.604 68.7337 84.6729 68.9137C84.7766 69.1851 84.5124 69.4085 84.244 69.6354C83.9107 69.9171 83.571 70.2043 83.9214 70.5956C84.1323 70.831 84.4384 71.0239 84.7323 71.209C85.3201 71.5793 85.859 71.9186 85.4887 72.5065C85.2018 72.962 85.2352 73.4961 85.2675 74.0124C85.2978 74.4953 85.3271 74.9626 85.0922 75.3355C84.9431 75.5721 84.6632 75.7407 84.3859 75.9078C83.759 76.2853 83.1458 76.6547 84.0895 77.7828C84.8968 78.7478 85.7425 78.4915 86.3395 78.3105C86.7491 78.1863 87.0417 78.0976 87.1247 78.463C87.2208 78.8863 86.6887 79.2215 86.0913 79.5978C85.4211 80.02 84.6688 80.4939 84.6298 81.2019C84.5993 81.7559 84.805 82.3533 85.0075 82.9414C85.2944 83.7747 85.5749 84.5893 85.1679 85.2355C86.1477 85.3908 88.26 85.4589 88.8709 84.4891C89.2 83.9666 90.0059 83.4586 90.8824 82.9063C92.0397 82.1769 93.3198 81.3701 93.7869 80.3503C94.3658 79.0866 93.893 78.1557 93.4781 77.3387C93.3046 76.997 93.1413 76.6754 93.0691 76.3576C92.9078 75.6474 92.291 74.9176 91.7594 74.2886C91.4843 73.9631 91.2319 73.6645 91.0774 73.4097C90.8625 73.0553 91.1455 72.4603 91.475 71.7676C91.8401 70.9999 92.2624 70.1122 92.1273 69.2989C91.9218 68.061 88.5664 67.6203 86.9144 67.5547Z" fill="#4EB6B7"/>
<path d="M82.6855 64.737C82.1983 64.5328 81.2093 64.3922 81.1503 65.4634C81.0766 66.8025 82.0564 66.9578 82.3054 66.8068C82.5545 66.6558 83.8978 65.5007 82.6855 64.737Z" fill="#4EB6B7"/>
<path d="M59.9248 70.5667C59.1709 70.2971 57.7032 70.1834 57.8629 71.885C58.2615 72.3926 59.2115 73.1655 59.8224 72.1956C60.586 70.9832 60.3185 70.6748 59.9248 70.5667Z" fill="#4EB6B7"/>
<path d="M87.1449 56.924C85.3608 55.8003 83.4927 54.9196 81.5794 54.2733C80.6267 54.4814 79.1885 54.8462 77.8636 55.2845C81.2768 56.7541 87.63 60.8919 85.8856 65.7348C85.8823 65.7607 85.8731 65.7863 85.8573 65.8113C85.6352 66.164 86.4695 67.1205 86.9144 67.5547C87.1025 66.7873 88.3553 66.6276 89.585 66.4709C90.2785 66.3825 90.9646 66.2951 91.4482 66.1001C92.5211 65.6676 93.7103 64.1313 94.1707 63.4173C92.3044 60.9063 89.951 58.6916 87.1449 56.924Z" fill="#90D4E1"/>
<path d="M78.4073 88.4432C79.8719 88.0541 81.7135 87.7336 83.6525 87.6415C83.706 86.9807 84.0173 86.6352 84.4138 86.1953C84.6474 85.9361 84.9106 85.6441 85.1679 85.2355C84.0894 84.9492 81.6943 84.663 80.7428 85.8087C80.0657 86.7083 79.2198 87.6344 78.4073 88.4432Z" fill="#90D4E1"/>
<path d="M95.3049 92.8485C101.204 83.4812 100.401 71.7989 94.1707 63.4173C93.7103 64.1313 92.5211 65.6676 91.4482 66.1001C90.9646 66.2951 90.2785 66.3825 89.585 66.4709C88.3553 66.6276 87.1025 66.7873 86.9144 67.5547C88.5664 67.6203 91.9218 68.061 92.1273 69.2989C92.2624 70.1122 91.8401 70.9999 91.475 71.7676C91.1455 72.4603 90.8625 73.0553 91.0774 73.4097C91.2319 73.6645 91.4843 73.9631 91.7594 74.2886C92.291 74.9176 92.9078 75.6474 93.0691 76.3576C93.1413 76.6754 93.3046 76.997 93.4781 77.3387C93.893 78.1557 94.3658 79.0866 93.7869 80.3503C93.3198 81.3701 92.0397 82.1769 90.8824 82.9063C90.0059 83.4586 89.2 83.9666 88.8709 84.4891C88.26 85.4589 86.1477 85.3908 85.1679 85.2355C84.9106 85.6441 84.6474 85.9361 84.4138 86.1953C84.0173 86.6352 83.706 86.9807 83.6525 87.6415C88.2087 87.4249 93.3024 88.4693 95.3049 92.8485Z" fill="#3E9FB2"/>
<path d="M62.8137 93.7457C63.4738 94.0224 64.6434 94.8148 64.0414 95.7706C63.2888 96.9653 60.7113 95.7589 61.2757 94.8629C61.3122 94.8049 61.3032 94.7005 61.2925 94.5773C61.2567 94.1619 61.2023 93.5322 62.8137 93.7457Z" fill="#4EB6B7"/>
<path d="M94.4944 94.0603C94.7734 93.6671 95.0432 93.264 95.3033 92.8511L95.3049 92.8485C93.3024 88.4693 88.2087 87.4249 83.6525 87.6415C83.2277 87.8672 82.5515 88.3942 83.2449 88.6968C87.6604 88.5935 92.4387 89.7608 94.4944 94.0603Z" fill="#3E9FB2"/>
<path fill-rule="evenodd" clip-rule="evenodd" d="M77.8636 55.2845C76.3751 55.7769 75.0298 56.362 74.6771 56.9218C74.1861 57.7014 73.6498 57.7036 73.0514 57.7061C72.6346 57.7079 72.1877 57.7098 71.7049 57.9745C71.2422 58.2283 70.9153 58.7584 70.5745 59.311C70.0495 60.1625 69.4915 61.0675 68.3527 61.097C67.8283 61.1106 66.9346 60.8914 65.8928 60.636C63.2032 59.9766 59.5269 59.0753 58.6731 61.3116C58.0578 62.9232 58.6478 64.0063 59.172 64.9685C59.6569 65.8587 60.0856 66.6455 59.4517 67.6518C58.5929 69.0152 57.7326 69.1377 56.9922 69.2432C56.5955 69.2997 56.2333 69.3512 55.9241 69.5862C55.7366 69.7287 55.5007 69.9481 55.2295 70.2003C54.3019 71.0629 52.9622 72.3088 51.7386 72.1718L50.0723 71.1222C52.8041 59.704 71.2681 51.8484 77.8636 55.2845ZM50.0723 71.1222C50.0676 71.1415 50.0631 71.1608 50.0585 71.1801L50.0723 71.1222Z" fill="#4EB6B7"/>
<path fill-rule="evenodd" clip-rule="evenodd" d="M48.702 70.2591C48.965 69.5195 49.2633 68.7871 49.5975 68.0642C50.0665 67.0495 50.6062 66.0535 51.2179 65.0824C57.7622 54.6927 70.4372 50.5096 81.5794 54.2733C80.6267 54.4814 79.1885 54.8462 77.8636 55.2845C71.2681 51.8484 52.8041 59.704 50.0723 71.1222L48.702 70.2591Z" fill="#3E9FB2"/>
<path fill-rule="evenodd" clip-rule="evenodd" d="M50.4188 72.1715L48.4655 70.9411C48.2673 71.5321 48.089 72.1149 47.9299 72.6896L50.4593 74.2828L50.8685 74.9578L50.083 74.8802L47.7406 73.4048C47.6662 73.6996 47.5969 73.9923 47.5326 74.2828C47.4894 74.4779 47.4484 74.6719 47.4096 74.865L51.8242 77.6457C51.5057 75.6797 50.9383 73.6805 50.4188 72.1715ZM51.9511 78.5376L47.2722 75.5977C45.6978 84.6307 48.972 91.4599 53.4397 96.1848C54.783 94.6947 53.0947 92.491 52.0826 91.5753C50.4786 90.1479 49.0299 87.1494 51.3192 83.773C51.5727 83.3991 51.7545 82.9463 51.8766 82.4354C52.1392 81.3357 52.1247 79.9671 51.9511 78.5376Z" fill="#3E9FB2"/>
<path d="M83.2449 88.6968C81.6655 88.7337 80.1326 88.9333 78.7873 89.2101C82.3484 91.6251 84.6849 95.9039 83.9325 98.9278C84.7763 98.4843 86.6819 97.6423 87.5539 97.8221C88.6439 98.0468 89.857 94.6545 88.6563 94.6055C87.8637 94.5731 87.8137 93.6813 87.7621 92.76C87.7355 92.2857 87.7085 91.8037 87.5795 91.4271C87.2759 90.5405 84.5633 89.2375 83.2449 88.6968Z" fill="#90D4E1"/>
<path fill-rule="evenodd" clip-rule="evenodd" d="M78.0797 88.7648C78.188 88.66 78.2973 88.5527 78.4073 88.4432C79.8719 88.0541 81.7135 87.7336 83.6525 87.6415C83.2277 87.8672 82.5515 88.3942 83.2449 88.6968C81.6655 88.7337 80.1326 88.9333 78.7873 89.2101C78.5564 89.0536 78.3204 88.9048 78.0797 88.7648Z" fill="#90D4E1"/>
<path fill-rule="evenodd" clip-rule="evenodd" d="M76.549 88.0217C76.6372 87.4072 76.7673 86.7357 76.9463 86.0683C77.5793 83.7082 78.8241 81.3988 80.9963 81.8381C82.8186 82.2067 82.1406 83.9514 80.7428 85.8087C80.0657 86.7083 79.2198 87.6344 78.4073 88.4432C78.2973 88.5527 78.188 88.66 78.0797 88.7648C77.8983 88.6592 77.7143 88.5586 77.5278 88.4632C77.3969 88.3963 77.2648 88.332 77.1317 88.2705C76.9397 88.1817 76.7454 88.0987 76.549 88.0217Z" fill="#ADDEE2"/>
<path fill-rule="evenodd" clip-rule="evenodd" d="M76.2802 87.9206C76.0097 86.2259 75.4469 84.052 74.5416 83.7761L75.097 82.8944C75.6228 83.0256 76.7289 83.844 76.9463 86.0683C76.7673 86.7357 76.6372 87.4072 76.549 88.0217C76.4598 87.9867 76.3702 87.953 76.2802 87.9206Z" fill="#ADDEE2"/>
<path fill-rule="evenodd" clip-rule="evenodd" d="M76.2802 87.9206C76.0097 86.2259 75.4469 84.052 74.5416 83.7761L75.097 82.8944C75.6228 83.0256 76.7289 83.844 76.9463 86.0683C77.5793 83.7082 78.8241 81.3988 80.9963 81.8381C82.8186 82.2067 82.1406 83.9514 80.7428 85.8087C81.6943 84.663 84.0894 84.9492 85.1679 85.2355C85.5749 84.5893 85.2944 83.7747 85.0075 82.9414C84.805 82.3533 84.5993 81.7559 84.6298 81.2019C84.6688 80.4939 85.4211 80.02 86.0913 79.5978C86.6887 79.2215 87.2208 78.8863 87.1247 78.463C87.0417 78.0976 86.7491 78.1863 86.3395 78.3105C85.7425 78.4915 84.8968 78.7478 84.0895 77.7828C83.1458 76.6547 83.759 76.2853 84.3859 75.9078C84.6632 75.7407 84.9431 75.5721 85.0922 75.3355C85.3271 74.9626 85.2978 74.4953 85.2675 74.0124C85.2352 73.4961 85.2018 72.962 85.4887 72.5065C85.859 71.9186 85.3201 71.5793 84.7323 71.209C84.4384 71.0239 84.1323 70.831 83.9214 70.5956C83.571 70.2043 83.9107 69.9171 84.244 69.6354C84.5124 69.4085 84.7766 69.1851 84.6729 68.9137C84.604 68.7337 84.4118 68.5568 84.1958 68.3581C83.682 67.8854 83.0337 67.289 83.5915 66.2314C84.3388 64.8144 85.9395 65.3046 85.8856 65.7348C87.63 60.8919 81.2768 56.7541 77.8636 55.2845C76.3751 55.7769 75.0298 56.362 74.6771 56.9218C74.1861 57.7014 73.6498 57.7036 73.0514 57.7061C72.6346 57.7079 72.1877 57.7098 71.7049 57.9745C71.2422 58.2283 70.9153 58.7584 70.5745 59.311C70.0495 60.1625 69.4915 61.0675 68.3527 61.097C67.8283 61.1106 66.9346 60.8914 65.8928 60.636C63.2032 59.9766 59.5269 59.0753 58.6731 61.3116C58.0578 62.9232 58.6478 64.0063 59.172 64.9685C59.6569 65.8587 60.0856 66.6455 59.4517 67.6518C58.5929 69.0152 57.7326 69.1377 56.9922 69.2432C56.5955 69.2997 56.2333 69.3512 55.9241 69.5862C55.7366 69.7287 55.5007 69.9481 55.2295 70.2003C54.3019 71.0629 52.9622 72.3088 51.7386 72.1718L52.9694 72.9471L53.0693 73.2242L73.9438 87.3969C74.7432 87.4674 75.5261 87.6489 76.2802 87.9206ZM81.1503 65.4634C81.2093 64.3922 82.1983 64.5328 82.6855 64.737C83.8978 65.5007 82.5545 66.6558 82.3054 66.8068C82.0564 66.9578 81.0766 66.8025 81.1503 65.4634ZM57.8629 71.885C57.7032 70.1834 59.1709 70.2971 59.9248 70.5667C60.3185 70.6748 60.586 70.9832 59.8224 72.1956C59.2115 73.1655 58.2615 72.3926 57.8629 71.885Z" fill="#ADDEE2"/>
<path fill-rule="evenodd" clip-rule="evenodd" d="M94.4944 94.0603C91.4198 98.3938 87.2274 101.523 82.5613 103.303C83.134 101.879 83.572 100.377 83.9325 98.9278C84.7763 98.4843 86.6819 97.6423 87.5539 97.8221C88.6439 98.0468 89.857 94.6545 88.6563 94.6055C87.8637 94.5731 87.8137 93.6813 87.7621 92.76C87.7355 92.2857 87.7085 91.8037 87.5795 91.4271C87.2759 90.5405 84.5633 89.2375 83.2449 88.6968C87.6604 88.5935 92.4387 89.7608 94.4944 94.0603Z" fill="#3E9FB2"/>
<path fill-rule="evenodd" clip-rule="evenodd" d="M51.3192 83.773C49.0299 87.1494 50.4786 90.1479 52.0826 91.5753C53.0947 92.491 54.783 94.6947 53.4397 96.1848C55.9914 98.8834 58.9323 100.896 61.5817 102.24C61.3886 101.28 61.3423 100.371 61.4567 99.61C59.2184 98.886 55.5637 96.5024 57.8512 92.3518C60.1867 88.1141 54.8412 83.9752 51.8766 82.4354C51.7545 82.9463 51.5727 83.3991 51.3192 83.773ZM64.3834 103.201C64.362 103.278 64.3339 103.356 64.2985 103.433C64.3106 103.4 64.3228 103.366 64.3353 103.332C64.351 103.288 64.367 103.245 64.3834 103.201Z" fill="#4EB6B7"/>
<path fill-rule="evenodd" clip-rule="evenodd" d="M53.0693 73.2242L73.9438 87.3969C71.546 87.1853 69.0006 87.9719 66.6422 90.3167C64.6723 92.2752 64.8053 95.9259 65.0857 97.6799C63.7472 97.2125 62.7997 97.3793 62.2014 97.949C61.8073 98.3243 61.5628 98.9037 61.4567 99.61C59.2184 98.886 55.5637 96.5024 57.8512 92.3518C60.1867 88.1141 54.8412 83.9752 51.8766 82.4354C52.1392 81.3357 52.1247 79.9671 51.9511 78.5376L52.7265 78.6312L52.3173 77.9562L51.8242 77.6457C51.5057 75.6797 50.9383 73.6805 50.4188 72.1715L52.5947 73.542L53.1622 73.4823L53.0693 73.2242ZM62.8137 93.7457C63.4738 94.0224 64.6434 94.8148 64.0414 95.7706C63.2888 96.9653 60.7113 95.7589 61.2757 94.8629C61.3122 94.8049 61.3032 94.7005 61.2925 94.5773C61.2567 94.1619 61.2023 93.5322 62.8137 93.7457Z" fill="#ADDEE2"/>
<path d="M47.4096 74.865L47.4086 74.87C47.4042 74.8922 47.3998 74.9143 47.3954 74.9365C47.3514 75.1582 47.3104 75.3786 47.2722 75.5977L51.9511 78.5376C51.9153 78.2423 51.8726 77.9444 51.8242 77.6457L47.4096 74.865Z" fill="#3E9FB2"/>
<path d="M50.8685 74.9578L50.4593 74.2828L47.9299 72.6896C47.8635 72.9294 47.8004 73.1678 47.7406 73.4048L50.083 74.8802L50.8685 74.9578Z" fill="#3E9FB2"/>
<path d="M50.0585 71.1801L48.702 70.2591C48.6202 70.4876 48.5414 70.715 48.4655 70.9411L50.4188 72.1715C50.2946 71.8106 50.1732 71.4778 50.0585 71.1801Z" fill="#3E9FB2"/>
<path d="M48.702 70.2591L50.0585 71.1801L50.0723 71.1222L48.702 70.2591Z" fill="#3E9FB2"/>
<path d="M50.0585 71.1801L51.4151 72.1012C51.5218 72.1365 51.6297 72.1596 51.7386 72.1718L50.0723 71.1222L50.0585 71.1801Z" fill="#4EB6B7"/>
<path d="M51.4151 72.1012L50.0585 71.1801C50.1732 71.4778 50.2946 71.8106 50.4188 72.1715C50.8286 72.4296 51.2538 72.2321 51.4151 72.1012Z" fill="#4EB6B7"/>
<path d="M51.4151 72.1012C51.2538 72.2321 50.8286 72.4296 50.4188 72.1715L52.5947 73.542L53.1622 73.4823L53.0693 73.2242L51.4151 72.1012Z" fill="#ADDEE2"/>
<path d="M53.0693 73.2242L52.9694 72.9471L51.7386 72.1718C51.6297 72.1596 51.5218 72.1365 51.4151 72.1012L53.0693 73.2242Z" fill="#ADDEE2"/>
<path d="M52.7265 78.6312L52.3173 77.9562L51.8242 77.6457C51.8726 77.9444 51.9153 78.2423 51.9511 78.5376L52.7265 78.6312Z" fill="#ADDEE2"/>
<path d="M75.8722 89.8436C73.5782 88.966 70.5644 88.9421 66.6422 90.3167C65.8743 93.1579 66.1839 95.6814 67.0226 97.8095C69.1327 94.3455 72.1728 90.8492 75.8722 89.8436Z" fill="#ADDEE2"/>
<path d="M76.8086 89.3419L76.4312 89.0857L75.4607 88.4268L73.9438 87.3969C71.546 87.1853 69.0006 87.9719 66.6422 90.3167C70.5644 88.9421 73.5782 88.966 75.8722 89.8436C76.3014 89.727 76.7395 89.6438 77.186 89.5982L76.8086 89.3419Z" fill="#ADDEE2"/>
<path d="M76.8086 89.3419L77.186 89.5982C77.4667 89.3467 77.7686 89.0661 78.0797 88.7648C77.8983 88.6592 77.7143 88.5586 77.5278 88.4632C77.2723 88.7856 77.0273 89.0838 76.8086 89.3419Z" fill="#ADDEE2"/>
<path d="M76.8086 89.3419C77.0273 89.0838 77.2723 88.7856 77.5278 88.4632C77.3969 88.3963 77.2648 88.332 77.1317 88.2705C77.0073 88.6582 76.8982 89.0227 76.8086 89.3419Z" fill="#ADDEE2"/>
<path d="M76.4312 89.0857L76.8086 89.3419C76.8982 89.0227 77.0073 88.6582 77.1317 88.2705C76.9397 88.1817 76.7454 88.0987 76.549 88.0217C76.4942 88.4032 76.4555 88.7627 76.4312 89.0857Z" fill="#ADDEE2"/>
<path d="M76.4312 89.0857C76.4555 88.7627 76.4942 88.4032 76.549 88.0217C76.4598 87.9867 76.3702 87.953 76.2802 87.9206C76.3493 88.3534 76.3994 88.755 76.4312 89.0857Z" fill="#ADDEE2"/>
<path d="M75.4607 88.4268L76.4312 89.0857C76.3994 88.755 76.3493 88.3534 76.2802 87.9206C75.5261 87.6489 74.7432 87.4674 73.9438 87.3969L75.4607 88.4268Z" fill="#ADDEE2"/>
<path d="M82.5805 100.083C82.9413 99.7046 83.3381 99.2882 83.9325 98.9278C84.6849 95.9039 82.3484 91.6251 78.7873 89.2101C78.2161 89.3277 77.6787 89.4592 77.186 89.5982C76.7395 89.6438 76.3014 89.727 75.8722 89.8436C80.1889 91.4951 81.9569 96.1696 82.4327 100.238C82.4816 100.187 82.5307 100.136 82.5805 100.083Z" fill="#90D4E1"/>
<path d="M77.186 89.5982C77.6787 89.4592 78.2161 89.3277 78.7873 89.2101C78.5564 89.0536 78.3204 88.9048 78.0797 88.7648C77.7686 89.0661 77.4667 89.3467 77.186 89.5982Z" fill="#90D4E1"/>
<path d="M72.2569 104.281C73.5217 102.532 75.9776 100.167 78.527 100.911C80.7626 101.563 81.5396 101.122 82.2674 100.405C82.3226 100.351 82.3775 100.295 82.4327 100.238C81.9569 96.1696 80.1889 91.4951 75.8722 89.8436C72.1728 90.8492 69.1327 94.3455 67.0226 97.8095C68.1681 100.716 70.3009 102.885 72.024 104.118C72.1025 104.175 72.1802 104.229 72.2569 104.281Z" fill="#90D4E1"/>
<path d="M71.7915 104.981C75.4669 105.185 79.1413 104.607 82.5613 103.303C82.5949 102.371 82.56 101.326 82.4327 100.238C82.3775 100.295 82.3226 100.351 82.2674 100.405C81.5396 101.122 80.7626 101.563 78.527 100.911C75.9776 100.167 73.5217 102.532 72.2569 104.281C72.4847 104.436 72.7038 104.575 72.9108 104.695C72.647 104.654 72.3695 104.599 72.0827 104.529C71.9742 104.688 71.8768 104.84 71.7915 104.981Z" fill="#3E9FB2"/>
<path d="M82.5805 100.083C82.5307 100.136 82.4816 100.187 82.4327 100.238C82.56 101.326 82.5949 102.371 82.5613 103.303C83.134 101.879 83.572 100.377 83.9325 98.9278C83.3381 99.2882 82.9413 99.7046 82.5805 100.083Z" fill="#3E9FB2"/>
<path d="M72.024 104.118C70.3009 102.885 68.1681 100.716 67.0226 97.8095C66.5805 98.5352 66.1793 99.2595 65.8214 99.9591C67.1423 102.548 69.7692 103.931 71.9241 104.489L72.024 104.118Z" fill="#90D4E1"/>
<path d="M66.6422 90.3167C64.6723 92.2752 64.8053 95.9259 65.0857 97.6799C65.2209 98.5262 65.4767 99.2837 65.8214 99.9591C66.1793 99.2595 66.5805 98.5352 67.0226 97.8095C66.1839 95.6814 65.8743 93.1579 66.6422 90.3167Z" fill="#ADDEE2"/>
<path d="M64.2985 103.433C66.7418 104.331 69.2669 104.841 71.7915 104.981L71.9241 104.489C69.7692 103.931 67.1423 102.548 65.8214 99.9591C65.2128 101.149 64.7293 102.267 64.3834 103.201C64.362 103.278 64.3339 103.356 64.2985 103.433Z" fill="#90D4E1"/>
<path d="M65.0857 97.6799C63.7472 97.2125 62.7997 97.3793 62.2014 97.949C62.215 98.7199 62.2781 99.442 62.3856 100.118C63.4764 100.843 64.7083 102.021 64.3834 103.201C64.7293 102.267 65.2128 101.149 65.8214 99.9591C65.4767 99.2837 65.2209 98.5262 65.0857 97.6799Z" fill="#ADDEE2"/>
<path d="M61.5956 99.6534C61.8298 99.7726 62.1029 99.93 62.3856 100.118C62.2781 99.442 62.215 98.7199 62.2014 97.949C61.8073 98.3243 61.5628 98.9037 61.4567 99.61C61.5037 99.6252 61.55 99.6397 61.5956 99.6534Z" fill="#ADDEE2"/>
<path d="M61.5817 102.24C62.1411 102.524 62.6875 102.778 63.2146 103.002C62.8399 102.151 62.5566 101.193 62.3856 100.118C62.1029 99.93 61.8298 99.7726 61.5956 99.6534C61.55 99.6397 61.5037 99.6252 61.4567 99.61C61.3423 100.371 61.3886 101.28 61.5817 102.24Z" fill="#4EB6B7"/>
<path d="M63.2146 103.002C63.5863 103.161 63.9484 103.304 64.2985 103.433C64.3106 103.4 64.3228 103.366 64.3353 103.332C64.351 103.288 64.367 103.245 64.3834 103.201C64.7083 102.021 63.4764 100.843 62.3856 100.118C62.5566 101.193 62.8399 102.151 63.2146 103.002Z" fill="#4EB6B7"/>
<path d="M72.9108 104.695C72.7038 104.575 72.4847 104.436 72.2569 104.281C72.196 104.365 72.1379 104.448 72.0827 104.529C72.3695 104.599 72.647 104.654 72.9108 104.695Z" fill="#3E9FB2"/>
<path d="M72.2569 104.281C72.1802 104.229 72.1025 104.175 72.024 104.118L71.9241 104.489C71.9773 104.503 72.0301 104.516 72.0827 104.529C72.1379 104.448 72.196 104.365 72.2569 104.281Z" fill="#90D4E1"/>
<path d="M71.7915 104.981C71.8768 104.84 71.9742 104.688 72.0827 104.529C72.0301 104.516 71.9773 104.503 71.9241 104.489L71.7915 104.981Z" fill="#90D4E1"/>
<path d="M43.6915 74.1029L43.6915 72.9471L43.6915 71.279L42.9856 71.2791L43.166 70.5236C41.362 70.6584 41.1015 74.103 43.6915 74.1029Z" fill="#3E9FB2"/>
<path d="M43.6915 72.9471L43.6915 74.1029C44.1553 74.0102 44.4729 73.7712 44.6634 73.4691L43.6915 72.9471Z" fill="#3E9FB2"/>
<path fill-rule="evenodd" clip-rule="evenodd" d="M44.6634 73.4691C45.1979 72.6219 44.7324 71.279 43.6915 71.279L43.6915 72.9471L44.6634 73.4691Z" fill="#3E9FB2"/>
<path d="M47.7406 73.4048C47.8004 73.1678 47.8635 72.9294 47.9299 72.6896L43.6915 70.573L43.6915 71.279C44.7324 71.279 45.1979 72.6219 44.6634 73.4691L47.3954 74.9365L47.4086 74.87L47.4096 74.865C47.4484 74.6719 47.4894 74.4779 47.5326 74.2828C47.5969 73.9923 47.6662 73.6996 47.7406 73.4048Z" fill="#4EB6B7"/>
<path d="M43.6915 74.1029L47.2722 75.5977C47.3104 75.3786 47.3514 75.1582 47.3954 74.9365L44.6634 73.4691C44.4729 73.7712 44.1553 74.0102 43.6915 74.1029Z" fill="#90D4E1"/>
<path d="M65.0489 67.7974C64.8568 68.3399 64.921 68.8576 65.1922 68.9536C65.4635 69.0496 65.8391 68.6877 66.0312 68.1452C66.2232 67.6027 66.1591 67.0851 65.8878 66.989C65.6165 66.893 65.241 67.2549 65.0489 67.7974Z" fill="black"/>
<path d="M70.9426 69.8841C70.7506 70.4266 70.8148 70.9442 71.086 71.0403C71.3573 71.1363 71.7329 70.7744 71.9249 70.2319C72.117 69.6894 72.0528 69.1717 71.7816 69.0757C71.5103 68.9796 71.1347 69.3416 70.9426 69.8841Z" fill="black"/>
<path d="M65.5315 73.9956C65.3394 74.5381 65.4036 75.0558 65.6749 75.1518C65.9461 75.2478 66.3217 74.8859 66.5138 74.3434C66.7059 73.8009 66.6417 73.2832 66.3704 73.1872C66.0992 73.0912 65.7236 73.4531 65.5315 73.9956Z" fill="black"/>
<path d="M20.6835 11.896H23.5035V13H19.3155V4.66H20.6835V11.896ZM30.6356 6.388V13H29.2676V12.22C29.0516 12.492 28.7676 12.708 28.4156 12.868C28.0716 13.02 27.7036 13.096 27.3116 13.096C26.7916 13.096 26.3236 12.988 25.9076 12.772C25.4996 12.556 25.1756 12.236 24.9356 11.812C24.7036 11.388 24.5876 10.876 24.5876 10.276V6.388H25.9436V10.072C25.9436 10.664 26.0916 11.12 26.3876 11.44C26.6836 11.752 27.0876 11.908 27.5996 11.908C28.1116 11.908 28.5156 11.752 28.8116 11.44C29.1156 11.12 29.2676 10.664 29.2676 10.072V6.388H30.6356ZM35.7765 6.28C36.2965 6.28 36.7605 6.388 37.1685 6.604C37.5845 6.82 37.9085 7.14 38.1405 7.564C38.3725 7.988 38.4885 8.5 38.4885 9.1V13H37.1325V9.304C37.1325 8.712 36.9845 8.26 36.6885 7.948C36.3925 7.628 35.9885 7.468 35.4765 7.468C34.9645 7.468 34.5565 7.628 34.2525 7.948C33.9565 8.26 33.8085 8.712 33.8085 9.304V13H32.4405V6.388H33.8085V7.144C34.0325 6.872 34.3165 6.66 34.6605 6.508C35.0125 6.356 35.3845 6.28 35.7765 6.28ZM39.7775 9.664C39.7775 9 39.9135 8.412 40.1855 7.9C40.4655 7.388 40.8415 6.992 41.3135 6.712C41.7935 6.424 42.3215 6.28 42.8975 6.28C43.4175 6.28 43.8695 6.384 44.2535 6.592C44.6455 6.792 44.9575 7.044 45.1895 7.348V6.388H46.5695V13H45.1895V12.016C44.9575 12.328 44.6415 12.588 44.2415 12.796C43.8415 13.004 43.3855 13.108 42.8735 13.108C42.3055 13.108 41.7855 12.964 41.3135 12.676C40.8415 12.38 40.4655 11.972 40.1855 11.452C39.9135 10.924 39.7775 10.328 39.7775 9.664ZM45.1895 9.688C45.1895 9.232 45.0935 8.836 44.9015 8.5C44.7175 8.164 44.4735 7.908 44.1695 7.732C43.8655 7.556 43.5375 7.468 43.1855 7.468C42.8335 7.468 42.5055 7.556 42.2015 7.732C41.8975 7.9 41.6495 8.152 41.4575 8.488C41.2735 8.816 41.1815 9.208 41.1815 9.664C41.1815 10.12 41.2735 10.52 41.4575 10.864C41.6495 11.208 41.8975 11.472 42.2015 11.656C42.5135 11.832 42.8415 11.92 43.1855 11.92C43.5375 11.92 43.8655 11.832 44.1695 11.656C44.4735 11.48 44.7175 11.224 44.9015 10.888C45.0935 10.544 45.1895 10.144 45.1895 9.688ZM49.7343 7.348C49.9343 7.012 50.1983 6.752 50.5263 6.568C50.8623 6.376 51.2583 6.28 51.7143 6.28V7.696H51.3663C50.8303 7.696 50.4223 7.832 50.1423 8.104C49.8703 8.376 49.7343 8.848 49.7343 9.52V13H48.3663V6.388H49.7343V7.348ZM60.421 13L58.501 9.664H57.457V13H56.089V4.66H58.969C59.609 4.66 60.149 4.772 60.589 4.996C61.037 5.22 61.369 5.52 61.585 5.896C61.809 6.272 61.921 6.692 61.921 7.156C61.921 7.7 61.761 8.196 61.441 8.644C61.129 9.084 60.645 9.384 59.989 9.544L62.053 13H60.421ZM57.457 8.572H58.969C59.481 8.572 59.865 8.444 60.121 8.188C60.385 7.932 60.517 7.588 60.517 7.156C60.517 6.724 60.389 6.388 60.133 6.148C59.877 5.9 59.489 5.776 58.969 5.776H57.457V8.572ZM69.731 9.532C69.731 9.78 69.715 10.004 69.683 10.204H64.631C64.671 10.732 64.867 11.156 65.219 11.476C65.571 11.796 66.003 11.956 66.515 11.956C67.251 11.956 67.771 11.648 68.075 11.032H69.551C69.351 11.64 68.987 12.14 68.459 12.532C67.939 12.916 67.291 13.108 66.515 13.108C65.883 13.108 65.315 12.968 64.811 12.688C64.315 12.4 63.923 12 63.635 11.488C63.355 10.968 63.215 10.368 63.215 9.688C63.215 9.008 63.351 8.412 63.623 7.9C63.903 7.38 64.291 6.98 64.787 6.7C65.291 6.42 65.867 6.28 66.515 6.28C67.139 6.28 67.695 6.416 68.183 6.688C68.671 6.96 69.051 7.344 69.323 7.84C69.595 8.328 69.731 8.892 69.731 9.532ZM68.303 9.1C68.295 8.596 68.115 8.192 67.763 7.888C67.411 7.584 66.975 7.432 66.455 7.432C65.983 7.432 65.579 7.584 65.243 7.888C64.907 8.184 64.707 8.588 64.643 9.1H68.303ZM70.6212 9.688C70.6212 9.008 70.7572 8.412 71.0292 7.9C71.3092 7.38 71.6932 6.98 72.1812 6.7C72.6692 6.42 73.2292 6.28 73.8612 6.28C74.6612 6.28 75.3212 6.472 75.8412 6.856C76.3692 7.232 76.7252 7.772 76.9092 8.476H75.4332C75.3132 8.148 75.1212 7.892 74.8572 7.708C74.5932 7.524 74.2612 7.432 73.8612 7.432C73.3012 7.432 72.8532 7.632 72.5172 8.032C72.1892 8.424 72.0252 8.976 72.0252 9.688C72.0252 10.4 72.1892 10.956 72.5172 11.356C72.8532 11.756 73.3012 11.956 73.8612 11.956C74.6532 11.956 75.1772 11.608 75.4332 10.912H76.9092C76.7172 11.584 76.3572 12.12 75.8292 12.52C75.3012 12.912 74.6452 13.108 73.8612 13.108C73.2292 13.108 72.6692 12.968 72.1812 12.688C71.6932 12.4 71.3092 12 71.0292 11.488C70.7572 10.968 70.6212 10.368 70.6212 9.688ZM84.2246 6.388L80.1686 16.108H78.7526L80.0966 12.892L77.4926 6.388H79.0166L80.8766 11.428L82.8086 6.388H84.2246ZM84.8009 9.688C84.8009 9.008 84.9369 8.412 85.2089 7.9C85.4889 7.38 85.8729 6.98 86.3609 6.7C86.8489 6.42 87.4089 6.28 88.0409 6.28C88.8409 6.28 89.5009 6.472 90.0209 6.856C90.5489 7.232 90.9049 7.772 91.0889 8.476H89.6129C89.4929 8.148 89.3009 7.892 89.0369 7.708C88.7729 7.524 88.4409 7.432 88.0409 7.432C87.4809 7.432 87.0329 7.632 86.6969 8.032C86.3689 8.424 86.2049 8.976 86.2049 9.688C86.2049 10.4 86.3689 10.956 86.6969 11.356C87.0329 11.756 87.4809 11.956 88.0409 11.956C88.8329 11.956 89.3569 11.608 89.6129 10.912H91.0889C90.8969 11.584 90.5369 12.12 90.0089 12.52C89.4809 12.912 88.8249 13.108 88.0409 13.108C87.4089 13.108 86.8489 12.968 86.3609 12.688C85.8729 12.4 85.4889 12 85.2089 11.488C84.9369 10.968 84.8009 10.368 84.8009 9.688ZM93.8202 4.12V13H92.4522V4.12H93.8202ZM101.676 9.532C101.676 9.78 101.66 10.004 101.628 10.204H96.5763C96.6163 10.732 96.8123 11.156 97.1643 11.476C97.5163 11.796 97.9483 11.956 98.4603 11.956C99.1963 11.956 99.7163 11.648 100.02 11.032H101.496C101.296 11.64 100.932 12.14 100.404 12.532C99.8843 12.916 99.2363 13.108 98.4603 13.108C97.8283 13.108 97.2603 12.968 96.7563 12.688C96.2603 12.4 95.8683 12 95.5803 11.488C95.3003 10.968 95.1603 10.368 95.1603 9.688C95.1603 9.008 95.2963 8.412 95.5683 7.9C95.8483 7.38 96.2363 6.98 96.7323 6.7C97.2363 6.42 97.8123 6.28 98.4603 6.28C99.0843 6.28 99.6403 6.416 100.128 6.688C100.616 6.96 100.996 7.344 101.268 7.84C101.54 8.328 101.676 8.892 101.676 9.532ZM100.248 9.1C100.24 8.596 100.06 8.192 99.7083 7.888C99.3563 7.584 98.9203 7.432 98.4003 7.432C97.9283 7.432 97.5243 7.584 97.1883 7.888C96.8523 8.184 96.6523 8.588 96.5883 9.1H100.248ZM104.391 7.348C104.591 7.012 104.855 6.752 105.183 6.568C105.519 6.376 105.915 6.28 106.371 6.28V7.696H106.023C105.487 7.696 105.079 7.832 104.799 8.104C104.527 8.376 104.391 8.848 104.391 9.52V13H103.023V6.388H104.391V7.348ZM109.344 4.66L109.188 10.48H108.048L107.892 4.66H109.344ZM108.66 13.084C108.412 13.084 108.204 13 108.036 12.832C107.868 12.664 107.784 12.456 107.784 12.208C107.784 11.96 107.868 11.752 108.036 11.584C108.204 11.416 108.412 11.332 108.66 11.332C108.9 11.332 109.104 11.416 109.272 11.584C109.44 11.752 109.524 11.96 109.524 12.208C109.524 12.456 109.44 12.664 109.272 12.832C109.104 13 108.9 13.084 108.66 13.084Z" fill="black"/>
</svg>
