<svg width="119" height="132" viewBox="0 0 119 132" fill="none" xmlns="http://www.w3.org/2000/svg">
<path d="M8.53406 111.384L6.76606 114.728V117H6.40606V114.728L4.62206 111.384H5.03006L6.58206 114.392L8.12606 111.384H8.53406ZM11.3102 117.064C10.9049 117.064 10.5395 116.973 10.2142 116.792C9.88885 116.611 9.63285 116.352 9.44619 116.016C9.26485 115.675 9.17419 115.277 9.17419 114.824C9.17419 114.376 9.26752 113.984 9.45419 113.648C9.64085 113.307 9.89685 113.048 10.2222 112.872C10.5529 112.691 10.9209 112.6 11.3262 112.6C11.7315 112.6 12.0969 112.691 12.4222 112.872C12.7475 113.048 13.0009 113.304 13.1822 113.64C13.3689 113.976 13.4622 114.371 13.4622 114.824C13.4622 115.277 13.3689 115.675 13.1822 116.016C12.9955 116.352 12.7369 116.611 12.4062 116.792C12.0809 116.973 11.7155 117.064 11.3102 117.064ZM11.3102 116.744C11.6249 116.744 11.9182 116.675 12.1902 116.536C12.4675 116.392 12.6889 116.176 12.8542 115.888C13.0195 115.6 13.1022 115.245 13.1022 114.824C13.1022 114.408 13.0195 114.056 12.8542 113.768C12.6889 113.48 12.4702 113.267 12.1982 113.128C11.9262 112.984 11.6329 112.912 11.3182 112.912C11.0035 112.912 10.7102 112.984 10.4382 113.128C10.1715 113.267 9.95552 113.48 9.79019 113.768C9.62485 114.056 9.54219 114.408 9.54219 114.824C9.54219 115.245 9.62219 115.6 9.78219 115.888C9.94752 116.176 10.1635 116.392 10.4302 116.536C10.7022 116.675 10.9955 116.744 11.3102 116.744ZM18.2264 112.656V117H17.8664V116.056C17.7438 116.387 17.5384 116.64 17.2504 116.816C16.9678 116.987 16.6424 117.072 16.2744 117.072C15.7571 117.072 15.3331 116.915 15.0024 116.6C14.6771 116.28 14.5144 115.808 14.5144 115.184V112.656H14.8664V115.16C14.8664 115.677 14.9971 116.075 15.2584 116.352C15.5198 116.624 15.8744 116.76 16.3224 116.76C16.7918 116.76 17.1651 116.611 17.4424 116.312C17.7251 116.013 17.8664 115.571 17.8664 114.984V112.656H18.2264ZM19.5708 111.384H20.0268L19.4028 113.024H19.1308L19.5708 111.384ZM22.3858 116.608L23.9858 112.656H24.3698L22.5698 117H22.1938L20.3938 112.656H20.7858L22.3858 116.608ZM29.0758 114.536C29.0758 114.728 29.0705 114.872 29.0598 114.968H25.3078C25.3185 115.357 25.4038 115.685 25.5638 115.952C25.7238 116.219 25.9345 116.419 26.1958 116.552C26.4571 116.685 26.7425 116.752 27.0518 116.752C27.4785 116.752 27.8358 116.648 28.1238 116.44C28.4118 116.227 28.5931 115.939 28.6678 115.576H29.0438C28.9585 116.019 28.7398 116.379 28.3878 116.656C28.0358 116.928 27.5905 117.064 27.0518 117.064C26.6465 117.064 26.2838 116.973 25.9638 116.792C25.6438 116.611 25.3931 116.352 25.2118 116.016C25.0305 115.675 24.9398 115.277 24.9398 114.824C24.9398 114.371 25.0278 113.976 25.2038 113.64C25.3851 113.304 25.6358 113.048 25.9558 112.872C26.2758 112.691 26.6411 112.6 27.0518 112.6C27.4678 112.6 27.8278 112.691 28.1318 112.872C28.4411 113.048 28.6758 113.285 28.8358 113.584C28.9958 113.877 29.0758 114.195 29.0758 114.536ZM28.7158 114.672C28.7318 114.288 28.6625 113.963 28.5078 113.696C28.3585 113.429 28.1531 113.232 27.8918 113.104C27.6305 112.971 27.3478 112.904 27.0438 112.904C26.7398 112.904 26.4571 112.971 26.1958 113.104C25.9398 113.232 25.7291 113.429 25.5638 113.696C25.4038 113.963 25.3185 114.288 25.3078 114.672H28.7158ZM36.0936 112.656V117H35.7336V116.056C35.611 116.387 35.4056 116.64 35.1176 116.816C34.835 116.987 34.5096 117.072 34.1416 117.072C33.6243 117.072 33.2003 116.915 32.8696 116.6C32.5443 116.28 32.3816 115.808 32.3816 115.184V112.656H32.7336V115.16C32.7336 115.677 32.8643 116.075 33.1256 116.352C33.387 116.624 33.7416 116.76 34.1896 116.76C34.659 116.76 35.0323 116.611 35.3096 116.312C35.5923 116.013 35.7336 115.571 35.7336 114.984V112.656H36.0936ZM39.366 112.568C39.8833 112.568 40.3047 112.728 40.63 113.048C40.9553 113.363 41.118 113.832 41.118 114.456V117H40.766V114.48C40.766 113.963 40.6353 113.568 40.374 113.296C40.1127 113.019 39.758 112.88 39.31 112.88C38.8407 112.88 38.4647 113.029 38.182 113.328C37.9047 113.627 37.766 114.069 37.766 114.656V117H37.406V112.656H37.766V113.576C37.8887 113.251 38.0913 113.003 38.374 112.832C38.662 112.656 38.9927 112.568 39.366 112.568ZM42.7504 111.08V117H42.3904V111.08H42.7504ZM45.9821 117.064C45.5767 117.064 45.2114 116.973 44.8861 116.792C44.5607 116.611 44.3047 116.352 44.1181 116.016C43.9367 115.675 43.8461 115.277 43.8461 114.824C43.8461 114.376 43.9394 113.984 44.1261 113.648C44.3127 113.307 44.5687 113.048 44.8941 112.872C45.2247 112.691 45.5927 112.6 45.9981 112.6C46.4034 112.6 46.7687 112.691 47.0941 112.872C47.4194 113.048 47.6727 113.304 47.8541 113.64C48.0407 113.976 48.1341 114.371 48.1341 114.824C48.1341 115.277 48.0407 115.675 47.8541 116.016C47.6674 116.352 47.4087 116.611 47.0781 116.792C46.7527 116.973 46.3874 117.064 45.9821 117.064ZM45.9821 116.744C46.2967 116.744 46.5901 116.675 46.8621 116.536C47.1394 116.392 47.3607 116.176 47.5261 115.888C47.6914 115.6 47.7741 115.245 47.7741 114.824C47.7741 114.408 47.6914 114.056 47.5261 113.768C47.3607 113.48 47.1421 113.267 46.8701 113.128C46.5981 112.984 46.3047 112.912 45.9901 112.912C45.6754 112.912 45.3821 112.984 45.1101 113.128C44.8434 113.267 44.6274 113.48 44.4621 113.768C44.2967 114.056 44.2141 114.408 44.2141 114.824C44.2141 115.245 44.2941 115.6 44.4541 115.888C44.6194 116.176 44.8354 116.392 45.1021 116.536C45.3741 116.675 45.6674 116.744 45.9821 116.744ZM49.0023 114.824C49.0023 114.371 49.0903 113.976 49.2663 113.64C49.4476 113.304 49.6956 113.048 50.0103 112.872C50.3303 112.691 50.6956 112.6 51.1063 112.6C51.6503 112.6 52.0956 112.736 52.4423 113.008C52.7943 113.28 53.013 113.645 53.0983 114.104H52.7223C52.653 113.731 52.4716 113.437 52.1783 113.224C51.8903 113.011 51.533 112.904 51.1063 112.904C50.7863 112.904 50.4956 112.976 50.2343 113.12C49.973 113.259 49.7623 113.475 49.6023 113.768C49.4476 114.056 49.3703 114.408 49.3703 114.824C49.3703 115.245 49.4476 115.6 49.6023 115.888C49.7623 116.176 49.973 116.392 50.2343 116.536C50.4956 116.68 50.7863 116.752 51.1063 116.752C51.533 116.752 51.8903 116.645 52.1783 116.432C52.4716 116.219 52.653 115.925 52.7223 115.552H53.0983C53.013 116.005 52.7943 116.371 52.4423 116.648C52.0903 116.925 51.645 117.064 51.1063 117.064C50.6956 117.064 50.3303 116.973 50.0103 116.792C49.6956 116.611 49.4476 116.352 49.2663 116.016C49.0903 115.675 49.0023 115.277 49.0023 114.824ZM56.4511 117L54.5551 115.008V117H54.1951V111.08H54.5551V114.624L56.4191 112.656H56.9231L54.8191 114.816L56.9471 117H56.4511ZM61.5993 114.536C61.5993 114.728 61.5939 114.872 61.5833 114.968H57.8313C57.8419 115.357 57.9273 115.685 58.0872 115.952C58.2473 116.219 58.4579 116.419 58.7193 116.552C58.9806 116.685 59.2659 116.752 59.5753 116.752C60.0019 116.752 60.3593 116.648 60.6473 116.44C60.9353 116.227 61.1166 115.939 61.1913 115.576H61.5673C61.4819 116.019 61.2633 116.379 60.9113 116.656C60.5593 116.928 60.1139 117.064 59.5753 117.064C59.1699 117.064 58.8073 116.973 58.4873 116.792C58.1673 116.611 57.9166 116.352 57.7353 116.016C57.5539 115.675 57.4633 115.277 57.4633 114.824C57.4633 114.371 57.5513 113.976 57.7273 113.64C57.9086 113.304 58.1593 113.048 58.4793 112.872C58.7993 112.691 59.1646 112.6 59.5753 112.6C59.9913 112.6 60.3513 112.691 60.6553 112.872C60.9646 113.048 61.1993 113.285 61.3593 113.584C61.5193 113.877 61.5993 114.195 61.5993 114.536ZM61.2393 114.672C61.2553 114.288 61.1859 113.963 61.0312 113.696C60.8819 113.429 60.6766 113.232 60.4153 113.104C60.1539 112.971 59.8713 112.904 59.5673 112.904C59.2633 112.904 58.9806 112.971 58.7193 113.104C58.4633 113.232 58.2526 113.429 58.0872 113.696C57.9273 113.963 57.8419 114.288 57.8313 114.672H61.2393ZM62.4633 114.824C62.4633 114.376 62.5513 113.984 62.7273 113.648C62.9086 113.312 63.1566 113.053 63.4713 112.872C63.7913 112.691 64.1539 112.6 64.5593 112.6C65.0019 112.6 65.3859 112.712 65.7113 112.936C66.0366 113.155 66.2659 113.44 66.3993 113.792V111.08H66.7593V117H66.3993V115.848C66.2713 116.205 66.0473 116.499 65.7273 116.728C65.4073 116.952 65.0179 117.064 64.5593 117.064C64.1539 117.064 63.7913 116.973 63.4713 116.792C63.1566 116.605 62.9086 116.344 62.7273 116.008C62.5513 115.667 62.4633 115.272 62.4633 114.824ZM66.3993 114.824C66.3993 114.445 66.3193 114.112 66.1593 113.824C66.0046 113.531 65.7913 113.307 65.5193 113.152C65.2473 112.992 64.9433 112.912 64.6073 112.912C64.2553 112.912 63.9459 112.989 63.6793 113.144C63.4126 113.293 63.2046 113.512 63.0553 113.8C62.9059 114.088 62.8313 114.429 62.8313 114.824C62.8313 115.219 62.9059 115.56 63.0553 115.848C63.2046 116.136 63.4126 116.357 63.6793 116.512C63.9513 116.667 64.2606 116.744 64.6073 116.744C64.9433 116.744 65.2473 116.667 65.5193 116.512C65.7966 116.352 66.0126 116.128 66.1673 115.84C66.3219 115.547 66.3993 115.208 66.3993 114.824ZM70.1039 114.824C70.1039 114.376 70.1919 113.984 70.3679 113.648C70.5492 113.312 70.7972 113.053 71.1119 112.872C71.4319 112.691 71.7945 112.6 72.1999 112.6C72.6585 112.6 73.0479 112.712 73.3679 112.936C73.6879 113.16 73.9119 113.445 74.0399 113.792V112.656H74.3999V117H74.0399V115.856C73.9119 116.208 73.6852 116.499 73.3599 116.728C73.0399 116.952 72.6532 117.064 72.1999 117.064C71.7945 117.064 71.4319 116.973 71.1119 116.792C70.7972 116.605 70.5492 116.344 70.3679 116.008C70.1919 115.667 70.1039 115.272 70.1039 114.824ZM74.0399 114.824C74.0399 114.445 73.9599 114.112 73.7999 113.824C73.6452 113.531 73.4319 113.307 73.1599 113.152C72.8879 112.992 72.5839 112.912 72.2479 112.912C71.8959 112.912 71.5865 112.989 71.3199 113.144C71.0532 113.293 70.8452 113.512 70.6959 113.8C70.5465 114.088 70.4719 114.429 70.4719 114.824C70.4719 115.219 70.5465 115.56 70.6959 115.848C70.8452 116.136 71.0532 116.357 71.3199 116.512C71.5919 116.667 71.9012 116.744 72.2479 116.744C72.5839 116.744 72.8879 116.667 73.1599 116.512C73.4372 116.352 73.6532 116.128 73.8079 115.84C73.9625 115.547 74.0399 115.208 74.0399 114.824ZM79.9285 112.568C80.4458 112.568 80.8672 112.728 81.1925 113.048C81.5178 113.363 81.6805 113.832 81.6805 114.456V117H81.3285V114.48C81.3285 113.963 81.1978 113.568 80.9365 113.296C80.6752 113.019 80.3205 112.88 79.8725 112.88C79.4032 112.88 79.0272 113.029 78.7445 113.328C78.4672 113.627 78.3285 114.069 78.3285 114.656V117H77.9685V112.656H78.3285V113.576C78.4512 113.251 78.6538 113.003 78.9365 112.832C79.2245 112.656 79.5552 112.568 79.9285 112.568ZM86.8649 114.536C86.8649 114.728 86.8595 114.872 86.8489 114.968H83.0969C83.1075 115.357 83.1929 115.685 83.3529 115.952C83.5129 116.219 83.7235 116.419 83.9849 116.552C84.2462 116.685 84.5315 116.752 84.8409 116.752C85.2675 116.752 85.6249 116.648 85.9129 116.44C86.2009 116.227 86.3822 115.939 86.4569 115.576H86.8329C86.7475 116.019 86.5289 116.379 86.1769 116.656C85.8249 116.928 85.3795 117.064 84.8409 117.064C84.4355 117.064 84.0729 116.973 83.7529 116.792C83.4329 116.611 83.1822 116.352 83.0009 116.016C82.8195 115.675 82.7289 115.277 82.7289 114.824C82.7289 114.371 82.8169 113.976 82.9929 113.64C83.1742 113.304 83.4249 113.048 83.7449 112.872C84.0649 112.691 84.4302 112.6 84.8409 112.6C85.2569 112.6 85.6169 112.691 85.9209 112.872C86.2302 113.048 86.4649 113.285 86.6249 113.584C86.7849 113.877 86.8649 114.195 86.8649 114.536ZM86.5049 114.672C86.5209 114.288 86.4515 113.963 86.2969 113.696C86.1475 113.429 85.9422 113.232 85.6809 113.104C85.4195 112.971 85.1369 112.904 84.8329 112.904C84.5289 112.904 84.2462 112.971 83.9849 113.104C83.7289 113.232 83.5182 113.429 83.3529 113.696C83.1929 113.963 83.1075 114.288 83.0969 114.672H86.5049ZM93.6329 112.656L92.2649 117H91.9209L90.5369 113.152L89.1449 117H88.8009L87.4329 112.656H87.8089L88.9769 116.592L90.3689 112.656H90.7129L92.0969 116.576L93.2649 112.656H93.6329ZM96.4554 114.824C96.4554 114.376 96.5434 113.984 96.7194 113.648C96.9008 113.312 97.1488 113.053 97.4634 112.872C97.7834 112.691 98.1461 112.6 98.5514 112.6C99.0101 112.6 99.3994 112.712 99.7194 112.936C100.039 113.16 100.263 113.445 100.391 113.792V112.656H100.751V117H100.391V115.856C100.263 116.208 100.037 116.499 99.7114 116.728C99.3914 116.952 99.0048 117.064 98.5514 117.064C98.1461 117.064 97.7834 116.973 97.4634 116.792C97.1488 116.605 96.9008 116.344 96.7194 116.008C96.5434 115.667 96.4554 115.272 96.4554 114.824ZM100.391 114.824C100.391 114.445 100.311 114.112 100.151 113.824C99.9968 113.531 99.7834 113.307 99.5114 113.152C99.2394 112.992 98.9354 112.912 98.5994 112.912C98.2474 112.912 97.9381 112.989 97.6714 113.144C97.4048 113.293 97.1968 113.512 97.0474 113.8C96.8981 114.088 96.8234 114.429 96.8234 114.824C96.8234 115.219 96.8981 115.56 97.0474 115.848C97.1968 116.136 97.4048 116.357 97.6714 116.512C97.9434 116.667 98.2528 116.744 98.5994 116.744C98.9354 116.744 99.2394 116.667 99.5114 116.512C99.7888 116.352 100.005 116.128 100.159 115.84C100.314 115.547 100.391 115.208 100.391 114.824ZM102.422 113.552C102.529 113.232 102.718 112.989 102.99 112.824C103.262 112.653 103.609 112.568 104.03 112.568V112.944H103.91C103.484 112.944 103.129 113.067 102.846 113.312C102.564 113.552 102.422 113.947 102.422 114.496V117H102.062V112.656H102.422V113.552ZM108.771 114.536C108.771 114.728 108.766 114.872 108.755 114.968H105.003C105.014 115.357 105.099 115.685 105.259 115.952C105.419 116.219 105.63 116.419 105.891 116.552C106.152 116.685 106.438 116.752 106.747 116.752C107.174 116.752 107.531 116.648 107.819 116.44C108.107 116.227 108.288 115.939 108.363 115.576H108.739C108.654 116.019 108.435 116.379 108.083 116.656C107.731 116.928 107.286 117.064 106.747 117.064C106.342 117.064 105.979 116.973 105.659 116.792C105.339 116.611 105.088 116.352 104.907 116.016C104.726 115.675 104.635 115.277 104.635 114.824C104.635 114.371 104.723 113.976 104.899 113.64C105.08 113.304 105.331 113.048 105.651 112.872C105.971 112.691 106.336 112.6 106.747 112.6C107.163 112.6 107.523 112.691 107.827 112.872C108.136 113.048 108.371 113.285 108.531 113.584C108.691 113.877 108.771 114.195 108.771 114.536ZM108.411 114.672C108.427 114.288 108.358 113.963 108.203 113.696C108.054 113.429 107.848 113.232 107.587 113.104C107.326 112.971 107.043 112.904 106.739 112.904C106.435 112.904 106.152 112.971 105.891 113.104C105.635 113.232 105.424 113.429 105.259 113.696C105.099 113.963 105.014 114.288 105.003 114.672H108.411ZM109.635 114.824C109.635 114.376 109.723 113.984 109.899 113.648C110.08 113.312 110.328 113.053 110.643 112.872C110.963 112.691 111.326 112.6 111.731 112.6C112.19 112.6 112.579 112.712 112.899 112.936C113.219 113.16 113.443 113.445 113.571 113.792V112.656H113.931V117H113.571V115.856C113.443 116.208 113.216 116.499 112.891 116.728C112.571 116.952 112.184 117.064 111.731 117.064C111.326 117.064 110.963 116.973 110.643 116.792C110.328 116.605 110.08 116.344 109.899 116.008C109.723 115.667 109.635 115.272 109.635 114.824ZM113.571 114.824C113.571 114.445 113.491 114.112 113.331 113.824C113.176 113.531 112.963 113.307 112.691 113.152C112.419 112.992 112.115 112.912 111.779 112.912C111.427 112.912 111.118 112.989 110.851 113.144C110.584 113.293 110.376 113.512 110.227 113.8C110.078 114.088 110.003 114.429 110.003 114.824C110.003 115.219 110.078 115.56 110.227 115.848C110.376 116.136 110.584 116.357 110.851 116.512C111.123 116.667 111.432 116.744 111.779 116.744C112.115 116.744 112.419 116.667 112.691 116.512C112.968 116.352 113.184 116.128 113.339 115.84C113.494 115.547 113.571 115.208 113.571 114.824ZM35.766 125.8C35.8993 125.448 36.126 125.16 36.446 124.936C36.766 124.712 37.1527 124.6 37.606 124.6C38.0113 124.6 38.3713 124.691 38.686 124.872C39.006 125.053 39.254 125.312 39.43 125.648C39.6113 125.984 39.702 126.376 39.702 126.824C39.702 127.272 39.6113 127.667 39.43 128.008C39.254 128.344 39.006 128.605 38.686 128.792C38.3713 128.973 38.0113 129.064 37.606 129.064C37.1527 129.064 36.7633 128.952 36.438 128.728C36.118 128.504 35.894 128.216 35.766 127.864V129H35.406V123.08H35.766V125.8ZM39.334 126.824C39.334 126.429 39.2593 126.088 39.11 125.8C38.9607 125.512 38.75 125.293 38.478 125.144C38.2113 124.989 37.902 124.912 37.55 124.912C37.214 124.912 36.91 124.992 36.638 125.152C36.366 125.307 36.1527 125.531 35.998 125.824C35.8433 126.112 35.766 126.445 35.766 126.824C35.766 127.208 35.8433 127.547 35.998 127.84C36.1527 128.128 36.366 128.352 36.638 128.512C36.91 128.667 37.214 128.744 37.55 128.744C37.902 128.744 38.2113 128.667 38.478 128.512C38.75 128.357 38.9607 128.136 39.11 127.848C39.2593 127.56 39.334 127.219 39.334 126.824ZM44.1808 124.656L41.6528 131.04H41.2848L42.0928 129L40.2688 124.656H40.6608L42.2928 128.6L43.8128 124.656H44.1808ZM47.6019 125.552C47.7086 125.232 47.8979 124.989 48.1699 124.824C48.4419 124.653 48.7886 124.568 49.2099 124.568V124.944H49.0899C48.6633 124.944 48.3086 125.067 48.0259 125.312C47.7433 125.552 47.6019 125.947 47.6019 126.496V129H47.2419V124.656H47.6019V125.552ZM53.9508 126.536C53.9508 126.728 53.9455 126.872 53.9348 126.968H50.1828C50.1935 127.357 50.2788 127.685 50.4388 127.952C50.5988 128.219 50.8095 128.419 51.0708 128.552C51.3321 128.685 51.6175 128.752 51.9268 128.752C52.3535 128.752 52.7108 128.648 52.9988 128.44C53.2868 128.227 53.4681 127.939 53.5428 127.576H53.9188C53.8335 128.019 53.6148 128.379 53.2628 128.656C52.9108 128.928 52.4655 129.064 51.9268 129.064C51.5215 129.064 51.1588 128.973 50.8388 128.792C50.5188 128.611 50.2681 128.352 50.0868 128.016C49.9055 127.675 49.8148 127.277 49.8148 126.824C49.8148 126.371 49.9028 125.976 50.0788 125.64C50.2601 125.304 50.5108 125.048 50.8308 124.872C51.1508 124.691 51.5161 124.6 51.9268 124.6C52.3428 124.6 52.7028 124.691 53.0068 124.872C53.3161 125.048 53.5508 125.285 53.7108 125.584C53.8708 125.877 53.9508 126.195 53.9508 126.536ZM53.5908 126.672C53.6068 126.288 53.5375 125.963 53.3828 125.696C53.2335 125.429 53.0281 125.232 52.7668 125.104C52.5055 124.971 52.2228 124.904 51.9188 124.904C51.6148 124.904 51.3321 124.971 51.0708 125.104C50.8148 125.232 50.6041 125.429 50.4388 125.696C50.2788 125.963 50.1935 126.288 50.1828 126.672H53.5908ZM54.8148 126.824C54.8148 126.371 54.9028 125.976 55.0788 125.64C55.2601 125.304 55.5081 125.048 55.8228 124.872C56.1428 124.691 56.5081 124.6 56.9188 124.6C57.4628 124.6 57.9081 124.736 58.2548 125.008C58.6068 125.28 58.8255 125.645 58.9108 126.104H58.5348C58.4655 125.731 58.2841 125.437 57.9908 125.224C57.7028 125.011 57.3455 124.904 56.9188 124.904C56.5988 124.904 56.3081 124.976 56.0468 125.12C55.7855 125.259 55.5748 125.475 55.4148 125.768C55.2601 126.056 55.1828 126.408 55.1828 126.824C55.1828 127.245 55.2601 127.6 55.4148 127.888C55.5748 128.176 55.7855 128.392 56.0468 128.536C56.3081 128.68 56.5988 128.752 56.9188 128.752C57.3455 128.752 57.7028 128.645 57.9908 128.432C58.2841 128.219 58.4655 127.925 58.5348 127.552H58.9108C58.8255 128.005 58.6068 128.371 58.2548 128.648C57.9028 128.925 57.4575 129.064 56.9188 129.064C56.5081 129.064 56.1428 128.973 55.8228 128.792C55.5081 128.611 55.2601 128.352 55.0788 128.016C54.9028 127.675 54.8148 127.277 54.8148 126.824ZM63.3996 124.656L60.8716 131.04H60.5036L61.3116 129L59.4876 124.656H59.8796L61.5116 128.6L63.0316 124.656H63.3996ZM63.9789 126.824C63.9789 126.371 64.0669 125.976 64.2429 125.64C64.4242 125.304 64.6722 125.048 64.9869 124.872C65.3069 124.691 65.6722 124.6 66.0829 124.6C66.6269 124.6 67.0722 124.736 67.4189 125.008C67.7709 125.28 67.9895 125.645 68.0749 126.104H67.6989C67.6295 125.731 67.4482 125.437 67.1549 125.224C66.8669 125.011 66.5095 124.904 66.0829 124.904C65.7629 124.904 65.4722 124.976 65.2109 125.12C64.9495 125.259 64.7389 125.475 64.5789 125.768C64.4242 126.056 64.3469 126.408 64.3469 126.824C64.3469 127.245 64.4242 127.6 64.5789 127.888C64.7389 128.176 64.9495 128.392 65.2109 128.536C65.4722 128.68 65.7629 128.752 66.0829 128.752C66.5095 128.752 66.8669 128.645 67.1549 128.432C67.4482 128.219 67.6295 127.925 67.6989 127.552H68.0749C67.9895 128.005 67.7709 128.371 67.4189 128.648C67.0669 128.925 66.6215 129.064 66.0829 129.064C65.6722 129.064 65.3069 128.973 64.9869 128.792C64.6722 128.611 64.4242 128.352 64.2429 128.016C64.0669 127.675 63.9789 127.277 63.9789 126.824ZM69.5316 123.08V129H69.1716V123.08H69.5316ZM71.0353 123.688C70.95 123.688 70.878 123.661 70.8193 123.608C70.7606 123.549 70.7313 123.472 70.7313 123.376C70.7313 123.285 70.7606 123.211 70.8193 123.152C70.878 123.093 70.95 123.064 71.0353 123.064C71.1206 123.064 71.1926 123.093 71.2513 123.152C71.31 123.211 71.3393 123.285 71.3393 123.376C71.3393 123.472 71.31 123.549 71.2513 123.608C71.1926 123.661 71.1206 123.688 71.0353 123.688ZM71.2113 124.656V129H70.8513V124.656H71.2113ZM74.491 124.568C75.0083 124.568 75.4297 124.728 75.755 125.048C76.0803 125.363 76.243 125.832 76.243 126.456V129H75.891V126.48C75.891 125.963 75.7603 125.568 75.499 125.296C75.2377 125.019 74.883 124.88 74.435 124.88C73.9657 124.88 73.5897 125.029 73.307 125.328C73.0297 125.627 72.891 126.069 72.891 126.656V129H72.531V124.656H72.891V125.576C73.0137 125.251 73.2163 125.003 73.499 124.832C73.787 124.656 74.1177 124.568 74.491 124.568ZM79.3874 124.6C79.846 124.6 80.2354 124.712 80.5554 124.936C80.8754 125.155 81.0994 125.437 81.2274 125.784V124.656H81.5874V129.136C81.5874 129.536 81.4994 129.885 81.3234 130.184C81.1474 130.488 80.91 130.72 80.6114 130.88C80.3127 131.045 79.9794 131.128 79.6114 131.128C79.0674 131.128 78.6167 130.997 78.2594 130.736C77.902 130.475 77.6674 130.123 77.5554 129.68H77.9154C78.022 130.027 78.222 130.301 78.5154 130.504C78.8087 130.712 79.174 130.816 79.6114 130.816C79.9154 130.816 80.19 130.747 80.4354 130.608C80.6807 130.475 80.8727 130.28 81.0114 130.024C81.1554 129.773 81.2274 129.477 81.2274 129.136V127.864C81.0994 128.211 80.8727 128.499 80.5474 128.728C80.2274 128.952 79.8407 129.064 79.3874 129.064C78.982 129.064 78.6194 128.973 78.2994 128.792C77.9847 128.605 77.7367 128.344 77.5554 128.008C77.3794 127.667 77.2914 127.272 77.2914 126.824C77.2914 126.376 77.3794 125.984 77.5554 125.648C77.7367 125.312 77.9847 125.053 78.2994 124.872C78.6194 124.691 78.982 124.6 79.3874 124.6ZM81.2274 126.824C81.2274 126.445 81.1474 126.112 80.9874 125.824C80.8327 125.531 80.6194 125.307 80.3474 125.152C80.0754 124.992 79.7714 124.912 79.4354 124.912C79.0834 124.912 78.774 124.989 78.5074 125.144C78.2407 125.293 78.0327 125.512 77.8834 125.8C77.734 126.088 77.6594 126.429 77.6594 126.824C77.6594 127.219 77.734 127.56 77.8834 127.848C78.0327 128.136 78.2407 128.357 78.5074 128.512C78.7794 128.667 79.0887 128.744 79.4354 128.744C79.7714 128.744 80.0754 128.667 80.3474 128.512C80.6247 128.352 80.8407 128.128 80.9954 127.84C81.15 127.547 81.2274 127.208 81.2274 126.824ZM83.4262 123.384L83.3862 127.632H83.0742L83.0262 123.384H83.4262ZM83.2502 129.024C83.1595 129.024 83.0849 128.995 83.0262 128.936C82.9675 128.877 82.9382 128.803 82.9382 128.712C82.9382 128.621 82.9675 128.547 83.0262 128.488C83.0849 128.429 83.1595 128.4 83.2502 128.4C83.3355 128.4 83.4075 128.429 83.4662 128.488C83.5249 128.547 83.5542 128.621 83.5542 128.712C83.5542 128.803 83.5249 128.877 83.4662 128.936C83.4075 128.995 83.3355 129.024 83.2502 129.024Z" fill="black"/>
<ellipse cx="56.2041" cy="62" rx="35" ry="34" fill="#ADDEE2"/>
<path fill-rule="evenodd" clip-rule="evenodd" d="M55.33 41.7601C54.592 40.4317 55.8835 39.8536 56.6215 39.7306C58.651 39.7306 57.913 42.1292 57.7285 42.4982C57.544 42.8672 56.2525 43.4207 55.33 41.7601ZM32.2673 67.0369C30.7912 65.1181 32.6363 64.1464 33.7433 63.9004C34.2968 63.7326 34.8503 63.9004 34.8503 65.9299C34.8503 67.5535 33.1283 67.3444 32.2673 67.0369Z" fill="#ADDEE2"/>
<path d="M14.234 76.6236C13.204 78.5 15.8263 80.0775 17.2041 81V80C17.2395 79.7367 17.2041 80 17.2039 79.5C17.8433 79.5153 18.2041 79.5 18.7041 79C19.3426 78.3615 18.9202 77.8471 18.5511 77.3977C18.4893 77.3224 18.429 77.249 18.3755 77.1771C17.6843 76.2497 16.2702 75.4259 14.234 76.6236Z" fill="#ADDEE2"/>
<path d="M63.8171 39.9151C62.9561 39.7306 61.234 39.214 61.234 38.6236C61.2308 38.6076 61.2275 38.5917 61.2241 38.5758C61.2195 38.554 61.2149 38.5323 61.2101 38.5106C60.95 37.9543 58.6615 38.5751 58.8355 40.8376C58.9654 42.5263 60.1927 42.7517 61.1653 42.9304C61.5742 43.0055 61.9381 43.0723 62.1566 43.2362C62.4858 43.4831 62.3377 43.9503 62.1873 44.4248C62.0005 45.0141 61.8102 45.6148 62.5256 45.8192C62.9561 45.9422 63.4686 45.9422 63.9606 45.9422C64.9446 45.9422 65.8466 45.9422 65.8466 46.9262C65.8466 47.6888 66.2899 48.3037 66.7184 48.8981C67.1192 49.454 67.5071 49.992 67.5071 50.6162C67.5071 51.0123 67.2989 51.4258 67.0926 51.8353C66.6263 52.761 66.1702 53.6667 68.1529 54.3063C69.849 54.8534 70.669 53.9078 71.2479 53.2401C71.6451 52.7821 71.9288 52.4549 72.3042 52.8303C72.7389 53.265 72.3542 54.0684 71.9223 54.9704C71.4378 55.9824 70.8939 57.1183 71.3816 57.9963C71.7633 58.6833 72.4609 59.244 73.1475 59.796C74.1205 60.5781 75.0717 61.3427 75.0717 62.4244C76.3632 61.8708 78.9462 60.3579 78.9462 58.7343C78.9462 57.8597 79.5287 56.6424 80.1621 55.3187C80.9985 53.5709 81.9237 51.6376 81.7137 50.0627C81.4535 48.1112 80.1841 47.3523 79.07 46.6863C78.6042 46.4078 78.1656 46.1456 77.8392 45.8192C77.1098 45.0897 75.8196 44.6807 74.7076 44.3282C74.132 44.1458 73.6042 43.9785 73.2267 43.7897C72.7016 43.5271 72.5916 42.6004 72.4635 41.5215C72.3216 40.3257 72.1575 38.943 71.3816 38.0701C70.2008 36.7417 65.8466 38.7466 63.8171 39.9151Z" fill="#4EB6B7"/>
<path d="M56.6215 39.7306C55.8835 39.8536 54.592 40.4317 55.33 41.7601C56.2525 43.4207 57.544 42.8672 57.7285 42.4982C57.913 42.1292 58.651 39.7306 56.6215 39.7306Z" fill="#4EB6B7"/>
<path d="M33.7433 63.9004C32.6363 64.1464 30.7912 65.1181 32.2673 67.0369C33.1283 67.3444 34.8503 67.5535 34.8503 65.9299C34.8503 63.9004 34.2968 63.7326 33.7433 63.9004Z" fill="#4EB6B7"/>
<path d="M56.068 27C53.0813 27 50.1775 27.3548 47.3964 28.0246C46.4117 28.9933 44.9634 30.5163 43.7064 32.0417C48.9066 31.2264 59.6449 31.3894 61.2101 38.5106C61.2257 38.5441 61.234 38.5818 61.234 38.6236C61.234 39.214 62.9561 39.7306 63.8171 39.9151C63.4632 38.8534 64.8442 37.7162 66.1997 36.6C66.9641 35.9706 67.7204 35.3478 68.1529 34.7491C69.1123 33.4207 69.3777 30.6817 69.3905 29.4783C65.2581 27.8778 60.7655 27 56.068 27Z" fill="#90D4E1"/>
<path d="M60.6502 87.3321C61.6419 87.0246 63.9734 86.7786 65.3665 88.2546C65.597 88.2546 65.6394 88.0086 65.6318 87.8856C64.6271 86.2221 61.8566 86.4545 60.5969 86.7786C60.5918 86.9838 60.6138 87.1742 60.6502 87.3321Z" fill="#90D4E1"/>
<path fill-rule="evenodd" clip-rule="evenodd" d="M61.2037 90.0996C62.2569 90.0381 64.5638 90.2472 65.3665 91.5756C65.8634 91.8606 66.654 92.1667 67.4768 92.2076C68.4298 92.2549 69.4262 91.9466 70.0598 90.8376C70.2044 90.5846 70.3265 90.3382 70.4289 90.0996C70.6404 89.6066 70.7677 89.1468 70.8354 88.7304C71.0022 87.7028 70.8054 86.9398 70.6133 86.5941C70.1828 85.6101 69.3956 83.31 69.6908 81.9815C69.7028 81.9277 69.7146 81.8749 69.7262 81.8234C69.7383 81.769 69.7503 81.7159 69.762 81.6641L69.7917 81.5326L69.7924 81.5296C69.8574 81.2422 69.913 80.9961 69.955 80.7871C70.1045 80.0427 70.0811 79.7675 69.6908 79.7675C69.1904 79.7675 67.6344 80.2199 67.4768 82.8971C67.4601 83.1812 67.4591 83.4903 67.4768 83.8266C67.2731 83.7325 67.0767 83.6483 66.8876 83.5732C64.1635 82.4917 62.9304 83.3116 62.4953 84.2011C63.3563 84.0763 65.189 84.048 65.6318 84.9336C65.7624 85.1181 65.8922 85.4871 65.3665 85.4871C65.0066 84.8967 63.5484 84.7491 62.8643 84.7491C62.6635 84.7625 62.4794 84.7881 62.3108 84.8242C62.2559 84.836 62.2027 84.8488 62.1511 84.8627C60.9568 85.1846 60.6146 86.0695 60.5969 86.7786C61.8566 86.4545 64.6271 86.2221 65.6318 87.8856C65.6394 88.0086 65.597 88.2546 65.3665 88.2546C63.9734 86.7786 61.6419 87.0246 60.6502 87.3321C60.277 87.8653 60.1654 88.3343 60.2041 88.7304C60.2725 89.4308 60.8109 89.9032 61.2037 90.0996Z" fill="#ADDEE2"/>
<path d="M62.8643 84.7491C63.5484 84.7491 65.0066 84.8967 65.3665 85.4871C65.8922 85.4871 65.7624 85.1181 65.6318 84.9336C65.189 84.048 63.3563 84.0763 62.4953 84.2011C62.3916 84.4131 62.3332 84.6291 62.3108 84.8242C62.4794 84.7881 62.6635 84.7625 62.8643 84.7491Z" fill="#90D4E1"/>
<path d="M14.8911 74.4096C15.4138 73.8365 16.299 73.4658 17.7396 73.6716C18.1868 73.7398 18.7175 73.9137 19.0881 74.2251C19.6092 74.2964 19.9812 74.1409 20.2361 73.9127C17.8054 72.1867 15.5475 73.1558 14.7225 73.8561C14.7677 74.0555 14.8261 74.2426 14.8911 74.4096Z" fill="#90D4E1"/>
<path fill-rule="evenodd" clip-rule="evenodd" d="M14.2454 75.8856C15.1891 75.4378 17.4564 74.9347 18.9763 76.5054C19.8215 75.4006 19.6194 74.6716 19.0881 74.2251C18.7175 73.9137 18.1868 73.7398 17.7396 73.6716C16.299 73.4658 15.4138 73.8365 14.8911 74.4096C14.4984 74.8402 14.3104 75.3851 14.2454 75.8856Z" fill="#ADDEE2"/>
<path d="M14.234 76.6236C16.2702 75.4259 17.6843 76.2497 18.3755 77.1771C18.6169 76.9392 18.8155 76.7155 18.9763 76.5054C17.4564 74.9347 15.1891 75.4378 14.2454 75.8856C14.2108 76.1522 14.2112 76.4062 14.234 76.6236Z" fill="#90D4E1"/>
<path d="M97.2408 62.69C97.7025 59.3528 99.9995 58.2993 101.204 58.5C104.204 59 102.704 64.5 101.204 66C101.159 66.0452 101.104 66.0919 101.041 66.1386C102.164 66.49 103.399 66.3426 104.741 65.5C105.661 63.416 105.691 61.4656 105.276 59.796C104.67 57.6995 98.1629 53.977 93.2485 51.5C93.8561 54.7717 95.2027 59.4668 97.2408 62.69Z" fill="#BA713E"/>
<path d="M102.704 55.3187L89.7911 48.8981C89.9625 49.2828 90.1276 49.6711 90.2861 50.0627C91.1396 50.459 92.1546 50.9486 93.2485 51.5C98.1629 53.977 104.67 57.6995 105.276 59.796C104.79 57.8385 103.693 56.267 102.704 55.3187Z" fill="#E4CFD1"/>
<path d="M92.9684 63.9004C92.9684 64.5916 92.9493 65.2785 92.9118 65.9603C94.212 68.5472 98.7584 71.8332 102.204 69.0524C102.55 68.7732 102.885 68.4329 103.204 68.0246C103.874 67.1683 104.377 66.3237 104.741 65.5C103.399 66.3426 102.164 66.49 101.041 66.1386C100.446 66.5798 99.1183 67.0326 98.1816 66.4521C97.4836 66.0194 97.0026 65.0129 97.2039 63C97.2145 62.8945 97.2268 62.7912 97.2408 62.69C95.2027 59.4668 93.8561 54.7717 93.2485 51.5C92.1546 50.9486 91.1396 50.459 90.2861 50.0627C92.0153 54.3347 92.9678 59.0042 92.9684 63.8961V63.9004Z" fill="#995B42"/>
<path d="M101.204 66C102.704 64.5 104.204 59 101.204 58.5C100.182 59.3598 98.5041 61.3934 98.1067 63.9112C98.9801 64.9994 99.9591 65.8002 101.041 66.1386C101.104 66.0919 101.159 66.0452 101.204 66Z" fill="#EAA681"/>
<path d="M101.204 58.5C99.9995 58.2993 97.7025 59.3528 97.2408 62.69C97.5168 63.1265 97.8054 63.5359 98.1067 63.9112C98.5041 61.3934 100.182 59.3598 101.204 58.5Z" fill="#BC858A"/>
<path d="M98.1816 66.4521C99.1183 67.0326 100.446 66.5798 101.041 66.1386C99.9591 65.8002 98.9801 64.9994 98.1067 63.9112C97.9796 64.7162 97.9835 65.5707 98.1816 66.4521Z" fill="#EAA681"/>
<path d="M97.2039 63C97.0026 65.0129 97.4836 66.0194 98.1816 66.4521C97.9835 65.5707 97.9796 64.7162 98.1067 63.9112C97.8054 63.5359 97.5168 63.1265 97.2408 62.69C97.2268 62.7912 97.2145 62.8945 97.2039 63Z" fill="#BC858A"/>
<path d="M103.204 78.5H105.704C107.287 75.9668 105.842 72.2324 104.344 69.7152C103.886 70.2102 103.387 70.6024 102.861 70.9066C103.498 73.0178 104.026 75.9015 103.386 78C103.333 78.1722 103.273 78.3392 103.204 78.5Z" fill="#995B42"/>
<path d="M103.204 68.0246C102.885 68.4329 102.55 68.7732 102.204 69.0524C102.406 69.5339 102.64 70.1737 102.861 70.9066C103.387 70.6024 103.886 70.2102 104.344 69.7152C103.949 69.0526 103.551 68.4744 103.204 68.0246Z" fill="#995B42"/>
<path d="M102.204 69.0524C98.7584 71.8332 94.212 68.5472 92.9118 65.9603C92.8419 67.2301 92.7079 68.4828 92.5128 69.7152C94.6762 71.0808 99.3772 72.9208 102.861 70.9066C102.64 70.1737 102.406 69.5339 102.204 69.0524Z" fill="#BA713E"/>
<path d="M92.2039 78.5L90.5782 88.2546L90.2039 90.5C90.9264 91.7283 91.7033 92.6814 92.5051 93.4088L93.2039 90.9692L95.2039 83.9869C93.6483 82.2483 92.6434 79.9941 92.2039 78.5Z" fill="#995B42"/>
<path fill-rule="evenodd" clip-rule="evenodd" d="M105.243 83C104.588 84.7615 103.243 86.2884 100.704 86.5C98.4351 86.6891 96.5983 85.5451 95.2039 83.9869L93.2039 90.9692C97.5167 92.1461 105.962 92.2 105.243 83Z" fill="#BA713E"/>
<path d="M102.204 94C107.404 88.4 106.704 81.3333 105.704 78.5C105.861 79.6775 105.826 81.4317 105.243 83C105.962 92.2 97.5167 92.1461 93.2039 90.9692L92.5051 93.4088C94.387 95.1163 96.4062 95.5807 98.1816 95.4421C99.8375 95.3128 101.281 94.659 102.204 94Z" fill="#995B42"/>
<path fill-rule="evenodd" clip-rule="evenodd" d="M92.2039 78.5C93.6917 81.0044 97.4746 85.8105 100.704 85C103.933 84.1895 105.383 80.329 105.704 78.5H103.204H92.2039Z" fill="#BA713E"/>
<path d="M95.2039 83.9869C96.5983 85.5451 98.4351 86.6891 100.704 86.5C103.243 86.2884 104.588 84.7615 105.243 83C105.826 81.4317 105.861 79.6775 105.704 78.5C105.383 80.329 103.933 84.1895 100.704 85C97.4746 85.8105 93.6917 81.0044 92.2039 78.5C92.6434 79.9941 93.6483 82.2483 95.2039 83.9869Z" fill="#995B42"/>
<path d="M76.316 67.4272C82.8577 65.2901 91.5662 70.2207 91.2698 75C91.7127 73.5939 92.0737 72.1514 92.3472 70.6782C89.9078 67.3495 87.1759 65.3232 84.415 64.2719C81.5966 64.6858 78.8195 65.8916 76.316 67.4272Z" fill="#BA713E"/>
<path d="M67.5071 80.4734L68.7986 73.679C69.6229 72.7651 70.6173 71.7797 71.7428 70.8011C72.3595 69.9345 73.0696 69.231 73.8459 68.6729C74.6133 68.1212 75.4455 67.7116 76.316 67.4272C78.8195 65.8916 81.5966 64.6858 84.415 64.2719C83.1318 63.7832 81.8422 63.5052 80.5729 63.4049C78.6361 64.1916 76.7717 65.2649 75.0717 66.4521C74.6371 65.6197 74.7494 64.9706 74.8924 64.1441C74.8949 64.1301 74.8973 64.1159 74.8998 64.1018C69.9934 65.7021 66.2166 69.6365 65.6621 73.302L67.5071 72.5V74.4096V80.4734Z" fill="#BA713E"/>
<path d="M74.8924 64.1441C74.7494 64.9706 74.6371 65.6197 75.0717 66.4521C76.7717 65.2649 78.6361 64.1916 80.5729 63.4049C78.6 63.249 76.6759 63.5225 74.8998 64.1018L74.8924 64.1441Z" fill="#BA713E"/>
<path d="M69.6908 79.7675C69.3071 78.1228 69.5613 76.3762 69.7211 75.7085C70.138 73.6867 70.8403 72.0693 71.7428 70.8011C70.6173 71.7797 69.6229 72.7651 68.7986 73.679L67.5071 80.4734L67.4768 82.8971C67.6344 80.2199 69.1904 79.7675 69.6908 79.7675Z" fill="#BA713E"/>
<path d="M80.5729 63.4049C81.8422 63.5052 83.1318 63.7832 84.415 64.2719C85.1032 64.1708 85.7938 64.1169 86.4835 64.117C85.2132 63.4555 83.8786 62.9948 82.5205 62.723C81.8656 62.9145 81.2152 63.144 80.5729 63.4049Z" fill="#E4CFD1"/>
<path d="M92.9118 65.9603C92.9493 65.2785 92.9684 64.5916 92.9684 63.9004V63.8961C89.7009 61.7562 86.044 61.6922 82.5205 62.723C83.8786 62.9948 85.2132 63.4555 86.4835 64.117C88.6715 64.1171 90.8502 64.66 92.9118 65.9603Z" fill="#3E9FB2"/>
<path d="M84.415 64.2719C87.1759 65.3232 89.9078 67.3495 92.3472 70.6782C92.4028 70.3786 92.4548 70.0778 92.5032 69.7757L92.5076 69.748C90.8701 67.1673 88.7818 65.3137 86.4835 64.117C85.7938 64.1169 85.1032 64.1708 84.415 64.2719Z" fill="#E4CFD1"/>
<path fill-rule="evenodd" clip-rule="evenodd" d="M75.3799 68.0246C75.0825 68.1317 74.3594 68.4112 73.8459 68.6729C73.0696 69.231 72.3595 69.9345 71.7428 70.8011C72.8424 69.845 74.0669 68.8952 75.3799 68.0246Z" fill="#90D4E1"/>
<path d="M75.3799 68.0246C75.6873 67.8208 75.9994 67.6214 76.316 67.4272C75.4455 67.7116 74.6133 68.1212 73.8459 68.6729C74.3594 68.4112 75.0825 68.1317 75.3799 68.0246Z" fill="#3E9FB2"/>
<path d="M75.9373 95C80.3446 98.2197 90.9638 102.816 98.1816 95.4421C96.4062 95.5807 94.387 95.1163 92.5051 93.4088C91.7033 92.6814 90.9264 91.7283 90.2039 90.5L90.5782 88.2546C87.6775 87.6583 85.1201 89.1697 84.2039 90C83.2339 90.8137 81.6254 91.4213 80.3296 91.546C79.9002 91.9323 79.8685 92.1061 79.4213 92.4721C78.3119 93.3799 77.1488 94.2244 75.9373 95Z" fill="#995B42"/>
<path d="M79.4213 92.4721C79.8685 92.1061 79.9002 91.9323 80.3296 91.546C78.4446 91.7275 76.3605 91.3157 74.5012 90.7052C74.2954 91.2455 74.5356 91.5996 74.4024 92.1526C75.8489 92.5781 77.5661 92.7869 79.4213 92.4721Z" fill="#995B42"/>
<path d="M70.8354 88.7304C70.7677 89.1468 70.6404 89.6066 70.4289 90.0996C71.1169 90.7109 72.5539 91.6087 74.4024 92.1526C74.5356 91.5996 74.2954 91.2455 74.5012 90.7052C72.8949 90.1778 71.8329 89.2998 70.8354 88.7304Z" fill="#995B42"/>
<path fill-rule="evenodd" clip-rule="evenodd" d="M73.9463 96.1882C74.6233 95.8125 75.2872 95.4162 75.9373 95C77.1488 94.2244 78.3119 93.3799 79.4213 92.4721C77.5661 92.7869 75.8489 92.5781 74.4024 92.1526C74.0398 93.659 73.9257 95.1386 73.9463 96.1882ZM91.2698 75C89.7606 79.7908 86.8937 84.3623 83.7039 88.0881C80.5792 89.713 77.9077 89.5058 75.7365 88.4172C76.4445 87.4882 77.7684 86.5616 78.9462 86.2251C82.5709 85.1895 82.8349 83.8813 83.1796 82.1733C83.3262 81.4469 83.4874 80.6483 83.9278 79.7675C84.6043 78.599 86.2525 76.1513 87.4333 75.7085C88.9093 75.155 87.8023 70.1734 86.3263 71.0211C85.3519 71.5807 84.6187 70.5495 83.8613 69.4843C83.4714 68.936 83.0751 68.3786 82.6362 68.0246C81.603 67.1912 77.3682 67.6773 75.3799 68.0246C75.6873 67.8208 75.9994 67.6214 76.316 67.4272C82.8577 65.2901 91.5662 70.2207 91.2698 75ZM86.4835 64.117C88.7818 65.3137 90.8701 67.1673 92.5076 69.748L92.5128 69.7152C92.7079 68.4828 92.8419 67.2301 92.9118 65.9603C90.8502 64.66 88.6715 64.1171 86.4835 64.117Z" fill="#3E9FB2"/>
<path d="M80.3296 91.546C81.528 90.4681 82.6554 89.3129 83.7039 88.0881C80.5792 89.713 77.9077 89.5058 75.7365 88.4172C75.2202 89.0946 74.8151 89.8809 74.5012 90.7052C76.3605 91.3157 78.4446 91.7275 80.3296 91.546Z" fill="#BA713E"/>
<path d="M69.6908 81.9815C69.3956 83.31 70.1828 85.6101 70.6133 86.5941C70.8054 86.9398 71.0022 87.7028 70.8354 88.7304C71.8329 89.2998 72.8949 90.1778 74.5012 90.7052C74.8151 89.8809 75.2202 89.0946 75.7365 88.4172C72.5751 86.8321 70.8506 83.1756 69.955 80.7871C69.913 80.9961 69.8574 81.2422 69.7924 81.5296L69.7917 81.5326L69.762 81.6641L69.7262 81.8234L69.6908 81.9815Z" fill="#BA713E"/>
<path fill-rule="evenodd" clip-rule="evenodd" d="M83.7039 88.0881C82.6554 89.3129 81.528 90.4681 80.3296 91.546C81.6254 91.4213 83.2339 90.8137 84.2039 90C85.1201 89.1697 87.6775 87.6583 90.5782 88.2546L92.2039 78.5L92.7039 78H103.386C104.026 75.9015 103.498 73.0178 102.861 70.9066C99.3772 72.9208 94.6762 71.0808 92.5128 69.7152L92.5076 69.748L92.5032 69.7757C92.4548 70.0778 92.4028 70.3786 92.3472 70.6782C92.0737 72.1514 91.7127 73.5939 91.2698 75C89.7606 79.7908 86.8937 84.3623 83.7039 88.0881Z" fill="#BA713E"/>
<path d="M92.2039 78.5H103.204C103.273 78.3392 103.333 78.1722 103.386 78H92.7039L92.2039 78.5Z" fill="#995B42"/>
<path fill-rule="evenodd" clip-rule="evenodd" d="M43.7064 32.0417C42.2941 33.7555 41.1233 35.4725 41.1233 36.4096C41.1233 37.7147 40.4823 38.1222 39.767 38.577C39.2688 38.8938 38.7345 39.2334 38.3558 39.9151C37.9927 40.5686 38.0012 41.4508 38.01 42.3703C38.0236 43.7873 38.038 45.2931 36.6953 46.1882C36.0771 46.6003 34.8405 47.0124 33.3991 47.4928C29.6778 48.7329 24.5912 50.428 25.2562 53.7528C25.7354 56.1488 27.2601 57.0015 28.6149 57.7591C29.8681 58.4599 30.9757 59.0793 30.9757 60.7638C30.9757 63.0464 30.0371 63.8427 29.2293 64.528C28.7965 64.8951 28.4013 65.2304 28.2082 65.7454C28.0911 66.0578 27.9739 66.4988 27.8393 67.0058C27.4455 68.4885 26.9021 70.5346 25.7715 71.5714L21.3769 67.1749C20.134 51.8882 34.2382 32.8181 43.7064 32.0417Z" fill="#4EB6B7"/>
<path fill-rule="evenodd" clip-rule="evenodd" d="M19.1676 63.9004C19.1676 64.2615 19.1728 64.6214 19.1831 64.9801L21.3769 67.1749C20.134 51.8882 34.2382 32.8181 43.7064 32.0417C44.9634 30.5163 46.4117 28.9933 47.3964 28.0246C32.8335 31.5321 21.6359 43.6762 19.5264 58.7343C19.2899 60.4224 19.1676 62.1471 19.1676 63.9004ZM20.6427 72.0241L20.0603 72.0041C20.0058 71.761 19.9537 71.517 19.9041 71.2721C19.3391 70.8946 18.6211 70.6489 18.1086 70.535C17.7787 70.5224 17.4779 70.5305 17.2039 70.5568C17.0077 70.5756 16.8252 70.6038 16.6556 70.6404C14.648 71.073 14.4554 72.6787 14.7225 73.8561C15.5475 73.1558 17.8054 72.1867 20.2361 73.9127C20.509 73.6684 20.6477 73.3406 20.6916 73.1181C20.8567 72.7053 20.8141 72.3407 20.6427 72.0241Z" fill="#ADDEE2"/>
<path d="M20.0603 72.0041L20.6427 72.0241C20.485 71.7327 20.2182 71.482 19.9041 71.2721C19.9537 71.517 20.0058 71.761 20.0603 72.0041Z" fill="#ADDEE2"/>
<path fill-rule="evenodd" clip-rule="evenodd" d="M61.2037 90.0996C62.2569 90.0381 64.5638 90.2472 65.3665 91.5756L64.2601 97.5553L56.3384 100.891L53.7039 102V80.7871L67.5071 74.4096V80.4734L66.8876 83.5732C64.1635 82.4917 62.9304 83.3116 62.4953 84.2011C62.3916 84.4131 62.3332 84.6291 62.3108 84.8242C62.2559 84.836 62.2027 84.8488 62.1511 84.8627C60.9568 85.1846 60.6146 86.0695 60.5969 86.7786C60.5918 86.9838 60.6138 87.1742 60.6502 87.3321C60.277 87.8653 60.1654 88.3343 60.2041 88.7304C60.2725 89.4308 60.8109 89.9032 61.2037 90.0996Z" fill="#E5A17A"/>
<path d="M65.6621 73.302L53.7039 78.5V80.7871L67.5071 74.4096V72.5L65.6621 73.302Z" fill="#F1E1D2"/>
<path fill-rule="evenodd" clip-rule="evenodd" d="M53.7039 80.7871V102L51.4212 100.859L39.7039 95V72.5L53.7039 80.7871Z" fill="#C28570"/>
<path d="M53.7039 78.5L39.7039 70.5V72.5L53.7039 80.7871V78.5Z" fill="#D1B0BA"/>
<path fill-rule="evenodd" clip-rule="evenodd" d="M39.7039 72.5V95L35.1559 96.516L26.2039 99.5V74.4096L39.7039 72.5Z" fill="#E5A17A"/>
<path d="M39.7039 70.5L26.2039 72.0041V74.4096L39.7039 72.5V70.5Z" fill="#F1E1D2"/>
<path fill-rule="evenodd" clip-rule="evenodd" d="M24.0385 72.1408L22.3815 72.0839C22.1172 71.317 21.9042 70.5319 21.7395 69.7321L24.0385 72.1408Z" fill="#C28570"/>
<path d="M24.7027 72.1636C25.1089 72.0632 25.4621 71.8551 25.7715 71.5714L21.3769 67.1749C21.4473 68.0408 21.567 68.8945 21.7395 69.7321L24.0385 72.1408L24.7027 72.1636Z" fill="#D1B0BA"/>
<path fill-rule="evenodd" clip-rule="evenodd" d="M18.5511 77.3977C18.4893 77.3224 18.429 77.249 18.3755 77.1771C18.6169 76.9392 18.8155 76.7155 18.9763 76.5054C19.8215 75.4006 19.6194 74.6716 19.0881 74.2251C19.6092 74.2964 19.9812 74.1409 20.2361 73.9127C20.509 73.6684 20.6477 73.3406 20.6916 73.1181C20.8567 72.7053 20.8141 72.3407 20.6427 72.0241L22.3815 72.0839L24.0385 72.1408L26.2039 74.4096V99.5L17.2039 90.8376V79.5C17.8433 79.5153 18.2041 79.5 18.7041 79C19.3426 78.3615 18.9202 77.8471 18.5511 77.3977Z" fill="#C28570"/>
<path d="M26.2039 72.0041L25.7715 71.5714C25.4621 71.8551 25.1089 72.0632 24.7027 72.1636L24.0385 72.1408L26.2039 74.4096V72.0041Z" fill="#D1B0BA"/>
<path fill-rule="evenodd" clip-rule="evenodd" d="M22.3815 72.0839L20.6427 72.0241C20.485 71.7327 20.2182 71.482 19.9041 71.2721C19.6331 69.9358 19.4344 68.5734 19.3122 67.1889L21.7395 69.7321C21.9042 70.5319 22.1172 71.317 22.3815 72.0839Z" fill="#C28570"/>
<path d="M21.3769 67.1749L19.1831 64.9801C19.2044 65.7221 19.2477 66.4586 19.3122 67.1889L21.7395 69.7321C21.567 68.8945 21.4473 68.0408 21.3769 67.1749Z" fill="#D1B0BA"/>
<path fill-rule="evenodd" clip-rule="evenodd" d="M18.1086 70.535C17.7787 70.5224 17.4779 70.5305 17.2039 70.5568V64.9801L19.3122 67.1889C19.4344 68.5734 19.6331 69.9358 19.9041 71.2721C19.3391 70.8946 18.6211 70.6489 18.1086 70.535Z" fill="#C28570"/>
<path d="M19.1831 64.9801L17.2039 63V64.9801L19.3122 67.1889C19.2477 66.4586 19.2044 65.7221 19.1831 64.9801Z" fill="#D1B0BA"/>
<path d="M67.4768 92.2076C66.654 92.1667 65.8634 91.8606 65.3665 91.5756L64.2601 97.5553L67.5071 96.1882L67.4768 92.2076Z" fill="#E5A17A"/>
<path fill-rule="evenodd" clip-rule="evenodd" d="M67.4768 92.2076C68.4298 92.2549 69.4262 91.9466 70.0598 90.8376C70.2044 90.5846 70.3265 90.3382 70.4289 90.0996C71.1169 90.7109 72.5539 91.6087 74.4024 92.1526C74.0398 93.659 73.9257 95.1386 73.9463 96.1882C70.8146 97.926 67.4035 99.2213 63.7974 99.9899L64.2601 97.5553L67.5071 96.1882L67.4768 92.2076ZM69.955 80.7871C70.8506 83.1756 72.5751 86.8321 75.7365 88.4172C76.4445 87.4882 77.7684 86.5616 78.9462 86.2251C82.5709 85.1895 82.8349 83.8813 83.1796 82.1733C83.3262 81.4469 83.4874 80.6483 83.9278 79.7675C84.6043 78.599 86.2525 76.1513 87.4333 75.7085C88.9093 75.155 87.8023 70.1734 86.3263 71.0211C85.3519 71.5807 84.6187 70.5495 83.8613 69.4843C83.4714 68.936 83.0751 68.3786 82.6362 68.0246C81.603 67.1912 77.3682 67.6773 75.3799 68.0246C74.0669 68.8952 72.8424 69.845 71.7428 70.8011C70.8403 72.0693 70.138 73.6867 69.7211 75.7085C69.5613 76.3762 69.3071 78.1228 69.6908 79.7675C70.0811 79.7675 70.1045 80.0427 69.955 80.7871Z" fill="#90D4E1"/>
<path d="M67.5071 80.4734L66.8876 83.5732L67.4768 82.8971L67.5071 80.4734Z" fill="#E5A17A"/>
<path d="M66.8876 83.5732C67.0767 83.6483 67.2731 83.7325 67.4768 83.8266C67.4591 83.4903 67.4601 83.1812 67.4768 82.8971L66.8876 83.5732Z" fill="#E5A17A"/>
<path d="M64.2601 97.5553L56.3384 100.891C59.0279 100.775 61.5582 100.448 63.7974 99.9899L64.2601 97.5553Z" fill="#90D4E1"/>
<path d="M51.4212 100.859L39.7039 95L35.1559 96.516C40.2532 99.2887 45.9863 100.549 51.4212 100.859Z" fill="#90D4E1"/>
<path d="M64.7949 73.679L65.6621 73.302C66.2166 69.6365 69.9934 65.7021 74.8998 64.1018C74.9518 63.801 75.0066 63.4762 75.04 63.1104C70.2547 64.5706 66.1808 68.3181 64.7949 73.679Z" fill="#E4CFD1"/>
<path fill-rule="evenodd" clip-rule="evenodd" d="M92.9684 63.8961C92.9678 59.0042 92.0153 54.3347 90.2861 50.0627C90.1276 49.6711 89.9625 49.2828 89.7911 48.8981C85.8381 40.0258 78.4867 33.0012 69.3905 29.4783C69.3777 30.6817 69.1123 33.4207 68.1529 34.7491C67.7204 35.3478 66.9641 35.9706 66.1997 36.6C64.8442 37.7162 63.4632 38.8534 63.8171 39.9151C65.8466 38.7466 70.2008 36.7417 71.3816 38.0701C72.1575 38.943 72.3216 40.3257 72.4635 41.5215C72.5916 42.6004 72.7016 43.5271 73.2267 43.7897C73.6042 43.9785 74.132 44.1458 74.7076 44.3282C75.8196 44.6807 77.1098 45.0897 77.8392 45.8192C78.1656 46.1456 78.6042 46.4078 79.07 46.6863C80.1841 47.3523 81.4535 48.1112 81.7137 50.0627C81.9237 51.6376 80.9985 53.5709 80.1621 55.3187C79.5287 56.6424 78.9462 57.8597 78.9462 58.7343C78.9462 60.3579 76.3632 61.8708 75.0717 62.4244C75.0717 62.6693 75.0595 62.8968 75.04 63.1104C77.4378 62.3787 80.0142 62.2213 82.5205 62.723C86.044 61.6922 89.7009 61.7562 92.9684 63.8961Z" fill="#3E9FB2"/>
<path d="M74.8998 64.1018C76.6759 63.5225 78.6 63.249 80.5729 63.4049C81.2152 63.144 81.8656 62.9145 82.5205 62.723C80.0142 62.2213 77.4378 62.3787 75.04 63.1104C75.0066 63.4762 74.9518 63.801 74.8998 64.1018Z" fill="#E4CFD1"/>
<path d="M43.8911 66.7638C45.0596 67.8093 47.9133 69.273 49.9797 66.7638" stroke="black" stroke-width="0.5" stroke-linecap="round"/>
<path d="M52.0089 61.4133C52.0089 62.2285 51.6784 62.8893 51.2709 62.8893C50.8633 62.8893 50.5328 62.2285 50.5328 61.4133C50.5328 60.5981 50.8633 59.9373 51.2709 59.9373C51.6784 59.9373 52.0089 60.5981 52.0089 61.4133Z" fill="black"/>
<path d="M43.1528 61.4133C43.1528 62.2285 42.8224 62.8893 42.4148 62.8893C42.0072 62.8893 41.6768 62.2285 41.6768 61.4133C41.6768 60.5981 42.0072 59.9373 42.4148 59.9373C42.8224 59.9373 43.1528 60.5981 43.1528 61.4133Z" fill="black"/>
<path d="M24.2875 5.764V8.212H27.1675V9.328H24.2875V11.884H27.5275V13H22.9195V4.648H27.5275V5.764H24.2875ZM28.7565 9.688C28.7565 9.008 28.8925 8.412 29.1645 7.9C29.4445 7.38 29.8285 6.98 30.3165 6.7C30.8045 6.42 31.3645 6.28 31.9965 6.28C32.7965 6.28 33.4565 6.472 33.9765 6.856C34.5045 7.232 34.8605 7.772 35.0445 8.476H33.5685C33.4485 8.148 33.2565 7.892 32.9925 7.708C32.7285 7.524 32.3965 7.432 31.9965 7.432C31.4365 7.432 30.9885 7.632 30.6525 8.032C30.3245 8.424 30.1605 8.976 30.1605 9.688C30.1605 10.4 30.3245 10.956 30.6525 11.356C30.9885 11.756 31.4365 11.956 31.9965 11.956C32.7885 11.956 33.3125 11.608 33.5685 10.912H35.0445C34.8525 11.584 34.4925 12.12 33.9645 12.52C33.4365 12.912 32.7805 13.108 31.9965 13.108C31.3645 13.108 30.8045 12.968 30.3165 12.688C29.8285 12.4 29.4445 12 29.1645 11.488C28.8925 10.968 28.7565 10.368 28.7565 9.688ZM39.2758 13.108C38.6518 13.108 38.0878 12.968 37.5838 12.688C37.0798 12.4 36.6838 12 36.3958 11.488C36.1078 10.968 35.9638 10.368 35.9638 9.688C35.9638 9.016 36.1118 8.42 36.4078 7.9C36.7038 7.38 37.1078 6.98 37.6198 6.7C38.1318 6.42 38.7038 6.28 39.3358 6.28C39.9678 6.28 40.5398 6.42 41.0518 6.7C41.5638 6.98 41.9678 7.38 42.2638 7.9C42.5598 8.42 42.7078 9.016 42.7078 9.688C42.7078 10.36 42.5558 10.956 42.2518 11.476C41.9478 11.996 41.5318 12.4 41.0038 12.688C40.4838 12.968 39.9078 13.108 39.2758 13.108ZM39.2758 11.92C39.6278 11.92 39.9558 11.836 40.2598 11.668C40.5718 11.5 40.8238 11.248 41.0158 10.912C41.2078 10.576 41.3038 10.168 41.3038 9.688C41.3038 9.208 41.2118 8.804 41.0278 8.476C40.8438 8.14 40.5998 7.888 40.2958 7.72C39.9918 7.552 39.6638 7.468 39.3118 7.468C38.9598 7.468 38.6318 7.552 38.3278 7.72C38.0318 7.888 37.7958 8.14 37.6198 8.476C37.4438 8.804 37.3558 9.208 37.3558 9.688C37.3558 10.4 37.5358 10.952 37.8958 11.344C38.2638 11.728 38.7238 11.92 39.2758 11.92ZM48.5453 5.764V8.212H51.4253V9.328H48.5453V11.884H51.7853V13H47.1773V4.648H51.7853V5.764H48.5453ZM56.3023 9.652L58.4383 13H56.8903L55.4623 10.756L54.1183 13H52.6903L54.8263 9.748L52.6903 6.388H54.2383L55.6663 8.632L57.0103 6.388H58.4383L56.3023 9.652ZM60.8266 7.36C61.0586 7.056 61.3746 6.8 61.7746 6.592C62.1746 6.384 62.6266 6.28 63.1306 6.28C63.7066 6.28 64.2306 6.424 64.7026 6.712C65.1826 6.992 65.5586 7.388 65.8306 7.9C66.1026 8.412 66.2386 9 66.2386 9.664C66.2386 10.328 66.1026 10.924 65.8306 11.452C65.5586 11.972 65.1826 12.38 64.7026 12.676C64.2306 12.964 63.7066 13.108 63.1306 13.108C62.6266 13.108 62.1786 13.008 61.7866 12.808C61.3946 12.6 61.0746 12.344 60.8266 12.04V16.144H59.4586V6.388H60.8266V7.36ZM64.8466 9.664C64.8466 9.208 64.7506 8.816 64.5586 8.488C64.3746 8.152 64.1266 7.9 63.8146 7.732C63.5106 7.556 63.1826 7.468 62.8306 7.468C62.4866 7.468 62.1586 7.556 61.8466 7.732C61.5426 7.908 61.2946 8.164 61.1026 8.5C60.9186 8.836 60.8266 9.232 60.8266 9.688C60.8266 10.144 60.9186 10.544 61.1026 10.888C61.2946 11.224 61.5426 11.48 61.8466 11.656C62.1586 11.832 62.4866 11.92 62.8306 11.92C63.1826 11.92 63.5106 11.832 63.8146 11.656C64.1266 11.472 64.3746 11.208 64.5586 10.864C64.7506 10.52 64.8466 10.12 64.8466 9.664ZM68.9594 4.12V13H67.5914V4.12H68.9594ZM73.6235 13.108C72.9995 13.108 72.4355 12.968 71.9315 12.688C71.4275 12.4 71.0315 12 70.7435 11.488C70.4555 10.968 70.3115 10.368 70.3115 9.688C70.3115 9.016 70.4595 8.42 70.7555 7.9C71.0515 7.38 71.4555 6.98 71.9675 6.7C72.4795 6.42 73.0515 6.28 73.6835 6.28C74.3155 6.28 74.8875 6.42 75.3995 6.7C75.9115 6.98 76.3155 7.38 76.6115 7.9C76.9075 8.42 77.0555 9.016 77.0555 9.688C77.0555 10.36 76.9035 10.956 76.5995 11.476C76.2955 11.996 75.8795 12.4 75.3515 12.688C74.8315 12.968 74.2555 13.108 73.6235 13.108ZM73.6235 11.92C73.9755 11.92 74.3035 11.836 74.6075 11.668C74.9195 11.5 75.1715 11.248 75.3635 10.912C75.5555 10.576 75.6515 10.168 75.6515 9.688C75.6515 9.208 75.5595 8.804 75.3755 8.476C75.1915 8.14 74.9475 7.888 74.6435 7.72C74.3395 7.552 74.0115 7.468 73.6595 7.468C73.3075 7.468 72.9795 7.552 72.6755 7.72C72.3795 7.888 72.1435 8.14 71.9675 8.476C71.7915 8.804 71.7035 9.208 71.7035 9.688C71.7035 10.4 71.8835 10.952 72.2435 11.344C72.6115 11.728 73.0715 11.92 73.6235 11.92ZM79.7758 7.348C79.9758 7.012 80.2398 6.752 80.5678 6.568C80.9038 6.376 81.2998 6.28 81.7558 6.28V7.696H81.4078C80.8718 7.696 80.4638 7.832 80.1838 8.104C79.9118 8.376 79.7758 8.848 79.7758 9.52V13H78.4078V6.388H79.7758V7.348ZM89.0733 9.532C89.0733 9.78 89.0573 10.004 89.0253 10.204H83.9733C84.0133 10.732 84.2093 11.156 84.5613 11.476C84.9133 11.796 85.3453 11.956 85.8573 11.956C86.5933 11.956 87.1133 11.648 87.4173 11.032H88.8933C88.6933 11.64 88.3293 12.14 87.8013 12.532C87.2813 12.916 86.6333 13.108 85.8573 13.108C85.2253 13.108 84.6573 12.968 84.1533 12.688C83.6573 12.4 83.2653 12 82.9773 11.488C82.6973 10.968 82.5573 10.368 82.5573 9.688C82.5573 9.008 82.6933 8.412 82.9653 7.9C83.2453 7.38 83.6333 6.98 84.1293 6.7C84.6333 6.42 85.2093 6.28 85.8573 6.28C86.4813 6.28 87.0373 6.416 87.5253 6.688C88.0133 6.96 88.3933 7.344 88.6653 7.84C88.9373 8.328 89.0733 8.892 89.0733 9.532ZM87.6453 9.1C87.6373 8.596 87.4573 8.192 87.1053 7.888C86.7533 7.584 86.3173 7.432 85.7973 7.432C85.3253 7.432 84.9213 7.584 84.5853 7.888C84.2493 8.184 84.0493 8.588 83.9853 9.1H87.6453ZM91.7875 7.348C91.9875 7.012 92.2515 6.752 92.5795 6.568C92.9155 6.376 93.3115 6.28 93.7675 6.28V7.696H93.4195C92.8835 7.696 92.4755 7.832 92.1955 8.104C91.9235 8.376 91.7875 8.848 91.7875 9.52V13H90.4195V6.388H91.7875V7.348ZM96.741 4.66L96.585 10.48H95.445L95.289 4.66H96.741ZM96.057 13.084C95.809 13.084 95.601 13 95.433 12.832C95.265 12.664 95.181 12.456 95.181 12.208C95.181 11.96 95.265 11.752 95.433 11.584C95.601 11.416 95.809 11.332 96.057 11.332C96.297 11.332 96.501 11.416 96.669 11.584C96.837 11.752 96.921 11.96 96.921 12.208C96.921 12.456 96.837 12.664 96.669 12.832C96.501 13 96.297 13.084 96.057 13.084Z" fill="black"/>
</svg>
