<svg width="132" height="132" viewBox="0 0 132 132" fill="none" xmlns="http://www.w3.org/2000/svg">
<path d="M4.15906 123.384L2.39106 126.728V129H2.03106V126.728L0.247063 123.384H0.655063L2.20706 126.392L3.75106 123.384H4.15906ZM6.93519 129.064C6.52985 129.064 6.16452 128.973 5.83919 128.792C5.51385 128.611 5.25785 128.352 5.07119 128.016C4.88985 127.675 4.79919 127.277 4.79919 126.824C4.79919 126.376 4.89252 125.984 5.07919 125.648C5.26585 125.307 5.52185 125.048 5.84719 124.872C6.17785 124.691 6.54585 124.6 6.95119 124.6C7.35652 124.6 7.72185 124.691 8.04719 124.872C8.37252 125.048 8.62585 125.304 8.80719 125.64C8.99385 125.976 9.08719 126.371 9.08719 126.824C9.08719 127.277 8.99385 127.675 8.80719 128.016C8.62052 128.352 8.36185 128.611 8.03119 128.792C7.70585 128.973 7.34052 129.064 6.93519 129.064ZM6.93519 128.744C7.24985 128.744 7.54319 128.675 7.81519 128.536C8.09252 128.392 8.31385 128.176 8.47919 127.888C8.64452 127.6 8.72719 127.245 8.72719 126.824C8.72719 126.408 8.64452 126.056 8.47919 125.768C8.31385 125.48 8.09519 125.267 7.82319 125.128C7.55119 124.984 7.25785 124.912 6.94319 124.912C6.62852 124.912 6.33519 124.984 6.06319 125.128C5.79652 125.267 5.58052 125.48 5.41519 125.768C5.24985 126.056 5.16719 126.408 5.16719 126.824C5.16719 127.245 5.24719 127.6 5.40719 127.888C5.57252 128.176 5.78852 128.392 6.05519 128.536C6.32719 128.675 6.62052 128.744 6.93519 128.744ZM13.8514 124.656V129H13.4914V128.056C13.3688 128.387 13.1634 128.64 12.8754 128.816C12.5928 128.987 12.2674 129.072 11.8994 129.072C11.3821 129.072 10.9581 128.915 10.6274 128.6C10.3021 128.28 10.1394 127.808 10.1394 127.184V124.656H10.4914V127.16C10.4914 127.677 10.6221 128.075 10.8834 128.352C11.1448 128.624 11.4994 128.76 11.9474 128.76C12.4168 128.76 12.7901 128.611 13.0674 128.312C13.3501 128.013 13.4914 127.571 13.4914 126.984V124.656H13.8514ZM17.6616 123.688C17.5763 123.688 17.5043 123.661 17.4456 123.608C17.387 123.549 17.3576 123.472 17.3576 123.376C17.3576 123.285 17.387 123.211 17.4456 123.152C17.5043 123.093 17.5763 123.064 17.6616 123.064C17.747 123.064 17.819 123.093 17.8776 123.152C17.9416 123.211 17.9736 123.285 17.9736 123.376C17.9736 123.467 17.9416 123.541 17.8776 123.6C17.819 123.659 17.747 123.688 17.6616 123.688ZM17.8456 130.12C17.8456 130.429 17.7683 130.661 17.6136 130.816C17.4643 130.971 17.2243 131.048 16.8936 131.048H16.5576V130.728H16.8536C17.0776 130.728 17.2376 130.68 17.3336 130.584C17.435 130.493 17.4856 130.328 17.4856 130.088V124.656H17.8456V130.12ZM22.828 124.656V129H22.468V128.056C22.3453 128.387 22.14 128.64 21.852 128.816C21.5693 128.987 21.244 129.072 20.876 129.072C20.3587 129.072 19.9347 128.915 19.604 128.6C19.2787 128.28 19.116 127.808 19.116 127.184V124.656H19.468V127.16C19.468 127.677 19.5987 128.075 19.86 128.352C20.1213 128.624 20.476 128.76 20.924 128.76C21.3933 128.76 21.7667 128.611 22.044 128.312C22.3267 128.013 22.468 127.571 22.468 126.984V124.656H22.828ZM25.5884 129.064C25.103 129.064 24.7057 128.957 24.3964 128.744C24.0924 128.531 23.9217 128.227 23.8844 127.832H24.2524C24.279 128.115 24.407 128.339 24.6364 128.504C24.871 128.669 25.1884 128.752 25.5884 128.752C25.919 128.752 26.1804 128.669 26.3724 128.504C26.5697 128.333 26.6684 128.125 26.6684 127.88C26.6684 127.709 26.615 127.571 26.5084 127.464C26.407 127.352 26.279 127.267 26.1244 127.208C25.9697 127.149 25.759 127.085 25.4924 127.016C25.1724 126.931 24.9137 126.848 24.7164 126.768C24.519 126.683 24.351 126.557 24.2124 126.392C24.0737 126.227 24.0044 126.005 24.0044 125.728C24.0044 125.525 24.0657 125.339 24.1884 125.168C24.311 124.992 24.4817 124.853 24.7004 124.752C24.919 124.651 25.167 124.6 25.4444 124.6C25.8977 124.6 26.263 124.715 26.5404 124.944C26.823 125.168 26.975 125.48 26.9964 125.88H26.6364C26.6204 125.592 26.5084 125.357 26.3004 125.176C26.0924 124.995 25.8044 124.904 25.4364 124.904C25.127 124.904 24.871 124.984 24.6684 125.144C24.4657 125.304 24.3644 125.499 24.3644 125.728C24.3644 125.931 24.4204 126.096 24.5324 126.224C24.6497 126.347 24.791 126.443 24.9564 126.512C25.127 126.576 25.351 126.645 25.6284 126.72C25.9324 126.8 26.175 126.88 26.3564 126.96C26.543 127.035 26.7004 127.147 26.8284 127.296C26.9564 127.44 27.0204 127.635 27.0204 127.88C27.0204 128.104 26.959 128.307 26.8364 128.488C26.7137 128.669 26.543 128.811 26.3244 128.912C26.1057 129.013 25.8604 129.064 25.5884 129.064ZM28.6529 124.968V127.84C28.6529 128.16 28.7116 128.381 28.8289 128.504C28.9463 128.621 29.1543 128.68 29.4529 128.68H29.9409V129H29.3969C29.0183 129 28.7383 128.912 28.5569 128.736C28.3809 128.555 28.2929 128.256 28.2929 127.84V124.968H27.6369V124.656H28.2929V123.552H28.6529V124.656H29.9409V124.968H28.6529ZM33.5082 125.8C33.6415 125.448 33.8682 125.16 34.1882 124.936C34.5082 124.712 34.8949 124.6 35.3482 124.6C35.7535 124.6 36.1135 124.691 36.4282 124.872C36.7482 125.053 36.9962 125.312 37.1722 125.648C37.3535 125.984 37.4442 126.376 37.4442 126.824C37.4442 127.272 37.3535 127.667 37.1722 128.008C36.9962 128.344 36.7482 128.605 36.4282 128.792C36.1135 128.973 35.7535 129.064 35.3482 129.064C34.8949 129.064 34.5055 128.952 34.1802 128.728C33.8602 128.504 33.6362 128.216 33.5082 127.864V129H33.1482V123.08H33.5082V125.8ZM37.0762 126.824C37.0762 126.429 37.0015 126.088 36.8522 125.8C36.7029 125.512 36.4922 125.293 36.2202 125.144C35.9535 124.989 35.6442 124.912 35.2922 124.912C34.9562 124.912 34.6522 124.992 34.3802 125.152C34.1082 125.307 33.8949 125.531 33.7402 125.824C33.5855 126.112 33.5082 126.445 33.5082 126.824C33.5082 127.208 33.5855 127.547 33.7402 127.84C33.8949 128.128 34.1082 128.352 34.3802 128.512C34.6522 128.667 34.9562 128.744 35.2922 128.744C35.6442 128.744 35.9535 128.667 36.2202 128.512C36.4922 128.357 36.7029 128.136 36.8522 127.848C37.0015 127.56 37.0762 127.219 37.0762 126.824ZM42.443 126.536C42.443 126.728 42.4377 126.872 42.427 126.968H38.675C38.6857 127.357 38.771 127.685 38.931 127.952C39.091 128.219 39.3017 128.419 39.563 128.552C39.8243 128.685 40.1097 128.752 40.419 128.752C40.8457 128.752 41.203 128.648 41.491 128.44C41.779 128.227 41.9603 127.939 42.035 127.576H42.411C42.3257 128.019 42.107 128.379 41.755 128.656C41.403 128.928 40.9577 129.064 40.419 129.064C40.0137 129.064 39.651 128.973 39.331 128.792C39.011 128.611 38.7603 128.352 38.579 128.016C38.3977 127.675 38.307 127.277 38.307 126.824C38.307 126.371 38.395 125.976 38.571 125.64C38.7523 125.304 39.003 125.048 39.323 124.872C39.643 124.691 40.0083 124.6 40.419 124.6C40.835 124.6 41.195 124.691 41.499 124.872C41.8083 125.048 42.043 125.285 42.203 125.584C42.363 125.877 42.443 126.195 42.443 126.536ZM42.083 126.672C42.099 126.288 42.0297 125.963 41.875 125.696C41.7257 125.429 41.5203 125.232 41.259 125.104C40.9977 124.971 40.715 124.904 40.411 124.904C40.107 124.904 39.8243 124.971 39.563 125.104C39.307 125.232 39.0963 125.429 38.931 125.696C38.771 125.963 38.6857 126.288 38.675 126.672H42.083ZM45.403 124.6C45.8617 124.6 46.251 124.712 46.571 124.936C46.891 125.155 47.115 125.437 47.243 125.784V124.656H47.603V129.136C47.603 129.536 47.515 129.885 47.339 130.184C47.163 130.488 46.9257 130.72 46.627 130.88C46.3283 131.045 45.995 131.128 45.627 131.128C45.083 131.128 44.6323 130.997 44.275 130.736C43.9177 130.475 43.683 130.123 43.571 129.68H43.931C44.0377 130.027 44.2377 130.301 44.531 130.504C44.8243 130.712 45.1897 130.816 45.627 130.816C45.931 130.816 46.2057 130.747 46.451 130.608C46.6963 130.475 46.8883 130.28 47.027 130.024C47.171 129.773 47.243 129.477 47.243 129.136V127.864C47.115 128.211 46.8883 128.499 46.563 128.728C46.243 128.952 45.8563 129.064 45.403 129.064C44.9977 129.064 44.635 128.973 44.315 128.792C44.0003 128.605 43.7523 128.344 43.571 128.008C43.395 127.667 43.307 127.272 43.307 126.824C43.307 126.376 43.395 125.984 43.571 125.648C43.7523 125.312 44.0003 125.053 44.315 124.872C44.635 124.691 44.9977 124.6 45.403 124.6ZM47.243 126.824C47.243 126.445 47.163 126.112 47.003 125.824C46.8483 125.531 46.635 125.307 46.363 125.152C46.091 124.992 45.787 124.912 45.451 124.912C45.099 124.912 44.7897 124.989 44.523 125.144C44.2563 125.293 44.0483 125.512 43.899 125.8C43.7497 126.088 43.675 126.429 43.675 126.824C43.675 127.219 43.7497 127.56 43.899 127.848C44.0483 128.136 44.2563 128.357 44.523 128.512C44.795 128.667 45.1043 128.744 45.451 128.744C45.787 128.744 46.091 128.667 46.363 128.512C46.6403 128.352 46.8563 128.128 47.011 127.84C47.1657 127.547 47.243 127.208 47.243 126.824ZM48.6898 126.824C48.6898 126.376 48.7778 125.984 48.9538 125.648C49.1351 125.312 49.3831 125.053 49.6978 124.872C50.0178 124.691 50.3805 124.6 50.7858 124.6C51.2445 124.6 51.6338 124.712 51.9538 124.936C52.2738 125.16 52.4978 125.445 52.6258 125.792V124.656H52.9858V129H52.6258V127.856C52.4978 128.208 52.2711 128.499 51.9458 128.728C51.6258 128.952 51.2391 129.064 50.7858 129.064C50.3805 129.064 50.0178 128.973 49.6978 128.792C49.3831 128.605 49.1351 128.344 48.9538 128.008C48.7778 127.667 48.6898 127.272 48.6898 126.824ZM52.6258 126.824C52.6258 126.445 52.5458 126.112 52.3858 125.824C52.2311 125.531 52.0178 125.307 51.7458 125.152C51.4738 124.992 51.1698 124.912 50.8338 124.912C50.4818 124.912 50.1725 124.989 49.9058 125.144C49.6391 125.293 49.4311 125.512 49.2818 125.8C49.1325 126.088 49.0578 126.429 49.0578 126.824C49.0578 127.219 49.1325 127.56 49.2818 127.848C49.4311 128.136 49.6391 128.357 49.9058 128.512C50.1778 128.667 50.4871 128.744 50.8338 128.744C51.1698 128.744 51.4738 128.667 51.7458 128.512C52.0231 128.352 52.2391 128.128 52.3938 127.84C52.5485 127.547 52.6258 127.208 52.6258 126.824ZM56.2566 124.568C56.774 124.568 57.1953 124.728 57.5206 125.048C57.846 125.363 58.0086 125.832 58.0086 126.456V129H57.6566V126.48C57.6566 125.963 57.526 125.568 57.2646 125.296C57.0033 125.019 56.6486 124.88 56.2006 124.88C55.7313 124.88 55.3553 125.029 55.0726 125.328C54.7953 125.627 54.6566 126.069 54.6566 126.656V129H54.2966V124.656H54.6566V125.576C54.7793 125.251 54.982 125.003 55.2646 124.832C55.5526 124.656 55.8833 124.568 56.2566 124.568ZM64.9308 124.656L62.4028 131.04H62.0348L62.8428 129L61.0188 124.656H61.4108L63.0428 128.6L64.5628 124.656H64.9308ZM67.6461 129.064C67.2408 129.064 66.8755 128.973 66.5501 128.792C66.2248 128.611 65.9688 128.352 65.7821 128.016C65.6008 127.675 65.5101 127.277 65.5101 126.824C65.5101 126.376 65.6035 125.984 65.7901 125.648C65.9768 125.307 66.2328 125.048 66.5581 124.872C66.8888 124.691 67.2568 124.6 67.6621 124.6C68.0675 124.6 68.4328 124.691 68.7581 124.872C69.0835 125.048 69.3368 125.304 69.5181 125.64C69.7048 125.976 69.7981 126.371 69.7981 126.824C69.7981 127.277 69.7048 127.675 69.5181 128.016C69.3315 128.352 69.0728 128.611 68.7421 128.792C68.4168 128.973 68.0515 129.064 67.6461 129.064ZM67.6461 128.744C67.9608 128.744 68.2541 128.675 68.5261 128.536C68.8035 128.392 69.0248 128.176 69.1901 127.888C69.3555 127.6 69.4381 127.245 69.4381 126.824C69.4381 126.408 69.3555 126.056 69.1901 125.768C69.0248 125.48 68.8061 125.267 68.5341 125.128C68.2621 124.984 67.9688 124.912 67.6541 124.912C67.3395 124.912 67.0461 124.984 66.7741 125.128C66.5075 125.267 66.2915 125.48 66.1261 125.768C65.9608 126.056 65.8781 126.408 65.8781 126.824C65.8781 127.245 65.9581 127.6 66.1181 127.888C66.2835 128.176 66.4995 128.392 66.7661 128.536C67.0381 128.675 67.3315 128.744 67.6461 128.744ZM74.5624 124.656V129H74.2024V128.056C74.0797 128.387 73.8744 128.64 73.5864 128.816C73.3037 128.987 72.9784 129.072 72.6104 129.072C72.093 129.072 71.669 128.915 71.3384 128.6C71.013 128.28 70.8504 127.808 70.8504 127.184V124.656H71.2024V127.16C71.2024 127.677 71.333 128.075 71.5944 128.352C71.8557 128.624 72.2104 128.76 72.6584 128.76C73.1277 128.76 73.501 128.611 73.7784 128.312C74.061 128.013 74.2024 127.571 74.2024 126.984V124.656H74.5624ZM76.2348 125.552C76.3414 125.232 76.5308 124.989 76.8028 124.824C77.0748 124.653 77.4214 124.568 77.8428 124.568V124.944H77.7228C77.2961 124.944 76.9414 125.067 76.6588 125.312C76.3761 125.552 76.2348 125.947 76.2348 126.496V129H75.8748V124.656H76.2348V125.552ZM84.8414 126.536C84.8414 126.728 84.8361 126.872 84.8254 126.968H81.0734C81.0841 127.357 81.1694 127.685 81.3294 127.952C81.4894 128.219 81.7001 128.419 81.9614 128.552C82.2228 128.685 82.5081 128.752 82.8174 128.752C83.2441 128.752 83.6014 128.648 83.8894 128.44C84.1774 128.227 84.3588 127.939 84.4334 127.576H84.8094C84.7241 128.019 84.5054 128.379 84.1534 128.656C83.8014 128.928 83.3561 129.064 82.8174 129.064C82.4121 129.064 82.0494 128.973 81.7294 128.792C81.4094 128.611 81.1588 128.352 80.9774 128.016C80.7961 127.675 80.7054 127.277 80.7054 126.824C80.7054 126.371 80.7934 125.976 80.9694 125.64C81.1508 125.304 81.4014 125.048 81.7214 124.872C82.0414 124.691 82.4068 124.6 82.8174 124.6C83.2334 124.6 83.5934 124.691 83.8974 124.872C84.2068 125.048 84.4414 125.285 84.6014 125.584C84.7614 125.877 84.8414 126.195 84.8414 126.536ZM84.4814 126.672C84.4974 126.288 84.4281 125.963 84.2734 125.696C84.1241 125.429 83.9188 125.232 83.6574 125.104C83.3961 124.971 83.1134 124.904 82.8094 124.904C82.5054 124.904 82.2228 124.971 81.9614 125.104C81.7054 125.232 81.4948 125.429 81.3294 125.696C81.1694 125.963 81.0841 126.288 81.0734 126.672H84.4814ZM85.7054 126.824C85.7054 126.371 85.7934 125.976 85.9694 125.64C86.1508 125.304 86.3988 125.048 86.7134 124.872C87.0334 124.691 87.3988 124.6 87.8094 124.6C88.3534 124.6 88.7988 124.736 89.1454 125.008C89.4974 125.28 89.7161 125.645 89.8014 126.104H89.4254C89.3561 125.731 89.1748 125.437 88.8814 125.224C88.5934 125.011 88.2361 124.904 87.8094 124.904C87.4894 124.904 87.1988 124.976 86.9374 125.12C86.6761 125.259 86.4654 125.475 86.3054 125.768C86.1508 126.056 86.0734 126.408 86.0734 126.824C86.0734 127.245 86.1508 127.6 86.3054 127.888C86.4654 128.176 86.6761 128.392 86.9374 128.536C87.1988 128.68 87.4894 128.752 87.8094 128.752C88.2361 128.752 88.5934 128.645 88.8814 128.432C89.1748 128.219 89.3561 127.925 89.4254 127.552H89.8014C89.7161 128.005 89.4974 128.371 89.1454 128.648C88.7934 128.925 88.3481 129.064 87.8094 129.064C87.3988 129.064 87.0334 128.973 86.7134 128.792C86.3988 128.611 86.1508 128.352 85.9694 128.016C85.7934 127.675 85.7054 127.277 85.7054 126.824ZM92.8102 129.064C92.4049 129.064 92.0395 128.973 91.7142 128.792C91.3889 128.611 91.1329 128.352 90.9462 128.016C90.7649 127.675 90.6742 127.277 90.6742 126.824C90.6742 126.376 90.7675 125.984 90.9542 125.648C91.1409 125.307 91.3969 125.048 91.7222 124.872C92.0529 124.691 92.4209 124.6 92.8262 124.6C93.2315 124.6 93.5969 124.691 93.9222 124.872C94.2475 125.048 94.5009 125.304 94.6822 125.64C94.8689 125.976 94.9622 126.371 94.9622 126.824C94.9622 127.277 94.8689 127.675 94.6822 128.016C94.4955 128.352 94.2369 128.611 93.9062 128.792C93.5809 128.973 93.2155 129.064 92.8102 129.064ZM92.8102 128.744C93.1249 128.744 93.4182 128.675 93.6902 128.536C93.9675 128.392 94.1889 128.176 94.3542 127.888C94.5195 127.6 94.6022 127.245 94.6022 126.824C94.6022 126.408 94.5195 126.056 94.3542 125.768C94.1889 125.48 93.9702 125.267 93.6982 125.128C93.4262 124.984 93.1329 124.912 92.8182 124.912C92.5035 124.912 92.2102 124.984 91.9382 125.128C91.6715 125.267 91.4555 125.48 91.2902 125.768C91.1249 126.056 91.0422 126.408 91.0422 126.824C91.0422 127.245 91.1222 127.6 91.2822 127.888C91.4475 128.176 91.6635 128.392 91.9302 128.536C92.2022 128.675 92.4955 128.744 92.8102 128.744ZM98.3904 125.84V126.152H95.3824V125.84H98.3904ZM100.154 123.688C100.068 123.688 99.9965 123.661 99.9378 123.608C99.8791 123.549 99.8498 123.472 99.8498 123.376C99.8498 123.285 99.8791 123.211 99.9378 123.152C99.9965 123.093 100.068 123.064 100.154 123.064C100.239 123.064 100.311 123.093 100.37 123.152C100.434 123.211 100.466 123.285 100.466 123.376C100.466 123.467 100.434 123.541 100.37 123.6C100.311 123.659 100.239 123.688 100.154 123.688ZM100.338 130.12C100.338 130.429 100.26 130.661 100.106 130.816C99.9565 130.971 99.7165 131.048 99.3858 131.048H99.0498V130.728H99.3458C99.5698 130.728 99.7298 130.68 99.8258 130.584C99.9271 130.493 99.9778 130.328 99.9778 130.088V124.656H100.338V130.12ZM103.56 129.064C103.155 129.064 102.79 128.973 102.464 128.792C102.139 128.611 101.883 128.352 101.696 128.016C101.515 127.675 101.424 127.277 101.424 126.824C101.424 126.376 101.518 125.984 101.704 125.648C101.891 125.307 102.147 125.048 102.472 124.872C102.803 124.691 103.171 124.6 103.576 124.6C103.982 124.6 104.347 124.691 104.672 124.872C104.998 125.048 105.251 125.304 105.432 125.64C105.619 125.976 105.712 126.371 105.712 126.824C105.712 127.277 105.619 127.675 105.432 128.016C105.246 128.352 104.987 128.611 104.656 128.792C104.331 128.973 103.966 129.064 103.56 129.064ZM103.56 128.744C103.875 128.744 104.168 128.675 104.44 128.536C104.718 128.392 104.939 128.176 105.104 127.888C105.27 127.6 105.352 127.245 105.352 126.824C105.352 126.408 105.27 126.056 105.104 125.768C104.939 125.48 104.72 125.267 104.448 125.128C104.176 124.984 103.883 124.912 103.568 124.912C103.254 124.912 102.96 124.984 102.688 125.128C102.422 125.267 102.206 125.48 102.04 125.768C101.875 126.056 101.792 126.408 101.792 126.824C101.792 127.245 101.872 127.6 102.032 127.888C102.198 128.176 102.414 128.392 102.68 128.536C102.952 128.675 103.246 128.744 103.56 128.744ZM110.476 124.656V129H110.116V128.056C109.994 128.387 109.788 128.64 109.5 128.816C109.218 128.987 108.892 129.072 108.524 129.072C108.007 129.072 107.583 128.915 107.252 128.6C106.927 128.28 106.764 127.808 106.764 127.184V124.656H107.116V127.16C107.116 127.677 107.247 128.075 107.508 128.352C107.77 128.624 108.124 128.76 108.572 128.76C109.042 128.76 109.415 128.611 109.692 128.312C109.975 128.013 110.116 127.571 110.116 126.984V124.656H110.476ZM112.149 125.552C112.255 125.232 112.445 124.989 112.717 124.824C112.989 124.653 113.335 124.568 113.757 124.568V124.944H113.637C113.21 124.944 112.855 125.067 112.573 125.312C112.29 125.552 112.149 125.947 112.149 126.496V129H111.789V124.656H112.149V125.552ZM116.546 124.568C117.063 124.568 117.484 124.728 117.81 125.048C118.135 125.363 118.298 125.832 118.298 126.456V129H117.946V126.48C117.946 125.963 117.815 125.568 117.554 125.296C117.292 125.019 116.938 124.88 116.49 124.88C116.02 124.88 115.644 125.029 115.362 125.328C115.084 125.627 114.946 126.069 114.946 126.656V129H114.586V124.656H114.946V125.576C115.068 125.251 115.271 125.003 115.554 124.832C115.842 124.656 116.172 124.568 116.546 124.568ZM123.482 126.536C123.482 126.728 123.477 126.872 123.466 126.968H119.714C119.725 127.357 119.81 127.685 119.97 127.952C120.13 128.219 120.341 128.419 120.602 128.552C120.863 128.685 121.149 128.752 121.458 128.752C121.885 128.752 122.242 128.648 122.53 128.44C122.818 128.227 122.999 127.939 123.074 127.576H123.45C123.365 128.019 123.146 128.379 122.794 128.656C122.442 128.928 121.997 129.064 121.458 129.064C121.053 129.064 120.69 128.973 120.37 128.792C120.05 128.611 119.799 128.352 119.618 128.016C119.437 127.675 119.346 127.277 119.346 126.824C119.346 126.371 119.434 125.976 119.61 125.64C119.791 125.304 120.042 125.048 120.362 124.872C120.682 124.691 121.047 124.6 121.458 124.6C121.874 124.6 122.234 124.691 122.538 124.872C122.847 125.048 123.082 125.285 123.242 125.584C123.402 125.877 123.482 126.195 123.482 126.536ZM123.122 126.672C123.138 126.288 123.069 125.963 122.914 125.696C122.765 125.429 122.559 125.232 122.298 125.104C122.037 124.971 121.754 124.904 121.45 124.904C121.146 124.904 120.863 124.971 120.602 125.104C120.346 125.232 120.135 125.429 119.97 125.696C119.81 125.963 119.725 126.288 119.714 126.672H123.122ZM127.962 124.656L125.434 131.04H125.066L125.874 129L124.05 124.656H124.442L126.074 128.6L127.594 124.656H127.962ZM129.293 123.384L129.253 127.632H128.941L128.893 123.384H129.293ZM129.117 129.024C129.027 129.024 128.952 128.995 128.893 128.936C128.835 128.877 128.805 128.803 128.805 128.712C128.805 128.621 128.835 128.547 128.893 128.488C128.952 128.429 129.027 128.4 129.117 128.4C129.203 128.4 129.275 128.429 129.333 128.488C129.392 128.547 129.421 128.621 129.421 128.712C129.421 128.803 129.392 128.877 129.333 128.936C129.275 128.995 129.203 129.024 129.117 129.024ZM130.829 122.648L130.757 124.136H130.501L130.421 122.648H130.829ZM131.645 122.648L131.581 124.136H131.317L131.245 122.648H131.645Z" fill="black"/>
<path d="M18.3863 13L16.4663 9.664H15.4223V13H14.0543V4.66H16.9343C17.5743 4.66 18.1143 4.772 18.5543 4.996C19.0023 5.22 19.3343 5.52 19.5503 5.896C19.7743 6.272 19.8863 6.692 19.8863 7.156C19.8863 7.7 19.7263 8.196 19.4063 8.644C19.0943 9.084 18.6103 9.384 17.9543 9.544L20.0183 13H18.3863ZM15.4223 8.572H16.9343C17.4463 8.572 17.8303 8.444 18.0863 8.188C18.3503 7.932 18.4823 7.588 18.4823 7.156C18.4823 6.724 18.3543 6.388 18.0983 6.148C17.8423 5.9 17.4543 5.776 16.9343 5.776H15.4223V8.572ZM27.6963 9.532C27.6963 9.78 27.6803 10.004 27.6483 10.204H22.5963C22.6363 10.732 22.8323 11.156 23.1843 11.476C23.5363 11.796 23.9683 11.956 24.4803 11.956C25.2163 11.956 25.7363 11.648 26.0403 11.032H27.5163C27.3163 11.64 26.9523 12.14 26.4243 12.532C25.9043 12.916 25.2563 13.108 24.4803 13.108C23.8483 13.108 23.2803 12.968 22.7763 12.688C22.2803 12.4 21.8883 12 21.6003 11.488C21.3203 10.968 21.1803 10.368 21.1803 9.688C21.1803 9.008 21.3163 8.412 21.5883 7.9C21.8683 7.38 22.2563 6.98 22.7523 6.7C23.2563 6.42 23.8323 6.28 24.4803 6.28C25.1043 6.28 25.6603 6.416 26.1483 6.688C26.6363 6.96 27.0163 7.344 27.2883 7.84C27.5603 8.328 27.6963 8.892 27.6963 9.532ZM26.2683 9.1C26.2603 8.596 26.0803 8.192 25.7283 7.888C25.3763 7.584 24.9403 7.432 24.4203 7.432C23.9483 7.432 23.5443 7.584 23.2083 7.888C22.8723 8.184 22.6723 8.588 22.6083 9.1H26.2683ZM28.5866 9.688C28.5866 9.008 28.7226 8.412 28.9946 7.9C29.2746 7.38 29.6586 6.98 30.1466 6.7C30.6346 6.42 31.1946 6.28 31.8266 6.28C32.6266 6.28 33.2866 6.472 33.8066 6.856C34.3346 7.232 34.6906 7.772 34.8746 8.476H33.3986C33.2786 8.148 33.0866 7.892 32.8226 7.708C32.5586 7.524 32.2266 7.432 31.8266 7.432C31.2666 7.432 30.8186 7.632 30.4826 8.032C30.1546 8.424 29.9906 8.976 29.9906 9.688C29.9906 10.4 30.1546 10.956 30.4826 11.356C30.8186 11.756 31.2666 11.956 31.8266 11.956C32.6186 11.956 33.1426 11.608 33.3986 10.912H34.8746C34.6826 11.584 34.3226 12.12 33.7946 12.52C33.2666 12.912 32.6106 13.108 31.8266 13.108C31.1946 13.108 30.6346 12.968 30.1466 12.688C29.6586 12.4 29.2746 12 28.9946 11.488C28.7226 10.968 28.5866 10.368 28.5866 9.688ZM42.1899 6.388L38.1339 16.108H36.7179L38.0619 12.892L35.4579 6.388H36.9819L38.8419 11.428L40.7739 6.388H42.1899ZM42.7663 9.688C42.7663 9.008 42.9023 8.412 43.1743 7.9C43.4543 7.38 43.8383 6.98 44.3263 6.7C44.8143 6.42 45.3743 6.28 46.0063 6.28C46.8063 6.28 47.4663 6.472 47.9863 6.856C48.5143 7.232 48.8703 7.772 49.0543 8.476H47.5783C47.4583 8.148 47.2663 7.892 47.0023 7.708C46.7383 7.524 46.4063 7.432 46.0063 7.432C45.4463 7.432 44.9983 7.632 44.6623 8.032C44.3343 8.424 44.1703 8.976 44.1703 9.688C44.1703 10.4 44.3343 10.956 44.6623 11.356C44.9983 11.756 45.4463 11.956 46.0063 11.956C46.7983 11.956 47.3223 11.608 47.5783 10.912H49.0543C48.8623 11.584 48.5023 12.12 47.9743 12.52C47.4463 12.912 46.7903 13.108 46.0063 13.108C45.3743 13.108 44.8143 12.968 44.3263 12.688C43.8383 12.4 43.4543 12 43.1743 11.488C42.9023 10.968 42.7663 10.368 42.7663 9.688ZM51.7856 4.12V13H50.4176V4.12H51.7856ZM54.2776 5.512C54.0296 5.512 53.8216 5.428 53.6536 5.26C53.4856 5.092 53.4016 4.884 53.4016 4.636C53.4016 4.388 53.4856 4.18 53.6536 4.012C53.8216 3.844 54.0296 3.76 54.2776 3.76C54.5176 3.76 54.7216 3.844 54.8896 4.012C55.0576 4.18 55.1416 4.388 55.1416 4.636C55.1416 4.884 55.0576 5.092 54.8896 5.26C54.7216 5.428 54.5176 5.512 54.2776 5.512ZM54.9496 6.388V13H53.5816V6.388H54.9496ZM60.0817 6.28C60.6017 6.28 61.0657 6.388 61.4737 6.604C61.8897 6.82 62.2137 7.14 62.4457 7.564C62.6777 7.988 62.7937 8.5 62.7937 9.1V13H61.4377V9.304C61.4377 8.712 61.2897 8.26 60.9937 7.948C60.6977 7.628 60.2937 7.468 59.7817 7.468C59.2697 7.468 58.8617 7.628 58.5577 7.948C58.2617 8.26 58.1137 8.712 58.1137 9.304V13H56.7457V6.388H58.1137V7.144C58.3377 6.872 58.6217 6.66 58.9657 6.508C59.3177 6.356 59.6897 6.28 60.0817 6.28ZM67.2027 6.28C67.7147 6.28 68.1667 6.384 68.5587 6.592C68.9587 6.792 69.2707 7.044 69.4947 7.348V6.388H70.8747V13.108C70.8747 13.716 70.7467 14.256 70.4907 14.728C70.2347 15.208 69.8627 15.584 69.3747 15.856C68.8947 16.128 68.3187 16.264 67.6467 16.264C66.7507 16.264 66.0067 16.052 65.4147 15.628C64.8227 15.212 64.4867 14.644 64.4067 13.924H65.7627C65.8667 14.268 66.0867 14.544 66.4227 14.752C66.7667 14.968 67.1747 15.076 67.6467 15.076C68.1987 15.076 68.6427 14.908 68.9787 14.572C69.3227 14.236 69.4947 13.748 69.4947 13.108V12.004C69.2627 12.316 68.9467 12.58 68.5467 12.796C68.1547 13.004 67.7067 13.108 67.2027 13.108C66.6267 13.108 66.0987 12.964 65.6187 12.676C65.1467 12.38 64.7707 11.972 64.4907 11.452C64.2187 10.924 64.0827 10.328 64.0827 9.664C64.0827 9 64.2187 8.412 64.4907 7.9C64.7707 7.388 65.1467 6.992 65.6187 6.712C66.0987 6.424 66.6267 6.28 67.2027 6.28ZM69.4947 9.688C69.4947 9.232 69.3987 8.836 69.2067 8.5C69.0227 8.164 68.7787 7.908 68.4747 7.732C68.1707 7.556 67.8427 7.468 67.4907 7.468C67.1387 7.468 66.8107 7.556 66.5067 7.732C66.2027 7.9 65.9547 8.152 65.7627 8.488C65.5787 8.816 65.4867 9.208 65.4867 9.664C65.4867 10.12 65.5787 10.52 65.7627 10.864C65.9547 11.208 66.2027 11.472 66.5067 11.656C66.8187 11.832 67.1467 11.92 67.4907 11.92C67.8427 11.92 68.1707 11.832 68.4747 11.656C68.7787 11.48 69.0227 11.224 69.2067 10.888C69.3987 10.544 69.4947 10.144 69.4947 9.688ZM80.1207 13L78.2007 9.664H77.1567V13H75.7887V4.66H78.6687C79.3087 4.66 79.8487 4.772 80.2887 4.996C80.7367 5.22 81.0687 5.52 81.2847 5.896C81.5087 6.272 81.6207 6.692 81.6207 7.156C81.6207 7.7 81.4607 8.196 81.1407 8.644C80.8287 9.084 80.3447 9.384 79.6887 9.544L81.7527 13H80.1207ZM77.1567 8.572H78.6687C79.1807 8.572 79.5647 8.444 79.8207 8.188C80.0847 7.932 80.2167 7.588 80.2167 7.156C80.2167 6.724 80.0887 6.388 79.8327 6.148C79.5767 5.9 79.1887 5.776 78.6687 5.776H77.1567V8.572ZM86.2387 13.108C85.6147 13.108 85.0507 12.968 84.5467 12.688C84.0427 12.4 83.6467 12 83.3587 11.488C83.0707 10.968 82.9267 10.368 82.9267 9.688C82.9267 9.016 83.0747 8.42 83.3707 7.9C83.6667 7.38 84.0707 6.98 84.5827 6.7C85.0947 6.42 85.6667 6.28 86.2987 6.28C86.9307 6.28 87.5027 6.42 88.0147 6.7C88.5267 6.98 88.9307 7.38 89.2267 7.9C89.5227 8.42 89.6707 9.016 89.6707 9.688C89.6707 10.36 89.5187 10.956 89.2147 11.476C88.9107 11.996 88.4947 12.4 87.9667 12.688C87.4467 12.968 86.8707 13.108 86.2387 13.108ZM86.2387 11.92C86.5907 11.92 86.9187 11.836 87.2227 11.668C87.5347 11.5 87.7867 11.248 87.9787 10.912C88.1707 10.576 88.2667 10.168 88.2667 9.688C88.2667 9.208 88.1747 8.804 87.9907 8.476C87.8067 8.14 87.5627 7.888 87.2587 7.72C86.9547 7.552 86.6267 7.468 86.2747 7.468C85.9227 7.468 85.5947 7.552 85.2907 7.72C84.9947 7.888 84.7587 8.14 84.5827 8.476C84.4067 8.804 84.3187 9.208 84.3187 9.688C84.3187 10.4 84.4987 10.952 84.8587 11.344C85.2267 11.728 85.6867 11.92 86.2387 11.92ZM93.891 13.108C93.267 13.108 92.703 12.968 92.199 12.688C91.695 12.4 91.299 12 91.011 11.488C90.723 10.968 90.579 10.368 90.579 9.688C90.579 9.016 90.727 8.42 91.023 7.9C91.319 7.38 91.723 6.98 92.235 6.7C92.747 6.42 93.319 6.28 93.951 6.28C94.583 6.28 95.155 6.42 95.667 6.7C96.179 6.98 96.583 7.38 96.879 7.9C97.175 8.42 97.323 9.016 97.323 9.688C97.323 10.36 97.171 10.956 96.867 11.476C96.563 11.996 96.147 12.4 95.619 12.688C95.099 12.968 94.523 13.108 93.891 13.108ZM93.891 11.92C94.243 11.92 94.571 11.836 94.875 11.668C95.187 11.5 95.439 11.248 95.631 10.912C95.823 10.576 95.919 10.168 95.919 9.688C95.919 9.208 95.827 8.804 95.643 8.476C95.459 8.14 95.215 7.888 94.911 7.72C94.607 7.552 94.279 7.468 93.927 7.468C93.575 7.468 93.247 7.552 92.943 7.72C92.647 7.888 92.411 8.14 92.235 8.476C92.059 8.804 91.971 9.208 91.971 9.688C91.971 10.4 92.151 10.952 92.511 11.344C92.879 11.728 93.339 11.92 93.891 11.92ZM101.291 9.7L104.339 13H102.491L100.043 10.156V13H98.6754V4.12H100.043V9.28L102.443 6.388H104.339L101.291 9.7ZM106.016 5.512C105.768 5.512 105.56 5.428 105.392 5.26C105.224 5.092 105.14 4.884 105.14 4.636C105.14 4.388 105.224 4.18 105.392 4.012C105.56 3.844 105.768 3.76 106.016 3.76C106.256 3.76 106.46 3.844 106.628 4.012C106.796 4.18 106.88 4.388 106.88 4.636C106.88 4.884 106.796 5.092 106.628 5.26C106.46 5.428 106.256 5.512 106.016 5.512ZM106.688 6.388V13H105.32V6.388H106.688ZM114.544 9.532C114.544 9.78 114.528 10.004 114.496 10.204H109.444C109.484 10.732 109.68 11.156 110.032 11.476C110.384 11.796 110.816 11.956 111.328 11.956C112.064 11.956 112.584 11.648 112.888 11.032H114.364C114.164 11.64 113.8 12.14 113.272 12.532C112.752 12.916 112.104 13.108 111.328 13.108C110.696 13.108 110.128 12.968 109.624 12.688C109.128 12.4 108.736 12 108.448 11.488C108.168 10.968 108.028 10.368 108.028 9.688C108.028 9.008 108.164 8.412 108.436 7.9C108.716 7.38 109.104 6.98 109.6 6.7C110.104 6.42 110.68 6.28 111.328 6.28C111.952 6.28 112.508 6.416 112.996 6.688C113.484 6.96 113.864 7.344 114.136 7.84C114.408 8.328 114.544 8.892 114.544 9.532ZM113.116 9.1C113.108 8.596 112.928 8.192 112.576 7.888C112.224 7.584 111.788 7.432 111.268 7.432C110.796 7.432 110.392 7.584 110.056 7.888C109.72 8.184 109.52 8.588 109.456 9.1H113.116ZM117.606 4.66L117.45 10.48H116.31L116.154 4.66H117.606ZM116.922 13.084C116.674 13.084 116.466 13 116.298 12.832C116.13 12.664 116.046 12.456 116.046 12.208C116.046 11.96 116.13 11.752 116.298 11.584C116.466 11.416 116.674 11.332 116.922 11.332C117.162 11.332 117.366 11.416 117.534 11.584C117.702 11.752 117.786 11.96 117.786 12.208C117.786 12.456 117.702 12.664 117.534 12.832C117.366 13 117.162 13.084 116.922 13.084Z" fill="black"/>
<path fill-rule="evenodd" clip-rule="evenodd" d="M58.3808 87.0204C58.4109 87.0722 58.4402 87.125 58.4699 87.1783C58.4753 87.1881 58.4809 87.1978 58.4864 87.2076C58.4963 87.225 58.5062 87.2424 58.5158 87.2601C58.5076 87.2454 58.4974 87.2273 58.4864 87.2076C58.4809 87.1978 58.4753 87.1881 58.4699 87.1783C58.4325 87.1117 58.3912 87.0384 58.3808 87.0204Z" fill="#54720A"/>
<path fill-rule="evenodd" clip-rule="evenodd" d="M40.0041 100.464C39.9737 100.466 39.8081 100.472 39.7292 100.475C39.822 100.473 39.9137 100.469 40.0041 100.464Z" fill="#618509"/>
<path fill-rule="evenodd" clip-rule="evenodd" d="M37.8031 76.3957C37.8185 76.3694 37.9039 76.2275 37.9448 76.1599C37.8958 76.2388 37.8486 76.3175 37.8031 76.3957Z" fill="#618509"/>
<path fill-rule="evenodd" clip-rule="evenodd" d="M75.3026 66.6346C73.8881 64.8044 70.6531 61.2546 69.0295 61.6974V60.2214C69.7588 59.9817 71.7023 60.1276 73.6421 62.6293C72.619 59.3229 72.3675 55.6152 75.3026 54.5018C77.7649 53.5679 78.2694 56.1709 77.9962 59.4521C78.2718 57.3606 81.3583 55.8955 82.8672 55.4244C82.8672 54.3427 81.916 53.5781 80.943 52.796C80.2563 52.244 79.5588 51.6833 79.1771 50.9963C78.6893 50.1183 79.2332 48.9824 79.7178 47.9704C80.1496 47.0684 80.5344 46.265 80.0996 45.8303C79.7243 45.4549 79.4405 45.7821 79.0434 46.2401C78.4644 46.9078 77.6445 47.8534 75.9483 47.3063C73.9656 46.6667 74.4218 45.761 74.8881 44.8353C75.0943 44.4258 75.3026 44.0123 75.3026 43.6162C75.3026 42.992 74.9147 42.454 74.5139 41.8981C74.0854 41.3037 73.6421 40.6888 73.6421 39.9262C73.6421 38.9422 72.7401 38.9422 71.756 38.9422C71.264 38.9422 70.7515 38.9422 70.321 38.8192C69.6056 38.6148 69.796 38.0141 69.9828 37.4248C70.1332 36.9503 70.2812 36.4831 69.952 36.2362C69.7336 36.0723 69.3697 36.0055 68.9608 35.9304C67.9882 35.7517 66.7609 35.5263 66.631 33.8376C66.457 31.5751 68.7455 30.9543 69.0056 31.5106C67.4403 24.3894 56.702 24.2264 51.5018 25.0417C50.0895 26.7555 48.9188 28.4725 48.9188 29.4096C48.9188 30.7147 48.2778 31.1222 47.5624 31.577C47.0642 31.8938 46.53 32.2334 46.1513 32.9151C45.7882 33.5686 45.7967 34.4508 45.8055 35.3703C45.819 36.7873 45.8334 38.2931 44.4908 39.1882C43.8726 39.6003 42.636 40.0124 41.1946 40.4928C37.4733 41.7329 32.3867 43.428 33.0517 46.7528C33.5309 49.1488 35.0556 50.0015 36.4104 50.7591C37.6635 51.4599 38.7712 52.0793 38.7712 53.7638C38.7712 56.0464 37.8326 56.8427 37.0248 57.528C36.592 57.8951 36.1968 58.2304 36.0037 58.7454C35.8865 59.0578 35.7694 59.4988 35.6348 60.0058C35.1333 61.8941 34.3891 64.6963 32.4982 65.1636L73.6421 66.5775L75.3026 66.6346ZM63.1255 34.7601C62.3875 33.4317 63.679 32.8536 64.417 32.7306C66.4465 32.7306 65.7085 35.1292 65.524 35.4982C65.3395 35.8672 64.048 36.4207 63.1255 34.7601ZM40.0627 60.0369C38.5867 58.1181 40.4317 57.1464 41.5387 56.9004C42.0923 56.7326 42.6458 56.9004 42.6458 58.9299C42.6458 60.5535 40.9237 60.3444 40.0627 60.0369Z" fill="#ADDEE2"/>
<path d="M19.0295 81.6236C16.5203 83.0996 18.6486 85.3136 20.0265 86.2362L20.2249 84.7601C20.2603 84.4968 20.785 84.5094 21.3651 84.5234C22.0044 84.5387 22.711 84.5557 22.9041 84.2066C23.4142 83.2841 23.5444 82.6783 23.1709 82.1771C22.4798 81.2497 21.0657 80.4259 19.0295 81.6236Z" fill="#ADDEE2"/>
<path d="M71.6125 32.9151C70.7515 32.7306 69.0295 32.214 69.0295 31.6236C69.0263 31.6076 69.0229 31.5917 69.0196 31.5758C69.015 31.554 69.0103 31.5323 69.0056 31.5106C68.7455 30.9543 66.457 31.5751 66.631 33.8376C66.7609 35.5263 67.9882 35.7517 68.9608 35.9304C69.3697 36.0055 69.7336 36.0723 69.952 36.2362C70.2812 36.4831 70.1332 36.9503 69.9828 37.4248C69.796 38.0141 69.6056 38.6148 70.321 38.8192C70.7515 38.9422 71.264 38.9422 71.756 38.9422C72.7401 38.9422 73.6421 38.9422 73.6421 39.9262C73.6421 40.6888 74.0854 41.3037 74.5139 41.8981C74.9147 42.454 75.3026 42.992 75.3026 43.6162C75.3026 44.0123 75.0943 44.4258 74.8881 44.8353C74.4218 45.761 73.9656 46.6667 75.9483 47.3063C77.6445 47.8534 78.4644 46.9078 79.0434 46.2401C79.4405 45.7821 79.7243 45.4549 80.0996 45.8303C80.5344 46.265 80.1496 47.0684 79.7178 47.9704C79.2332 48.9824 78.6893 50.1183 79.1771 50.9963C79.5588 51.6833 80.2563 52.244 80.943 52.796C81.916 53.5781 82.8672 54.3427 82.8672 55.4244C84.1587 54.8708 86.7417 53.3579 86.7417 51.7343C86.7417 50.8597 87.3242 49.6424 87.9576 48.3187C88.794 46.5709 89.7192 44.6376 89.5092 43.0627C89.249 41.1112 87.9796 40.3523 86.8655 39.6863C86.3997 39.4078 85.9611 39.1456 85.6347 38.8192C84.9052 38.0897 83.615 37.6807 82.5031 37.3282C81.9275 37.1458 81.3997 36.9785 81.0221 36.7897C80.4971 36.5271 80.3871 35.6004 80.259 34.5215C80.1171 33.3257 79.953 31.943 79.1771 31.0701C77.9963 29.7417 73.6421 31.7466 71.6125 32.9151Z" fill="#4EB6B7"/>
<path d="M64.417 32.7306C63.679 32.8536 62.3875 33.4317 63.1255 34.7601C64.048 36.4207 65.3395 35.8672 65.524 35.4982C65.7085 35.1292 66.4465 32.7306 64.417 32.7306Z" fill="#4EB6B7"/>
<path d="M41.5387 56.9004C40.4317 57.1464 38.5867 58.1181 40.0627 60.0369C40.9237 60.3444 42.6458 60.5535 42.6458 58.9299C42.6458 56.9004 42.0923 56.7326 41.5387 56.9004Z" fill="#4EB6B7"/>
<path d="M48.9188 29.4096C48.9188 28.4725 50.0895 26.7555 51.5018 25.0417C40.9852 25.9041 24.7491 49.3358 30.177 65.0839L32.4982 65.1636C34.3891 64.6963 35.1333 61.8941 35.6348 60.0058C35.7694 59.4988 35.8865 59.0578 36.0037 58.7454C36.1968 58.2304 36.592 57.8951 37.0248 57.528C37.8326 56.8427 38.7712 56.0464 38.7712 53.7638C38.7712 52.0793 37.6635 51.4599 36.4104 50.7591C35.0556 50.0015 33.5309 49.1488 33.0517 46.7528C32.3867 43.428 37.4733 41.7329 41.1946 40.4928C42.636 40.0124 43.8726 39.6003 44.4908 39.1882C45.8334 38.2931 45.819 36.7873 45.8055 35.3703C45.7967 34.4508 45.7882 33.5686 46.1513 32.9151C46.53 32.2334 47.0642 31.8938 47.5624 31.577C48.2778 31.1222 48.9188 30.7147 48.9188 29.4096Z" fill="#4EB6B7"/>
<path d="M63.8635 20C60.8768 20 57.973 20.3548 55.1919 21.0246C54.2072 21.9933 52.7588 23.5163 51.5018 25.0417C56.702 24.2264 67.4403 24.3894 69.0056 31.5106C69.0212 31.5441 69.0295 31.5818 69.0295 31.6236C69.0295 32.214 70.7515 32.7306 71.6125 32.9151C71.2586 31.8534 72.6397 30.7162 73.9952 29.6C74.7596 28.9706 75.5159 28.3478 75.9483 27.7491C76.9077 26.4207 77.1732 23.6817 77.186 22.4783C73.0535 20.8778 68.561 20 63.8635 20Z" fill="#90D4E1"/>
<path d="M77.8856 83.8376C76.7048 85.9041 74.2647 85.1906 73.1922 84.5756L71.5928 92.9899C75.1989 92.2213 78.61 90.926 81.7417 89.1882C81.6864 86.3592 82.6089 80.4059 86.7417 79.2251C90.3664 78.1895 90.6304 76.8813 90.9751 75.1733C91.1217 74.4469 91.2829 73.6483 91.7232 72.7675C92.3997 71.599 94.048 69.1513 95.2288 68.7085C96.7048 68.155 95.5978 63.1734 94.1218 64.0211C93.1473 64.5807 92.4141 63.5495 91.6567 62.4843C91.2669 61.936 90.8706 61.3786 90.4317 61.0246C89.3985 60.1912 85.1637 60.6773 83.1754 61.0246C80.5185 62.7862 78.2237 64.8722 76.5941 66.679L74.7134 76.5732C74.9025 76.6483 75.0988 76.7325 75.3026 76.8266C75.1181 73.321 76.9631 72.7675 77.5166 72.7675C78.0165 72.7675 77.9144 73.219 77.6182 74.5296L77.6175 74.5326L77.5878 74.6641C77.5761 74.7159 77.5641 74.769 77.5519 74.8234C77.5404 74.8749 77.5286 74.9277 77.5166 74.9815C77.2214 76.31 78.0086 78.6101 78.4391 79.5941C78.7466 80.1476 79.0664 81.7712 77.8856 83.8376Z" fill="#90D4E1"/>
<path d="M77.186 64.3727C78.6476 62.8008 80.6128 61.0263 82.8672 59.4521C82.4325 58.6197 82.5449 57.9706 82.6879 57.1441C82.7722 56.6571 82.8672 56.1084 82.8672 55.4244C81.3583 55.8955 78.2718 57.3606 77.9962 59.4521C77.8639 61.0415 77.5491 62.79 77.186 64.3727Z" fill="#90D4E1"/>
<path d="M75.9483 66.6568C75.0566 63.6506 73.679 57.5646 75.3026 57.2694C76.9262 56.9742 76.4096 63.4046 75.9483 66.6568Z" fill="#ADDEE2"/>
<path d="M26.9631 56.9004C26.9631 59.6844 27.2714 62.3964 27.8558 65.0041L30.177 65.0839C24.7491 49.3358 40.9852 25.9041 51.5018 25.0417C52.7588 23.5163 54.2072 21.9933 55.1919 21.0246C38.9964 24.9253 26.9631 39.5075 26.9631 56.9004Z" fill="#3E9FB2"/>
<path d="M100.764 56.8961C100.762 41.216 90.9802 27.8207 77.186 22.4783C77.1732 23.6817 76.9077 26.4207 75.9483 27.7491C75.5159 28.3478 74.7596 28.9706 73.9952 29.6C72.6397 30.7162 71.2586 31.8534 71.6125 32.9151C73.6421 31.7466 77.9963 29.7417 79.1771 31.0701C79.953 31.943 80.1171 33.3257 80.259 34.5215C80.3871 35.6004 80.4971 36.5271 81.0221 36.7897C81.3997 36.9785 81.9275 37.1458 82.5031 37.3282C83.615 37.6807 84.9052 38.0897 85.6347 38.8192C85.9611 39.1456 86.3997 39.4078 86.8655 39.6863C87.9796 40.3523 89.249 41.1112 89.5092 43.0627C89.7192 44.6376 88.794 46.5709 87.9576 48.3187C87.3242 49.6424 86.7417 50.8597 86.7417 51.7343C86.7417 53.3579 84.1587 54.8708 82.8672 55.4244C82.8672 56.1084 82.7722 56.6571 82.6879 57.1441C82.5449 57.9706 82.4325 58.6197 82.8672 59.4521C88.1644 55.7529 95.0578 53.1592 100.764 56.8961Z" fill="#3E9FB2"/>
<path d="M81.7417 89.1882C92.5215 83.2065 99.9907 71.9832 100.707 58.9603C94.9977 55.3591 88.3895 57.5674 83.1754 61.0246C85.1637 60.6773 89.3985 60.1912 90.4317 61.0246C90.8706 61.3786 91.2669 61.936 91.6567 62.4843C92.4141 63.5495 93.1473 64.5807 94.1218 64.0211C95.5978 63.1734 96.7048 68.155 95.2288 68.7085C94.048 69.1513 92.3997 71.599 91.7232 72.7675C91.2829 73.6483 91.1217 74.4469 90.9751 75.1733C90.6304 76.8813 90.3664 78.1895 86.7417 79.2251C82.6089 80.4059 81.6864 86.3592 81.7417 89.1882Z" fill="#3E9FB2"/>
<path fill-rule="evenodd" clip-rule="evenodd" d="M26.9631 64.9734L26.0406 64.9417L25.0964 64.9093L24.1522 64.8768L22.9041 64.8339L21.4511 75.6404C21.8574 75.5528 22.3379 75.5133 22.9041 75.535C24.0111 75.7811 26.0775 76.6421 25.4871 78.1181C25.4432 78.3406 25.3044 78.6684 25.0316 78.9127C24.7767 79.1409 24.4047 79.2964 23.8836 79.2251C24.4149 79.6716 24.617 80.4006 23.7718 81.5054C23.611 81.7155 23.4124 81.9392 23.1709 82.1771C23.5444 82.6783 23.4142 83.2841 22.9041 84.2066C22.711 84.5557 22.0044 84.5387 21.3651 84.5234C20.785 84.5094 20.2603 84.4968 20.2249 84.7601L20.0265 86.2362L18.1907 99.8893C24.9502 101.877 35.1652 102.876 45.1145 99.9902L43.9472 97.4037L47.5351 91.9385L47.386 94.2387L54.7582 94.7162L51.7804 88.2097L57.3412 85.5671C57.6536 85.915 58.0299 86.4169 58.3808 87.0204C58.4109 87.0722 58.4402 87.125 58.4699 87.1783C58.4753 87.1881 58.4809 87.1978 58.4864 87.2076C58.4963 87.225 58.5062 87.2424 58.5158 87.2601C58.9525 88.0613 59.329 89.0162 59.4607 90.0162C59.5712 90.8549 59.5093 91.7255 59.1661 92.5636C62.4872 89.7631 65.5087 86.2042 68.0299 81.7304C67.9912 81.3343 68.1028 80.8653 68.476 80.3321C68.4396 80.1742 68.4175 79.9838 68.4227 79.7786C68.4404 79.0695 68.7826 78.1846 69.9769 77.8627C71.4649 74.5415 72.7065 70.7952 73.6421 66.5775L32.4982 65.1636L30.177 65.0839L27.8558 65.0041L26.9631 64.9734ZM42.0994 81.5457L37.0536 78.0178C37.2016 77.5743 37.4519 76.999 37.8031 76.3957C37.8486 76.3175 37.8958 76.2388 37.9448 76.1599C38.4254 75.3843 39.0693 74.585 39.8736 73.9762C40.5817 73.4402 41.4141 73.052 42.3686 72.9578C43.3154 72.8644 44.4122 72.8779 45.5316 72.9625C46.3832 73.0269 47.248 73.1324 48.0697 73.2634C48.2458 73.2914 48.42 73.3207 48.5917 73.3509C49.2469 73.4664 49.8652 73.5967 50.4159 73.7331C51.6664 74.0429 52.5683 74.3843 52.7615 74.6564C52.9775 74.9605 53.4239 75.8499 53.8949 76.8392C54.2304 77.5442 54.5784 78.3 54.8642 78.931C54.9814 79.1897 55.0881 79.4274 55.1793 79.6321L58.0127 78.2553L53.9635 83.8107L47.4392 83.3931L49.5124 82.3857L46.2837 75.741L42.0994 81.5457ZM41.9528 94.0469L41.7714 100.201C41.3194 100.321 40.7012 100.427 40.0041 100.464C39.9137 100.469 39.822 100.473 39.7292 100.475C38.817 100.499 37.7955 100.399 36.8453 100.061C36.0087 99.7627 35.2274 99.2797 34.625 98.5333C34.0275 97.7929 33.4371 96.8686 32.8937 95.8863C32.4803 95.1389 32.0941 94.358 31.7528 93.5992C31.6796 93.4365 31.6085 93.2748 31.5396 93.1147C31.2767 92.5036 31.0464 91.9151 30.8584 91.3799C30.4313 90.1644 30.2219 89.223 30.3434 88.9122C30.4792 88.5648 30.9778 87.7036 31.5467 86.7671C31.952 86.0998 32.393 85.3943 32.7637 84.8091C32.9157 84.5692 33.056 84.3495 33.1771 84.161L30.4715 82.5474L37.3377 82.885L40.5679 88.569L38.5882 87.3883L34.8041 93.7331L41.9528 94.0469Z" fill="#FBDB74"/>
<path d="M17 108.745L52.4459 110.537L57.0369 110.769L68.107 111.328L71.5928 92.9899L73.1922 84.5756C72.3896 83.2472 70.0827 83.0381 69.0295 83.0996C68.6367 82.9032 68.0983 82.4308 68.0299 81.7304C65.5087 86.2042 62.4872 89.7631 59.1661 92.5636C59.149 92.6053 59.1313 92.6469 59.1128 92.6885C58.726 93.5577 58.1721 94.5045 57.5453 95.4358C57.0684 96.1443 56.5493 96.8438 56.0293 97.4934C55.9178 97.6327 55.8063 97.7697 55.6951 97.9039C55.2709 98.4164 54.852 98.8895 54.4613 99.3008C53.5739 100.235 52.8313 100.85 52.4993 100.884C52.1281 100.921 51.1343 100.869 50.0415 100.79C49.2628 100.733 48.4338 100.662 47.744 100.599C47.4612 100.573 47.2018 100.548 46.9788 100.526L46.7751 103.67L45.1145 99.9902C35.1652 102.876 24.9502 101.877 18.1907 99.8893L17 108.745Z" fill="#F9CF6D"/>
<path d="M75.9483 66.6568L75.3026 66.6346L73.6421 66.5775C72.7065 70.7952 71.4649 74.5415 69.9769 77.8627C70.0285 77.8488 70.0817 77.836 70.1365 77.8242C70.159 77.6291 70.2173 77.4131 70.321 77.2011C70.7561 76.3116 71.9893 75.4917 74.7134 76.5732L76.5941 66.679L75.9483 66.6568Z" fill="#F9CF6D"/>
<path d="M75.3026 66.6346L75.9483 66.6568C75.0566 63.6506 73.679 57.5646 75.3026 57.2694C76.9262 56.9742 76.4096 63.4046 75.9483 66.6568L76.5941 66.679C76.7918 65.987 76.9955 65.2026 77.186 64.3727C77.5491 62.79 77.8639 61.0415 77.9962 59.4521C78.2694 56.1709 77.7649 53.5679 75.3026 54.5018C72.3675 55.6152 72.619 59.3229 73.6421 62.6293C74.111 64.1449 74.742 65.5761 75.3026 66.6346Z" fill="#FBE5AC"/>
<path d="M69.0295 61.6974C70.6531 61.2546 73.8881 64.8044 75.3026 66.6346C74.742 65.5761 74.111 64.1449 73.6421 62.6293C71.7023 60.1276 69.7588 59.9817 69.0295 60.2214V61.6974Z" fill="#FBE5AC"/>
<path d="M100.707 58.9603C100.745 58.2785 100.764 57.5916 100.764 56.9004V56.8961C95.0578 53.1592 88.1644 55.7529 82.8672 59.4521C80.6128 61.0263 78.6476 62.8008 77.186 64.3727C76.9955 65.2026 76.7918 65.987 76.5941 66.679C78.2237 64.8722 80.5185 62.7862 83.1754 61.0246C88.3895 57.5674 94.9977 55.3591 100.707 58.9603Z" fill="#FBE5AC"/>
<path d="M26.9631 56.9004C26.7159 53.0627 25.1381 52.4723 24.3801 52.6568C22.2428 53.4002 22.6748 56.6487 23.7791 59.8524C24.4289 61.7375 25.3116 63.6071 26.0406 64.9417L26.9631 64.9734C25.7946 61.8519 23.7159 55.572 24.7491 55.4244C25.7823 55.2767 26.6556 61.7289 26.9631 64.9734L27.8558 65.0041C27.2714 62.3964 26.9631 59.6844 26.9631 56.9004Z" fill="#FBE5AC"/>
<path d="M26.0406 64.9417C25.3116 63.6071 24.4289 61.7375 23.7791 59.8524C22.8109 59.1144 20.69 57.8598 19.952 58.7454C19.171 59.6826 20.7083 62.2683 22.9041 64.0211C23.3018 64.3386 23.7212 64.6288 24.1522 64.8768L25.0964 64.9093C23.8736 63.6542 21.5018 61.0701 21.797 60.7749C22.0923 60.4797 24.1196 63.4082 25.0964 64.9093L26.0406 64.9417Z" fill="#FBE5AC"/>
<path d="M22.9041 64.8339L24.1522 64.8768C23.7212 64.6288 23.3018 64.3386 22.9041 64.0211C21.1205 63.9845 17.7011 64.5756 18.2915 67.2325C19.0295 66.3865 20.9852 64.7224 22.9041 64.8339Z" fill="#FBE5AC"/>
<path d="M100.707 58.9603C99.9907 71.9832 92.5215 83.2065 81.7417 89.1882L86.5572 101.734L117 100.443L105.6 65.572L105.208 64.3727L104.816 63.1734L104.638 62.6293C104.489 62.4359 104.338 62.2483 104.186 62.0664C103.081 60.7427 101.914 59.7217 100.707 58.9603Z" fill="#F9CF6D"/>
<path d="M100.764 56.9004C100.764 57.5916 100.745 58.2785 100.707 58.9603C101.914 59.7217 103.081 60.7427 104.186 62.0664C104.36 61.7444 104.572 61.3899 104.816 61.0246C103.571 59.1882 102.205 57.8401 100.764 56.8961V56.9004Z" fill="#FBE5AC"/>
<path d="M104.186 62.0664C104.338 62.2483 104.489 62.4359 104.638 62.6293L104.816 63.1734C105.661 61.6974 107.768 59.0775 109.435 60.4059C111.103 61.7343 107.312 63.6039 105.208 64.3727L105.6 65.572C106.657 65.1749 107.564 64.7733 108.339 64.3727C113.326 61.7952 112.868 59.2564 111.834 58.1919C109.161 56.0284 106.347 58.7387 104.816 61.0246C104.572 61.3899 104.36 61.7444 104.186 62.0664Z" fill="#FBE5AC"/>
<path d="M108.339 64.3727C107.564 64.7733 106.657 65.1749 105.6 65.572C107.108 66.5314 110.876 66.5867 112.572 66.4945C113.31 66.1993 113.125 65.2644 112.941 64.8339C112.498 65.2029 109.688 64.6802 108.339 64.3727Z" fill="#FBE5AC"/>
<path d="M47.386 94.2387L47.5351 91.9385L43.9472 97.4037L45.1145 99.9902C48.5337 98.9986 51.9215 97.5483 55.1269 95.5217L54.7582 94.7162L47.386 94.2387Z" fill="white"/>
<path d="M30.4715 82.5474L33.1771 84.161C33.056 84.3495 32.9157 84.5692 32.7637 84.8091C32.393 85.3943 31.952 86.0998 31.5467 86.7671C30.9778 87.7036 30.4792 88.5648 30.3434 88.9122C30.2219 89.223 30.4313 90.1644 30.8584 91.3799C31.0464 91.9151 31.2767 92.5036 31.5396 93.1147C31.6085 93.2748 31.6796 93.4365 31.7528 93.5992L34.8041 93.7331L38.5882 87.3883L40.5679 88.569L37.3377 82.885L30.4715 82.5474Z" fill="white"/>
<path d="M57.5453 95.4358C58.1721 94.5045 58.726 93.5577 59.1128 92.6885C59.1313 92.6469 59.149 92.6053 59.1661 92.5636C57.8618 93.6635 56.5113 94.6463 55.1269 95.5217L56.0293 97.4934C56.5493 96.8438 57.0684 96.1443 57.5453 95.4358Z" fill="#BEBEBE"/>
<path d="M68.476 80.3321C69.4676 80.0246 71.7992 79.7786 73.1922 81.2546C73.4228 81.2546 73.4652 81.0086 73.4576 80.8856C72.4529 79.2221 69.6824 79.4545 68.4227 79.7786C68.4175 79.9838 68.4396 80.1742 68.476 80.3321Z" fill="#90D4E1"/>
<path fill-rule="evenodd" clip-rule="evenodd" d="M69.0295 83.0996C70.0827 83.0381 72.3896 83.2472 73.1922 84.5756C74.2647 85.1906 76.7048 85.9041 77.8856 83.8376C79.0664 81.7712 78.7466 80.1476 78.4391 79.5941C78.0086 78.6101 77.2214 76.31 77.5166 74.9815C77.5286 74.9277 77.5404 74.8749 77.5519 74.8234C77.5641 74.769 77.5761 74.7159 77.5878 74.6641L77.6175 74.5326L77.6182 74.5296C77.9144 73.219 78.0165 72.7675 77.5166 72.7675C76.9631 72.7675 75.1181 73.321 75.3026 76.8266C75.0988 76.7325 74.9025 76.6483 74.7134 76.5732C71.9893 75.4917 70.7561 76.3116 70.321 77.2011C71.182 77.0763 73.0148 77.048 73.4576 77.9336C73.5882 78.1181 73.718 78.4871 73.1922 78.4871C72.8324 77.8967 71.3742 77.7491 70.69 77.7491C70.4893 77.7625 70.3052 77.7881 70.1365 77.8242C70.0817 77.836 70.0285 77.8488 69.9769 77.8627C68.7826 78.1846 68.4404 79.0695 68.4227 79.7786C69.6824 79.4545 72.4529 79.2221 73.4576 80.8856C73.4652 81.0086 73.4228 81.2546 73.1922 81.2546C71.7992 79.7786 69.4676 80.0246 68.476 80.3321C68.1028 80.8653 67.9912 81.3343 68.0299 81.7304C68.0983 82.4308 68.6367 82.9032 69.0295 83.0996Z" fill="#ADDEE2"/>
<path d="M70.69 77.7491C71.3742 77.7491 72.8324 77.8967 73.1922 78.4871C73.718 78.4871 73.5882 78.1181 73.4576 77.9336C73.0148 77.048 71.182 77.0763 70.321 77.2011C70.2173 77.4131 70.159 77.6291 70.1365 77.8242C70.3052 77.7881 70.4893 77.7625 70.69 77.7491Z" fill="#90D4E1"/>
<path fill-rule="evenodd" clip-rule="evenodd" d="M19.5179 78.8561C20.343 78.1558 22.6008 77.1867 25.0316 78.9127C25.3044 78.6684 25.4432 78.3406 25.4871 78.1181C26.0775 76.6421 24.0111 75.7811 22.9041 75.535C22.3379 75.5133 21.8574 75.5528 21.4511 75.6404C19.4434 76.073 19.2509 77.6787 19.5179 78.8561Z" fill="#ADDEE2"/>
<path d="M19.6866 79.4096C20.2092 78.8365 21.0945 78.4658 22.5351 78.6716C22.9823 78.7398 23.513 78.9137 23.8836 79.2251C24.4047 79.2964 24.7767 79.1409 25.0316 78.9127C22.6008 77.1867 20.343 78.1558 19.5179 78.8561C19.5632 79.0555 19.6216 79.2426 19.6866 79.4096Z" fill="#90D4E1"/>
<path fill-rule="evenodd" clip-rule="evenodd" d="M19.0409 80.8856C19.9846 80.4378 22.2519 79.9347 23.7718 81.5054C24.617 80.4006 24.4149 79.6716 23.8836 79.2251C23.513 78.9137 22.9823 78.7398 22.5351 78.6716C21.0945 78.4658 20.2092 78.8365 19.6866 79.4096C19.2938 79.8402 19.1059 80.3851 19.0409 80.8856Z" fill="#ADDEE2"/>
<path d="M19.0295 81.6236C21.0657 80.4259 22.4798 81.2497 23.1709 82.1771C23.4124 81.9392 23.611 81.7155 23.7718 81.5054C22.2519 79.9347 19.9846 80.4378 19.0409 80.8856C19.0063 81.1522 19.0066 81.4062 19.0295 81.6236Z" fill="#90D4E1"/>
<path d="M37.0536 78.0178L42.0994 81.5457L46.2837 75.741L48.0697 73.2634C47.248 73.1324 46.3832 73.0269 45.5316 72.9625C44.4122 72.8779 43.3154 72.8644 42.3686 72.9578C41.4141 73.052 40.5817 73.4402 39.8736 73.9762C39.0693 74.585 38.4254 75.3843 37.9448 76.1599C37.9039 76.2275 37.8185 76.3694 37.8031 76.3957C37.4519 76.999 37.2016 77.5743 37.0536 78.0178Z" fill="#E3E3E3"/>
<path d="M57.3412 85.5671L51.7804 88.2097L54.7582 94.7162L55.1269 95.5217C56.5113 94.6463 57.8618 93.6635 59.1661 92.5636C59.5093 91.7255 59.5712 90.8549 59.4607 90.0162C59.329 89.0162 58.9525 88.0613 58.5158 87.2601L58.4864 87.2076L58.4699 87.1783C58.4325 87.1117 58.3912 87.0384 58.3808 87.0204C58.0299 86.4169 57.6536 85.915 57.3412 85.5671Z" fill="#E3E3E3"/>
<path d="M46.7751 103.67L46.9788 100.526C47.2018 100.548 47.4612 100.573 47.744 100.599C48.4338 100.662 49.2628 100.733 50.0415 100.79C51.1343 100.869 52.1281 100.921 52.4993 100.884C52.8313 100.85 53.5739 100.235 54.4613 99.3008C54.852 98.8895 55.2709 98.4164 55.6951 97.9039C55.8063 97.7697 55.9178 97.6327 56.0293 97.4934L55.1269 95.5217C51.9215 97.5483 48.5337 98.9986 45.1145 99.9902L46.7751 103.67Z" fill="#E3E3E3"/>
<path d="M41.7714 100.201L41.9528 94.0469L34.8041 93.7331L31.7528 93.5992C32.0941 94.358 32.4803 95.1389 32.8937 95.8863C33.4371 96.8686 34.0275 97.7929 34.625 98.5333C35.2274 99.2797 36.0087 99.7627 36.8453 100.061C37.7955 100.399 38.817 100.499 39.7292 100.475C39.8081 100.472 39.9737 100.466 40.0041 100.464C40.7012 100.427 41.3194 100.321 41.7714 100.201Z" fill="#E3E3E3"/>
<path d="M51.6865 53.7638C52.855 54.8093 55.7087 56.273 57.7751 53.7638" stroke="black" stroke-width="0.5" stroke-linecap="round"/>
<path d="M59.8043 48.4133C59.8043 49.2285 59.4739 49.8893 59.0663 49.8893C58.6587 49.8893 58.3283 49.2285 58.3283 48.4133C58.3283 47.5981 58.6587 46.9373 59.0663 46.9373C59.4739 46.9373 59.8043 47.5981 59.8043 48.4133Z" fill="black"/>
<path d="M50.9482 48.4133C50.9482 49.2285 50.6178 49.8893 50.2102 49.8893C49.8026 49.8893 49.4722 49.2285 49.4722 48.4133C49.4722 47.5981 49.8026 46.9373 50.2102 46.9373C50.6178 46.9373 50.9482 47.5981 50.9482 48.4133Z" fill="black"/>
</svg>
