<svg width="50" height="50" viewBox="0 0 50 50" fill="none" xmlns="http://www.w3.org/2000/svg">
<path fill-rule="evenodd" clip-rule="evenodd" d="M50 25C50 38.8071 38.8071 50 25 50C11.1929 50 0 38.8071 0 25C0 11.1929 11.1929 0 25 0C38.8071 0 50 11.1929 50 25ZM25 17C27.2091 17 29 15.2091 29 13C29 10.7909 27.2091 9 25 9C22.7909 9 21 10.7909 21 13C21 15.2091 22.7909 17 25 17ZM25 41C27.2091 41 29 39.2091 29 37V25C29 22.7909 27.2091 21 25 21C22.7909 21 21 22.7909 21 25V37C21 39.2091 22.7909 41 25 41Z" fill="#8DDAFC"/>
<path d="M29 37C29 39.2091 27.2091 41 25 41C22.7909 41 21 39.2091 21 37V25C21 22.7909 22.7909 21 25 21C27.2091 21 29 22.7909 29 25V37Z" fill="white"/>
<path d="M29 13C29 15.2091 27.2091 17 25 17C22.7909 17 21 15.2091 21 13C21 10.7909 22.7909 9 25 9C27.2091 9 29 10.7909 29 13Z" fill="white"/>
</svg>
