<svg width="40" height="40" viewBox="0 0 40 40" fill="none" xmlns="http://www.w3.org/2000/svg">
<path fill-rule="evenodd" clip-rule="evenodd" d="M40 10C40 4.47715 35.5228 0 30 0H10C4.47715 0 0 4.47715 0 10V30C0 35.5228 4.47715 40 10 40H30C35.5228 40 40 35.5228 40 30V10Z" fill="#ECECEC"/>
<path d="M15.2285 30.163L16.1525 33.3967L12.9187 32.4728L13.9859 31.4055L15.2285 30.163Z" fill="#A8A9AD"/>
<path d="M30.0112 28.7771V25.0814L32.321 26.4673L31.2966 27.4916L30.0112 28.7771Z" fill="#A8A9AD"/>
<path d="M16.1525 33.3967C13.9967 31.3179 9.09976 27.2061 8.29918 26.0053C7.3752 24.6195 8.76115 23.2336 10.147 21.8477C11.0709 20.9238 12.4568 21.6167 13.3807 22.3097L21.5115 28.5461C23.3435 29.7328 24.2367 27.6796 24.2367 26.7557V20.3435L27.6947 14.6183C28.8397 12.7863 28.2443 5 21.2824 5C14.3206 5 13.2672 11.4122 14.4122 14.6183L18.0763 20.3435V22.8626M16.1525 33.3967L15.2285 30.163L12.9187 32.4728L16.1525 33.3967ZM13.3807 26.0053L24.2367 34.0896C26.5465 35.9375 33.3373 35.3831 31.859 28.5461L30.0112 25.0814M30.0112 25.0814V28.7771L32.321 26.4673L30.0112 25.0814Z" stroke="#A8A9AD" stroke-width="0.5"/>
</svg>
