<svg width="360" height="800" viewBox="0 0 360 800" fill="none" xmlns="http://www.w3.org/2000/svg">
<g clip-path="url(#clip0_2311_2)">
<rect width="360" height="800" fill="#C6E57D"/>
<ellipse cx="353" cy="7" rx="160" ry="156" fill="#BDE06C"/>
<ellipse cx="-78" cy="244" rx="160" ry="156" fill="#BDE06C"/>
<ellipse cx="360" cy="800" rx="160" ry="156" fill="#BDE06C"/>
<g filter="url(#filter0_d_2311_2)">
<path d="M330.505 13.5C328.508 20.8739 322.886 36.829 315.44 45.8592C322.59 37.7438 334.588 22.0306 337.505 10C342.671 8.33333 354.405 4 360.005 0H319.505C318.458 3.66266 312.032 10.508 295.005 14.2508C290.337 15.2768 284.873 16.0697 278.505 16.5C281.158 17.2237 286.744 17.9473 295.005 17.8288C297.158 17.7979 299.493 17.7098 302.005 17.5496C309.831 17.0503 319.377 15.8508 330.505 13.5Z" fill="#FFDFAE"/>
<path d="M360.005 0C354.405 4 342.671 8.33333 337.505 10C334.588 22.0306 322.59 37.7438 315.44 45.8592C314.807 46.6259 314.162 47.3426 313.505 48C314.095 47.3651 314.745 46.648 315.44 45.8592C322.886 36.829 328.508 20.8739 330.505 13.5C319.377 15.8508 309.831 17.0503 302.005 17.5496C297.171 27.6997 293.905 51.6 319.505 66C313.838 70.6667 303.905 84.2 309.505 101C316.505 122 348.505 128.5 360.005 118V46C354.805 48.4 341.838 49 336.005 49C349.205 47.8 357.505 40.8333 360.005 37.5V0Z" fill="#87C01B"/>
<path d="M267.5 15C267.5 4.74917 232.005 -2.5 225.005 13.5C235 18 261 16.0343 267.5 15Z" fill="#638E0B"/>
<path d="M225.049 15C225.57 21.2936 230.404 27.5 247.005 27.5C255.005 27.9688 265.565 23.1122 267.5 15C251.288 18.2 232.357 16.8333 225.049 15Z" fill="#638E0B"/>
<path d="M290.505 31.5C287.005 33.5 279.405 40.9 277.005 54.5C274.605 68.1 280.671 72.8333 284.005 73.5C280.405 61.1 286.838 40.3333 290.505 31.5Z" fill="#638E0B"/>
<path d="M298.005 57.5C299.131 42.3696 293.82 33.4981 290.505 31.5C287.078 40.1771 281.988 61.1 285.5 73.5C290.013 73.0214 297.115 69.4501 298.005 57.5Z" fill="#638E0B"/>
<path d="M290.505 31.5C286.838 40.3333 280.405 61.1 284.005 73.5C284.624 73.5732 284.726 73.5821 285.5 73.5C281.988 61.1 287.078 40.1771 290.505 31.5C290.979 31.5 289.986 31.1871 290.505 31.5Z" fill="#A1C74D"/>
<path d="M267.5 15C261 16.0343 235 18 225.005 13.5C224.992 13.9665 225.005 14.4694 225.049 15C232.357 16.8333 251.288 18.2 267.5 15C267.673 14.2734 267.5 15.7727 267.5 15Z" fill="#A1C74D"/>
<path d="M360.005 37.5C357.505 40.8333 349.205 47.8 336.005 49C341.838 49 354.805 48.4 360.005 46V37.5Z" fill="#FFDFAE"/>
<path d="M278.505 16.5C284.873 16.0697 290.337 15.2768 295.005 14.2508C294.171 11.0006 290.805 4.4 284.005 4C275.505 3.5 272.005 10.9521 272.005 14.2508C272.005 17.5496 274.505 25.5 284.005 25.5C291.605 25.5 294.505 20.3859 295.005 17.8288C286.744 17.9473 281.158 17.2237 278.505 16.5Z" fill="#4F6415"/>
</g>
<g filter="url(#filter1_d_2311_2)">
<path d="M360.005 756.94C354.405 752.94 342.671 748.607 337.505 746.94C334.588 734.91 322.59 719.196 315.44 711.081C314.807 710.314 314.162 709.598 313.505 708.94C314.095 709.575 314.745 710.292 315.44 711.081C322.886 720.111 328.508 736.066 330.505 743.44C319.377 741.089 309.831 739.89 302.005 739.391C297.171 729.241 293.905 705.34 319.505 690.94C313.838 686.274 303.905 672.74 309.505 655.94C316.505 634.94 348.505 628.44 360.005 638.94V710.94C354.805 708.54 341.838 707.94 336.005 707.94C349.205 709.14 357.505 716.107 360.005 719.44V756.94Z" fill="#87C01B"/>
<path d="M267.5 741.94C267.5 752.191 232.005 759.44 225.005 743.44C235 738.94 261 740.906 267.5 741.94Z" fill="#638E0B"/>
<path d="M225.049 741.94C225.57 735.647 230.404 729.44 247.005 729.44C255.005 728.971 265.565 733.828 267.5 741.94C251.288 738.74 232.357 740.107 225.049 741.94Z" fill="#638E0B"/>
<path d="M290.505 725.44C287.005 723.44 279.405 716.04 277.005 702.44C274.605 688.84 280.671 684.107 284.005 683.44C280.405 695.84 286.838 716.607 290.505 725.44Z" fill="#638E0B"/>
<path d="M298.005 699.44C299.131 714.571 293.82 723.442 290.505 725.44C287.078 716.763 281.988 695.84 285.5 683.44C290.013 683.919 297.115 687.49 298.005 699.44Z" fill="#638E0B"/>
<path d="M290.505 725.44C286.838 716.607 280.405 695.84 284.005 683.44C284.624 683.367 284.726 683.358 285.5 683.44C281.988 695.84 287.078 716.763 290.505 725.44C290.979 725.44 289.986 725.753 290.505 725.44Z" fill="#A1C74D"/>
<path d="M267.5 741.94C261 740.906 235 738.94 225.005 743.44C224.992 742.974 225.005 742.471 225.049 741.94C232.357 740.107 251.288 738.74 267.5 741.94C267.673 742.667 267.5 741.168 267.5 741.94Z" fill="#A1C74D"/>
<path d="M360.005 719.44C357.505 716.107 349.205 709.14 336.005 707.94C341.838 707.94 354.805 708.54 360.005 710.94V719.44Z" fill="#FFDFAE"/>
<path d="M278.505 740.44C284.873 740.871 290.337 741.663 295.005 742.689C294.171 745.94 290.805 752.54 284.005 752.94C275.505 753.44 272.005 745.988 272.005 742.689C272.005 739.391 274.505 731.44 284.005 731.44C291.605 731.44 294.505 736.554 295.005 739.111C286.744 738.993 281.158 739.717 278.505 740.44Z" fill="#4F6415"/>
<path d="M337.505 746.94C342.671 748.607 354.405 752.94 360.005 756.94V780C360.005 770.8 331.668 758.127 317.5 752.94C315.9 755.692 298.836 760.46 290.505 762.5C300.105 760.1 307.63 751.833 310.193 748C306.489 746.01 301.524 744.122 295.005 742.689C290.337 741.663 284.873 740.871 278.505 740.44C281.158 739.717 286.744 738.993 295.005 739.111C297.158 739.142 299.493 739.23 302.005 739.391C309.831 739.89 319.377 741.089 330.505 743.44C328.508 736.066 322.886 720.111 315.44 711.081C322.59 719.196 334.588 734.91 337.505 746.94Z" fill="#FFDFAE"/>
<path d="M291.572 802.363C288.176 792.394 290.397 773.498 292 765C294.47 765 296.444 766.056 298 767.654C301.232 770.972 302.663 776.625 303 780C303.021 781.055 303.008 782.239 302.95 783.5C302.857 785.539 302.647 787.779 302.277 790C301.168 796.654 298.62 803.139 293.455 803.543C292.992 803.579 292.507 803.566 292 803.5C291.851 803.127 291.708 802.748 291.572 802.363Z" fill="#638E0B"/>
<path d="M279.45 783C281.951 780.539 282.601 776.83 282.5 774.5C282.412 773.663 282.168 772.604 281.716 771.5C281.959 769.482 284.077 765.586 290.505 765.059C289.05 772.63 287.312 790.353 291.572 802.363C291.706 802.757 291.848 803.136 292 803.5C282.8 802.3 279.8 789.333 279.45 783Z" fill="#638E0B"/>
<path d="M290.505 765.059C290.979 765.021 291.477 765 292 765C290.397 773.498 288.176 792.394 291.572 802.363C287.312 790.353 289.05 772.63 290.505 765.059Z" fill="#A1C74D"/>
<path d="M261 775C261 767.4 268.333 765.167 272 765C277.591 765 280.458 768.427 281.716 771.5C282.168 772.604 282.412 773.663 282.5 774.5C282.601 776.83 281.951 780.539 279.45 783C277.836 784.588 275.451 785.657 272 785.5C263.2 785.1 261 778.333 261 775Z" fill="#4F6415"/>
<path d="M303 780C302.663 776.625 301.232 770.972 298 767.654C300.5 764.103 307.7 758.6 316.5 765C319.5 768.333 323.4 776.5 315 782.5C313.634 783.167 309.311 784.3 302.95 783.5C303.008 782.239 303.021 781.055 303 780Z" fill="#4F6415"/>
<path d="M246 759C244.167 759 240.4 759.8 240 763C239.5 764.667 240 768.1 246 768.5C248.333 768.5 253 767.6 253 764C252.833 762.333 251.2 759 246 759Z" fill="#4F6415"/>
<path d="M293.455 803.543C298.62 803.139 301.168 796.654 302.277 790H360.005V805C360.005 805.392 316.55 804.218 293.455 803.543Z" fill="#FFDFAE"/>
<path d="M243 780C238.833 779.546 230.6 781.009 231 790.5C230.833 794 233 800.9 243 800.5C253 800.1 255.167 792.333 255 788.5C254.167 785.667 250.6 780 243 780Z" fill="#4F6415"/>
<path d="M264 795C262.5 795 261 796.5 261 798C261 799 261.6 801 264 801C266.4 801 267 799 267 798C267.167 797 266.5 795 264 795Z" fill="#4F6415"/>
</g>
<g filter="url(#filter2_d_2311_2)">
<path d="M85.371 -45.8502C86.0218 -38.9991 83.884 -26.6752 82.7337 -21.3697C91.6777 -12.8112 99.251 5.45108 102.684 15.7077C103.03 16.6392 103.327 17.557 103.565 18.4554C103.312 17.626 103.018 16.7047 102.684 15.7077C98.608 4.7363 87.6266 -8.13144 82.2496 -13.5584C78.7009 -2.75335 74.9494 6.10631 71.4549 13.1272C77.8105 22.4004 96.8467 37.2165 122.146 22.2954C123.341 29.5385 130.064 44.9208 147.407 48.5047C169.084 52.9846 190.761 28.5638 187.447 13.348L125.163 -22.7729C124.631 -17.0706 118.645 -5.55273 115.718 -0.50658C121.302 -12.5273 119.44 -23.2023 117.81 -27.0372L85.371 -45.8502Z" fill="#87C01B"/>
<path d="M51.939 41.6966C43.0715 36.554 18.9933 63.6225 29.3224 77.7047C38.2296 71.3159 49.5728 47.8383 51.939 41.6966Z" fill="#638E0B"/>
<path d="M30.6422 78.419C36.3478 81.1259 44.142 80.0574 52.4701 65.6972C56.889 59.012 57.9858 47.4402 51.939 41.6966C46.5737 57.3266 35.8945 73.0168 30.6422 78.419Z" fill="#638E0B"/>
<path d="M77.7534 30.074C77.7276 34.105 80.3163 44.3918 90.877 53.2908C101.438 62.1898 108.576 59.3164 110.825 56.7674C98.292 53.6607 83.5552 37.6773 77.7534 30.074Z" fill="#638E0B"/>
<path d="M104.007 36.6297C91.4837 28.065 81.1449 28.2089 77.7534 30.074C83.5404 37.3914 99.0863 52.2912 111.575 55.4739C113.425 51.3297 113.899 43.3942 104.007 36.6297Z" fill="#638E0B"/>
<path d="M77.7534 30.074C83.5552 37.6773 98.292 53.6607 110.825 56.7674C111.199 56.268 111.258 56.1847 111.575 55.4739C99.0863 52.2912 83.5404 37.3914 77.7534 30.074C77.9912 29.664 77.2223 30.3661 77.7534 30.074Z" fill="#A1C74D"/>
<path d="M51.939 41.6966C49.5728 47.8383 38.2296 71.3159 29.3224 77.7047C29.7195 77.95 30.1611 78.1908 30.6422 78.419C35.8945 73.0168 46.5737 57.3266 51.939 41.6966C51.3975 41.1822 52.6075 42.0843 51.939 41.6966Z" fill="#A1C74D"/>
<path d="M117.81 -27.0372C119.44 -23.2023 121.302 -12.5273 115.718 -0.50658C118.645 -5.55273 124.631 -17.0706 125.163 -22.7729L117.81 -27.0372Z" fill="#FFDFAE"/>
<path d="M58.7575 32.9294C61.5801 27.2046 63.6354 22.0801 65.0895 17.5277C61.8598 16.618 54.461 16.2189 50.7035 21.9006C46.0067 29.0027 50.6973 35.769 53.5509 37.4239C56.4045 39.0788 64.5362 40.9047 69.3022 32.6867C73.1149 26.1123 70.1458 21.038 68.1847 19.3227C64.1431 26.5279 60.7146 30.9971 58.7575 32.9294Z" fill="#4F6415"/>
<path d="M82.7337 -21.3697C83.884 -26.6752 86.0218 -38.9991 85.371 -45.8502L65.423 -57.4188C73.3815 -52.8033 70.1287 -21.9329 67.5074 -7.07456C64.3239 -7.0712 51.6392 5.29778 45.6947 11.4818C52.587 4.38135 63.5136 2.01844 68.1154 1.72454C67.9783 5.92716 67.1204 11.1694 65.0895 17.5277C63.6354 22.0801 61.5801 27.2046 58.7575 32.9294C60.7146 30.9971 64.1431 26.5279 68.1847 19.3227C69.2381 17.4446 70.3333 15.3806 71.4549 13.1272C74.9494 6.10631 78.7009 -2.75335 82.2496 -13.5584C87.6266 -8.13144 98.608 4.7363 102.684 15.7077C99.251 5.45108 91.6777 -12.8112 82.7337 -21.3697Z" fill="#FFDFAE"/>
<path d="M11.7461 -9.43976C18.667 -1.50073 36.1264 6.05785 44.2822 8.93417C45.5215 6.79732 45.5978 4.56001 44.9963 2.41229C43.7472 -2.04784 39.5751 -6.12156 36.8249 -8.10661C35.9227 -8.65424 34.8919 -9.23689 33.7723 -9.81954C31.9617 -10.7618 29.9188 -11.7041 27.8118 -12.4982C21.4991 -14.8773 14.6111 -15.9264 11.6709 -11.6609C11.4069 -11.2779 11.1748 -10.8521 10.9777 -10.3805C11.2253 -10.0646 11.4816 -9.75098 11.7461 -9.43976Z" fill="#638E0B"/>
<path d="M22.4154 10.76C25.7992 9.83118 29.3337 11.1298 31.2983 12.3862C31.9783 12.8824 32.7714 13.6247 33.4999 14.5698C35.3675 15.3714 39.8008 15.4941 43.4808 10.1979C36.2016 7.65831 19.9981 0.270471 11.7461 -9.43976C11.4732 -9.75283 11.2166 -10.0665 10.9777 -10.3805C7.4003 -1.81999 17.1123 7.28006 22.4154 10.76Z" fill="#638E0B"/>
<path d="M43.4808 10.1979C43.7525 9.80681 44.0201 9.38622 44.2822 8.93417C36.1264 6.05785 18.667 -1.50073 11.7461 -9.43976C19.9981 0.270471 36.2016 7.65831 43.4808 10.1979Z" fill="#A1C74D"/>
<path d="M20.0796 30.734C26.654 34.5468 32.265 29.3235 34.2487 26.2352C37.0534 21.3989 35.527 17.1994 33.4999 14.5698C32.7714 13.6247 31.9783 12.8824 31.2983 12.3862C29.3337 11.1298 25.7992 9.83118 22.4154 10.76C20.2318 11.3594 18.1109 12.8864 16.5151 15.9508C12.4463 23.7639 17.1961 29.0618 20.0796 30.734Z" fill="#4F6415"/>
<path d="M36.8249 -8.10661C39.5751 -6.12156 43.7472 -2.04784 44.9963 2.41229C49.3227 2.03132 57.695 -1.43642 56.5734 -12.2596C55.1949 -16.5271 50.0869 -23.9978 40.6824 -19.7415C39.4202 -18.8939 36.2711 -15.7229 33.7723 -9.81954C34.8919 -9.23689 35.9227 -8.65424 36.8249 -8.10661Z" fill="#4F6415"/>
<path d="M26.3953 51.7367C25.4756 53.3226 22.8939 56.1797 19.925 54.9203C18.2324 54.5167 15.5132 52.3617 18.1773 46.9707C19.3479 44.9523 22.4676 41.3669 25.5818 43.1729C26.9399 44.1532 29.004 47.2384 26.3953 51.7367Z" fill="#4F6415"/>
<path d="M11.6709 -11.6609C14.6111 -15.9264 21.4991 -14.8773 27.8118 -12.4982L56.7725 -62.4356L43.7967 -69.9608C43.4579 -70.1572 22.673 -31.9774 11.6709 -11.6609Z" fill="#FFDFAE"/>
<path d="M6.72415 43.7966C5.02694 47.629 -0.369785 54.0169 -8.37906 48.9096C-11.4904 47.2979 -16.3723 41.962 -11.0094 33.5122C-5.64663 25.0623 2.15893 27.0844 5.39135 29.1517C7.42427 31.294 10.5369 37.2222 6.72415 43.7966Z" fill="#4F6415"/>
<path d="M4.28362 18.1053C3.5311 19.4029 1.481 19.9479 0.183422 19.1954C-0.681631 18.6937 -2.11073 17.1713 -0.906699 15.0952C0.297332 13.0191 2.32845 13.5034 3.1935 14.0051C4.14217 14.3626 5.53782 15.9426 4.28362 18.1053Z" fill="#4F6415"/>
<path d="M125.163 -22.7729L187.447 13.348C195.965 11.5654 211 4.3 203 -10.5L125.163 -22.7729Z" fill="#87C01B"/>
</g>
<g filter="url(#filter3_d_2311_2)">
<path d="M82.5979 822.744C84.4312 816.111 84.4709 803.603 84.2616 798.178C94.5586 791.307 105.195 774.642 110.361 765.139C110.864 764.282 111.315 763.43 111.707 762.587C111.313 763.36 110.863 764.216 110.361 765.139C104.437 775.234 91.3839 785.994 85.1445 790.402C83.5304 779.144 81.3782 769.767 79.1589 762.245C87.0315 754.22 108.356 742.943 130.673 762.039C133.109 755.115 142.407 741.137 160.109 740.626C182.235 739.988 199.331 767.809 193.419 782.215L125.8 806.945C126.268 801.237 122.377 788.853 120.374 783.375C123.781 796.184 120.089 806.372 117.817 809.864L82.5979 822.744Z" fill="#87C01B"/>
<path d="M64.9133 730.715C55.286 734.236 36.2865 703.39 48.9089 691.32C56.5681 699.162 63.6521 724.255 64.9133 730.715Z" fill="#638E0B"/>
<path d="M50.3328 690.846C56.4224 689.174 63.9117 691.583 69.6134 707.173C72.8013 714.525 71.8674 726.112 64.9133 730.715C62.3502 714.39 54.5647 697.08 50.3328 690.846Z" fill="#638E0B"/>
<path d="M88.3108 746.653C88.987 742.679 93.3265 733 105.275 726.075C117.223 719.15 123.752 723.221 125.523 726.123C112.641 727.001 95.3474 740.176 88.3108 746.653Z" fill="#638E0B"/>
<path d="M115.305 744.767C101.482 751.021 91.3259 749.08 88.3108 746.653C95.2831 740.455 113.185 728.488 126.037 727.527C127.137 731.93 126.223 739.827 115.305 744.767Z" fill="#638E0B"/>
<path d="M88.3108 746.653C95.3474 740.176 112.641 727.001 125.523 726.123C125.805 726.68 125.848 726.772 126.037 727.527C113.185 728.488 95.2831 740.455 88.3108 746.653C88.4736 747.098 87.8386 746.273 88.3108 746.653Z" fill="#A1C74D"/>
<path d="M64.9133 730.715C63.6521 724.255 56.5681 699.162 48.9089 691.32C49.3426 691.148 49.8194 690.988 50.3328 690.846C54.5647 697.08 62.3502 714.39 64.9133 730.715C64.2904 731.127 65.639 730.45 64.9133 730.715Z" fill="#A1C74D"/>
<path d="M117.817 809.864C120.089 806.372 123.781 796.184 120.374 783.375C122.377 788.853 126.268 801.237 125.8 806.945L117.817 809.864Z" fill="#FFDFAE"/>
<path d="M70.1018 740.535C71.8849 746.664 73.017 752.068 73.6566 756.804C70.3178 757.138 62.9625 756.243 60.2512 749.994C56.8622 742.183 62.6588 736.336 65.7569 735.203C68.855 734.07 77.1804 733.687 80.4433 742.609C83.0536 749.747 79.2467 754.227 77.0169 755.575C74.291 747.776 71.6928 742.779 70.1018 740.535Z" fill="#4F6415"/>
<path d="M84.2616 798.178C84.4709 803.603 84.4312 816.111 82.5979 822.744L60.941 830.665C69.5813 827.505 71.751 796.539 71.7557 781.451C68.6214 780.894 58.283 766.506 53.5056 759.382C59.0568 767.574 69.4054 771.802 73.8858 772.892C74.4823 768.73 74.5499 763.419 73.6566 756.804C73.017 752.068 71.8849 746.664 70.1018 740.535C71.6928 742.779 74.291 747.776 77.0169 755.575C77.7274 757.608 78.4466 759.831 79.1589 762.245C81.3782 769.767 83.5304 779.144 85.1445 790.402C91.3839 785.994 104.437 775.234 110.361 765.139C105.195 774.642 94.5586 791.307 84.2616 798.178Z" fill="#FFDFAE"/>
<path d="M16.4338 774.076C24.6308 767.462 43.1393 763.058 51.6712 761.645C52.5197 763.965 52.2054 766.181 51.2393 768.191C49.233 772.366 44.4155 775.652 41.3619 777.128C40.3781 777.51 39.2617 777.904 38.0577 778.283C36.1107 778.896 33.935 779.468 31.722 779.883C29.4899 780.302 27.2198 780.561 25.1082 780.541C20.9472 780.501 17.4013 779.376 15.9732 776.25C15.7799 775.827 15.6254 775.367 15.5134 774.868C15.8122 774.6 16.1192 774.336 16.4338 774.076Z" fill="#638E0B"/>
<path d="M30.4559 756.041C33.6264 757.545 37.3329 756.881 39.4862 755.986C40.2422 755.615 41.1525 755.022 42.0343 754.219C44.0129 753.754 48.3999 754.405 51.1019 760.261C43.4919 761.495 26.2499 765.95 16.4338 774.076C16.1105 774.336 15.8033 774.601 15.5134 774.868C14.7306 771.383 15.902 768.161 17.9713 765.374C21.2763 760.923 26.872 757.581 30.4559 756.041Z" fill="#638E0B"/>
<path d="M51.1019 760.261C51.3014 760.693 51.4917 761.154 51.6712 761.645C43.1393 763.058 24.6308 767.462 16.4338 774.076C26.2499 765.95 43.4919 761.495 51.1019 760.261Z" fill="#A1C74D"/>
<path d="M31.6322 735.965C38.7698 733.355 43.386 739.475 44.8019 742.862C46.7222 748.112 44.4881 751.982 42.0343 754.219C41.1525 755.022 40.2422 755.615 39.4862 755.986C37.3329 756.881 33.6264 757.545 30.4559 756.041C28.4099 755.071 26.5872 753.198 25.549 749.903C22.9022 741.501 28.5016 737.11 31.6322 735.965Z" fill="#4F6415"/>
<path d="M41.3619 777.128C44.4155 775.652 49.233 772.366 51.2393 768.191C55.4333 769.32 63.0743 774.192 60.0861 784.654C57.986 788.617 51.6556 795.084 43.1355 789.256C42.0401 788.202 39.4909 784.531 38.0577 778.283C39.2617 777.904 40.3781 777.51 41.3619 777.128Z" fill="#4F6415"/>
<path d="M41.5068 716.382C40.8771 714.661 38.8321 711.398 35.6894 712.121C33.9524 712.224 30.8996 713.873 32.5847 719.645C33.3862 721.837 35.8343 725.91 39.2153 724.674C40.7233 723.945 43.2928 721.266 41.5068 716.382Z" fill="#4F6415"/>
<path d="M20.754 720.778C19.7497 716.708 15.5471 709.479 6.77115 713.114C3.42682 714.16 -2.30924 718.564 1.50108 727.819C5.31139 737.073 13.3498 736.44 16.8926 734.967C19.2674 733.211 23.3643 727.915 20.754 720.778Z" fill="#4F6415"/>
<path d="M13.8793 745.652C13.3641 744.243 11.4401 743.35 10.0314 743.865C9.0922 744.209 7.41995 745.459 8.24426 747.713C9.06858 749.967 11.153 749.844 12.0922 749.5C13.0886 749.313 14.7379 748 13.8793 745.652Z" fill="#4F6415"/>
<path d="M15.5134 774.868C15.6254 775.367 15.7799 775.827 15.9732 776.25C17.4013 779.376 20.9472 780.501 25.1082 780.541C26.826 786.187 27.9065 792.654 28 800L23.9146 800L4.12842e-05 800L4.06789e-05 749.5C4.76477 751.449 12.0332 756.532 17.9713 765.374C15.902 768.161 14.7306 771.383 15.5134 774.868Z" fill="#87C01B"/>
<path d="M31.722 779.883L51.5494 834.099L37.4619 839.251C37.2064 839.345 30.4582 819.485 23.9146 800L28 800C27.9065 792.654 26.826 786.187 25.1082 780.541C27.2198 780.561 29.4899 780.302 31.722 779.883Z" fill="#FFDFAE"/>
<path d="M125.8 806.945L193.419 782.215C197.613 784.22 205.7 792.556 204.5 809.864L125.8 806.945Z" fill="#87C01B"/>
</g>
<path d="M198.759 499.895V479.395C200.217 479.444 201.912 479.495 203.759 479.545C199.759 466.065 204.093 450.495 206.759 444.395C198.926 447.895 184.259 459.945 188.259 480.145L198.759 499.895Z" fill="#7C9F25"/>
<path d="M213.259 455.895C209.759 452.895 207.426 447.562 206.759 444.395C204.093 450.495 199.759 466.065 203.759 479.545C208.266 479.667 213.679 479.78 218.759 479.821C221.259 468.246 216.998 459.1 213.259 455.895Z" fill="#89BF0F"/>
<path d="M198.759 438.395V423.395L188.259 441.895C187.791 446.269 186.443 454.919 184.629 456.645L184.791 456.559C188.374 454.655 204.003 446.35 205.259 438.395H198.759Z" fill="#89BF0F"/>
<path d="M246.834 438.395H226.047C223.451 441.562 218.659 449.295 220.259 454.895C223.976 450.228 234.494 440.395 246.834 438.395Z" fill="#89BF0F"/>
<path d="M256.257 455.895L246.834 438.395C234.494 440.395 223.976 450.228 220.259 454.895C220.501 454.799 220.748 454.685 221.01 454.565C222.556 453.857 224.596 452.923 228.759 453.895C230.144 454.218 231.741 454.872 233.52 455.599C239.452 458.026 247.408 461.28 256.257 455.895Z" fill="#7C9F25"/>
<path d="M226.259 468.895C227.093 471.395 229.959 476.995 234.759 479.395C236.901 479.038 241.465 474.73 246.834 468.292C240.894 466.609 230.643 467.993 226.259 468.895Z" fill="#89BF0F"/>
<path d="M254.259 458.701C249.259 458.48 236.659 460.209 226.259 468.895C230.643 467.993 240.894 466.609 246.834 468.292C249.199 465.456 251.72 462.208 254.259 458.701Z" fill="#7C9F25"/>
<path d="M267.121 386.895C264.589 383.124 261.934 380.023 259.759 377.895C249.49 384.728 229.781 401.295 233.105 412.895L235.528 417.395C239.296 414.395 246.834 407.195 246.834 402.395C252.859 408.228 261.294 423.595 246.834 438.395C253.202 435.562 266.371 428.595 268.099 423.395C268.637 426.228 268.817 433.895 265.236 441.895C268.915 435.584 272.113 429.203 274.259 423.395C276.423 417.54 276.518 411.564 275.394 405.895C268.703 401.895 260.849 409.562 257.759 413.895C256.959 406.295 264.319 393.728 268.099 388.395C267.819 387.964 267.232 387.06 267.121 386.895Z" fill="#89BF0F"/>
<path d="M246.834 438.395L256.257 455.895C259.36 451.458 262.437 446.697 265.236 441.895C268.817 433.895 268.637 426.228 268.099 423.395C266.371 428.595 253.202 435.562 246.834 438.395Z" fill="#7C9F25"/>
<path d="M268.099 388.395C264.319 393.728 256.959 406.295 257.759 413.895C260.849 409.562 268.703 401.895 275.394 405.895C274.119 399.457 271.272 393.414 268.099 388.395Z" fill="#7C9F25"/>
<path d="M246.834 402.395C246.834 407.195 239.296 414.395 235.528 417.395L241.181 427.895C249.918 423.895 248.59 409.228 246.834 402.395Z" fill="#7C9F25"/>
<path fill-rule="evenodd" clip-rule="evenodd" d="M256.257 455.895C247.408 461.28 239.452 458.026 233.52 455.599C231.741 454.872 230.144 454.218 228.759 453.895C224.596 452.923 222.556 453.857 221.01 454.565C220.748 454.685 220.501 454.799 220.259 454.895C218.659 449.295 223.451 441.562 226.047 438.395H205.259C204.003 446.35 188.374 454.655 184.791 456.559L184.629 456.645C186.443 454.919 187.791 446.269 188.259 441.895L177.759 460.395L188.259 480.145C184.259 459.945 198.926 447.895 206.759 444.395C207.426 447.562 209.759 452.895 213.259 455.895C216.998 459.1 221.259 468.246 218.759 479.821C225.889 479.878 232.365 479.794 234.759 479.395C229.959 476.995 227.093 471.395 226.259 468.895C236.659 460.209 249.259 458.48 254.259 458.701C254.925 457.783 255.591 456.846 256.257 455.895ZM267.121 386.895C267.45 387.384 267.776 387.884 268.099 388.395C267.819 387.964 267.232 387.06 267.121 386.895Z" fill="#54720A"/>
<path d="M246.834 438.395C261.294 423.595 252.859 408.228 246.834 402.395C248.59 409.228 249.918 423.895 241.181 427.895L246.834 438.395Z" fill="#9ED22A"/>
<path d="M259.759 377.895L224.759 397.395L233.105 412.895C229.781 401.295 249.49 384.728 259.759 377.895Z" fill="#9ED22A"/>
<path d="M153.441 481.929C157.951 481.393 161.922 480.443 164.807 479.476C163.403 467.221 157.636 442.129 145.795 439.802L140.686 439.908C141.639 444.63 144.614 454.621 148.886 456.808C140.949 459.513 123.426 460.02 116.841 440.405C116.461 447.365 116.663 462.261 120.504 466.169C117.737 465.357 110.83 462.024 105.34 455.191C109.282 461.341 113.505 467.096 117.697 471.652C121.923 476.246 127.2 479.053 132.758 480.637C139.368 476.502 136.121 466.018 133.672 461.293C140.802 464.044 148.635 476.321 151.66 482.116C152.171 482.063 153.244 481.952 153.441 481.929Z" fill="#89BF0F"/>
<path d="M164.807 479.476L163.396 439.436L145.795 439.802C157.636 442.129 163.403 467.221 164.807 479.476Z" fill="#9ED22A"/>
<path d="M148.886 456.808C144.614 454.621 141.639 444.63 140.686 439.908L128.763 440.157C128.343 449.757 142.004 455.258 148.886 456.808Z" fill="#7C9F25"/>
<path d="M116.841 440.405C123.426 460.02 140.949 459.513 148.886 456.808C142.004 455.258 128.343 449.757 128.763 440.157L116.841 440.405Z" fill="#9ED22A"/>
<path d="M151.66 482.116C148.635 476.321 140.802 464.044 133.672 461.293C136.121 466.018 139.368 476.502 132.758 480.637C139.07 482.434 145.747 482.653 151.66 482.116Z" fill="#7C9F25"/>
<path d="M116.841 440.405L96.9695 440.819C99.5051 445.603 102.341 450.512 105.34 455.191C110.83 462.024 117.737 465.357 120.504 466.169C116.663 462.261 116.461 447.365 116.841 440.405Z" fill="#7C9F25"/>
<path d="M96.9695 440.819L116.841 440.405C120.683 428.509 116.722 414.666 114.261 409.231C114.237 409.49 114.225 409.762 114.213 410.05C114.139 411.748 114.041 413.99 111.279 417.253C110.36 418.338 109.051 419.462 107.592 420.714C102.73 424.889 96.2078 430.489 96.9695 440.819Z" fill="#7C9F25"/>
<path d="M116.841 440.405L126.312 421.901C124.676 418.147 119.975 410.358 114.261 409.231C116.722 414.666 120.683 428.509 116.841 440.405Z" fill="#89BF0F"/>
<path d="M95.3814 437.762C97.8564 433.412 102.058 421.408 99.0652 408.193C97.8711 412.506 94.4319 422.262 90.2276 426.783C91.6741 430.18 93.4172 433.904 95.3814 437.762Z" fill="#7C9F25"/>
<path d="M99.0652 408.193C96.4601 407.796 90.169 407.796 85.8455 410.975C85.1874 413.045 86.9427 419.069 90.2276 426.783C94.4319 422.262 97.8711 412.506 99.0652 408.193Z" fill="#89BF0F"/>
<path d="M116.561 402.544C120.826 400.795 126.637 401.148 129.759 401.998C125.544 396.845 113.659 385.893 99.8368 383.312C97.6752 387.268 95.1084 392.035 92.757 396.539C101.921 404.038 112.004 404.412 116.561 402.544Z" fill="#89BF0F"/>
<path d="M84 369.589L102.248 378.929C101.541 380.204 100.723 381.69 99.8368 383.312C113.659 385.893 125.544 396.845 129.759 401.998C130.213 393.43 126.169 374.884 106.365 369.241L84 369.589Z" fill="#7C9F25"/>
<path fill-rule="evenodd" clip-rule="evenodd" d="M153.441 481.929C153.244 481.952 152.171 482.063 151.66 482.116C152.262 482.061 152.856 481.999 153.441 481.929ZM96.9695 440.819C96.4258 439.793 95.896 438.773 95.3814 437.762C97.8564 433.412 102.058 421.408 99.0652 408.193C96.4601 407.796 90.169 407.796 85.8455 410.975C86.5813 408.662 89.457 402.86 92.757 396.539C101.921 404.038 112.004 404.412 116.561 402.544C120.826 400.795 126.637 401.148 129.759 401.998C130.213 393.43 126.169 374.884 106.365 369.241L128.73 368.893L140.414 386.669C136.734 384.259 129.648 379.118 128.938 376.717C128.939 376.774 128.94 376.835 128.941 376.899C129.003 380.958 129.275 398.654 135.784 403.396L126.312 421.901C124.676 418.147 119.975 410.358 114.261 409.231C114.237 409.49 114.225 409.762 114.213 410.05C114.139 411.748 114.041 413.99 111.279 417.253C110.36 418.338 109.051 419.462 107.592 420.714C102.73 424.889 96.2078 430.489 96.9695 440.819Z" fill="#618509"/>
<path d="M138.745 397.61L152.098 404.445L140.414 386.669C136.734 384.259 129.648 379.118 128.938 376.717L128.941 376.899C129.003 380.958 129.275 398.654 135.784 403.396L138.745 397.61Z" fill="#89BF0F"/>
<path d="M129.023 326.556C126.996 330.622 125.612 334.463 124.838 337.405C135.854 342.955 159.997 351.899 168.438 343.276L171.152 338.946C166.682 337.152 156.697 334.158 152.524 336.531C154.617 328.41 163.806 313.482 183.819 318.737C178.209 314.601 165.644 306.598 160.269 307.665C162.466 305.797 169.042 301.851 177.766 301.01C170.462 300.932 163.334 301.306 157.224 302.31C151.065 303.323 145.823 306.195 141.45 309.973C141.281 317.768 151.827 320.805 157.121 321.349C150.91 325.801 136.348 325.615 129.843 324.965C129.607 325.422 129.111 326.379 129.023 326.556Z" fill="#89BF0F"/>
<path d="M124.838 337.405L159.089 358.192L168.438 343.276C159.997 351.899 135.854 342.955 124.838 337.405Z" fill="#9ED22A"/>
<path d="M152.524 336.531C156.697 334.158 166.682 337.152 171.152 338.946L177.486 328.841C169.69 323.223 157.596 331.627 152.524 336.531Z" fill="#7C9F25"/>
<path d="M183.819 318.737C163.806 313.482 154.617 328.41 152.524 336.531C157.596 331.627 169.69 323.223 177.486 328.841L183.819 318.737Z" fill="#9ED22A"/>
<path d="M129.843 324.965C136.348 325.615 150.91 325.801 157.121 321.349C151.827 320.805 141.281 317.768 141.45 309.973C136.484 314.265 132.638 319.726 129.843 324.965Z" fill="#7C9F25"/>
<path d="M183.819 318.737L194.375 301.896C188.984 301.391 183.324 301.07 177.766 301.01C169.042 301.851 162.466 305.797 160.269 307.665C165.644 306.598 178.209 314.601 183.819 318.737Z" fill="#7C9F25"/>
<path d="M194.375 301.896L183.819 318.737C191.657 328.475 205.404 332.759 211.298 333.683C211.095 333.521 210.874 333.362 210.64 333.193C209.26 332.199 207.44 330.888 206.228 326.788C205.824 325.425 205.603 323.714 205.356 321.807C204.533 315.451 203.429 306.927 194.375 301.896Z" fill="#7C9F25"/>
<path d="M183.819 318.737L194.094 336.808C198.13 337.499 207.221 337.842 211.298 333.683C205.404 332.759 191.657 328.475 183.819 318.737Z" fill="#89BF0F"/>
<path d="M197.802 302.245C200.081 306.701 207.812 316.8 220.503 321.547C217.552 318.183 211.282 309.955 209.809 303.96C206.175 303.306 202.105 302.72 197.802 302.245Z" fill="#7C9F25"/>
<path d="M220.503 321.547C222.264 319.587 225.715 314.327 225.429 308.968C224.06 307.283 218.06 305.445 209.809 303.96C211.282 309.955 217.552 318.183 220.503 321.547Z" fill="#89BF0F"/>
<path d="M215.627 339.274C214.749 343.799 211.266 348.464 208.843 350.609C215.464 349.912 231.141 345.983 240.882 335.843C238.76 331.865 236.183 327.104 233.707 322.667C222.41 326.215 216.565 334.44 215.627 339.274Z" fill="#89BF0F"/>
<path d="M261.044 330.131L243.223 340.263C242.545 338.973 241.752 337.474 240.882 335.843C231.141 345.983 215.464 349.912 208.843 350.609C215.758 355.688 233.482 362.482 249.065 349.02L261.044 330.131Z" fill="#7C9F25"/>
<path fill-rule="evenodd" clip-rule="evenodd" d="M129.023 326.556C129.111 326.379 129.607 325.422 129.843 324.965C129.559 325.498 129.285 326.029 129.023 326.556ZM194.375 301.896C203.429 306.927 204.533 315.451 205.356 321.807C205.603 323.714 205.824 325.425 206.228 326.788C207.44 330.888 209.26 332.199 210.64 333.193C210.874 333.362 211.095 333.521 211.298 333.683C207.221 337.842 198.13 337.499 194.094 336.808L204.369 354.878C211.905 352.038 226.849 361.519 230.276 363.694C230.33 363.728 230.382 363.761 230.43 363.791C228.033 363.068 219.848 366.172 215.814 367.926L237.086 367.91L249.065 349.02C233.482 362.482 215.758 355.688 208.843 350.609C211.266 348.464 214.749 343.799 215.627 339.274C216.565 334.44 222.41 326.215 233.707 322.667C230.233 316.44 226.96 310.853 225.429 308.968C225.715 314.327 222.264 319.587 220.503 321.547C207.812 316.8 200.081 306.701 197.802 302.245C196.674 302.121 195.531 302.004 194.375 301.896Z" fill="#618509"/>
<path d="M207.582 360.529L194.542 367.943L215.814 367.926C219.848 366.172 228.033 363.068 230.43 363.791L230.276 363.694C226.849 361.519 211.905 352.038 204.369 354.878L207.582 360.529Z" fill="#89BF0F"/>
<path d="M246.834 438.395L256.257 455.895M246.834 438.395H226.047H205.259H198.759V423.395L188.259 441.895L177.759 460.395L188.259 480.145L198.759 499.895V479.395C200.217 479.444 201.912 479.495 203.759 479.545C208.266 479.667 213.679 479.78 218.759 479.821C225.89 479.878 232.365 479.794 234.759 479.395C236.901 479.038 241.465 474.73 246.834 468.292C249.199 465.456 251.72 462.208 254.259 458.701C254.925 457.783 255.591 456.846 256.257 455.895M246.834 438.395L241.181 427.895L235.528 417.395L233.105 412.895L224.759 397.395L259.759 377.895C261.934 380.023 264.589 383.124 267.121 386.895M256.257 455.895C259.36 451.458 262.437 446.697 265.236 441.895C268.915 435.584 272.113 429.203 274.259 423.395C276.423 417.54 276.518 411.564 275.394 405.895C274.119 399.457 271.272 393.414 268.099 388.395M267.121 386.895C267.45 387.384 267.776 387.884 268.099 388.395M267.121 386.895C267.232 387.06 267.819 387.964 268.099 388.395M183.819 318.737L194.375 301.896M183.819 318.737L194.094 336.808L204.369 354.878L207.582 360.529L194.542 367.943L215.814 367.926L237.086 367.91L249.065 349.02L261.044 330.131L243.223 340.263C242.545 338.973 241.752 337.474 240.882 335.843C238.76 331.865 236.183 327.104 233.707 322.667C230.233 316.44 226.96 310.853 225.429 308.968C224.06 307.283 218.06 305.445 209.809 303.96C206.175 303.306 202.105 302.72 197.802 302.245C196.674 302.121 195.531 302.004 194.375 301.896M183.819 318.737L177.486 328.841L171.152 338.946L168.438 343.276L159.089 358.192L124.838 337.405C125.612 334.463 126.996 330.622 129.023 326.556M194.375 301.896C188.984 301.391 183.324 301.07 177.766 301.01C170.462 300.932 163.334 301.306 157.224 302.31C151.065 303.323 145.823 306.195 141.45 309.973C136.484 314.265 132.638 319.726 129.843 324.965M129.023 326.556C129.285 326.029 129.559 325.498 129.843 324.965M129.023 326.556C129.111 326.379 129.607 325.422 129.843 324.965M116.841 440.405L96.9695 440.819M116.841 440.405L126.312 421.901L135.784 403.396L138.745 397.61L152.098 404.445L140.414 386.669L128.73 368.893L106.365 369.241L84 369.589L102.248 378.929C101.541 380.204 100.723 381.69 99.8368 383.312C97.6752 387.268 95.1084 392.035 92.757 396.539C89.457 402.86 86.5813 408.662 85.8455 410.975C85.1874 413.045 86.9427 419.069 90.2276 426.783C91.6741 430.18 93.4172 433.904 95.3814 437.762C95.896 438.773 96.4258 439.793 96.9695 440.819M116.841 440.405L128.763 440.157L140.686 439.908L145.795 439.802L163.396 439.436L164.807 479.476C161.922 480.443 157.951 481.393 153.441 481.929M96.9695 440.819C99.5051 445.603 102.341 450.512 105.34 455.191C109.282 461.341 113.505 467.096 117.697 471.652C121.923 476.246 127.2 479.053 132.758 480.637C139.07 482.434 145.747 482.653 151.66 482.116M153.441 481.929C152.856 481.999 152.262 482.061 151.66 482.116M153.441 481.929C153.244 481.952 152.171 482.063 151.66 482.116" stroke="#D8F991" stroke-width="2"/>
</g>
<defs>
<filter id="filter0_d_2311_2" x="221" y="0" width="143.005" height="130.94" filterUnits="userSpaceOnUse" color-interpolation-filters="sRGB">
<feFlood flood-opacity="0" result="BackgroundImageFix"/>
<feColorMatrix in="SourceAlpha" type="matrix" values="0 0 0 0 0 0 0 0 0 0 0 0 0 0 0 0 0 0 127 0" result="hardAlpha"/>
<feOffset dy="4"/>
<feGaussianBlur stdDeviation="2"/>
<feComposite in2="hardAlpha" operator="out"/>
<feColorMatrix type="matrix" values="0 0 0 0 0 0 0 0 0 0 0 0 0 0 0 0 0 0 0.25 0"/>
<feBlend mode="normal" in2="BackgroundImageFix" result="effect1_dropShadow_2311_2"/>
<feBlend mode="normal" in="SourceGraphic" in2="effect1_dropShadow_2311_2" result="shape"/>
</filter>
<filter id="filter1_d_2311_2" x="221" y="634" width="143.005" height="179.078" filterUnits="userSpaceOnUse" color-interpolation-filters="sRGB">
<feFlood flood-opacity="0" result="BackgroundImageFix"/>
<feColorMatrix in="SourceAlpha" type="matrix" values="0 0 0 0 0 0 0 0 0 0 0 0 0 0 0 0 0 0 127 0" result="hardAlpha"/>
<feOffset dy="4"/>
<feGaussianBlur stdDeviation="2"/>
<feComposite in2="hardAlpha" operator="out"/>
<feColorMatrix type="matrix" values="0 0 0 0 0 0 0 0 0 0 0 0 0 0 0 0 0 0 0.25 0"/>
<feBlend mode="normal" in2="BackgroundImageFix" result="effect1_dropShadow_2311_2"/>
<feBlend mode="normal" in="SourceGraphic" in2="effect1_dropShadow_2311_2" result="shape"/>
</filter>
<filter id="filter2_d_2311_2" x="-17.4045" y="-69.9615" width="226.677" height="157.56" filterUnits="userSpaceOnUse" color-interpolation-filters="sRGB">
<feFlood flood-opacity="0" result="BackgroundImageFix"/>
<feColorMatrix in="SourceAlpha" type="matrix" values="0 0 0 0 0 0 0 0 0 0 0 0 0 0 0 0 0 0 127 0" result="hardAlpha"/>
<feOffset dy="4"/>
<feGaussianBlur stdDeviation="2"/>
<feComposite in2="hardAlpha" operator="out"/>
<feColorMatrix type="matrix" values="0 0 0 0 0 0 0 0 0 0 0 0 0 0 0 0 0 0 0.25 0"/>
<feBlend mode="normal" in2="BackgroundImageFix" result="effect1_dropShadow_2311_2"/>
<feBlend mode="normal" in="SourceGraphic" in2="effect1_dropShadow_2311_2" result="shape"/>
</filter>
<filter id="filter3_d_2311_2" x="-4" y="690.392" width="212.62" height="156.859" filterUnits="userSpaceOnUse" color-interpolation-filters="sRGB">
<feFlood flood-opacity="0" result="BackgroundImageFix"/>
<feColorMatrix in="SourceAlpha" type="matrix" values="0 0 0 0 0 0 0 0 0 0 0 0 0 0 0 0 0 0 127 0" result="hardAlpha"/>
<feOffset dy="4"/>
<feGaussianBlur stdDeviation="2"/>
<feComposite in2="hardAlpha" operator="out"/>
<feColorMatrix type="matrix" values="0 0 0 0 0 0 0 0 0 0 0 0 0 0 0 0 0 0 0.25 0"/>
<feBlend mode="normal" in2="BackgroundImageFix" result="effect1_dropShadow_2311_2"/>
<feBlend mode="normal" in="SourceGraphic" in2="effect1_dropShadow_2311_2" result="shape"/>
</filter>
<clipPath id="clip0_2311_2">
<rect width="360" height="800" fill="white"/>
</clipPath>
</defs>
</svg>
