<svg width="195" height="201" viewBox="0 0 195 201" fill="none" xmlns="http://www.w3.org/2000/svg">
<path d="M115.759 199.895V179.395C117.217 179.444 118.912 179.495 120.759 179.545C116.759 166.065 121.093 150.495 123.759 144.395C115.926 147.895 101.259 159.945 105.259 180.145L115.759 199.895Z" fill="#7C9F25"/>
<path d="M130.259 155.895C126.759 152.895 124.426 147.562 123.759 144.395C121.093 150.495 116.759 166.065 120.759 179.545C125.266 179.667 130.679 179.78 135.759 179.821C138.259 168.246 133.998 159.1 130.259 155.895Z" fill="#89BF0F"/>
<path d="M115.759 138.395V123.395L105.259 141.895C104.791 146.269 103.443 154.919 101.629 156.645L101.791 156.559C105.374 154.655 121.003 146.35 122.259 138.395H115.759Z" fill="#89BF0F"/>
<path d="M163.834 138.395H143.047C140.451 141.562 135.659 149.295 137.259 154.895C140.976 150.228 151.494 140.395 163.834 138.395Z" fill="#89BF0F"/>
<path d="M173.257 155.895L163.834 138.395C151.494 140.395 140.976 150.228 137.259 154.895C137.501 154.799 137.748 154.685 138.01 154.565C139.556 153.857 141.596 152.923 145.759 153.895C147.144 154.218 148.741 154.872 150.52 155.599C156.452 158.026 164.408 161.28 173.257 155.895Z" fill="#7C9F25"/>
<path d="M143.259 168.895C144.093 171.395 146.959 176.995 151.759 179.395C153.901 179.038 158.465 174.73 163.834 168.292C157.894 166.609 147.643 167.993 143.259 168.895Z" fill="#89BF0F"/>
<path d="M171.259 158.701C166.259 158.48 153.659 160.209 143.259 168.895C147.643 167.993 157.894 166.609 163.834 168.292C166.199 165.456 168.72 162.208 171.259 158.701Z" fill="#7C9F25"/>
<path d="M184.121 86.8951C181.589 83.1238 178.934 80.0226 176.759 77.8951C166.49 84.7284 146.781 101.295 150.105 112.895L152.528 117.395C156.296 114.395 163.834 107.195 163.834 102.395C169.859 108.228 178.294 123.595 163.834 138.395C170.202 135.562 183.371 128.595 185.099 123.395C185.637 126.228 185.817 133.895 182.236 141.895C185.915 135.584 189.113 129.203 191.259 123.395C193.423 117.54 193.518 111.564 192.394 105.895C185.703 101.895 177.849 109.562 174.759 113.895C173.959 106.295 181.319 93.7284 185.099 88.3951C184.819 87.9638 184.232 87.06 184.121 86.8951Z" fill="#89BF0F"/>
<path d="M163.834 138.395L173.257 155.895C176.36 151.458 179.437 146.697 182.236 141.895C185.817 133.895 185.637 126.228 185.099 123.395C183.371 128.595 170.202 135.562 163.834 138.395Z" fill="#7C9F25"/>
<path d="M185.099 88.3951C181.319 93.7284 173.959 106.295 174.759 113.895C177.849 109.562 185.703 101.895 192.394 105.895C191.119 99.4567 188.272 93.4141 185.099 88.3951Z" fill="#7C9F25"/>
<path d="M163.834 102.395C163.834 107.195 156.296 114.395 152.528 117.395L158.181 127.895C166.918 123.895 165.59 109.228 163.834 102.395Z" fill="#7C9F25"/>
<path fill-rule="evenodd" clip-rule="evenodd" d="M173.257 155.895C164.408 161.28 156.452 158.026 150.52 155.599C148.741 154.872 147.144 154.218 145.759 153.895C141.596 152.923 139.556 153.857 138.01 154.565C137.748 154.685 137.501 154.799 137.259 154.895C135.659 149.295 140.451 141.562 143.047 138.395H122.259C121.003 146.35 105.374 154.655 101.791 156.559L101.629 156.645C103.443 154.919 104.791 146.269 105.259 141.895L94.7592 160.395L105.259 180.145C101.259 159.945 115.926 147.895 123.759 144.395C124.426 147.562 126.759 152.895 130.259 155.895C133.998 159.1 138.259 168.246 135.759 179.821C142.89 179.878 149.365 179.794 151.759 179.395C146.959 176.995 144.093 171.395 143.259 168.895C153.659 160.209 166.259 158.48 171.259 158.701C171.925 157.783 172.591 156.846 173.257 155.895ZM184.121 86.8951C184.45 87.3841 184.776 87.8843 185.099 88.3951C184.819 87.9638 184.232 87.06 184.121 86.8951Z" fill="#54720A"/>
<path d="M163.834 138.395C178.294 123.595 169.859 108.228 163.834 102.395C165.59 109.228 166.918 123.895 158.181 127.895L163.834 138.395Z" fill="#9ED22A"/>
<path d="M176.759 77.8951L141.759 97.3951L150.105 112.895C146.781 101.295 166.49 84.7284 176.759 77.8951Z" fill="#9ED22A"/>
<path d="M70.4405 181.929C74.9515 181.393 78.9217 180.443 81.8065 179.476C80.4029 167.221 74.6358 142.129 62.7955 139.802L57.6858 139.908C58.639 144.63 61.6137 154.621 65.8865 156.808C57.9486 159.513 40.4265 160.02 33.8405 140.405C33.4611 147.365 33.6626 162.261 37.5041 166.169C34.7368 165.357 27.8299 162.024 22.3404 155.191C26.2823 161.341 30.5055 167.096 34.6972 171.652C38.923 176.246 44.1995 179.053 49.7579 180.637C56.3675 176.502 53.1212 166.018 50.6718 161.293C57.8016 164.044 65.6346 176.321 68.6599 182.116C69.1714 182.063 70.2435 181.952 70.4405 181.929Z" fill="#89BF0F"/>
<path d="M81.8065 179.476L80.3955 139.436L62.7955 139.802C74.6358 142.129 80.4029 167.221 81.8065 179.476Z" fill="#9ED22A"/>
<path d="M65.8865 156.808C61.6137 154.621 58.639 144.63 57.6858 139.908L45.7631 140.157C45.3428 149.757 59.0036 155.258 65.8865 156.808Z" fill="#7C9F25"/>
<path d="M33.8405 140.405C40.4265 160.02 57.9486 159.513 65.8865 156.808C59.0036 155.258 45.3428 149.757 45.7631 140.157L33.8405 140.405Z" fill="#9ED22A"/>
<path d="M68.6599 182.116C65.6346 176.321 57.8016 164.044 50.6718 161.293C53.1212 166.018 56.3675 176.502 49.7579 180.637C56.0704 182.434 62.7465 182.653 68.6599 182.116Z" fill="#7C9F25"/>
<path d="M33.8405 140.405L13.9695 140.819C16.5051 145.603 19.3413 150.512 22.3404 155.191C27.8299 162.024 34.7368 165.357 37.5041 166.169C33.6626 162.261 33.4611 147.365 33.8405 140.405Z" fill="#7C9F25"/>
<path d="M13.9695 140.819L33.8405 140.405C37.6827 128.509 33.722 114.666 31.2613 109.231C31.2373 109.49 31.2254 109.762 31.2128 110.05C31.1388 111.748 31.041 113.99 28.2786 117.253C27.36 118.338 26.0507 119.462 24.5922 120.714C19.7297 124.889 13.2078 130.489 13.9695 140.819Z" fill="#7C9F25"/>
<path d="M33.8405 140.405L43.3121 121.901C41.676 118.147 36.9753 110.358 31.2613 109.231C33.722 114.666 37.6827 128.509 33.8405 140.405Z" fill="#89BF0F"/>
<path d="M12.3814 137.762C14.8564 133.412 19.0583 121.408 16.0652 108.193C14.8711 112.506 11.4319 122.262 7.22758 126.783C8.67409 130.18 10.4172 133.904 12.3814 137.762Z" fill="#7C9F25"/>
<path d="M16.0652 108.193C13.4601 107.796 7.16897 107.796 2.84552 110.975C2.18735 113.045 3.94273 119.069 7.22758 126.783C11.4319 122.262 14.8711 112.506 16.0652 108.193Z" fill="#89BF0F"/>
<path d="M33.5606 102.544C37.8258 100.795 43.6365 101.148 46.7591 101.998C42.5442 96.8446 30.6589 85.893 16.8368 83.3117C14.6752 87.2676 12.1084 92.0348 9.75701 96.5387C18.9212 104.038 29.0042 104.412 33.5606 102.544Z" fill="#89BF0F"/>
<path d="M1 69.5886L19.2484 78.9292C18.5412 80.2042 17.723 81.6898 16.8368 83.3117C30.6589 85.893 42.5442 96.8446 46.7591 101.998C47.2127 93.43 43.1689 74.8839 23.365 69.2407L1 69.5886Z" fill="#7C9F25"/>
<path fill-rule="evenodd" clip-rule="evenodd" d="M70.4405 181.929C70.2435 181.952 69.1714 182.063 68.6599 182.116C69.2617 182.061 69.8557 181.999 70.4405 181.929ZM13.9695 140.819C13.4258 139.793 12.896 138.773 12.3814 137.762C14.8564 133.412 19.0583 121.408 16.0652 108.193C13.4601 107.796 7.16897 107.796 2.84552 110.975C3.58126 108.662 6.45698 102.86 9.75701 96.5387C18.9212 104.038 29.0042 104.412 33.5606 102.544C37.8258 100.795 43.6365 101.148 46.7591 101.998C47.2127 93.43 43.1689 74.8839 23.365 69.2407L45.7299 68.8927L57.4138 86.6687C53.7337 84.2586 46.6479 79.1183 45.9379 76.717C45.9388 76.7744 45.9397 76.8352 45.9407 76.8995C46.003 80.9576 46.275 98.6539 52.7836 103.396L43.3121 121.901C41.676 118.147 36.9753 110.358 31.2613 109.231C31.2373 109.49 31.2254 109.762 31.2128 110.05C31.1388 111.748 31.041 113.99 28.2786 117.253C27.36 118.338 26.0507 119.462 24.5922 120.714C19.7297 124.889 13.2078 130.489 13.9695 140.819Z" fill="#618509"/>
<path d="M55.7452 97.6102L69.0977 104.445L57.4138 86.6687C53.7337 84.2586 46.6479 79.1183 45.9379 76.717L45.9407 76.8995C46.003 80.9576 46.275 98.6539 52.7836 103.396L55.7452 97.6102Z" fill="#89BF0F"/>
<path d="M46.0226 26.5563C43.9959 30.6218 42.6123 34.4626 41.8378 37.4047C52.8541 42.9547 76.997 51.8989 85.4381 43.276L88.1525 38.9456C83.6817 37.1521 73.6969 34.1582 69.5242 36.5307C71.6172 28.4099 80.8063 13.4819 100.819 18.7368C95.2086 14.6014 82.6437 6.59758 77.2691 7.66545C79.4662 5.79735 86.0416 1.85094 94.7663 1.0101C87.4616 0.931626 80.3335 1.30551 74.2242 2.31027C68.0652 3.32318 62.8232 6.19452 58.4502 9.97319C58.2806 17.7675 68.8269 20.805 74.1213 21.3494C67.91 25.8014 53.348 25.6148 46.8434 24.9651C46.6068 25.4216 46.1114 26.3789 46.0226 26.5563Z" fill="#89BF0F"/>
<path d="M41.8378 37.4047L76.0889 58.192L85.4381 43.276C76.997 51.8989 52.8541 42.9547 41.8378 37.4047Z" fill="#9ED22A"/>
<path d="M69.5242 36.5307C73.6969 34.1582 83.6817 37.1521 88.1525 38.9456L94.4858 28.8412C86.69 23.2229 74.5965 31.6266 69.5242 36.5307Z" fill="#7C9F25"/>
<path d="M100.819 18.7368C80.8063 13.4819 71.6172 28.4099 69.5242 36.5307C74.5965 31.6266 86.69 23.2229 94.4858 28.8412L100.819 18.7368Z" fill="#9ED22A"/>
<path d="M46.8434 24.9651C53.348 25.6148 67.91 25.8014 74.1213 21.3494C68.8269 20.805 58.2806 17.7675 58.4502 9.97319C53.4838 14.2646 49.6383 19.7263 46.8434 24.9651Z" fill="#7C9F25"/>
<path d="M100.819 18.7368L111.375 1.89614C105.984 1.39136 100.324 1.0698 94.7663 1.0101C86.0416 1.85094 79.4662 5.79735 77.2691 7.66545C82.6437 6.59758 95.2086 14.6014 100.819 18.7368Z" fill="#7C9F25"/>
<path d="M111.375 1.89614L100.819 18.7368C108.657 28.4754 122.404 32.7588 128.298 33.6831C128.095 33.5209 127.874 33.3616 127.64 33.1932C126.26 32.1994 124.44 30.8881 123.228 26.7883C122.824 25.425 122.603 23.7136 122.356 21.8072C121.533 15.4514 120.429 6.92661 111.375 1.89614Z" fill="#7C9F25"/>
<path d="M100.819 18.7368L111.094 36.8075C115.13 37.4989 124.221 37.8419 128.298 33.6831C122.404 32.7588 108.657 28.4754 100.819 18.7368Z" fill="#89BF0F"/>
<path d="M114.802 2.24532C117.081 6.70116 124.812 16.7997 137.503 21.5474C134.552 18.1829 128.282 9.95502 126.809 3.95965C123.175 3.30552 119.105 2.71972 114.802 2.24532Z" fill="#7C9F25"/>
<path d="M137.503 21.5474C139.264 19.5873 142.715 14.3273 142.429 8.96842C141.06 7.28286 135.06 5.44509 126.809 3.95965C128.282 9.95502 134.552 18.1829 137.503 21.5474Z" fill="#89BF0F"/>
<path d="M132.627 39.274C131.749 43.7994 128.266 48.4639 125.843 50.6086C132.464 49.9117 148.141 45.9829 157.882 35.8428C155.76 31.8653 153.183 27.1039 150.707 22.667C139.41 26.2148 133.565 34.4397 132.627 39.274Z" fill="#89BF0F"/>
<path d="M178.044 30.1308L160.223 40.2634C159.545 38.9726 158.752 37.4736 157.882 35.8428C148.141 45.9829 132.464 49.9117 125.843 50.6086C132.758 55.6882 150.482 62.482 166.065 49.0204L178.044 30.1308Z" fill="#7C9F25"/>
<path fill-rule="evenodd" clip-rule="evenodd" d="M46.0226 26.5563C46.1114 26.3789 46.6068 25.4216 46.8434 24.9651C46.5589 25.4983 46.2853 26.0292 46.0226 26.5563ZM111.375 1.89614C120.429 6.92661 121.533 15.4514 122.356 21.8072C122.603 23.7136 122.824 25.425 123.228 26.7883C124.44 30.8881 126.26 32.1994 127.64 33.1932C127.874 33.3616 128.095 33.5209 128.298 33.6831C124.221 37.8419 115.13 37.4989 111.094 36.8075L121.369 54.8782C128.905 52.0383 143.849 61.5195 147.276 63.6937C147.33 63.7281 147.382 63.7607 147.43 63.7914C145.033 63.0677 136.848 66.1719 132.814 67.9264L154.086 67.9101L166.065 49.0204C150.482 62.482 132.758 55.6882 125.843 50.6086C128.266 48.4639 131.749 43.7994 132.627 39.274C133.565 34.4397 139.41 26.2148 150.707 22.667C147.233 16.4402 143.96 10.8526 142.429 8.96842C142.715 14.3273 139.264 19.5873 137.503 21.5474C124.812 16.7997 117.081 6.70116 114.802 2.24532C113.674 2.12102 112.531 2.00437 111.375 1.89614Z" fill="#618509"/>
<path d="M124.582 60.5287L111.542 67.9428L132.814 67.9264C136.848 66.1719 145.033 63.0677 147.43 63.7914L147.276 63.6937C143.849 61.5195 128.905 52.0383 121.369 54.8782L124.582 60.5287Z" fill="#89BF0F"/>
<path d="M163.834 138.395L173.257 155.895M163.834 138.395H143.047H122.259H115.759V123.395L105.259 141.895L94.7592 160.395L105.259 180.145L115.759 199.895V179.395C117.217 179.444 118.912 179.495 120.759 179.545C125.266 179.667 130.679 179.78 135.759 179.821C142.89 179.878 149.365 179.794 151.759 179.395C153.901 179.038 158.465 174.73 163.834 168.292C166.199 165.456 168.72 162.208 171.259 158.701C171.925 157.783 172.591 156.846 173.257 155.895M163.834 138.395L158.181 127.895L152.528 117.395L150.105 112.895L141.759 97.3951L176.759 77.8951C178.934 80.0226 181.589 83.1238 184.121 86.8951M173.257 155.895C176.36 151.458 179.437 146.697 182.236 141.895C185.915 135.584 189.113 129.203 191.259 123.395C193.423 117.54 193.518 111.564 192.394 105.895C191.119 99.4567 188.272 93.4141 185.099 88.3951M184.121 86.8951C184.45 87.3841 184.776 87.8843 185.099 88.3951M184.121 86.8951C184.232 87.06 184.819 87.9638 185.099 88.3951M100.819 18.7368L111.375 1.89614M100.819 18.7368L111.094 36.8075L121.369 54.8782L124.582 60.5287L111.542 67.9428L132.814 67.9264L154.086 67.9101L166.065 49.0204L178.044 30.1308L160.223 40.2634C159.545 38.9726 158.752 37.4736 157.882 35.8428C155.76 31.8653 153.183 27.1039 150.707 22.667C147.233 16.4402 143.96 10.8526 142.429 8.96842C141.06 7.28286 135.06 5.44509 126.809 3.95965C123.175 3.30552 119.105 2.71972 114.802 2.24532C113.674 2.12102 112.531 2.00437 111.375 1.89614M100.819 18.7368L94.4858 28.8412L88.1525 38.9456L85.4381 43.276L76.0889 58.192L41.8378 37.4047C42.6123 34.4626 43.9959 30.6218 46.0226 26.5563M111.375 1.89614C105.984 1.39136 100.324 1.0698 94.7663 1.0101C87.4616 0.931626 80.3335 1.30551 74.2242 2.31027C68.0652 3.32318 62.8232 6.19452 58.4502 9.97319C53.4838 14.2646 49.6383 19.7263 46.8434 24.9651M46.0226 26.5563C46.2853 26.0292 46.5589 25.4983 46.8434 24.9651M46.0226 26.5563C46.1114 26.3789 46.6068 25.4216 46.8434 24.9651M33.8405 140.405L13.9695 140.819M33.8405 140.405L43.3121 121.901L52.7836 103.396L55.7452 97.6102L69.0977 104.445L57.4138 86.6687L45.7299 68.8927L23.365 69.2407L1 69.5886L19.2484 78.9292C18.5412 80.2042 17.723 81.6898 16.8368 83.3117C14.6752 87.2676 12.1084 92.0348 9.75701 96.5387C6.45698 102.86 3.58126 108.662 2.84552 110.975C2.18735 113.045 3.94273 119.069 7.22758 126.783C8.67409 130.18 10.4172 133.904 12.3814 137.762C12.896 138.773 13.4258 139.793 13.9695 140.819M33.8405 140.405L45.7631 140.157L57.6858 139.908L62.7955 139.802L80.3955 139.436L81.8065 179.476C78.9217 180.443 74.9515 181.393 70.4405 181.929M13.9695 140.819C16.5051 145.603 19.3413 150.512 22.3404 155.191C26.2823 161.341 30.5055 167.096 34.6972 171.652C38.923 176.246 44.1995 179.053 49.7579 180.637C56.0704 182.434 62.7465 182.653 68.6599 182.116M70.4405 181.929C69.8557 181.999 69.2617 182.061 68.6599 182.116M70.4405 181.929C70.2435 181.952 69.1714 182.063 68.6599 182.116" stroke="#D8F991" stroke-width="2"/>
</svg>
