<svg width="200" height="200" viewBox="0 0 200 200" fill="none" xmlns="http://www.w3.org/2000/svg">
<path d="M126.5 105H83L83.7527 109.704L124.175 116.625L126.5 105Z" fill="#4397A4"/>
<path d="M126.5 105H130.5V97.5H77.5V105H79H83H126.5Z" fill="#71B8C8"/>
<path d="M121.1 132L121.85 128.25L124.175 116.625L83.7527 109.704L89 142.5H119L121.1 132Z" fill="#71B8C8"/>
<path d="M81.24 119L81.64 121.5L82.36 126L85 142.5H89L83.7527 109.704L79.64 109L80.76 116L81.24 119Z" fill="#BDE8F2"/>
<path d="M83 105H79L79.64 109L83.7527 109.704L83 105Z" fill="#AAD3DC"/>
<path d="M130.5 94H87.5H83.5H74.5V105H77.5V97.5H130.5V94Z" fill="#BDE8F2"/>
<path d="M110.5 65.5C110.5 62.8333 108.9 57.5 102.5 57.5C101.676 57.5 100.597 57.6528 99.5 58.0528C98.4477 58.4364 97.3783 59.0474 96.5 59.9691C95.3305 61.1963 94.5 62.9744 94.5 65.5H96.5H108.5H110.5Z" fill="#87C01B"/>
<path d="M96.5 71.5C96.8333 72.8333 98.5 75.5 102.5 75.5C106.5 75.5 108.167 72.8333 108.5 71.5V70V68.5V65.5H96.5V70V71.5Z" fill="#DFB139"/>
<path d="M87.5 94H130.5V97.5M83.5 94H74.5V105H77.5M71 142.5H76M131.5 142.5H126M79 105L80.76 116M79 105H77.5M79 105H83M85 142.5L82.36 126M85 142.5H79M85 142.5H89M126.5 105H130.5V97.5M126.5 105L121.85 128.25M126.5 105H83M119 142.5L121.1 132M119 142.5H123M119 142.5H89M102 117L111 126M95 117L110 132M94 123.5L98.5 128.25L100.75 130.625L103 133M81.24 119L81.64 121.5M88.5 147.5H109.5M112 147.5H117M77.5 105V97.5H130.5M83 105L89 142.5M102.5 57.5C108.9 57.5 110.5 62.8333 110.5 65.5H108.5M102.5 57.5C102.333 56 102.8 53 106 53M102.5 57.5C101.676 57.5 100.597 57.6528 99.5 58.0528M96.5 65.5H94.5C94.5 62.9744 95.3305 61.1963 96.5 59.9691C96.885 59.565 97.3068 59.2206 97.7478 58.929M96.5 65.5H108.5M96.5 65.5V70M96.5 71.5C96.8333 72.8333 98.5 75.5 102.5 75.5C106.5 75.5 108.167 72.8333 108.5 71.5V70M108.5 65.5V68.5M99.5 71.5C99.5 72.1667 99.9 73.5 101.5 73.5M99.5 68.5V70.5M106.5 78.5V85.5M102.5 80.5V83.5M102.5 85.5V89.5M98.5 80.5V88.5" stroke="black"/>
<path fill-rule="evenodd" clip-rule="evenodd" d="M169.4 28.2511C151.27 10.7657 126.582 0 99.5 0C95.9101 0 93 2.91015 93 6.5C93 10.0899 95.9101 13 99.5 13C123.341 13 144.956 22.5352 160.737 38C160.868 38.1276 160.997 38.2557 161.127 38.3841C162.167 39.3234 163.506 39.8884 164.966 39.8884C168.279 39.8884 171.053 36.9782 171.053 33.3884C171.053 31.4835 170.569 29.4789 169.4 28.2511Z" fill="url(#paint0_linear_2336_3)"/>
<defs>
<linearGradient id="paint0_linear_2336_3" x1="0" y1="100" x2="200" y2="100" gradientUnits="userSpaceOnUse">
<stop stop-color="#D8F991"/>
<stop offset="1" stop-color="#9ED22A"/>
</linearGradient>
</defs>
</svg>
