<svg width="200" height="200" viewBox="0 0 200 200" fill="none" xmlns="http://www.w3.org/2000/svg">
<path d="M126.5 95.2076H83L83.7527 99.9118L124.175 106.833L126.5 95.2076Z" fill="#4397A4"/>
<path d="M126.5 95.2076H130.5V87.7076H77.5V95.2076H79H83H126.5Z" fill="#71B8C8"/>
<path d="M121.1 122.208L121.85 118.458L124.175 106.833L83.7527 99.9118L89 132.708H119L121.1 122.208Z" fill="#71B8C8"/>
<path d="M81.24 109.208L81.64 111.708L82.36 116.208L85 132.708H89L83.7527 99.9118L79.64 99.2076L80.76 106.208L81.24 109.208Z" fill="#BDE8F2"/>
<path d="M83 95.2076H79L79.64 99.2076L83.7527 99.9118L83 95.2076Z" fill="#AAD3DC"/>
<path d="M130.5 84.2076H87.5H83.5H74.5V95.2076H77.5V87.7076H130.5V84.2076Z" fill="#BDE8F2"/>
<path d="M102 78.2076V81.2076C108.195 81.3797 111.898 79.8304 114 77.6507C115.006 76.6075 115.645 75.42 116.016 74.2076C116.67 72.0651 116.485 69.8451 116 68.2076C110.802 66.3994 107.274 68.3376 105.038 71.2076C103.957 72.5958 103.178 74.202 102.659 75.7076C102.351 76.5981 102.135 77.4534 102 78.2076Z" fill="#87C01B"/>
<path d="M102 78.2076C102.135 77.4534 102.351 76.5981 102.659 75.7076C103.178 74.202 103.957 72.5958 105.038 71.2076C104.31 67.6417 102.863 65.0554 101.071 63.2076C100.42 62.5363 99.7239 61.9625 99 61.4746C95.2349 58.9369 90.7259 58.7236 88.0002 59.2076C87.6278 60.2005 87.3248 61.399 87.1814 62.7076C87.0939 63.5071 87.0658 64.3477 87.118 65.2076C87.3053 68.2941 88.5254 71.6297 91.7307 74.2076C92.3968 74.7434 93.1486 75.2464 93.9948 75.7076C96.0601 76.8335 98.6871 77.7107 102 78.2076Z" fill="#87C01B"/>
<path d="M87.5 84.2076H130.5V87.7076M83.5 84.2076H74.5V95.2076H77.5M126.5 95.2076H130.5V87.7076M126.5 95.2076L121.85 118.458M126.5 95.2076H83M102 107.208L111 116.208M95 107.208L110 122.208M94 113.708L103 123.208M79 95.2076L80.76 106.208M79 95.2076H77.5M79 95.2076H83M81.24 109.208L81.64 111.708M82.36 116.208L85 132.708M85 132.708H79M85 132.708H89M121.1 122.208L119 132.708M119 132.708H123M119 132.708H89M126 132.708H131.5M71 132.708H76M88.5 137.708H109.5M112 137.708H117M77.5 95.2076V87.7076H130.5M83 95.2076L89 132.708M102 84.2076V81.2076M102 81.2076V78.2076M102 81.2076C104 79.041 108.4 74.5076 110 73.7076M102 81.2076C108.195 81.3797 111.898 79.8304 114 77.6507M102 78.2076C102.135 77.4534 102.351 76.5981 102.659 75.7076M102 78.2076C98.6869 77.7107 96.0599 76.8335 93.9946 75.7076M105.038 71.2076C107.274 68.3376 110.801 66.3994 116 68.2076C116.485 69.8451 116.67 72.0651 116.016 74.2076M105.038 71.2076C103.957 72.5958 103.178 74.202 102.659 75.7076M105.038 71.2076C104.31 67.6417 102.863 65.0554 101.071 63.2076M102.659 75.7076C100.755 71.7076 97.0928 68.7076 95.4998 67.7076M87.1813 62.7076C87.3247 61.399 87.6277 60.2005 88 59.2076C90.7257 58.7236 95.2347 58.9369 98.9998 61.4746M87.1179 65.2076C87.3051 68.2941 88.5252 71.6297 91.7305 74.2076" stroke="black"/>
<path fill-rule="evenodd" clip-rule="evenodd" d="M200 100.5C200 45.2715 154.728 0 99.5 0C95.9101 0 93 2.91015 93 6.5C93 10.0899 95.9101 13 99.5 13C147.825 13 187 52.1751 187 100.5C187 104.09 189.91 107 193.5 107C197.09 107 200 104.09 200 100.5Z" fill="url(#paint0_linear_2336_4)"/>
<defs>
<linearGradient id="paint0_linear_2336_4" x1="0" y1="100" x2="200" y2="100" gradientUnits="userSpaceOnUse">
<stop stop-color="#D8F991"/>
<stop offset="1" stop-color="#9ED22A"/>
</linearGradient>
</defs>
</svg>
