<svg width="200" height="200" viewBox="0 0 200 200" fill="none" xmlns="http://www.w3.org/2000/svg">
<path d="M126.5 109.062H83L83.7527 113.766L124.175 120.687L126.5 109.062Z" fill="#4397A4"/>
<path d="M126.5 109.062H130.5V101.562H77.5V109.062H79H83H126.5Z" fill="#71B8C8"/>
<path d="M121.1 136.062L121.85 132.312L124.175 120.687L83.7527 113.766L89 146.562H119L121.1 136.062Z" fill="#71B8C8"/>
<path d="M81.24 123.062L81.64 125.562L82.36 130.062L85 146.562H89L83.7527 113.766L79.64 113.062L80.76 120.062L81.24 123.062Z" fill="#BDE8F2"/>
<path d="M83 109.062H79L79.64 113.062L83.7527 113.766L83 109.062Z" fill="#AAD3DC"/>
<path d="M130.5 98.0623H87.5H83.5H74.5V109.062H77.5V101.562H130.5V98.0623Z" fill="#BDE8F2"/>
<path d="M89.5 98.0623H116C115.5 96.7289 112.2 94.0623 103 94.0623C93.8 94.0623 90.1667 96.7289 89.5 98.0623Z" fill="#916D10"/>
<path d="M107 87.0623C105.333 83.5623 105.4 76.2623 119 75.0623C118.833 80.8956 116.2 91.4623 107 87.0623Z" fill="#87C01B"/>
<path d="M107 71.0623C105 67.0623 104.4 58.8623 118 58.0623C118.333 63.7289 116.6 74.2623 107 71.0623Z" fill="#87C01B"/>
<path fill-rule="evenodd" clip-rule="evenodd" d="M89 48.0623C93.8333 47.3956 105 52.0623 101 63.0622C94.6 61.0622 90.3333 52.2289 89 48.0623Z" fill="#87C01B"/>
<path fill-rule="evenodd" clip-rule="evenodd" d="M99.9295 80.5623C101.453 75.3956 100.1 64.8623 82.5 64.0623C84.1197 69.5623 89.8731 80.5623 99.9295 80.5623Z" fill="#87C01B"/>
<path d="M82.5 64.0623C82.6197 72.0623 86.2731 86.5623 99.9295 80.5623C89.8731 80.5623 84.1197 69.5623 82.5 64.0623Z" fill="#B7DE5A"/>
<path d="M89 48.0623C88 53.0623 89 63.0622 101 63.0622C94.6 61.0622 90.3333 52.2289 89 48.0623Z" fill="#B7DE5A"/>
<path d="M86.5 98.0623H88.5M82.5 98.0623H73.5V109.062H76.5M125.5 109.062H129.5V101.562M125.5 109.062L120.85 132.312M125.5 109.062H82M101 121.062L110 130.062M94 121.062L109 136.062M93 127.562L102 137.062M78 109.062L79.76 120.062M78 109.062H76.5M78 109.062H82M80.24 123.062L80.64 125.562M81.36 130.062L84 146.562M84 146.562H78M84 146.562H88M120.1 136.062L118 146.562M118 146.562H122M118 146.562H88M125 146.562H130.5M70 146.562H75M87.5 151.562H108.5M111 151.562H116M76.5 109.062V101.562H129.5M129.5 101.562V98.0623H115M82 109.062L88 146.562M88.5 98.0623C89.1667 96.7289 92.8 94.0623 102 94.0623M88.5 98.0623H115M102 94.0623C111.2 94.0623 114.5 96.7289 115 98.0623M102 94.0623C102 94.0623 102.032 92.8977 102.072 91.0623M100 63.0622C100 63.0622 101.84 68.1458 102 70.0623C102.12 71.5065 102.183 73.6459 102.208 76.0623M100 63.0622C99.6667 61.5622 98.4 58.1623 96 56.5623M100 63.0622C94.2063 63.0622 90.9768 60.7312 89.2984 57.7573M100 63.0622C100.904 60.5758 101.033 58.413 100.636 56.5623M102.072 91.0623L106 87.0623M102.072 91.0623C102.107 89.4628 102.148 87.3539 102.178 85.0623M106 87.0623C104.5 83.3956 104.8 75.8623 118 75.0623C117.915 78.0354 117.189 82.2382 115.28 85.0623M106 87.0623C106.5 85.8956 108.3 83.4623 111.5 83.0623M106 87.0623C108.705 88.3561 110.843 88.3558 112.517 87.5623M102.208 76.0623L106 71.0623M102.208 76.0623C102.238 78.9061 102.217 82.1334 102.178 85.0623M106 71.0623C104 67.0623 103.4 58.8623 117 58.0623C117.134 60.3445 116.933 63.4163 116.018 66.0623M106 71.0623C107 70.2289 109.1 68.1623 109.5 66.5623M106 71.0623C110.121 72.436 112.793 71.2788 114.473 69.0623M102.178 85.0623C101.422 83.8995 100.267 82.256 98.9295 80.5623M91.5 73.5623C93.7782 74.5748 96.6245 77.6431 98.9295 80.5623M98.9295 80.5623C100.453 75.3956 99.1 64.8623 81.5 64.0623C81.5245 65.7003 81.6972 67.6109 82.0735 69.5623M98.9295 80.5623C93.8438 82.7967 90.1453 82.1881 87.5 80.1308M82.6702 72.0623C83.362 74.4631 84.4006 76.7753 85.8907 78.5623M88.4417 55.8283C87.5139 53.0948 87.5835 50.1448 88 48.0623C91.3408 47.6015 97.7075 49.6887 100 54.6543" stroke="black"/>
<path fill-rule="evenodd" clip-rule="evenodd" d="M169.985 171.429C188.507 153.279 200 127.981 200 100C200 44.7715 154.728 0 99.5 0C95.9101 0 93 2.91015 93 6.5C93 10.0899 95.9101 13 99.5 13C147.825 13 187 52.1751 187 100.5C187 124.599 177.382 146.422 161.746 162.246C160.591 163.431 160 164.641 160 166.5C160 170.09 162.686 173 166 173C167.515 173 168.927 172.428 169.985 171.429Z" fill="url(#paint0_linear_2336_9)"/>
<defs>
<linearGradient id="paint0_linear_2336_9" x1="0" y1="100" x2="200" y2="100" gradientUnits="userSpaceOnUse">
<stop stop-color="#D8F991"/>
<stop offset="1" stop-color="#9ED22A"/>
</linearGradient>
</defs>
</svg>
