<svg width="200" height="200" viewBox="0 0 200 200" fill="none" xmlns="http://www.w3.org/2000/svg">
<path d="M126.5 122.011H83L83.7527 126.715L124.175 133.636L126.5 122.011Z" fill="#4397A4"/>
<path d="M126.5 122.011H130.5V114.511H77.5V122.011H79H83H126.5Z" fill="#71B8C8"/>
<path d="M121.1 149.011L121.85 145.261L124.175 133.636L83.7527 126.715L89 159.511H119L121.1 149.011Z" fill="#71B8C8"/>
<path d="M81.24 136.011L81.64 138.511L82.36 143.011L85 159.511H89L83.7527 126.715L79.64 126.011L80.76 133.011L81.24 136.011Z" fill="#BDE8F2"/>
<path d="M83 122.011H79L79.64 126.011L83.7527 126.715L83 122.011Z" fill="#AAD3DC"/>
<path d="M130.5 111.011H87.5H83.5H74.5V122.011H77.5V114.511H130.5V111.011Z" fill="#BDE8F2"/>
<path d="M89.5 111.011H116C115.5 109.678 112.2 107.011 103 107.011C93.8 107.011 90.1667 109.678 89.5 111.011Z" fill="#916D10"/>
<path d="M86 69.0112C88.4 59.8112 78.6667 56.5112 73.5 56.0112C73.4251 57.1715 73.4696 58.5671 73.706 60.0112C73.8144 60.6737 73.9632 61.3464 74.1593 62.0112C74.7606 64.0492 75.807 66.0134 77.5 67.3845C77.8111 67.6364 78.144 67.8683 78.5 68.0769C80.332 69.1506 82.7752 69.6084 86 69.0112Z" fill="#87C01B"/>
<path d="M79 73.2612C77.8333 70.8795 74.2 67.7952 69 74.5112C71.5 76.6779 77 79.4612 79 73.2612Z" fill="#87C01B"/>
<path d="M83 76.5112C81.3333 77.0112 78.5 79.2112 80.5 84.0112C82.8333 83.1779 86.6 80.5112 83 76.5112Z" fill="#87C01B"/>
<path d="M94.5 69.0112C92 68.0112 88.5 64.4112 94.5 58.0112C96.8333 60.3446 100.1 65.8112 94.5 69.0112Z" fill="#87C01B"/>
<path d="M99 51.5112C98.1667 49.6779 95.4 47.1112 91 51.5112C92.3648 53.1779 95.8756 55.5112 99 51.5112Z" fill="#87C01B"/>
<path d="M99.5 45.9896C101.5 36.7723 94 34.8301 90 35.0112C89.8197 36.2281 89.752 37.3208 89.7793 38.3006C89.8055 39.242 89.9193 40.0792 90.1052 40.8223C91.4431 46.1707 96.5135 46.6444 99.5 45.9896Z" fill="#87C01B"/>
<path d="M108.5 40.5112C106.167 40.3446 101.8 41.4112 103 47.0112C105.167 47.1779 109.3 46.1112 108.5 40.5112Z" fill="#87C01B"/>
<path d="M111 48.0112C109.667 49.8446 108.2 53.8112 113 55.0112C114.167 53.5112 115.4 50.0112 111 48.0112Z" fill="#87C01B"/>
<path d="M116.5 54.4565C115.833 51.9747 116.5 47.0112 124.5 47.0112C124.667 50.3081 123.3 56.4127 116.5 54.4565Z" fill="#87C01B"/>
<path d="M115 59.0112C114.5 61.5112 115 66.4112 121 66.0112C121.167 63.6779 120.2 59.0112 115 59.0112Z" fill="#87C01B"/>
<path d="M112 77.0112C110 76.3446 107.2 74.0112 112 70.0112C114 71.5112 116.8 75.0112 112 77.0112Z" fill="#87C01B"/>
<path d="M126.5 67.5112C116.1 67.5112 116.106 74.1779 117.408 77.5112C120.974 78.1963 123.233 77.1947 124.617 75.5112C125.245 74.7472 125.693 73.8428 126 72.8918C126.597 71.0443 126.666 69.0213 126.5 67.5112Z" fill="#87C01B"/>
<path d="M120 82.9063C121.333 80.7746 125.2 77.7112 130 82.5112C128.167 84.7746 123.6 88.0224 120 82.9063Z" fill="#87C01B"/>
<path d="M87.5 111.011H89.5M83.5 111.011H74.5V122.011H77.5M126.5 122.011H130.5V114.511M126.5 122.011L121.85 145.261M126.5 122.011H83M102 134.011L111 143.011M95 134.011L110 149.011M94 140.511L103 150.011M79 122.011L80.76 133.011M79 122.011H77.5M79 122.011H83M81.24 136.011L81.64 138.511M82.36 143.011L85 159.511M85 159.511H79M85 159.511H89M121.1 149.011L119 159.511M119 159.511H123M119 159.511H89M126 159.511H131.5M71 159.511H76M88.5 164.511H109.5M112 164.511H117M77.5 122.011V114.511H130.5M130.5 114.511V111.011H116M83 122.011L89 159.511M89.5 111.011C90.1667 109.678 93.8 107.011 103 107.011M89.5 111.011H116M103 107.011C112.2 107.011 115.5 109.678 116 111.011M103 107.011V91.5112M97 43.0112C97.9755 43.9867 98.802 44.9892 99.5 45.9896M99.5 45.9896C102.523 50.322 103.135 54.6156 103 56.5112V65.5112M99.5 45.9896C101.5 36.7723 94 34.8301 90 35.0112C89.8197 36.2281 89.752 37.3208 89.7793 38.3006M99.5 45.9896C96.5135 46.6444 91.4431 46.1707 90.1052 40.8223M103 65.5112C106.567 62.5596 112.928 57.3211 116.5 54.4565M103 65.5112V72.5112M119 52.5112C118.685 52.7209 117.769 53.4389 116.5 54.4565M116.5 54.4565C115.833 51.9747 116.5 47.0112 124.5 47.0112C124.667 50.3081 123.3 56.4127 116.5 54.4565ZM103 91.5112V86.0112M103 91.5112C104.141 90.4395 105.523 89.1326 107 87.7234M120 74.5112C119.885 74.8547 118.894 75.9712 117.408 77.5112M117.408 77.5112C116.106 74.1779 116.1 67.5112 126.5 67.5112C126.666 69.0213 126.597 71.0443 126 72.8918M117.408 77.5112C115.958 79.0144 114.037 80.9211 112 82.9063M117.408 77.5112C120.974 78.1963 123.233 77.1947 124.617 75.5112M112 82.9063V77.0112M112 82.9063H120M112 82.9063C111.014 83.8676 110 84.8474 109 85.8086M112 77.0112C110 76.3446 107.2 74.0112 112 70.0112C114 71.5112 116.8 75.0112 112 77.0112ZM120 82.9063C121.333 80.7746 125.2 77.7112 130 82.5112C128.167 84.7746 123.6 88.0224 120 82.9063ZM82.5 65.5112L86 69.0112M103 86.0112L94.5 77.5112M103 86.0112V80.0112M86 69.0112C88.4 59.8112 78.6667 56.5112 73.5 56.0112C73.4251 57.1715 73.4696 58.5671 73.706 60.0112M86 69.0112L90.25 73.2612M86 69.0112C82.7752 69.6084 80.332 69.1506 78.5 68.0769M94.5 77.5112V69.0112M94.5 77.5112L90.25 73.2612M94.5 64.5112V69.0112M94.5 69.0112C92 68.0112 88.5 64.4112 94.5 58.0112C96.8333 60.3446 100.1 65.8112 94.5 69.0112ZM90.25 73.2612H79M79 73.2612C77.8333 70.8795 74.2 67.7952 69 74.5112C71.5 76.6779 77 79.4612 79 73.2612ZM74.1593 62.0112C74.7606 64.0492 75.807 66.0134 77.5 67.3845M103 75.0112V78.0112M108.5 40.5112C106.167 40.3446 101.8 41.4112 103 47.0112C105.167 47.1779 109.3 46.1112 108.5 40.5112ZM99 51.5112C98.1667 49.6779 95.4 47.1112 91 51.5112C92.3648 53.1779 95.8756 55.5112 99 51.5112ZM111 48.0112C109.667 49.8446 108.2 53.8112 113 55.0112C114.167 53.5112 115.4 50.0112 111 48.0112ZM115 59.0112C114.5 61.5112 115 66.4112 121 66.0112C121.167 63.6779 120.2 59.0112 115 59.0112ZM83 76.5112C81.3333 77.0112 78.5 79.2112 80.5 84.0112C82.8333 83.1779 86.6 80.5112 83 76.5112Z" stroke="black"/>
<path fill-rule="evenodd" clip-rule="evenodd" d="M200 100C200 155.228 155.228 200 100 200C96.6863 200 94 197.314 94 194C94 190.686 96.6863 188 100 188C148.325 188 187 148.825 187 100.5C187 52.1751 147.825 13 99.5 13C95.9101 13 93 10.0899 93 6.5C93 2.91015 95.9101 0 99.5 0C154.728 0 200 44.7715 200 100Z" fill="url(#paint0_linear_2340_2)"/>
<defs>
<linearGradient id="paint0_linear_2340_2" x1="0" y1="100" x2="200" y2="100" gradientUnits="userSpaceOnUse">
<stop stop-color="#D8F991"/>
<stop offset="1" stop-color="#9ED22A"/>
</linearGradient>
</defs>
</svg>
