<svg width="200" height="200" viewBox="0 0 200 200" fill="none" xmlns="http://www.w3.org/2000/svg">
<path d="M124.033 117H80.5332L81.2859 121.704L121.708 128.625L124.033 117Z" fill="#4397A4"/>
<path d="M124.033 117H128.033V109.5H75.0332V117H76.5332H80.5332H124.033Z" fill="#71B8C8"/>
<path d="M118.633 144L119.383 140.25L121.708 128.625L81.2859 121.704L86.5332 154.5H116.533L118.633 144Z" fill="#71B8C8"/>
<path d="M78.7732 131L79.1732 133.5L79.8932 138L82.5332 154.5H86.5332L81.2859 121.704L77.1732 121L78.2932 128L78.7732 131Z" fill="#BDE8F2"/>
<path d="M80.5332 117H76.5332L77.1732 121L81.2859 121.704L80.5332 117Z" fill="#AAD3DC"/>
<path d="M128.033 106H85.0332H81.0332H72.0332V117H75.0332V109.5H128.033V106Z" fill="#BDE8F2"/>
<path d="M87.0332 106H113.533C113.033 104.667 109.733 102 100.533 102C91.3332 102 87.6999 104.667 87.0332 106Z" fill="#916D10"/>
<path d="M78.5332 53C80.9332 43.8 71.1999 40.5 66.0332 40C65.9584 41.1603 66.0029 42.5559 66.2392 44L66.6926 46C67.2939 48.0379 68.3402 50.0022 70.0332 51.3732L71.0332 52.0657C72.8652 53.1393 75.3084 53.5972 78.5332 53Z" fill="#87C01B"/>
<path d="M76.5332 68.25C75.3666 65.8683 71.7332 62.7839 66.5332 69.5C69.0332 71.6667 74.5332 74.45 76.5332 68.25Z" fill="#87C01B"/>
<path d="M80.5332 71.5C78.8666 72 76.0332 74.2 78.0332 79C80.3666 78.1667 84.1332 75.5 80.5332 71.5Z" fill="#87C01B"/>
<path d="M124.77 81.3093C124.349 80.9335 123.935 80.4665 123.533 79.8951C120.867 82.0967 117.133 87.6 123.533 92C125.5 90.2725 128.18 85.9233 124.77 81.3093Z" fill="#87C01B"/>
<path fill-rule="evenodd" clip-rule="evenodd" d="M124.77 81.3093C124.349 80.9335 123.935 80.4665 123.533 79.8951C124.013 80.3676 124.424 80.8398 124.77 81.3093Z" fill="#BDE8F2"/>
<path d="M133.533 79.5C128.733 74.7 124.867 77.7634 123.533 79.8951C124.013 80.3676 124.424 80.8398 124.77 81.3093C128.119 84.298 131.905 81.5106 133.533 79.5Z" fill="#87C01B"/>
<path d="M95.5332 50C95.5332 52.7614 97.7718 55 100.533 55C103.295 55 105.533 52.7614 105.533 50C105.533 47.2386 103.295 45 100.533 45C97.7718 45 95.5332 47.2386 95.5332 50Z" fill="#D8F991"/>
<path d="M107.033 59.5C105.867 63.3333 106.733 71.7 115.533 70.5C116.733 61.3 110.033 59 107.033 59.5Z" fill="#87C01B"/>
<path d="M130.533 50.5C120.533 54 123.639 60.1667 124.942 63.5C128.507 64.1851 130.15 61.1835 131.533 59.5C131.933 58.7 132.033 57.5 132.033 57C132.631 55.1525 130.699 52.01 130.533 50.5Z" fill="#87C01B"/>
<path d="M85.0332 106H87.0332M81.0332 106H72.0332V117H75.0332M124.033 117H128.033V109.5M124.033 117L119.383 140.25M124.033 117H80.5332M99.5332 129L108.533 138M92.5332 129L107.533 144M91.5332 135.5L100.533 145M76.5332 117L78.2932 128M76.5332 117H75.0332M76.5332 117H80.5332M78.7732 131L79.1732 133.5M79.8932 138L82.5332 154.5M82.5332 154.5H76.5332M82.5332 154.5H86.5332M118.633 144L116.533 154.5M116.533 154.5H120.533M116.533 154.5H86.5332M123.533 154.5H129.033M68.5332 154.5H73.5332M86.0332 159.5H107.033M109.533 159.5H114.533M75.0332 117V109.5H128.033M128.033 109.5V106H113.533M80.5332 117L86.5332 154.5M87.0332 106C87.6999 104.667 91.3332 102 100.533 102M87.0332 106H113.533M100.533 102C109.733 102 113.033 104.667 113.533 106M100.533 102V90M100.533 55V60.5V67.5M100.533 55V55C103.295 55 105.533 52.7614 105.533 50V50V50C105.533 47.2386 103.295 45 100.533 45V45C97.7718 45 95.5332 47.2386 95.5332 50V50C95.5332 52.7614 97.7718 55 100.533 55V55ZM100.533 90V81V75M100.533 90C101.176 89.8393 103.574 88.3362 106.533 86.2871C107.333 85.7329 108.175 85.1389 109.033 84.5206C111.485 82.7554 114.078 80.7929 116.263 79M126.533 58.8806C126.419 59.2241 126.427 61.96 124.942 63.5M124.942 63.5C123.639 60.1667 120.533 54 130.533 50.5C130.699 52.01 132.631 55.1525 132.033 57M124.942 63.5C128.507 64.1851 130.15 61.1835 131.533 59.5M124.942 63.5C124.672 67.1305 122.296 71.6398 119.841 75M123.533 79.8951C124.867 77.7634 128.733 74.7 133.533 79.5C131.7 81.7634 127.133 85.0111 123.533 79.8951ZM123.533 79.8951C122.353 80.0967 119.248 80.2 116.263 79M123.533 79.8951C120.867 82.0967 117.133 87.6 123.533 92C125.7 90.0967 128.733 85.0111 123.533 79.8951ZM123.533 79.8951C122.98 81.2634 122.205 84.6 123.533 87M75.0332 49.5L78.5332 53M78.5332 53C80.9332 43.8 71.1999 40.5 66.0332 40C65.9584 41.1603 66.0029 42.5559 66.2392 44M78.5332 53C78.5332 53 81.5332 60 87.0332 64.5M78.5332 53C75.3084 53.5972 72.8652 53.1393 71.0332 52.0657M87.0332 64.5C92.3053 67.8195 100.533 73 100.533 73V70M87.0332 64.5C82.9327 65.9645 76.5332 68.25 76.5332 68.25M76.5332 68.25C75.3666 65.8683 71.7332 62.7839 66.5332 69.5C69.0332 71.6667 74.5332 74.45 76.5332 68.25ZM66.6926 46C67.2939 48.0379 68.3402 50.0022 70.0332 51.3732M116.263 79C117.292 78.156 118.577 76.7304 119.841 75M115.533 70.5C106.733 71.7 105.867 63.3333 107.033 59.5C110.033 59 116.733 61.3 115.533 70.5ZM115.533 70.5L119.841 75M115.533 70.5L110.033 64.5M80.5332 71.5C78.8666 72 76.0332 74.2 78.0332 79C80.3666 78.1667 84.1332 75.5 80.5332 71.5Z" stroke="black"/>
<path fill-rule="evenodd" clip-rule="evenodd" d="M200 100C200 155.228 155.228 200 100 200C72.5794 200 47.7367 188.964 29.6712 171.09C28.6556 170.016 28 168.595 28 167C28 163.686 30.6863 161 34 161C35.5367 161 36.5666 161.422 37.6282 162.372C53.4625 178.206 75.3375 188 99.5 188C147.825 188 187 148.825 187 100.5C187 52.1751 147.825 13 99.5 13C95.9101 13 93 10.0899 93 6.5C93 2.91015 95.9101 0 99.5 0C154.728 0 200 44.7715 200 100Z" fill="url(#paint0_linear_2343_2)"/>
<defs>
<linearGradient id="paint0_linear_2343_2" x1="0" y1="100" x2="200" y2="100" gradientUnits="userSpaceOnUse">
<stop stop-color="#D8F991"/>
<stop offset="1" stop-color="#9ED22A"/>
</linearGradient>
</defs>
</svg>
