<svg width="200" height="200" viewBox="0 0 200 200" fill="none" xmlns="http://www.w3.org/2000/svg">
<path d="M121.5 124.5H78L78.7527 129.204L119.175 136.125L121.5 124.5Z" fill="#4397A4"/>
<path d="M121.5 124.5H125.5V117H72.5V124.5H74H78H121.5Z" fill="#71B8C8"/>
<path d="M116.1 151.5L116.85 147.75L119.175 136.125L78.7527 129.204L84 162H114L116.1 151.5Z" fill="#71B8C8"/>
<path d="M76.24 138.5L76.64 141L77.36 145.5L80 162H84L78.7527 129.204L74.64 128.5L75.76 135.5L76.24 138.5Z" fill="#BDE8F2"/>
<path d="M78 124.5H74L74.64 128.5L78.7527 129.204L78 124.5Z" fill="#AAD3DC"/>
<path d="M125.5 113.5H82.5H78.5H69.5V124.5H72.5V117H125.5V113.5Z" fill="#BDE8F2"/>
<path d="M84.5 113.5H111C110.5 112.167 107.2 109.5 98 109.5C88.8 109.5 85.1667 112.167 84.5 113.5Z" fill="#916D10"/>
<path d="M67 63.5C67 66.2614 69.2386 68.5 72 68.5C73.1258 68.5 74.1647 68.1279 75.0005 67.5C76.2147 66.5878 77 65.1356 77 63.5C77 60.7386 74.7614 58.5 72 58.5C69.2386 58.5 67 60.7386 67 63.5Z" fill="#D8F991"/>
<path d="M93 53.5C93 56.2614 95.2386 58.5 98 58.5C100.761 58.5 103 56.2614 103 53.5C103 50.7386 100.761 48.5 98 48.5C95.2386 48.5 93 50.7386 93 53.5Z" fill="#D8F991"/>
<path d="M116 36.5C113.239 36.5 111 38.7386 111 41.5C111 43.7388 112.471 45.634 114.5 46.2711C114.973 46.4198 115.477 46.5 116 46.5C118.761 46.5 121 44.2614 121 41.5C121 38.7386 118.761 36.5 116 36.5Z" fill="#D8F991"/>
<path d="M123.5 71.5C123.5 73.1357 124.286 74.5878 125.5 75.5C126.336 76.1278 127.374 76.5 128.5 76.5C131.261 76.5 133.5 74.2614 133.5 71.5C133.5 68.7386 131.261 66.5 128.5 66.5C125.739 66.5 123.5 68.7386 123.5 71.5Z" fill="#D8F991"/>
<path d="M86.4963 73C82.1645 73.3333 73.8009 76.1 75.0005 84.5C80.3337 85.4019 91.2 84.5851 92 74.1028C91.3446 74.0574 90.676 73.9735 90 73.8568C88.844 73.6573 87.6664 73.3621 86.4963 73Z" fill="#87C01B"/>
<path d="M89 58.5C77.8 59.7 78.3333 66.9038 80 70.3556C80.4374 70.5731 80.8863 70.7887 81.3446 71C81.7126 71.1697 82.0867 71.3368 82.4656 71.5C91.2382 70.3 90.4771 62.3333 89 58.5Z" fill="#87C01B"/>
<path d="M100 34C98.8333 40.0286 99 51.9271 109 51.2928C113.4 40.7271 104.833 35.3619 100 34Z" fill="#87C01B"/>
<path d="M102 67C99 70 101.2 83.7 110 82.5C116 75 105 66.5 102 67Z" fill="#87C01B"/>
<path d="M98 90.5C95.8333 88.4267 90.2 84.624 85 86C84.3333 90.8333 86 99.9 98 97.5V94V90.5Z" fill="#87C01B"/>
<path d="M122.237 88.8093C121.816 88.4335 121.402 87.9665 121 87.3951C118.333 89.5967 114.6 95.1 121 99.5C122.967 97.7725 125.647 93.4233 122.237 88.8093Z" fill="#87C01B"/>
<path d="M131 87C126.2 82.2 122.333 85.2634 121 87.3951C121.48 87.8676 121.89 88.3398 122.237 88.8093C125.586 91.798 129.371 89.0106 131 87Z" fill="#87C01B"/>
<path d="M118 53C108 56.5 110.5 66.5 113.408 68C116.974 68.6851 119.5 66 120 64L120.5 61.5C121.097 59.6525 120.5 54.5 118 53Z" fill="#87C01B"/>
<path d="M82.5 113.5H84.5M78.5 113.5H69.5V124.5H72.5M121.5 124.5H125.5V117M121.5 124.5L116.85 147.75M121.5 124.5H78M97 136.5L106 145.5M90 136.5L105 151.5M89 143L98 152.5M74 124.5L75.76 135.5M74 124.5H72.5M74 124.5H78M76.24 138.5L76.64 141M77.36 145.5L80 162M80 162H74M80 162H84M116.1 151.5L114 162M114 162H118M114 162H84M121 162H126.5M66 162H71M83.5 167H104.5M107 167H112M72.5 124.5V117H125.5M125.5 117V113.5H111M78 124.5L84 162M84.5 113.5C85.1667 112.167 88.8 109.5 98 109.5M84.5 113.5H111M98 109.5C107.2 109.5 110.5 112.167 111 113.5M98 109.5V97.5M98 58.5V68V73M98 58.5V58.5C100.761 58.5 103 56.2614 103 53.5V53.5M98 58.5V58.5C95.2386 58.5 93 56.2614 93 53.5V53.5C93 50.7386 95.2386 48.5 98 48.5V48.5C100.761 48.5 103 50.7386 103 53.5V53.5M98 97.5C98.6427 97.3393 101.041 95.8362 104 93.7871C104.8 93.2329 105.641 92.6389 106.5 92.0206C108.405 90.6488 110.396 89.1579 112.214 87.72M98 97.5C86 99.9 84.3333 90.8333 85 86C90.2 84.624 95.8333 88.4267 98 90.5M98 97.5V94M115.5 61.5C115.385 61.8435 114.894 66.46 113.408 68M113.408 68C110.5 66.5 108 56.5 118 53C120.5 54.5 121.097 59.6525 120.5 61.5M113.408 68C116.974 68.6851 119.5 66 120 64M113.408 68C113.139 71.6305 119.763 79.1398 117.308 82.5M121 87.3951C122.333 85.2634 126.2 82.2 131 87C129.167 89.2634 124.6 92.5111 121 87.3951ZM121 87.3951C119.82 87.5967 116.714 87.7 113.73 86.5M121 87.3951C118.333 89.5967 114.6 95.1 121 99.5C123.167 97.5967 126.2 92.5111 121 87.3951ZM121 87.3951C120.446 88.7634 119.671 92.1 121 94.5M98 80.5V77.5M98 75V73M98 82.5V88.5V90.5M113.73 86.5C114.759 85.656 116.044 84.2304 117.308 82.5M113.73 86.5C113.243 86.8996 112.736 87.3076 112.214 87.72M110 82.5C101.2 83.7 99 70 102 67C105 66.5 116 75 110 82.5ZM110 82.5L105.5 74M110 82.5C110.143 84.1466 110.786 87.4959 112.214 87.72M117.308 82.5L125.5 75.5M103 53.5C104.535 53.1226 106.842 52.369 109 51.2928M114.5 46.2711C112.471 45.634 111 43.7388 111 41.5C111 38.7386 113.239 36.5 116 36.5C118.761 36.5 121 38.7386 121 41.5C121 44.2614 118.761 46.5 116 46.5C115.477 46.5 114.973 46.4198 114.5 46.2711ZM114.5 46.2711C113.853 48.3299 111.528 50.0326 109 51.2928M109 51.2928C99 51.9271 98.8333 40.0286 100 34C104.833 35.3619 113.4 40.7271 109 51.2928ZM109 51.2928C106.6 49.9271 104.667 45.5286 104 43.5M75.0005 67.5C74.1647 68.1279 73.1258 68.5 72 68.5C69.2386 68.5 67 66.2614 67 63.5C67 60.7386 69.2386 58.5 72 58.5C74.7614 58.5 77 60.7386 77 63.5C77 65.1356 76.2147 66.5878 75.0005 67.5ZM75.0005 67.5C76.2969 68.3578 78.0313 69.3767 80 70.3556M98 73C96.3076 73.9657 94.2307 74.2574 92 74.1028M80 70.3556C78.3333 66.9038 77.8 59.7 89 58.5C90.4771 62.3333 91.2382 70.3 82.4656 71.5M80 70.3556C80.4374 70.5731 80.8863 70.7887 81.3446 71M82.4656 71.5C82.0867 71.3368 81.7126 71.1697 81.3446 71M82.4656 71.5C83.7675 72.0607 85.1267 72.5762 86.4963 73M81.3446 71C81.3964 69.3333 82.2 65.6 85 64M86.4963 73C82.1645 73.3333 73.8009 76.1 75.0005 84.5C80.3337 85.4019 91.2 84.5851 92 74.1028M86.4963 73C87.6664 73.3621 88.844 73.6573 90 73.8568M92 74.1028C91.3446 74.0574 90.676 73.9735 90 73.8568M90 73.8568C88.5518 75.5712 85.2243 79 83.5 79M98 90.5V94M98 94C96.5 93.6667 93 92.4 91 90M123.5 71.5C123.5 74.2614 125.739 76.5 128.5 76.5C131.261 76.5 133.5 74.2614 133.5 71.5C133.5 68.7386 131.261 66.5 128.5 66.5C125.739 66.5 123.5 68.7386 123.5 71.5Z" stroke="black"/>
<path fill-rule="evenodd" clip-rule="evenodd" d="M200 100C200 155.228 155.228 200 100 200C44.7715 200 0 155.228 0 100C0 96.6863 2.68629 94 6 94C9.31371 94 12 96.6863 12 100C12 148.325 51.1751 188 99.5 188C147.825 188 187 148.825 187 100.5C187 52.1751 147.825 13 99.5 13C95.9101 13 93 10.0899 93 6.5C93 2.91015 95.9101 0 99.5 0C154.728 0 200 44.7715 200 100Z" fill="url(#paint0_linear_2343_5)"/>
<defs>
<linearGradient id="paint0_linear_2343_5" x1="0" y1="100" x2="200" y2="100" gradientUnits="userSpaceOnUse">
<stop stop-color="#D8F991"/>
<stop offset="1" stop-color="#9ED22A"/>
</linearGradient>
</defs>
</svg>
