<svg width="201" height="201" viewBox="0 0 201 201" fill="none" xmlns="http://www.w3.org/2000/svg">
<path d="M127.156 124H83.6562L84.4089 128.704L124.831 135.625L127.156 124Z" fill="#4397A4"/>
<path d="M127.156 124H131.156V116.5H78.1562V124H79.6562H83.6562H127.156Z" fill="#71B8C8"/>
<path d="M121.756 151L122.506 147.25L124.831 135.625L84.4089 128.704L89.6562 161.5H119.656L121.756 151Z" fill="#71B8C8"/>
<path d="M81.8962 138L82.2962 140.5L83.0162 145L85.6562 161.5H89.6562L84.4089 128.704L80.2963 128L81.4163 135L81.8962 138Z" fill="#BDE8F2"/>
<path d="M83.6562 124H79.6562L80.2963 128L84.4089 128.704L83.6562 124Z" fill="#AAD3DC"/>
<path d="M131.156 113H88.1562H84.1562H75.1562V124H78.1562V116.5H131.156V113Z" fill="#BDE8F2"/>
<path d="M90.1562 113H116.656C116.156 111.667 112.856 109 103.656 109C94.4562 109 90.8229 111.667 90.1562 113Z" fill="#916D10"/>
<path d="M120.656 89C112.256 84.2 105.823 90 103.656 93.5V95.25V97C114.456 102.6 119.49 94 120.656 89Z" fill="#87C01B"/>
<path d="M76.6567 85.5C72.99 84.8333 65.6567 85.3 65.6567 92.5C69.99 93.8333 78.2567 94.3 76.6567 85.5Z" fill="#87C01B"/>
<path d="M91.6567 82C91.3233 80.3333 91.1567 74.5 96.6567 74.5C98.3565 77.6667 99.7363 83.6 91.6567 82Z" fill="#87C01B"/>
<path d="M88.6567 52C89.99 46.6667 89.2567 36.1 75.6567 36.5C75.3233 42.3333 77.4567 53.6 88.6567 52Z" fill="#87C01B"/>
<path d="M112.156 46C111.297 51 112.285 61 123.117 61C123.463 60.6711 123.798 60.3377 124.121 60C124.436 59.6707 124.739 59.3372 125.029 59C124.527 47.5145 116.238 45.5477 112.156 46Z" fill="#87C01B"/>
<path d="M114.171 67.5C113.833 72.8333 116.256 82.8 128.656 80C128.156 75.5328 124.956 66.5385 116.156 66.2991C115.778 66.5375 115.398 66.7712 115.018 67C114.736 67.1694 114.454 67.3361 114.171 67.5Z" fill="#87C01B"/>
<path d="M71.1562 75C70.1474 75.6878 68.672 76.035 67.1567 75.9062C68.8233 78.1042 72.8567 82 75.6567 80C76.4829 79.1667 77.2876 76.3 73.8961 71.5C73.528 72.6609 72.6651 73.8462 71.1562 75Z" fill="#D8F991"/>
<path d="M85.1562 70C83.9387 70.2898 82.6751 70.0877 81.5572 69.5C82.049 71.5 83.6949 75.4 86.3446 75C87.282 74.9469 89.0567 73.5567 88.6567 68.4204C87.7992 69.0996 86.6496 69.6444 85.1562 70Z" fill="#D8F991"/>
<path d="M103.656 56.5C102.442 56.4448 101.449 56.1385 100.656 55.6449C100.823 57.4299 101.656 61 103.656 61C105.656 61 106.787 57.4299 107.102 55.6449C106.242 56.2433 105.107 56.5659 103.656 56.5Z" fill="#D8F991"/>
<path d="M131.656 48C130.239 47.4655 129.245 46.5881 128.656 45.5146C127.99 47.1764 127.056 50.8 128.656 52C129.656 52.611 132.156 52.7997 134.156 48.6665C133.404 48.5992 132.572 48.3855 131.656 48Z" fill="#D8F991"/>
<path d="M67.1567 75.9062C68.672 76.035 70.1474 75.6878 71.1562 75C72.6651 73.8462 73.528 72.6609 73.8961 71.5C75.6013 66.121 66.6803 61.2663 62.1562 62.5C58.8945 71.9235 63.164 75.567 67.1567 75.9062Z" fill="#EE3C72"/>
<path d="M81.5572 69.5C82.6751 70.0877 83.9387 70.2898 85.1562 70C86.6496 69.6444 87.7992 69.0996 88.6567 68.4204C93.8279 64.3241 88.3743 55.3398 83.6562 53.5C75.4705 60.5166 77.6023 67.4209 81.5572 69.5Z" fill="#EE3C72"/>
<path d="M104.156 40C98.5527 42.1552 95.699 52.5595 100.656 55.6449C101.449 56.1385 102.442 56.4448 103.656 56.5C105.107 56.5659 106.242 56.2433 107.102 55.6449C111.46 52.6134 108.749 42.5055 104.156 40Z" fill="#EE3C72"/>
<path d="M128.656 45.5146C129.245 46.5881 130.239 47.4655 131.656 48C132.572 48.3855 133.404 48.5992 134.156 48.6665C141.211 49.2979 141.271 37.0663 137.656 33C129.794 34.9655 126.489 41.5668 128.656 45.5146Z" fill="#EE3C72"/>
<path d="M103.656 80V77M103.656 82V93.5M103.656 74.5V72.5M103.656 72.5C106.449 71.468 110.311 69.7418 114.171 67.5M103.656 72.5V61M103.656 93.5C105.823 90 112.256 84.2 120.656 89C119.49 94 114.456 102.6 103.656 97M103.656 93.5V95.25M100.656 55.6449C95.699 52.5595 98.5527 42.1552 104.156 40C108.749 42.5055 111.46 52.6134 107.102 55.6449M100.656 55.6449C101.449 56.1385 102.442 56.4448 103.656 56.5C105.107 56.5659 106.242 56.2433 107.102 55.6449M100.656 55.6449C100.823 57.4299 101.656 61 103.656 61M103.656 61C105.656 61 106.787 57.4299 107.102 55.6449M103.656 61C98.4558 61.8 91.4897 55.3333 88.6567 52M123.117 61C112.285 61 111.297 51 112.156 46C116.238 45.5477 124.527 47.5145 125.029 59M123.117 61C123.463 60.6711 123.798 60.3377 124.121 60M123.117 61C121.075 62.9399 118.656 64.7229 116.156 66.2991M125.029 59C126.914 56.8081 128.247 54.4541 128.656 52M125.029 59C124.739 59.3372 124.436 59.6707 124.121 60M128.656 52C127.056 50.8 127.99 47.1764 128.656 45.5146M128.656 52C129.656 52.611 132.156 52.7997 134.156 48.6665M124.121 60L118.656 53.5M128.656 45.5146C129.245 46.5881 130.239 47.4655 131.656 48C132.572 48.3855 133.404 48.5992 134.156 48.6665M128.656 45.5146C126.489 41.5668 129.794 34.9655 137.656 33C141.271 37.0663 141.211 49.2979 134.156 48.6665M114.171 67.5C113.833 72.8333 116.256 82.8 128.656 80C128.156 75.5328 124.956 66.5385 116.156 66.2991M114.171 67.5C114.454 67.3361 114.736 67.1694 115.018 67M116.156 66.2991C115.778 66.5375 115.398 66.7712 115.018 67M115.018 67C116.23 69.283 119.056 73.7996 120.656 73.6028M103.656 97V95.25M103.656 97L103.656 109M103.656 95.25C106.156 95.5 111.356 95.3 112.156 92.5M103.656 95.25C101.361 94.9525 99.3173 94.1456 97.5092 93M67.1567 75.9062C68.672 76.035 70.1474 75.6878 71.1562 75C72.6651 73.8462 73.528 72.6609 73.8961 71.5M67.1567 75.9062C63.164 75.567 58.8945 71.9235 62.1562 62.5C66.6803 61.2663 75.6013 66.121 73.8961 71.5M67.1567 75.9062C68.8233 78.1042 72.8567 82 75.6567 80M75.6567 80C76.4829 79.1667 77.2876 76.3 73.8961 71.5M75.6567 80C80.6607 84.5 92.0368 93.4 97.5092 93M81.5572 69.5C82.6751 70.0877 83.9387 70.2898 85.1562 70C86.6496 69.6444 87.7992 69.0996 88.6567 68.4204M81.5572 69.5C77.6023 67.4209 75.4705 60.5166 83.6562 53.5C88.3743 55.3398 93.8279 64.3241 88.6567 68.4204M81.5572 69.5C82.049 71.5 83.6949 75.4 86.3446 75M86.3446 75C87.282 74.9469 89.0567 73.5567 88.6567 68.4204M86.3446 75C87.345 79.8563 90.8078 88.7542 97.5092 93M88.6567 52C89.99 46.6667 89.2567 36.1 75.6567 36.5C75.3233 42.3333 77.4567 53.6 88.6567 52ZM88.6567 52C86.2567 46.4 83.6567 44.3333 82.6567 44M88.1562 113H90.1562M84.1562 113H75.1562V124H78.1562M127.156 124H131.156V116.5M127.156 124L122.506 147.25M127.156 124H83.6562M102.656 136L111.656 145M95.6562 136L110.656 151M94.6562 142.5L103.656 152M79.6562 124L81.4162 135M79.6562 124H78.1562M79.6562 124H83.6562M81.8962 138L82.2962 140.5M83.0162 145L85.6562 161.5M85.6562 161.5H79.6562M85.6562 161.5H89.6562M121.756 151L119.656 161.5M119.656 161.5H123.656M119.656 161.5H89.6562M126.656 161.5H132.156M71.6562 161.5H76.6562M89.1562 166.5H110.156M112.656 166.5H117.656M78.1562 124V116.5H131.156M131.156 116.5V113H116.656M83.6562 124L89.6562 161.5M90.1562 113C90.8229 111.667 94.4562 109 103.656 109M90.1562 113H116.656M103.656 109C112.856 109 116.156 111.667 116.656 113M91.6567 82C91.3233 80.3333 91.1567 74.5 96.6567 74.5C98.3565 77.6667 99.7363 83.6 91.6567 82ZM76.6567 85.5C72.99 84.8333 65.6567 85.3 65.6567 92.5C69.99 93.8333 78.2567 94.3 76.6567 85.5Z" stroke="black"/>
<path fill-rule="evenodd" clip-rule="evenodd" d="M200.5 100.5C200.5 155.728 155.728 200.5 100.5 200.5C45.2715 200.5 0.5 155.728 0.5 100.5C0.5 72.5155 12.1235 47.2157 30.7761 29.065C31.8028 28.1346 33.0562 27.5 34.5 27.5C37.8137 27.5 40.5 30.4101 40.5 34C40.5 35.7801 39.8395 37.3931 38.7694 38.567C38.6222 38.7108 38.4756 38.8552 38.3296 39C22.3481 54.8537 12.5 76.7104 12.5 101C12.5 149.325 51.6751 188.5 100 188.5C148.325 188.5 187.5 149.325 187.5 101C187.5 52.6751 149.325 13.5 101 13.5C97.4101 13.5 95 10.0899 95 6.5C95 2.91015 97.4101 0.5 101 0.5C156.228 0.5 200.5 45.2715 200.5 100.5Z" fill="url(#paint0_linear_2343_8)"/>
<path d="M101 13.5C97.4101 13.5 95 10.0899 95 6.5C95 2.91015 97.4101 0.5 101 0.5C73.7561 0.5 48.9351 11.3947 30.7761 29.065C31.8028 28.1346 33.0562 27.5 34.5 27.5C37.8137 27.5 40.5 30.4101 40.5 34C40.5 35.7801 39.8395 37.3931 38.7694 38.567C54.5653 23.132 77.1866 13.5 101 13.5Z" fill="#E5E5E5"/>
<defs>
<linearGradient id="paint0_linear_2343_8" x1="0.5" y1="100.5" x2="200.5" y2="100.5" gradientUnits="userSpaceOnUse">
<stop stop-color="#D8F991"/>
<stop offset="1" stop-color="#9ED22A"/>
</linearGradient>
</defs>
</svg>
