<svg width="200" height="200" viewBox="0 0 200 200" fill="none" xmlns="http://www.w3.org/2000/svg">
<path d="M121.548 128H78.0483L78.801 132.704L119.223 139.625L121.548 128Z" fill="#4397A4"/>
<path d="M121.548 128H125.548V120.5H72.5483V128H74.0483H78.0483H121.548Z" fill="#71B8C8"/>
<path d="M116.148 155L116.898 151.25L119.223 139.625L78.801 132.704L84.0483 165.5H114.048L116.148 155Z" fill="#71B8C8"/>
<path d="M76.2883 142L76.6883 144.5L77.4083 149L80.0483 165.5H84.0483L78.801 132.704L74.6883 132L75.8083 139L76.2883 142Z" fill="#BDE8F2"/>
<path d="M78.0483 128H74.0483L74.6883 132L78.801 132.704L78.0483 128Z" fill="#AAD3DC"/>
<path d="M125.548 117H82.5483H78.5483H69.5483V128H72.5483V120.5H125.548V117Z" fill="#BDE8F2"/>
<path d="M84.5483 117H111.048C110.548 115.667 107.248 113 98.0483 113C88.8483 113 85.215 115.667 84.5483 117Z" fill="#916D10"/>
<path d="M88.8401 63C84.5763 62.8333 75.9489 64 75.5489 70C78.0659 72.8333 84.9634 76.2 92.4172 67C91.7583 66.4134 91.1329 65.7762 90.5489 65.1193C89.9294 64.4227 89.3566 63.7039 88.8401 63Z" fill="#87C01B"/>
<path d="M87.5489 81C86.3822 78.3333 86.2489 72.8 95.0489 72C95.3822 76.6667 94.3489 85 87.5489 81Z" fill="#87C01B"/>
<path d="M71.5489 71C67.5489 72.1921 59.6488 71.0187 60.0488 56.7882C65.5488 57.3588 75.5488 61 71.5489 71Z" fill="#87C01B"/>
<path d="M75.5489 78C71.8822 76.5729 63.8489 75.7749 61.0489 84C65.8822 86.2936 75.5489 88.3045 75.5489 78Z" fill="#87C01B"/>
<path d="M82.5484 92.5C81.3818 96.3333 81.2488 104.4 90.0488 106C90.882 102.167 90.5484 94.1 82.5484 92.5Z" fill="#87C01B"/>
<path d="M103.549 77.5C100.382 81.0476 96.0489 89.8285 104.049 96.5714C105.232 95.8953 106.404 95.1214 107.549 94.2814C111.549 82.9066 106.549 78.3543 103.549 77.5Z" fill="#87C01B"/>
<path d="M107.549 94.2814C106.404 95.1214 105.232 95.8953 104.049 96.5714C111.249 107.029 119.382 102.214 122.549 98.5C117.349 90.5 110.382 92.3543 107.549 94.2814Z" fill="#87C01B"/>
<path d="M110.049 75C107.716 72.8333 104.449 67.4 110.049 63C112.716 65.1667 116.449 70.6 110.049 75Z" fill="#87C01B"/>
<path d="M110.049 54.6228C113.649 43.921 106.216 39.0819 102.049 38C101.583 39.0805 101.128 40.4275 100.796 41.9061C103.177 45.5609 104.24 50.2895 101.735 52.3994C102.845 54.3184 104.683 55.9018 107.549 56.7882C107.881 56.5168 108.214 56.2379 108.549 55.9516C109.047 55.5251 109.548 55.082 110.049 54.6228Z" fill="#87C01B"/>
<path d="M118.325 45C115.733 41.1667 113.949 32.8 127.549 30C129.066 35.3333 129.346 45.8 118.325 45Z" fill="#87C01B"/>
<path d="M67.6919 95.5C68.8904 96.0011 69.7672 96.838 70.0489 98C70.7095 100.725 70.6285 102.794 70.0489 104.321C75.6489 104.178 76.0489 99.0952 75.5489 96.5714C73.1493 93.8285 69.3111 94.7143 67.6919 95.5Z" fill="#D8F991"/>
<path d="M127.549 52.3994C127.549 51.509 127.726 50.5887 128.066 49.7174C126.365 49.7733 122.873 50.8327 122.507 54.6228C122.854 55.8467 124.949 58.144 130.549 57.5414C129.23 56.5536 128.156 54.8987 127.549 52.3994Z" fill="#D8F991"/>
<path d="M98.0484 53.5C96.7103 53.6029 95.5205 53.3668 94.5489 52.8526C94.7152 55.4018 95.648 60.5 98.0484 60.5C99.0595 60.4018 101.079 58.7348 101.065 52.8526C100.301 53.2656 99.3064 53.5 98.0484 53.5Z" fill="#D8F991"/>
<path d="M70.0489 98C69.7672 96.838 68.8904 96.0011 67.6919 95.5C63.2177 93.6293 54.2601 96.4403 55.0489 104.5C58.2231 108.071 67.8206 110.194 70.0489 104.321C70.6285 102.794 70.7095 100.725 70.0489 98Z" fill="#EE3C72"/>
<path fill-rule="evenodd" clip-rule="evenodd" d="M74.5489 33.5C69.7489 34.3 68.8822 38.8333 69.0488 41C67.3822 41.3333 64.0488 43 64.0488 47C64.0488 51 67.3822 53 69.0488 53.5C69.0488 55.5 69.5489 59.5 73.5489 61C76.7489 62.2 78.8822 60.1667 79.5489 59C80.696 60.1472 83.4964 61.5411 86.5489 59.3604C87.0442 59.0065 87.5462 58.5585 88.0489 58C91.6488 54 89.8822 50.3333 88.5489 49C89.7155 47.6667 91.7489 44.1 90.5489 40.5C89.3489 36.9 84.3822 37 82.0489 37.5C81.5489 35.8333 79.3489 32.7 74.5489 33.5ZM77.0489 43C74.2874 43 72.0489 45.2386 72.0489 48C72.0489 50.7614 74.2874 53 77.0489 53C79.8103 53 82.0489 50.7614 82.0489 48C82.0489 45.2386 79.8103 43 77.0489 43Z" fill="#EE3C72"/>
<path d="M94.5489 52.8526C95.5205 53.3668 96.7103 53.6029 98.0484 53.5C99.3064 53.5 100.301 53.2656 101.065 52.8526C101.312 52.7195 101.535 52.5678 101.735 52.3994C104.24 50.2895 103.177 45.5609 100.796 41.9061C99.7405 40.2857 98.426 38.8764 97.0489 38C90.2988 44.75 90.801 50.8694 94.5489 52.8526Z" fill="#EE3C72"/>
<path d="M128.066 49.7174C127.726 50.5887 127.549 51.509 127.549 52.3994C128.156 54.8987 129.23 56.5536 130.549 57.5414C135.309 61.1062 143.266 55.9812 144.049 50.5C135.698 42.1491 129.788 45.3049 128.066 49.7174Z" fill="#EE3C72"/>
<path fill-rule="evenodd" clip-rule="evenodd" d="M126.549 60.5C121.749 61.3 120.882 65.8333 121.049 68C119.382 68.3333 116.049 70 116.049 74C116.049 78 119.382 80 121.049 80.5C121.049 82.5 121.549 86.5 125.549 88C128.749 89.2 130.882 87.1667 131.549 86C132.882 87.3333 136.449 89 140.049 85C143.649 81 141.882 77.3333 140.549 76C141.716 74.6667 143.749 71.1 142.549 67.5C141.349 63.9 136.382 64 134.049 64.5C133.549 62.8333 131.349 59.7 126.549 60.5ZM134.049 75C134.049 72.2386 131.81 70 129.049 70C126.287 70 124.049 72.2386 124.049 75C124.049 77.7614 126.287 80 129.049 80C131.81 80 134.049 77.7614 134.049 75Z" fill="#EE3C72"/>
<path d="M72.0489 48C72.0489 45.2386 74.2874 43 77.0489 43C79.8103 43 82.0489 45.2386 82.0489 48C82.0489 50.7614 79.8103 53 77.0489 53C74.2874 53 72.0489 50.7614 72.0489 48Z" fill="#E9E00D"/>
<path d="M129.049 70C131.81 70 134.049 72.2386 134.049 75C134.049 77.7614 131.81 80 129.049 80C126.287 80 124.049 77.7614 124.049 75C124.049 72.2386 126.287 70 129.049 70Z" fill="#E9E00D"/>
<path d="M98.0484 60.5C95.648 60.5 94.7152 55.4018 94.5489 52.8526M98.0484 60.5C99.0595 60.4018 101.079 58.7348 101.065 52.8526M98.0484 60.5V63M94.5489 52.8526C95.5205 53.3668 96.7103 53.6029 98.0484 53.5C99.3064 53.5 100.301 53.2656 101.065 52.8526M94.5489 52.8526C90.801 50.8694 90.2988 44.75 97.0489 38C98.426 38.8764 99.7405 40.2857 100.796 41.9061M101.065 52.8526C101.312 52.7195 101.535 52.5678 101.735 52.3994M98.0484 63C100.36 61.912 103.849 59.8143 107.549 56.7882M98.0484 63V70M122.049 38C121.019 40.5003 119.749 42.8361 118.325 45M118.325 45C115.733 41.1667 113.949 32.8 127.549 30C129.066 35.3333 129.346 45.8 118.325 45ZM118.325 45C116.39 47.9415 114.172 50.5653 111.894 52.8526M110.049 54.6228C113.649 43.921 106.216 39.0819 102.049 38C101.583 39.0805 101.128 40.4275 100.796 41.9061M110.049 54.6228C109.548 55.082 109.047 55.5251 108.549 55.9516M110.049 54.6228C110.665 54.0573 111.282 53.4671 111.894 52.8526M107.549 56.7882C107.881 56.5168 108.214 56.2379 108.549 55.9516M107.549 56.7882C104.683 55.9018 102.845 54.3184 101.735 52.3994M106.049 48C106.882 48.8011 108.549 51.5129 108.549 55.9516M100.796 41.9061C103.177 45.5609 104.24 50.2895 101.735 52.3994M121.049 80.5C121.049 82.5 121.549 86.5 125.549 88C128.749 89.2 130.882 87.1667 131.549 86C132.882 87.3333 136.449 89 140.049 85C143.649 81 141.882 77.3333 140.549 76C141.716 74.6667 143.749 71.1 142.549 67.5C141.349 63.9 136.382 64 134.049 64.5C133.549 62.8333 131.349 59.7 126.549 60.5C121.749 61.3 120.882 65.8333 121.049 68C119.382 68.3333 116.049 70 116.049 74C116.049 78 119.382 80 121.049 80.5ZM121.049 80.5C118.536 83.9957 113.388 89.9974 107.549 94.2814M104.049 96.5714C102.059 97.708 100.036 98.5679 98.0484 99V88M104.049 96.5714C96.0489 89.8285 100.382 81.0476 103.549 77.5C106.549 78.3543 111.549 82.9066 107.549 94.2814M104.049 96.5714C105.232 95.8953 106.404 95.1214 107.549 94.2814M104.049 96.5714C111.249 107.029 119.382 102.214 122.549 98.5C117.349 90.5 110.382 92.3543 107.549 94.2814M104.049 96.5714C103.382 94.5476 102.449 89.7 104.049 86.5M104.049 96.5714C106.216 97.6205 110.949 99.1749 112.549 97M66.0488 64C67.439 65.986 69.3251 68.4339 71.5489 71M98.0484 88V70M98.0484 88C93.9153 88.285 89.4057 86.3782 85.0488 83.4283M71.5489 71C67.5489 72.1921 59.6488 71.0187 60.0488 56.7882C65.5488 57.3588 75.5488 61 71.5489 71ZM71.5489 71C75.3316 75.365 80.0914 80.0719 85.0488 83.4283M86.5489 59.3604C87.0442 59.0065 87.5462 58.5585 88.0489 58C91.6489 54 89.8822 50.3333 88.5489 49C89.7155 47.6667 91.7489 44.1 90.5489 40.5C89.3489 36.9 84.3822 37 82.0489 37.5C81.5489 35.8333 79.3489 32.7 74.5489 33.5C69.7489 34.3 68.8822 38.8333 69.0488 41C67.3822 41.3333 64.0488 43 64.0488 47C64.0488 51 67.3822 53 69.0488 53.5C69.0488 55.5 69.5489 59.5 73.5489 61C76.7489 62.2 78.8822 60.1667 79.5489 59C80.696 60.1472 83.4964 61.5411 86.5489 59.3604ZM86.5489 59.3604C87.0582 60.3426 87.8448 61.6438 88.8401 63M98.0484 70C96.0407 69.6912 94.1177 68.514 92.4172 67M88.8401 63C84.5763 62.8333 75.9489 64 75.5489 70C78.0659 72.8333 84.9634 76.2 92.4172 67M88.8401 63C89.3566 63.7039 89.9294 64.4227 90.5489 65.1193M92.4172 67C91.7583 66.4134 91.1329 65.7762 90.5489 65.1193M82.0489 68C84.0489 68.4129 88.5489 68.4148 90.5489 65.1193M128.066 49.7174C127.726 50.5887 127.549 51.509 127.549 52.3994C128.156 54.8987 129.23 56.5536 130.549 57.5414M128.066 49.7174C129.788 45.3049 135.698 42.1491 144.049 50.5C143.266 55.9812 135.309 61.1062 130.549 57.5414M128.066 49.7174C126.365 49.7733 122.873 50.8327 122.507 54.6228M122.507 54.6228C122.854 55.8467 124.949 58.144 130.549 57.5414M122.507 54.6228C120.528 55.0778 115.636 55.3609 111.894 52.8526M67.6919 95.5C68.8904 96.0011 69.7672 96.838 70.0489 98C70.7095 100.725 70.6285 102.794 70.0489 104.321M67.6919 95.5C63.2177 93.6293 54.2601 96.4403 55.0489 104.5C58.2231 108.071 67.8206 110.194 70.0489 104.321M67.6919 95.5C69.3111 94.7143 73.1493 93.8285 75.5489 96.5714M75.5489 96.5714C76.0489 99.0952 75.6489 104.178 70.0489 104.321M75.5489 96.5714C78.2155 94.8332 83.8488 89.771 85.0488 83.4283M129.049 70V70C131.81 70 134.049 72.2386 134.049 75V75V75C134.049 77.7614 131.81 80 129.049 80V80C126.287 80 124.049 77.7614 124.049 75V75C124.049 72.2386 126.287 70 129.049 70V70ZM72.0489 48C72.0489 45.2386 74.2874 43 77.0489 43C79.8103 43 82.0489 45.2386 82.0489 48C82.0489 50.7614 79.8103 53 77.0489 53C74.2874 53 72.0489 50.7614 72.0489 48ZM87.5489 81C86.3822 78.3333 86.2489 72.8 95.0489 72C95.3822 76.6667 94.3489 85 87.5489 81ZM75.5489 78C71.8822 76.5729 63.8489 75.7749 61.0489 84C65.8822 86.2936 75.5489 88.3045 75.5489 78ZM110.049 75C107.716 72.8333 104.449 67.4 110.049 63C112.716 65.1667 116.449 70.6 110.049 75ZM82.5484 92.5C81.3818 96.3333 81.2488 104.4 90.0488 106C90.882 102.167 90.5484 94.1 82.5484 92.5Z" stroke="black"/>
<path d="M82.5484 117H84.5484M78.5484 117H69.5484V128H72.5484M121.548 128H125.548V120.5M121.548 128L116.898 151.25M121.548 128H78.0484M97.0484 140L106.048 149M90.0484 140L105.048 155M89.0484 146.5L98.0484 156M74.0484 128L75.8084 139M74.0484 128H72.5484M74.0484 128H78.0484M76.2884 142L76.6884 144.5M77.4084 149L80.0484 165.5M80.0484 165.5H74.0484M80.0484 165.5H84.0484M116.148 155L114.048 165.5M114.048 165.5H118.048M114.048 165.5H84.0484M121.048 165.5H126.548M66.0484 165.5H71.0484M83.5484 170.5H104.548M107.048 170.5H112.048M72.5484 128V120.5H125.548M125.548 120.5V117H111.048M78.0484 128L84.0484 165.5M84.5484 117C85.215 115.667 88.8484 113 98.0484 113M84.5484 117H111.048M98.0484 113C107.248 113 110.548 115.667 111.048 117M98.0484 113V99M98.0484 60.5C95.648 60.5 94.7152 55.4018 94.5489 52.8526M98.0484 60.5C99.0595 60.4018 101.079 58.7348 101.065 52.8526M98.0484 60.5V63M94.5489 52.8526C95.5205 53.3668 96.7103 53.6029 98.0484 53.5C99.3064 53.5 100.301 53.2656 101.065 52.8526M94.5489 52.8526C90.801 50.8694 90.2988 44.75 97.0489 38C98.426 38.8764 99.7405 40.2857 100.796 41.9061M101.065 52.8526C101.312 52.7195 101.535 52.5678 101.735 52.3994M98.0484 63C100.36 61.912 103.849 59.8143 107.549 56.7882M98.0484 63V70M122.049 38C121.019 40.5003 119.749 42.8361 118.325 45M118.325 45C115.733 41.1667 113.949 32.8 127.549 30C129.066 35.3333 129.346 45.8 118.325 45ZM118.325 45C116.39 47.9415 114.172 50.5653 111.894 52.8526M110.049 54.6228C113.649 43.921 106.216 39.0819 102.049 38C101.583 39.0805 101.128 40.4275 100.796 41.9061M110.049 54.6228C109.548 55.082 109.047 55.5251 108.549 55.9516M110.049 54.6228C110.665 54.0573 111.282 53.4671 111.894 52.8526M107.549 56.7882C107.881 56.5168 108.214 56.2379 108.549 55.9516M107.549 56.7882C104.683 55.9018 102.845 54.3184 101.735 52.3994M106.049 48C106.882 48.8011 108.549 51.5129 108.549 55.9516M100.796 41.9061C103.177 45.5609 104.24 50.2895 101.735 52.3994M121.049 80.5C121.049 82.5 121.549 86.5 125.549 88C128.749 89.2 130.882 87.1667 131.549 86C132.882 87.3333 136.449 89 140.049 85C143.649 81 141.882 77.3333 140.549 76C141.716 74.6667 143.749 71.1 142.549 67.5C141.349 63.9 136.382 64 134.049 64.5C133.549 62.8333 131.349 59.7 126.549 60.5C121.749 61.3 120.882 65.8333 121.049 68C119.382 68.3333 116.049 70 116.049 74C116.049 78 119.382 80 121.049 80.5ZM121.049 80.5C118.536 83.9957 113.388 89.9974 107.549 94.2814M98.0484 99C100.036 98.5679 102.059 97.708 104.049 96.5714M98.0484 99V88M104.049 96.5714C96.0489 89.8285 100.382 81.0476 103.549 77.5C106.549 78.3543 111.549 82.9066 107.549 94.2814M104.049 96.5714C105.232 95.8953 106.404 95.1214 107.549 94.2814M104.049 96.5714C111.249 107.029 119.382 102.214 122.549 98.5C117.349 90.5 110.382 92.3543 107.549 94.2814M104.049 96.5714C103.382 94.5476 102.449 89.7 104.049 86.5M104.049 96.5714C106.216 97.6205 110.949 99.1749 112.549 97M66.0489 64C67.439 65.986 69.3251 68.4339 71.5489 71M98.0484 88V70M98.0484 88C93.9153 88.285 89.4057 86.3782 85.0488 83.4283M71.5489 71C67.5489 72.1921 59.6489 71.0187 60.0489 56.7882C65.5489 57.3588 75.5489 61 71.5489 71ZM71.5489 71C75.3316 75.365 80.0914 80.0719 85.0488 83.4283M86.5489 59.3604C87.0442 59.0065 87.5462 58.5585 88.0489 58C91.6489 54 89.8822 50.3333 88.5489 49C89.7155 47.6667 91.7489 44.1 90.5489 40.5C89.3489 36.9 84.3822 37 82.0489 37.5C81.5489 35.8333 79.3489 32.7 74.5489 33.5C69.7489 34.3 68.8822 38.8333 69.0489 41C67.3822 41.3333 64.0489 43 64.0489 47C64.0489 51 67.3822 53 69.0489 53.5C69.0489 55.5 69.5489 59.5 73.5489 61C76.7489 62.2 78.8822 60.1667 79.5489 59C80.696 60.1472 83.4964 61.5411 86.5489 59.3604ZM86.5489 59.3604C87.0583 60.3426 87.8448 61.6438 88.8401 63M98.0484 70C96.0407 69.6912 94.1177 68.514 92.4173 67M88.8401 63C84.5763 62.8333 75.9489 64 75.5489 70C78.0659 72.8333 84.9634 76.2 92.4173 67M88.8401 63C89.3566 63.7039 89.9294 64.4227 90.5489 65.1193M92.4173 67C91.7584 66.4134 91.1329 65.7762 90.5489 65.1193M82.0489 68C84.0489 68.4129 88.5489 68.4148 90.5489 65.1193M128.066 49.7174C127.726 50.5887 127.549 51.509 127.549 52.3994C128.156 54.8987 129.23 56.5536 130.549 57.5414M128.066 49.7174C129.788 45.3049 135.698 42.1491 144.049 50.5C143.266 55.9812 135.309 61.1062 130.549 57.5414M128.066 49.7174C126.365 49.7733 122.873 50.8327 122.507 54.6228M122.507 54.6228C122.854 55.8467 124.949 58.144 130.549 57.5414M122.507 54.6228C120.528 55.0778 115.636 55.3609 111.894 52.8526M67.692 95.5C68.8904 96.0011 69.7672 96.838 70.0489 98C70.7095 100.725 70.6285 102.794 70.0489 104.321M67.692 95.5C63.2177 93.6293 54.2601 96.4403 55.0489 104.5C58.2231 108.071 67.8206 110.194 70.0489 104.321M67.692 95.5C69.3111 94.7143 73.1493 93.8285 75.5489 96.5714M75.5489 96.5714C76.0489 99.0952 75.6489 104.178 70.0489 104.321M75.5489 96.5714C78.2155 94.8332 83.8488 89.771 85.0488 83.4283M129.049 70V70C131.81 70 134.049 72.2386 134.049 75V75V75C134.049 77.7614 131.81 80 129.049 80V80C126.287 80 124.049 77.7614 124.049 75V75C124.049 72.2386 126.287 70 129.049 70V70ZM72.0489 48C72.0489 45.2386 74.2874 43 77.0489 43C79.8103 43 82.0489 45.2386 82.0489 48C82.0489 50.7614 79.8103 53 77.0489 53C74.2874 53 72.0489 50.7614 72.0489 48ZM87.5489 81C86.3822 78.3333 86.2489 72.8 95.0489 72C95.3822 76.6667 94.3489 85 87.5489 81ZM75.5489 78C71.8822 76.5729 63.8489 75.7749 61.0489 84C65.8822 86.2936 75.5489 88.3045 75.5489 78ZM110.049 75C107.716 72.8333 104.449 67.4 110.049 63C112.716 65.1667 116.449 70.6 110.049 75ZM82.5484 92.5C81.3819 96.3333 81.2488 104.4 90.0488 106C90.882 102.167 90.5484 94.1 82.5484 92.5Z" stroke="black"/>
<path fill-rule="evenodd" clip-rule="evenodd" d="M100 200C155.228 200 200 155.228 200 100C200 44.7715 155.228 0 100 0C44.7715 0 0 44.7715 0 100C0 155.228 44.7715 200 100 200ZM99.5 188C147.825 188 187 148.825 187 100.5C187 52.1751 147.825 13 99.5 13C51.1751 13 12 52.1751 12 100.5C12 148.825 51.1751 188 99.5 188Z" fill="url(#paint0_linear_2343_13)"/>
<defs>
<linearGradient id="paint0_linear_2343_13" x1="0" y1="100" x2="200" y2="100" gradientUnits="userSpaceOnUse">
<stop stop-color="#D8F991"/>
<stop offset="1" stop-color="#9ED22A"/>
</linearGradient>
</defs>
</svg>
