<svg width="200" height="200" viewBox="0 0 200 200" fill="none" xmlns="http://www.w3.org/2000/svg">
<path d="M125.5 84H82L82.7527 88.7041L123.175 95.625L125.5 84Z" fill="#4397A4"/>
<path d="M125.5 84H129.5V76.5H76.5V84H78H82H125.5Z" fill="#71B8C8"/>
<path d="M120.1 111L120.85 107.25L123.175 95.625L82.7527 88.7041L88 121.5H118L120.1 111Z" fill="#71B8C8"/>
<path d="M80.24 98L80.64 100.5L81.36 105L84 121.5H88L82.7527 88.7041L78.64 88L79.76 95L80.24 98Z" fill="#BDE8F2"/>
<path d="M82 84H78L78.64 88L82.7527 88.7041L82 84Z" fill="#AAD3DC"/>
<path d="M129.5 73H86.5H82.5H73.5V84H76.5V76.5H129.5V73Z" fill="#BDE8F2"/>
<path d="M86.5 73H129.5V76.5M82.5 73H73.5V84H76.5M70 121.5H75M130.5 121.5H125M78 84L79.76 95M78 84H76.5M78 84H82M84 121.5L81.36 105M84 121.5H78M84 121.5H88M125.5 84H129.5V76.5M125.5 84L120.85 107.25M125.5 84H82M118 121.5L120.1 111M118 121.5H122M118 121.5H88M101 96L110 105M94 96L109 111M93 102.5L97.5 107.25L99.75 109.625L102 112M80.24 98L80.64 100.5M87.5 126.5H108.5M111 126.5H116M76.5 84V76.5H129.5M82 84L88 121.5" stroke="black"/>
<path d="M100 200C155.228 200 200 155.228 200 100C200 71.8538 188.242 46.4235 169.4 28.2511C170.569 29.4789 171.053 31.4835 171.053 33.3884C171.053 36.9782 168.279 39.8884 164.966 39.8884C163.506 39.8884 162.167 39.3234 161.127 38.3841C163.011 40.2534 164.81 42.2078 166.519 44.2411C179.301 59.4519 187 79.0768 187 100.5C187 148.825 148.325 188 100 188C96.6863 188 94 190.686 94 194C94 197.314 96.6863 200 100 200Z" fill="#E4EDF2"/>
<path d="M0 100C0 155.228 44.7715 200 100 200C96.6863 200 94 197.314 94 194C94 190.686 96.6863 188 100 188C51.6751 188 12 148.825 12 100.5C12 52.1751 51.1751 13 99.5 13C95.9101 13 93 10.0899 93 6.5C93 2.91015 95.9101 0 99.5 0C44.2715 0 0 44.7715 0 100Z" fill="#E4EDF2"/>
<path d="M93 6.5C93 10.0899 95.9101 13 99.5 13C123.341 13 144.956 22.5352 160.737 38C160.868 38.1276 160.997 38.2557 161.127 38.3841C162.167 39.3234 163.506 39.8884 164.966 39.8884C168.279 39.8884 171.053 36.9782 171.053 33.3884C171.053 31.4835 170.569 29.4789 169.4 28.2511C169.313 28.1673 169.226 28.0835 169.139 28C151.033 10.6627 126.452 0 99.5 0C95.9101 0 93 2.91015 93 6.5Z" fill="#E4EDF2"/>
</svg>
