<svg width="22" height="23" viewBox="0 0 22 23" fill="none" xmlns="http://www.w3.org/2000/svg">
<path d="M16.3574 8.46438L21.7149 5.09337V18.0958L15.6268 22.1892V9.66831M15.8704 22.43L6.61656 18.0958M6.61656 18.0958L0.284912 22.1892V9.18674L5.39889 6.2973M6.61656 18.0958V9.66831M11.0003 1C13.1916 1 16.6009 2.92629 15.1401 7.01966C14.4092 8.70517 12.9484 11.3538 11.0003 13.2801C9.6203 11.8354 6.83872 8.07549 6.61656 6.53808C6.37299 4.85255 6.86003 1.24079 11.0003 1ZM10.9999 3.64865C9.92396 3.64865 9.05173 4.51108 9.05173 5.57494C9.05173 6.63881 9.92396 7.50124 10.9999 7.50124C12.0759 7.50124 12.9481 6.63881 12.9481 5.57494C12.9481 4.51108 12.0759 3.64865 10.9999 3.64865Z" stroke="black" stroke-width="0.5" stroke-linecap="round"/>
</svg>
