<svg width="40" height="40" viewBox="0 0 40 40" fill="none" xmlns="http://www.w3.org/2000/svg">
<path fill-rule="evenodd" clip-rule="evenodd" d="M40 10C40 4.47715 35.5228 0 30 0H10C4.47715 0 0 4.47715 0 10V30C0 35.5228 4.47715 40 10 40H30C35.5228 40 40 35.5228 40 30V10Z" fill="#B0E5FC"/>
<path d="M14.6365 29.8899L15.6127 33.3062L12.1964 32.3301L13.3238 31.2026L14.6365 29.8899Z" fill="#139CD9"/>
<path d="M30.2537 28.4258V24.5215L32.6939 25.9856L31.6118 27.0678L30.2537 28.4258Z" fill="#139CD9"/>
<path d="M13.6606 19.1531V12.3206L15.6127 8.9043V7.32032H20.005M17.5649 5L20.005 7.32032M20.005 7.32032H24.8854V8.9043L26.8376 12.3206V29.4019C26.8376 30.3779 26.8376 32.0861 24.3974 30.3779L12.6845 21.5933C11.7083 20.8612 10.2442 20.1292 9.26822 21.1052C7.80412 22.5694 6.33993 24.0335 7.31607 25.4976C8.16185 26.7662 13.3352 31.11 15.6127 33.3062M15.6127 33.3062L14.6365 29.8899L12.1964 32.3301L15.6127 33.3062ZM12.6845 25.4976L24.1533 34.0382C26.5935 35.9904 33.7676 35.4047 32.2059 28.1818L30.2537 24.5215M30.2537 24.5215V28.4258L32.6939 25.9856L30.2537 24.5215Z" stroke="#139CD9" stroke-width="0.5"/>
</svg>
