<svg width="40" height="40" viewBox="0 0 40 40" fill="none" xmlns="http://www.w3.org/2000/svg">
<path fill-rule="evenodd" clip-rule="evenodd" d="M40 10C40 4.47715 35.5228 0 30 0H10C4.47715 0 0 4.47715 0 10V30C0 35.5228 4.47715 40 10 40H30C35.5228 40 40 35.5228 40 30V10Z" fill="#F6F87D"/>
<path d="M30.2222 14.7778C30.2222 19.7256 26.5471 23.8151 21.7778 24.4654C21.3418 24.5248 20.8967 24.5556 20.4444 24.5556C17.4009 24.5556 14.6822 23.165 12.8889 20.9846C11.5004 19.2962 10.6667 17.1344 10.6667 14.7778C10.6667 9.37766 15.0443 5 20.4444 5C25.8446 5 30.2222 9.37766 30.2222 14.7778Z" fill="#F6F87D"/>
<path d="M28.2222 14.7778C28.2222 19.0733 24.74 22.5556 20.4444 22.5556C16.1489 22.5556 12.6667 19.0733 12.6667 14.7778C12.6667 10.4822 16.1489 7 20.4444 7C24.74 7 28.2222 10.4822 28.2222 14.7778Z" fill="#F6F87D"/>
<path d="M20.3333 8.88889L18.4444 12.1111L14.5556 13L17.1111 15.7778L17 19.5556L20.3333 18.1111L23.7778 19.5556L23.5556 15.7778L25.8889 13L22.3333 12.1111L20.3333 8.88889Z" fill="#F6F87D"/>
<path d="M12.8889 20.9846C14.6822 23.165 17.4009 24.5556 20.4444 24.5556C20.8967 24.5556 21.3418 24.5248 21.7778 24.4654M12.8889 20.9846C11.5004 19.2962 10.6667 17.1344 10.6667 14.7778C10.6667 9.37766 15.0443 5 20.4444 5C25.8446 5 30.2222 9.37766 30.2222 14.7778C30.2222 19.7256 26.5471 23.8151 21.7778 24.4654M12.8889 20.9846L8 32.3333L12.5556 31L14.5556 35L18.4444 25.7778M21.7778 24.4654L26 34.7778L28.1111 31L32.5556 32.3333L28.4444 22.5556M28.2222 14.7778C28.2222 19.0733 24.74 22.5556 20.4444 22.5556C16.1489 22.5556 12.6667 19.0733 12.6667 14.7778C12.6667 10.4822 16.1489 7 20.4444 7C24.74 7 28.2222 10.4822 28.2222 14.7778ZM18.4444 12.1111L20.3333 8.88889L22.3333 12.1111L25.8889 13L23.5556 15.7778L23.7778 19.5556L20.3333 18.1111L17 19.5556L17.1111 15.7778L14.5556 13L18.4444 12.1111Z" stroke="#DAAE3A" stroke-width="0.5" stroke-linecap="round"/>
</svg>
