<svg width="22" height="26" viewBox="0 0 22 26" fill="none" xmlns="http://www.w3.org/2000/svg">
<path d="M7.5649 22.2201C7.8429 23.2703 8.87596 25 11.1788 25C13.4954 25 14.2367 23.1467 14.5147 22.2201M18.0359 9.71042V16.2896C18.0359 16.9382 18.2213 17.3274 18.5919 17.7722C19.0552 18.3282 20.2599 19.4402 20.9085 20.0888C21.2791 20.4595 21.2792 21.0154 20.9085 21.1081C14.7927 21.1081 2.37569 21.1081 1.63437 21.1081C0.893062 21.1081 0.893079 20.3668 1.17105 20.0888C1.81969 19.5328 3.30231 18.1429 3.67298 17.7722C4.05505 17.3902 4.32163 16.9382 4.32163 16.2896V9.71042C4.32163 6.33433 6.66882 3.52808 9.88147 2.95875C9.72703 2.30583 9.88147 1 11.1788 1C12.5131 1 12.5379 2.30583 12.3834 2.95875C15.5961 3.52808 18.0359 6.33433 18.0359 9.71042Z" stroke="black" stroke-linecap="round"/>
</svg>
