<svg width="28" height="26" viewBox="0 0 28 26" fill="none" xmlns="http://www.w3.org/2000/svg">
<path d="M10.5631 22.2201C10.8411 23.2703 11.8741 25 14.177 25C16.4936 25 17.2349 23.1467 17.5129 22.2201M22.9943 13.2317C23.643 13.417 24.8847 14.4363 24.6623 17.0309M24.3843 11.8417C25.3727 12.2124 27.2198 13.7691 26.7009 17.0309M4.63256 13.417C4.01956 13.7876 2.86768 14.9923 3.16421 16.8456M3.44219 11.9344C2.51555 12.3359 0.736402 13.8803 1.03293 16.8456M7.31982 9.71042V16.2896C7.31982 16.9382 7.05323 17.3902 6.67117 17.7722C6.3005 18.1429 4.81788 19.5328 4.16924 20.0888C3.89127 20.3668 3.89125 21.1081 4.63256 21.1081C5.37387 21.1081 17.7909 21.1081 23.9067 21.1081C24.2774 21.0154 24.2773 20.4595 23.9067 20.0888C23.2581 19.4402 22.0534 18.3282 21.5901 17.7722C21.2195 17.3274 21.0341 16.9382 21.0341 16.2896V10.9151C15.5812 10.4517 16.0445 5.26255 17.2813 3.59459C16.6921 3.29491 16.0538 3.07787 15.3816 2.95875C15.536 2.30583 15.5113 1 14.177 1C12.8797 1 12.7252 2.30583 12.8797 2.95875C9.667 3.52808 7.31982 6.33433 7.31982 9.71042Z" stroke="black" stroke-linecap="round"/>
<path d="M20.307 5.07724L21.0483 4.52125H21.7896V8.22781H21.0483V5.26256L20.307 5.81855V5.07724Z" fill="white"/>
<path fill-rule="evenodd" clip-rule="evenodd" d="M24.5696 6.1892C24.5696 8.13393 22.9931 9.71044 21.0483 9.71044C19.1036 9.71044 17.5271 8.13393 17.5271 6.1892C17.5271 4.24448 19.1036 2.66797 21.0483 2.66797C22.9931 2.66797 24.5696 4.24448 24.5696 6.1892ZM21.0483 4.52125L20.307 5.07724V5.81855L21.0483 5.26256V8.22781H21.7896V4.52125H21.0483Z" fill="#FF3A3A"/>
</svg>
