<svg width="40" height="40" viewBox="0 0 40 40" fill="none" xmlns="http://www.w3.org/2000/svg">
<path fill-rule="evenodd" clip-rule="evenodd" d="M40 10C40 4.47715 35.5228 0 30 0H10C4.47715 0 0 4.47715 0 10V30C0 35.5228 4.47715 40 10 40H30C35.5228 40 40 35.5228 40 30V10Z" fill="#BFF1B9"/>
<path d="M14.9574 29.6752L15.9746 33.235L12.4147 32.2179L13.5895 31.0431L14.9574 29.6752Z" fill="#60BD55"/>
<path d="M31.2308 28.1496V24.0812L33.7735 25.6069L32.6458 26.7345L31.2308 28.1496Z" fill="#60BD55"/>
<path d="M15.9746 33.235C13.6014 30.9466 8.21066 26.4202 7.32935 25.0983C6.3122 23.5727 7.8379 22.0471 9.36352 20.5214C10.3805 19.5044 11.9062 20.2672 12.9233 21.03L23.6386 28.9496L27.9243 25.6069C25.9075 23.4438 23.2857 18.2101 28.9327 14.5798C27.7059 12.563 23.6386 9.78991 20.6134 12.3109M15.9746 33.235L14.9574 29.6752L12.4147 32.2179L15.9746 33.235ZM12.9233 25.0983L24.874 33.9978C27.4167 36.032 34.8923 35.4217 33.2649 27.8953L31.2308 24.0812M31.2308 24.0812V28.1496L33.7735 25.6069L31.2308 24.0812ZM20.6134 12.3109C18.8487 11.1344 14.6134 10.3445 11.7899 14.5798C13.4032 14.9275 16.4988 16.6025 15.9746 20.5214M20.6134 12.3109C20.3613 10.5462 20.7647 7.0168 24.3949 5" stroke="#60BD55" stroke-width="0.5"/>
</svg>
