<svg width="40" height="40" viewBox="0 0 40 40" fill="none" xmlns="http://www.w3.org/2000/svg">
<path fill-rule="evenodd" clip-rule="evenodd" d="M40 10C40 4.47715 35.5228 0 30 0H10C4.47715 0 0 4.47715 0 10V30C0 35.5228 4.47715 40 10 40H30C35.5228 40 40 35.5228 40 30V10Z" fill="#FAEAC0"/>
<path d="M14.4718 29.331L15.5548 33.1209L11.7647 32.0381L13.0155 30.7873L14.4718 29.331Z" fill="#DAAE3A"/>
<path d="M31.7972 27.7067V23.3754L34.5043 24.9996L33.3038 26.2002L31.7972 27.7067Z" fill="#DAAE3A"/>
<path d="M15.5548 33.1209C13.0281 30.6845 7.28893 25.8655 6.35064 24.4582C5.26773 22.834 6.89207 21.2097 8.51631 19.5854C9.59906 18.5027 11.2233 19.3147 12.3062 20.1269L25.3003 29.8724C28.0074 31.7674 28.0074 29.8724 28.0074 28.7896V5H11.7647V16.7273M15.5548 33.1209L14.4718 29.331L11.7647 32.0381L15.5548 33.1209ZM12.3062 24.4582L25.0295 33.933C27.7366 36.0987 35.6954 35.449 33.9629 27.436L31.7972 23.3754M31.7972 23.3754V27.7067L34.5043 24.9996L31.7972 23.3754ZM24 9.09091H27M24 13.4545H27M24 18.0909H27M24 23.3754H27" stroke="#DAAE3A" stroke-width="0.5"/>
</svg>
