<svg width="133" height="140" viewBox="0 0 133 140" fill="none" xmlns="http://www.w3.org/2000/svg">
<path fill-rule="evenodd" clip-rule="evenodd" d="M1 0H131.803V107.5H1V0Z" fill="#DBECCA"/>
<path d="M1 109H131.803V107.5H1V109Z" fill="#DBECCA"/>
<path d="M1 140H131.803V109H1V140Z" fill="#DBECCA"/>
<path d="M26.3976 63.688C28.1105 60.0067 34.7793 55.5552 41.8372 51.7388C41.6253 50.781 41.0558 49.994 40.5 49.5L18.5 58.5L1 81.5V112.5C3.83333 112.333 9.6 111.9 10 111.5C17.6474 109.679 26.9801 101.366 31.7351 96.3694C43.1232 93.065 43.9901 88.0796 43 86C41.8 83.6 35.8333 83.6667 33 84C32 83.8333 28.8 84.5 24 88.5C22.8762 89.6238 20.8865 91.1264 18.5 92.0695C15.7 90.9251 12.5 87 14 83L17 75.5L19.5 71.5L23 65.5L26.3976 63.688Z" fill="#F7E1BE"/>
<path d="M29.6296 79.2023C28.5569 77.1787 27.7757 75.0636 27.2191 73.0591C23.3998 74.0266 19.4156 74.9705 17 75.5L14 83C12.5 87 15.7 90.9251 18.5 92.0695C20.8865 91.1264 22.8762 89.6238 24 88.5C28.8 84.5 32 83.8333 33 84C31.6433 82.5464 30.5331 80.9068 29.6296 79.2023Z" fill="#EECD98"/>
<path d="M36.5 58.3L38 57.5C41.525 55.4857 42.1972 53.3658 41.8372 51.7388C34.7793 55.5552 28.1105 60.0067 26.3976 63.688L36.5 58.3Z" fill="#F7E1BE"/>
<path d="M39 60.5C39 59.7 38.5 58.14 36.5 58.3L26.3976 63.688C26.1883 64.1377 26.053 64.5759 26 65C26 66.0491 26.1049 67.4978 26.372 69.1716C32.8354 66.7499 39.8604 63.3679 39 60.5Z" fill="#EECD98"/>
<path d="M23 65.5L19.5 71.5C21.3568 70.934 23.8206 70.1276 26.372 69.1716C26.1049 67.4978 26 66.0491 26 65C26.053 64.5759 26.1883 64.1377 26.3976 63.688L23 65.5Z" fill="#EECD98"/>
<path d="M34.5 77C42.5 72.5 38.5 69 37.5 70C37.0442 70.4558 32.2761 71.778 27.2191 73.0591C27.7757 75.0636 28.5569 77.1787 29.6296 79.2023C31.4441 78.3537 33.2296 77.554 34.5 77Z" fill="#EECD98"/>
<path d="M33 84C40.2 77.6 37 76.6667 34.5 77C33.2296 77.554 31.4441 78.3537 29.6296 79.2023C30.5331 80.9068 31.6433 82.5464 33 84Z" fill="#EECD98"/>
<path fill-rule="evenodd" clip-rule="evenodd" d="M91 67.5C91.3333 66.3333 92.8 63.8 96 63C97 62.5 99.3 61.3 100.5 60.5C101.661 59.7261 106.115 60.7489 108.302 61.251C108.941 61.3977 109.387 61.5 109.5 61.5C111.062 61.7344 113.467 61.9248 115.787 61.7726C115.816 61.7707 115.845 61.7688 115.874 61.7668C116.655 60.7895 116.959 58.7894 116.858 57C116.344 55.8 112.905 53.1667 111.25 52L115 50.5C116.2 44.5 112.167 39.6667 110 38L104.51 40.109L103 40.689C102.552 40.309 102.193 40.109 102 40.109C101.2 40.109 101.667 41.0363 102 41.5L100.5 42C97.7165 40.9175 94.9808 40.3611 92.5 40.109L90 39C80 40.2 78.5 36.8333 79 35C81.8333 34 87.7 32 88.5 32H101.5C107.9 33.6 124.5 43.6667 132 48.5V82.5C131 83 121.5 79 118.5 77C116.1 75.4 109.167 73 106 72C93.2 74 90.6667 69.8333 91 67.5Z" fill="#F7E1BE"/>
<path d="M109.5 61.5C111.062 61.7344 113.467 61.9248 115.787 61.7726C115.816 61.7707 115.845 61.7688 115.874 61.7668C116.655 60.7895 116.959 58.7894 116.858 57C116.344 55.8 112.905 53.1667 111.25 52L109.5 52.7L107.5 53.5C107.333 54 106.9 54.6 106.5 53L104.5 54C104.358 54.2836 104.184 54.6242 103.985 55C103.02 56.8328 101.496 59.5042 100.5 60.5C101.661 59.7261 106.115 60.7489 108.302 61.251C108.941 61.3977 109.387 61.5 109.5 61.5Z" fill="#EECD98"/>
<path d="M96 55C95.3609 56.1667 95.3662 58.9 100.5 60.5C101.496 59.5042 103.02 56.8328 103.985 55H96Z" fill="#EECD98"/>
<path d="M104.5 54C104.5 52.8871 103.674 50.2776 102.712 47.636L97 48.5C95.3333 49 91.6 50 90 50C88 50 88.5 55.5 94.5 55H96H103.985C104.184 54.6242 104.358 54.2836 104.5 54Z" fill="#EECD98"/>
<path d="M104.5 54L106.5 53C106.5 51.8809 106.289 49.4 105.511 47.2126L102.712 47.636C103.674 50.2776 104.5 52.8871 104.5 54Z" fill="#EECD98"/>
<path d="M106.5 53C106.9 54.6 107.333 54 107.5 53.5C107.804 51.0656 107.507 48.8728 106.917 47L105.511 47.2126C106.289 49.4 106.5 51.8809 106.5 53Z" fill="#EECD98"/>
<path d="M100.5 42C97.7165 40.9175 94.9808 40.3611 92.5 40.109C88.2202 39.6739 84.6991 40.1443 83 40.3809C82.6667 42.2539 84.1 45.8 92.5 45C94.7878 45 98.687 45.1467 101.955 45.6176C101.422 44.2344 100.901 42.9516 100.5 42Z" fill="#EECD98"/>
<path d="M102 41.5L100.5 42C100.901 42.9516 101.422 44.2344 101.955 45.6176C103.127 45.7866 104.218 45.9972 105.124 46.2578C105.864 46.4705 106.48 46.7164 106.917 47C105.943 43.9036 104.17 41.6819 103 40.689C102.552 40.309 102.193 40.109 102 40.109C101.2 40.109 101.667 41.0363 102 41.5Z" fill="#EECD98"/>
<path d="M56 45C52.2183 46.5648 46.9266 48.9867 41.8372 51.7388C42.0637 52.7623 41.9801 53.9809 40.9363 55.2456C46.6208 51.9068 53.516 48.7566 61.7096 46.5002C63.9166 45.8924 66.2106 45.3494 68.5896 44.8851C72.0802 44.2038 75.7536 43.6918 79.6031 43.3925C81.0037 43.2837 82.4276 43.2029 83.8744 43.1525C83.0283 42.2279 82.8614 41.1598 83 40.3809L82.8978 40.3952C82.4528 40.4572 82.1462 40.5 82 40.5C81 40.5 76.5 41 75.5 40.5C74.5 40 73 41.5 71 42C69 42.5 68.5 41 66 41.5C63.5 42 63 42.5 61.5 43.5C60 44.5 59.5 43.5 58.5 43.5C57.7 43.5 56.5 44.5 56 45Z" fill="#BBBBBB" fill-opacity="0.5"/>
<path d="M100.5 42C97.7165 40.9175 94.9808 40.3611 92.5 40.109C88.2202 39.6739 84.6991 40.1443 83 40.3809C82.8614 41.1598 83.0283 42.2279 83.8744 43.1525C89.3644 42.9611 95.1854 43.2054 101.32 44C101.019 43.2486 100.738 42.5658 100.5 42Z" fill="#BBBBBB" fill-opacity="0.5"/>
<path d="M27.1931 72.965C28.2607 72.7098 29.425 72.4498 30.4448 72.1938C30.0693 70.8559 29.7841 69.5438 29.5744 68.3237C28.6689 68.7159 27.6522 69.0902 26.7462 69.4417C26.6428 69.4818 26.5395 69.5217 26.4365 69.5612C26.619 70.6274 26.8666 71.7761 27.1931 72.965Z" fill="#BBBBBB" fill-opacity="0.5"/>
<path d="M102 41.5L100.5 42C100.738 42.5658 101.019 43.2486 101.32 44L103.551 43C103.102 42.4055 102.419 41.8144 102 41.5Z" fill="#BBBBBB" fill-opacity="0.5"/>
<path d="M102 40.109C101.2 40.109 101.667 41.0363 102 41.5C102.419 41.8144 103.102 42.4055 103.551 43L104.5 42.3103C103.964 41.6088 103.44 41.0622 103 40.689C102.552 40.309 102.193 40.109 102 40.109Z" fill="#BBBBBB" fill-opacity="0.5"/>
<path d="M79.6031 43.3925C75.7536 43.6918 72.0802 44.2038 68.5896 44.8851C68.7008 45.3879 68.9844 45.931 69.2232 46.4958C71.6567 46.0788 74.1844 45.7214 76.7896 45.443C76.8924 45.432 76.9954 45.4211 77.0984 45.4104C78.321 45.283 79.5605 45.173 80.8151 45.0826C80.4575 44.472 79.9791 43.9037 79.6031 43.3925Z" fill="white" fill-opacity="0.5"/>
<path d="M83.8744 43.1525C82.4276 43.2029 81.0037 43.2837 79.6031 43.3925C79.9791 43.9037 80.4575 44.472 80.8151 45.0826C82.2245 44.981 83.6531 44.9039 85.0984 44.8543C85.7808 44.8309 86.4668 44.8136 87.1564 44.8027C85.6136 44.4523 84.5057 43.8423 83.8744 43.1525Z" fill="white" fill-opacity="0.5"/>
<path d="M101.32 44C95.1854 43.2054 89.3644 42.9611 83.8744 43.1525C84.5057 43.8423 85.6136 44.4523 87.1564 44.8027C91.1046 44.7403 95.1665 44.8881 99.2944 45.302C100.231 45.3856 101.165 45.4897 102.053 45.6176C101.837 45.0568 101.525 44.5124 101.32 44Z" fill="white" fill-opacity="0.5"/>
<path d="M68.5896 44.8851C66.2106 45.3494 63.9166 45.8924 61.7096 46.5002C62.0027 46.902 62.4251 47.3337 62.7713 47.7797C64.834 47.3116 66.9889 46.8786 69.2232 46.4958C68.9844 45.931 68.7008 45.3879 68.5896 44.8851Z" fill="white" fill-opacity="0.5"/>
<path d="M53 49.5C53.4121 49.294 53.8242 49.5974 54.0963 50.0604C55.1889 49.7253 56.4229 49.395 57.5984 49.0733C58.6474 48.7862 59.7282 48.5059 60.8386 48.2348C61.4733 48.0799 62.1177 47.9281 62.7713 47.7797C62.4251 47.3337 62.0027 46.902 61.7096 46.5002C53.516 48.7566 46.6208 51.9068 40.9363 55.2456C43.5565 53.8896 47.5116 52.2137 52.4722 50.6039C52.6568 49.9959 52.7902 49.6049 53 49.5Z" fill="white" fill-opacity="0.5"/>
<path d="M54.0963 50.0604C53.8242 49.5974 53.4121 49.294 53 49.5C52.7902 49.6049 52.6568 49.9959 52.4722 50.6039C53.0337 50.4217 53.5096 50.2403 54.0963 50.0604Z" fill="white" fill-opacity="0.5"/>
<path d="M36.5984 58.3L38.0984 57.5C39.4059 56.7529 40.3208 55.9912 40.9363 55.2456C38.6869 56.5667 36.6426 57.9174 34.8099 59.2539L36.5984 58.3Z" fill="white"/>
<path fill-rule="evenodd" clip-rule="evenodd" d="M34.8099 59.2539L29.7731 61.9402C32.1078 58.5601 35.2427 55.7519 37.5 54.2048C38.9008 53.3636 40.3605 52.5373 41.8372 51.7388C42.0637 52.7623 41.9801 53.9809 40.9363 55.2456C38.6869 56.5667 36.6426 57.9174 34.8099 59.2539Z" fill="#BBBBBB" fill-opacity="0.5"/>
<path d="M37.5 54.2048C32.2057 57.3843 27.7521 60.7769 26.3976 63.688L29.7731 61.9402C32.1078 58.5601 35.2427 55.7519 37.5 54.2048Z" fill="white" fill-opacity="0.5"/>
<path d="M26 65C26 65.5612 26.03 66.2368 26.0988 67C26.6266 66.3782 27.3264 65.7222 28 65.0402C28.4825 63.9694 29.0893 62.9302 29.7731 61.9402L26.3976 63.688C26.1883 64.1377 26.053 64.5759 26 65Z" fill="white" fill-opacity="0.5"/>
<path fill-rule="evenodd" clip-rule="evenodd" d="M29.5744 68.3237C28.6689 68.7159 27.6522 69.0902 26.7462 69.4417C26.8376 67.9455 27.3581 66.4648 28 65.0402C28.347 64.6889 28.7132 64.3307 29.0984 63.9666C29.139 65.1273 29.2847 66.6378 29.5744 68.3237Z" fill="#BBBBBB" fill-opacity="0.5"/>
<path d="M26.0988 67C26.1685 67.7731 26.278 68.636 26.4365 69.5612C26.5395 69.5217 26.6428 69.4818 26.7462 69.4417C26.8376 67.9455 27.3581 66.4648 28 65.0402C27.3264 65.7222 26.6266 66.3782 26.0988 67Z" fill="white" fill-opacity="0.5"/>
<path d="M56.5 85H57.5C58.5 85 58.5 84.5 59.5 84C60.5 83.5 62.5 84.5 63 84C63.5 83.5 64.5 81.5 65.5 81.5C66.5 81.5 68.5 82.5 69.5 81.5C70.5 80.5 71.5 79 72 79C72.5 79 74.5 79 75.5 78.5C76.5 78 77.5 75.5 79 75C79.2711 74.9096 79.8036 74.6722 80.5 74.3321C80.9591 72.8835 80.7986 71.4017 80.332 70.0384C79.4525 70.5262 78.5519 71.01 77.6306 71.4887C77.561 72.5836 77.3716 73.6329 77 74.5C75.4854 76.469 71.8925 78.2612 67.5376 79.8006C65.6978 80.4509 63.7221 81.056 61.7096 81.6104C55.905 83.2091 49.7946 84.3848 45.759 85C45.6964 85.2464 45.6107 85.5084 45.5 85.7866C49.6018 85.4424 55.1966 85 56.5 85Z" fill="white" fill-opacity="0.5"/>
<path d="M77 65C77.166 65.6641 77.3541 66.626 77.4874 67.7172C77.6311 68.8944 77.711 70.222 77.6306 71.4887C78.5519 71.01 79.4525 70.5262 80.332 70.0384C79.9569 68.9423 79.3839 67.9228 78.7761 67.0585C78.1639 66.188 77.5164 65.475 77 65Z" fill="white" fill-opacity="0.5"/>
<path d="M37.5 83.8748C39.9111 84.0235 42.29 84.5799 43 86C43.7106 85.9382 44.5666 85.865 45.5 85.7866C45.6107 85.5084 45.6964 85.2464 45.759 85C46.0273 83.9425 45.869 83.1708 45.4315 82.6197C42.8608 83.1134 40.2165 83.5353 37.5 83.8748Z" fill="white" fill-opacity="0.5"/>
<path d="M35.2354 81.8467C35.9195 82.6082 36.6724 83.2929 37.5 83.8748C40.2165 83.5353 42.8608 83.1134 45.4315 82.6197C44.1299 80.9801 40.4552 81.2945 38.0984 81.8467C37.2697 82.0699 36.4036 81.9658 35.534 81.63C35.4691 81.7012 35.304 81.7734 35.2354 81.8467Z" fill="white" fill-opacity="0.5"/>
<path d="M33 84C34.1569 83.8639 35.8361 83.7722 37.5 83.8748C36.6724 83.2929 35.9195 82.6082 35.2354 81.8467C34.6385 82.4844 33.9006 83.1994 33 84Z" fill="white" fill-opacity="0.5"/>
<path fill-rule="evenodd" clip-rule="evenodd" d="M31.218 78.4679C31.6728 78.2599 32.2145 78.0591 32.6376 77.869C33.2829 79.1136 34.0339 80.2936 34.9043 81.3478C33.6664 80.7184 32.3394 79.6664 31.218 78.4679Z" fill="#BBBBBB" fill-opacity="0.5"/>
<path d="M29.6296 79.2023C30.5331 80.9068 31.6433 82.5464 33 84C33.9006 83.1994 34.6385 82.4844 35.2354 81.8467C35.0891 81.6838 35.0444 81.5174 34.9043 81.3478C33.6664 80.7184 32.3394 79.6664 31.218 78.4679C30.6994 78.705 30.1658 78.9515 29.6296 79.2023Z" fill="white" fill-opacity="0.5"/>
<path fill-rule="evenodd" clip-rule="evenodd" d="M32.6376 77.869C32.2145 78.0591 31.6728 78.2599 31.218 78.4679C29.5156 76.6485 28.06 74.4919 27.1931 72.965C28.2607 72.7098 29.425 72.4498 30.4448 72.1938C30.9788 74.0967 31.6955 76.0518 32.6376 77.869Z" fill="#BBBBBB" fill-opacity="0.5"/>
<path d="M27.1931 72.965C27.7513 74.9973 28.5401 77.1471 29.6296 79.2023C30.1658 78.9515 30.6994 78.705 31.218 78.4679C29.5156 76.6485 28.06 74.4919 27.1931 72.965Z" fill="white" fill-opacity="0.5"/>
<path d="M59.3886 79.0652C60.5021 78.7091 61.5974 78.3407 62.6743 77.9613C62.7898 76.7581 62.72 75.5642 62.5121 74.402C61.6278 69.4587 58.344 65.0874 56.0984 63C57.6604 65.1628 59.8344 69.9243 59.7819 75.4111C59.7706 76.6014 59.6498 77.8258 59.3886 79.0652Z" fill="white" fill-opacity="0.5"/>
<path d="M57.7887 82.6197C59.0931 82.3055 60.409 81.9686 61.7096 81.6104C62.2523 80.3997 62.5577 79.1758 62.6743 77.9613C61.5974 78.3407 60.5021 78.7091 59.3886 79.0652C59.2617 79.6672 58.8289 80.5105 58.4246 81.2984C58.176 81.7827 57.9381 82.2461 57.7887 82.6197Z" fill="white" fill-opacity="0.5"/>
<path d="M52.4722 50.6039C52.2159 51.4483 52.0507 52.7111 52.1623 54.2068C52.3534 56.7663 53.3553 60.0075 56.0984 63C55.5008 60.4957 54.8763 56.109 55.4979 52.8313C55.8157 51.1556 56.4592 49.7697 57.5984 49.0733C56.4229 49.395 55.1889 49.7253 54.0963 50.0604C53.5096 50.2403 53.0337 50.4217 52.4722 50.6039Z" fill="white" fill-opacity="0.5"/>
<path d="M69.2232 46.4958C69.4681 47.0747 69.7694 47.6765 70.1055 48.2809C71.3235 50.4712 72.8999 52.6966 74 54C73.3847 52.2748 72.9546 49.4131 73.8712 47.4667C74.3614 46.4257 75.265 45.6466 76.7896 45.443C74.1844 45.7214 71.6567 46.0788 69.2232 46.4958Z" fill="white" fill-opacity="0.5"/>
<path d="M80.8151 45.0826C81.0337 45.4559 81.2439 45.845 81.4397 46.2465C82.3773 48.1694 82.8859 50.3773 82.5 52.5C83.4933 50.8716 85.2492 47.675 85.3083 45.8321C85.3211 45.4327 85.2588 45.0968 85.0984 44.8543C83.6531 44.9039 82.2245 44.981 80.8151 45.0826Z" fill="white" fill-opacity="0.5"/>
<path d="M87.1857 65.9032C89.4324 64.4305 91.491 62.9574 93.3564 61.5191C93.0234 60.7605 92.5941 60.0966 92.1016 59.5177C90.0281 57.0804 86.8352 56.1491 85 56C86.0512 57.7521 86.6366 60.1672 86.9362 62.5997C87.074 63.7181 87.1513 64.8402 87.1857 65.9032Z" fill="white" fill-opacity="0.5"/>
<path d="M91 67.5C91.2539 66.6113 92.1655 64.9295 94 63.825C93.8813 62.9736 93.6585 62.2074 93.3564 61.5191C91.491 62.9574 89.4324 64.4305 87.1857 65.9032C87.2472 67.8063 87.1712 69.52 87.058 70.6839C88.9986 69.4636 90.6183 68.2633 91 67.5Z" fill="white" fill-opacity="0.5"/>
<path fill-rule="evenodd" clip-rule="evenodd" d="M45.4315 82.6197C48.3857 82.0525 51.2426 81.3904 54 80.6495C55.8408 80.155 57.6372 79.6253 59.3886 79.0652C59.2617 79.6672 58.8289 80.5105 58.4246 81.2984C58.176 81.7827 57.9381 82.2461 57.7887 82.6197C53.271 83.7078 48.8904 84.5227 45.759 85C46.0273 83.9425 45.869 83.1708 45.4315 82.6197ZM61.7096 81.6104C63.7221 81.056 65.6978 80.4509 67.5376 79.8006C71.8925 78.2612 75.4854 76.469 77 74.5C77.3716 73.6329 77.561 72.5836 77.6306 71.4887C74.3751 73.1798 70.8596 74.8053 67.0926 76.3046C65.6562 76.8763 64.1833 77.4297 62.6743 77.9613C62.5577 79.1758 62.2523 80.3997 61.7096 81.6104ZM87.1857 65.9032C87.2472 67.8063 87.1712 69.52 87.058 70.6839C84.8329 72.0831 82.186 73.5087 80.5 74.3321C80.9591 72.8835 80.7986 71.4017 80.332 70.0384C82.781 68.6802 85.067 67.2919 87.1857 65.9032ZM98.6039 59.7544C97.8885 59.3991 97.3354 59.0168 96.9138 58.626C95.8196 59.5665 94.6332 60.5346 93.3564 61.5191C93.6585 62.2074 93.8813 62.9736 94 63.825C95.2008 62.8475 96.913 61.3685 98.6039 59.7544Z" fill="#BBBBBB" fill-opacity="0.5"/>
<path d="M96 63C97 62.5 99.3 61.3 100.5 60.5C99.7681 60.2719 99.1404 60.0207 98.6039 59.7544C96.913 61.3685 95.2008 62.8475 94 63.825C94.5737 63.4795 95.2377 63.1906 96 63Z" fill="white" fill-opacity="0.5"/>
<path fill-rule="evenodd" clip-rule="evenodd" d="M98.6039 59.7544C100.248 58.1852 101.871 56.4883 102.986 55H100.834C99.6975 56.1398 98.3894 57.3578 96.9138 58.626C97.3354 59.0168 97.8885 59.3991 98.6039 59.7544Z" fill="#BBBBBB" fill-opacity="0.5"/>
<path d="M100.5 60.5C101.496 59.5042 103.02 56.8328 103.985 55H102.986C101.871 56.4883 100.248 58.1852 98.6039 59.7544C99.1404 60.0207 99.7681 60.2719 100.5 60.5Z" fill="white" fill-opacity="0.5"/>
<path fill-rule="evenodd" clip-rule="evenodd" d="M102.986 55H100.834C102.106 53.7244 103.163 52.5467 104 51.5058C104.124 51.9374 104.229 52.3391 104.311 52.7C104.1 53.3546 103.627 54.1427 102.986 55Z" fill="#BBBBBB" fill-opacity="0.5"/>
<path d="M103.985 55C104.184 54.6242 104.358 54.2836 104.5 54C104.5 53.6793 104.431 53.2343 104.311 52.7C104.1 53.3546 103.627 54.1427 102.986 55H103.985Z" fill="white" fill-opacity="0.5"/>
<path fill-rule="evenodd" clip-rule="evenodd" d="M104.311 52.7L106.476 52.2414C106.454 51.8773 106.418 51.4566 106.363 51L104 51.5058C104.124 51.9374 104.229 52.3391 104.311 52.7Z" fill="#BBBBBB" fill-opacity="0.5"/>
<path d="M104.5 54L106.5 53C106.5 52.791 106.493 52.5346 106.476 52.2414L104.311 52.7C104.431 53.2343 104.5 53.6793 104.5 54Z" fill="white" fill-opacity="0.5"/>
<path fill-rule="evenodd" clip-rule="evenodd" d="M106.476 52.2414L107.615 52C107.627 51.5686 107.621 51.1461 107.598 50.733L106.363 51C106.418 51.4566 106.454 51.8773 106.476 52.2414Z" fill="#BBBBBB" fill-opacity="0.5"/>
<path d="M106.5 53C106.9 54.6 107.333 54 107.5 53.5C107.564 52.9891 107.601 52.4889 107.615 52L106.476 52.2414C106.493 52.5346 106.5 52.791 106.5 53Z" fill="white" fill-opacity="0.5"/>
<path d="M115 50.5C116.2 44.5 112.167 39.6667 110 38L104.51 40.109L103 40.689C103.44 41.0622 103.964 41.6088 104.5 42.3103C105.39 43.4753 106.309 45.0673 106.917 47C107.274 48.133 107.524 49.3831 107.598 50.733C107.621 51.1461 107.627 51.5686 107.615 52C107.601 52.4889 107.564 52.9891 107.5 53.5L109.5 52.7L111.25 52L115 50.5Z" fill="white"/>
<path d="M103.551 43L101.32 44C101.525 44.5124 101.837 45.0568 102.053 45.6176C103.225 45.7866 104.218 45.9972 105.124 46.2578C105.864 46.4705 106.48 46.7164 106.917 47C106.309 45.0673 105.39 43.4753 104.5 42.3103L103.551 43Z" fill="white" fill-opacity="0.5"/>
<path d="M38.0984 57.5L36.5984 58.3C38.5984 58.14 39.0984 59.7 39.0984 60.5C39.1495 60.6703 39.1752 60.8425 39.177 61.0161C42.8108 58.7245 47.1646 56.3701 52.1623 54.2068C52.0507 52.7111 52.2159 51.4483 52.4722 50.6039C47.5116 52.2137 43.5565 53.8896 40.9363 55.2456C40.3208 55.9912 39.4059 56.7529 38.0984 57.5Z" fill="#A9C3E1" fill-opacity="0.5"/>
<path d="M39.0984 60.5C39.0984 59.7 38.5984 58.14 36.5984 58.3L34.8099 59.2539C32.592 60.8713 30.6842 62.4681 29.0984 63.9666C29.139 65.1273 29.2847 66.6378 29.5744 68.3237C30.3212 67.6008 31.1973 66.8208 32.198 66C34.0901 64.448 36.4274 62.7501 39.177 61.0161C39.1752 60.8425 39.1495 60.6703 39.0984 60.5Z" fill="#A9C3E1" fill-opacity="0.5"/>
<path d="M29.0984 63.9666C30.6842 62.4681 32.592 60.8713 34.8099 59.2539L29.7731 61.9402C29.0893 62.9302 28.4825 63.9694 28 65.0402C28.347 64.6889 28.7132 64.3307 29.0984 63.9666Z" fill="#A9C3E1" fill-opacity="0.5"/>
<path d="M32.198 66C31.1973 66.8208 30.3212 67.6008 29.5744 68.3237C30.4759 67.9333 31.3648 67.5251 32.2162 67.1042C32.2008 66.7062 32.1952 66.3361 32.198 66Z" fill="#A9C3E1" fill-opacity="0.5"/>
<path d="M29.5744 68.3237C29.7841 69.5438 30.0693 70.8559 30.4448 72.1938C31.2394 71.9943 32.006 71.7973 32.7237 71.607C32.4182 69.957 32.2659 68.3862 32.2162 67.1042C31.3648 67.5251 30.4759 67.9333 29.5744 68.3237Z" fill="#A9C3E1" fill-opacity="0.5"/>
<path d="M30.4448 72.1938C30.9788 74.0967 31.6955 76.0518 32.6376 77.869C33.2703 77.5846 33.8582 77.324 34.3729 77.0986C33.589 75.3609 33.0623 73.4354 32.7237 71.607C32.006 71.7973 31.2394 71.9943 30.4448 72.1938Z" fill="#A9C3E1" fill-opacity="0.5"/>
<path d="M32.6376 77.869C33.2829 79.1136 34.0339 80.2936 34.9043 81.3478C35.1141 81.4544 35.3242 81.549 35.534 81.63C35.9191 81.2072 36.2399 80.8199 36.5031 80.4655C35.6411 79.5134 34.9398 78.3551 34.3729 77.0986C33.8582 77.324 33.2703 77.5846 32.6376 77.869Z" fill="#A9C3E1" fill-opacity="0.5"/>
<path d="M38.0984 81.8467C40.4552 81.2945 44.1299 80.9801 45.4315 82.6197C48.3857 82.0525 51.2426 81.3904 54 80.6495C55.4765 79.8251 56.36 78.2888 56.8369 76.418C49.8768 78.6933 43.0051 80.2165 36.5031 80.4655C36.9835 80.9961 37.5137 81.4628 38.0984 81.8467Z" fill="#A9C3E1" fill-opacity="0.5"/>
<path d="M35.534 81.63C36.4036 81.9658 37.2697 82.0699 38.0984 81.8467C37.5137 81.4628 36.9835 80.9961 36.5031 80.4655C36.2399 80.8199 35.9191 81.2072 35.534 81.63Z" fill="#A9C3E1" fill-opacity="0.5"/>
<path d="M52.5 60.5C51.3333 63 49.1 68.1 49.5 68.5C49.8963 68.8963 51.634 71.9427 52.4766 73.4578C51.2321 71.1656 51.9712 63.8775 52.5 60.5Z" fill="#A9C3E1" fill-opacity="0.5"/>
<path d="M49.5 59L47.5 64.5L48.4772 66.4545C47.7605 64.9566 48.8557 60.8728 49.5 59Z" fill="#A9C3E1" fill-opacity="0.5"/>
<path d="M59.3886 79.0652C59.6498 77.8258 59.7706 76.6014 59.7819 75.4111C58.8014 75.7607 57.8192 76.0968 56.8369 76.418C56.36 78.2888 55.4765 79.8251 54 80.6495C55.8408 80.155 57.6372 79.6253 59.3886 79.0652Z" fill="#A9C3E1" fill-opacity="0.5"/>
<path d="M56.0984 63C57.0216 66.3002 57.9103 72.2068 56.8369 76.418C57.8192 76.0968 58.8014 75.7607 59.7819 75.4111C59.8344 69.9243 57.6604 65.1628 56.0984 63Z" fill="#A9C3E1" fill-opacity="0.5"/>
<path d="M55.4979 52.8313C54.8763 56.109 55.5008 60.4957 56.0984 63C56.0224 60.0367 56.3839 55.3424 57.8238 51.9503C57.0355 52.2383 56.2602 52.5322 55.4979 52.8313Z" fill="#A9C3E1" fill-opacity="0.5"/>
<path d="M60.8386 48.2348C59.7282 48.5059 58.6474 48.7862 57.5984 49.0733C56.4592 49.7697 55.8157 51.1556 55.4979 52.8313C56.2602 52.5322 57.0355 52.2383 57.8238 51.9503C58.5376 50.2686 59.5166 48.9069 60.8386 48.2348Z" fill="#A9C3E1" fill-opacity="0.5"/>
<path d="M64.093 49.8776C63.6126 49.0889 63.1641 48.3798 62.7713 47.7797C62.1177 47.9281 61.4733 48.0799 60.8386 48.2348C59.5166 48.9069 58.5376 50.2686 57.8238 51.9503C59.8312 51.2169 61.9222 50.5217 64.093 49.8776Z" fill="#A9C3E1" fill-opacity="0.5"/>
<path d="M69.2232 46.4958C66.9889 46.8786 64.834 47.3116 62.7713 47.7797C63.2788 48.4334 63.8341 49.1179 64.4102 49.784C65.682 49.4109 66.9809 49.0554 68.3061 48.7199C68.4093 48.0033 68.6844 47.2543 69.2232 46.4958Z" fill="#A9C3E1" fill-opacity="0.5"/>
<path d="M68.3061 48.7199C66.9809 49.0554 65.682 49.4109 64.4102 49.784C66.2107 51.8659 68.2148 53.7694 69.5984 54C69.5984 53.2269 67.9544 51.1621 68.3061 48.7199Z" fill="#A9C3E1" fill-opacity="0.5"/>
<path d="M71.0984 66.5C71.0984 63.7 70.0984 57 69.5984 54C68.2148 53.7694 66.2107 51.8659 64.4102 49.784C64.3043 49.8151 64.1985 49.8463 64.093 49.8776C67.0071 54.6621 71.0984 62.3793 71.0984 66.5Z" fill="#A9C3E1" fill-opacity="0.5"/>
<path d="M75.5984 63C75.5984 61.8 71.5984 56.5 69.5984 54C70.0984 57 71.0984 63.7 71.0984 66.5C71.0984 66.956 69.4349 69.4914 71.4179 70.6927C71.5725 70.6218 71.727 70.5508 71.8813 70.4795C71.2448 67.9762 75.5984 64.3997 75.5984 63Z" fill="#A9C3E1" fill-opacity="0.5"/>
<path d="M71.8813 70.4795C71.727 70.5508 71.5725 70.6218 71.4179 70.6927C71.6092 70.8085 71.736 70.912 72 71C71.8997 70.8328 71.9269 70.6589 71.8813 70.4795Z" fill="#A9C3E1" fill-opacity="0.5"/>
<path d="M81.4397 46.2465C81.2439 45.845 81.0337 45.4559 80.8151 45.0826C79.5605 45.173 78.321 45.283 77.0984 45.4104C76.9954 45.4211 76.8924 45.432 76.7896 45.443C75.265 45.6466 74.3614 46.4257 73.8712 47.4667C76.3176 46.9831 78.8418 46.5719 81.4397 46.2465Z" fill="#A9C3E1" fill-opacity="0.5"/>
<path d="M70.1055 48.2809C69.7694 47.6765 69.4681 47.0747 69.2232 46.4958C68.6844 47.2543 68.4093 48.0033 68.3061 48.7199C68.9007 48.5695 69.5005 48.4231 70.1055 48.2809Z" fill="#A9C3E1" fill-opacity="0.5"/>
<path d="M92.5984 45C90.2972 45.2192 88.5188 45.1122 87.1564 44.8027C86.4668 44.8136 85.7808 44.8309 85.0984 44.8543C85.2588 45.0968 85.3211 45.4327 85.3083 45.8321C90.6167 45.3589 96.209 45.2518 102.053 45.6176C101.131 45.4989 100.211 45.3939 99.2944 45.302C96.7853 45.0778 94.2645 45 92.5984 45Z" fill="#A9C3E1" fill-opacity="0.5"/>
<path d="M67.0926 76.3046C66.8274 75.1877 66.4839 74.0002 66.1527 72.9497C64.9452 73.4508 63.7308 73.9359 62.5121 74.402C62.72 75.5642 62.7898 76.7581 62.6743 77.9613C64.1833 77.4297 65.6562 76.8763 67.0926 76.3046Z" fill="#A9C3E1" fill-opacity="0.5"/>
<path d="M67.0926 76.3046C70.8596 74.8053 74.3751 73.1798 77.6306 71.4887C77.711 70.222 77.6311 68.8944 77.4874 67.7172C75.6234 68.6608 73.8164 69.5858 71.8813 70.4795C71.9269 70.6589 71.8997 70.8328 72 71C71.736 70.912 71.6092 70.8085 71.4179 70.6927C69.7153 71.4727 67.892 72.2279 66.1527 72.9497C66.4839 74.0002 66.8274 75.1877 67.0926 76.3046Z" fill="#A9C3E1" fill-opacity="0.5"/>
<path d="M78.7761 67.0585C79.3839 67.9228 79.9569 68.9423 80.332 70.0384C82.781 68.6802 85.067 67.2919 87.1857 65.9032C87.1513 64.8402 87.074 63.7181 86.9362 62.5997C84.3486 64.0925 81.6145 65.5941 78.7761 67.0585Z" fill="#A9C3E1" fill-opacity="0.5"/>
<path d="M96.9138 58.626C96.3762 58.1278 96.0524 57.6158 95.8783 57.1284C94.6786 57.9069 93.4173 58.706 92.1016 59.5177C92.5941 60.0966 93.0234 60.7605 93.3564 61.5191C94.6332 60.5346 95.8196 59.5665 96.9138 58.626Z" fill="#A9C3E1" fill-opacity="0.5"/>
<path d="M96.9138 58.626C98.3894 57.3578 99.6975 56.1398 100.834 55H99.0832C98.0731 55.6871 97.0028 56.3987 95.8783 57.1284C96.0524 57.6158 96.3762 58.1278 96.9138 58.626Z" fill="#A9C3E1" fill-opacity="0.5"/>
<path d="M100.834 55C102.106 53.7244 103.163 52.5467 104 51.5058C102.588 52.5608 100.937 53.739 99.0832 55H100.834Z" fill="#A9C3E1" fill-opacity="0.5"/>
<path d="M33 84C27.4 78 26 68.8333 26 65C26.8 58.6 46.3333 49 56 45C56.5 44.5 57.7 43.5 58.5 43.5C59.5 43.5 60 44.5 61.5 43.5C63 42.5 63.5 42 66 41.5C68.5 41 69 42.5 71 42C73 41.5 74.5 40 75.5 40.5C76.5 41 81 40.5 82 40.5C82.1572 40.5 82.4995 40.4506 83 40.3809M33 84C35.8333 83.6667 41.8 83.6 43 86M33 84C32 83.8333 28.8 84.5 24 88.5C22.8762 89.6238 20.8865 91.1264 18.5 92.0695M33 84C40.2 77.6 37 76.6667 34.5 77M43 86C46.8333 85.6667 54.9 85 56.5 85C56.5 85 56.7 85 57.5 85C58.5 85 58.5 84.5 59.5 84C60.5 83.5 62.5 84.5 63 84C63.5 83.5 64.5 81.5 65.5 81.5C66.5 81.5 68.5 82.5 69.5 81.5C70.5 80.5 71.5 79 72 79C72.5 79 74.5 79 75.5 78.5C76.5 78 77.5 75.5 79 75C80.5 74.5 90 69.5 91 67.5M43 86C43.9901 88.0796 43.1232 93.065 31.7351 96.3694M91 67.5C91.3333 66.3333 92.8 63.8 96 63C97 62.5 99.3 61.3 100.5 60.5M91 67.5C90.6667 69.8333 93.2 74 106 72M100.5 60.5C102 59.5 109 61.5 109.5 61.5C112.833 62 120 62.3 122 59.5M100.5 60.5C101.7 59.3 103.667 55.6667 104.5 54M100.5 60.5C95.3662 58.9 95.3609 56.1667 96 55M106 72L102.5 71M106 72C109.167 73 116.1 75.4 118.5 77C121.5 79 131 83 132 82.5M132 48.5C124.5 43.6667 107.9 33.6 101.5 32C97.5 32 89.3 32 88.5 32C87.7 32 81.8333 34 79 35C78.5 36.8333 80 40.2 90 39L92.5 40.109M100.5 42C97.7165 40.9175 94.9808 40.3611 92.5 40.109M100.5 42C101.833 45.1667 104.5 52 104.5 54M100.5 42L102 41.5M92.5 40.109C88.2202 39.6739 84.6991 40.1443 83 40.3809M54 54.5C53.6667 53.8333 53.2 52.4 54 52C55 51.5 54 49 53 49.5C52 50 50.5 57 56 63C58.1667 66 61.7 74 58.5 82M52.5 60.5C51.3333 63 49.1 68.1 49.5 68.5C49.9 68.9 51.6667 72 52.5 73.5M49.5 59L47.5 64.5L48.5 66.5M61 45.5C62.8333 48.1667 67.1 53.6 69.5 54M69.5 54C71.5 56.5 75.5 61.8 75.5 63C75.5 64.5 70.5 68.5 72 71M69.5 54C70 57 71 63.7 71 66.5M65.5 71C66.3333 73.3333 67.9 78.4 67.5 80M77 65C77.5 67 78.2 71.7 77 74.5M74 54C72 51.6303 68.1 46.2128 68.5 43.5M78 41.5C79.8333 43.3333 83.3 48.1 82.5 52.5M104.5 54L106.5 53M106.5 53C106.5 51.6667 106.2 48.4 105 46M106.5 53C106.9 54.6 107.333 54 107.5 53.5M102 41.5C102.667 42 104 43.2 104 44M102 41.5C101.667 41.0363 101.2 40.109 102 40.109C102.193 40.109 102.552 40.309 103 40.689M107.5 53.5L109.5 52.7M107.5 53.5C107.804 51.0656 107.507 48.8728 106.917 47M103 40.689L104.51 40.109M103 40.689C104.17 41.6819 105.943 43.9036 106.917 47M104.51 40.109L110 38C112.167 39.6667 116.2 44.5 115 50.5L111.25 52M104.51 40.109C105.338 40.6552 106.579 41.9346 107.616 44M109.5 52.7C109.5 51.1553 109.357 49.7566 109.114 48.5M109.5 52.7L111.25 52M83 40.3809C82.6667 42.2539 84.1 45.8 92.5 45C96.2781 45 104.451 45.4 106.917 47M106.917 47L97 48.5C95.3333 49 91.6 50 90 50C88 50 88.5 55.5 94.5 55H96M96 55H108.5C110 55.5 113.2 56.9 114 58.5M116 52C116.341 53.1932 116.752 55.1273 116.858 57M116 61.5C116.782 60.5227 116.959 58.7894 116.858 57M111.25 52C112.905 53.1667 116.344 55.8 116.858 57M1 81.5L18.5 58.5L40.5 49.5C42 50.8333 43.6 54.3 38 57.5L36.5 58.3M15 80.5L17.5 75.5M19.6576 71L23 65.5L36.5 58.3M19.6576 71C26.2182 69 40.2 64.5 39 60.5C39 59.7 38.5 58.14 36.5 58.3M19.6576 71L17.5 75.5M17.5 75.5C23.1141 74.2695 36.7 70.8 37.5 70C38.5 69 42.5 72.5 34.5 77M34.5 77C31.0606 78.5 23.8455 81.8 22.5 83C21.9384 84 20.5838 86 19.6576 86M10 92C12.903 93.4515 15.9313 93.0846 18.5 92.0695M13.5 85C13.6667 87.5463 15.7 90.9251 18.5 92.0695M33 95C32.6267 95.4181 32.2031 95.8777 31.7351 96.3694M1 112.5C3.83333 112.333 9.6 111.9 10 111.5C17.6474 109.679 26.9801 101.366 31.7351 96.3694" stroke="black" stroke-width="0.5"/>
<path fill-rule="evenodd" clip-rule="evenodd" d="M27.7344 47.0783L25.2343 48.0783C24.0343 51.2783 27.7343 60.0783 29.7343 64.0783L28.2343 64.5783L32.7343 68.0783L33.7343 62.0783L31.7343 62.5783C29.233 57.5758 27.5103 52.5735 27.2344 49.5784C27.1242 48.3824 27.1969 47.347 27.7344 47.0783Z" fill="#0D98ED"/>
<path d="M31.2343 50.0783C30.4009 48.5783 28.7344 46.5784 27.7344 47.0783C27.1969 47.347 27.1242 48.3824 27.2344 49.5784C27.4867 49.5784 28.3344 49.8783 28.7344 51.0783L31.2343 50.0783Z" fill="#067CC4"/>
<path fill-rule="evenodd" clip-rule="evenodd" d="M98.0002 78.1186L100.52 77.1701C101.786 73.9954 98.2669 65.1214 96.3494 61.0812L97.8593 60.6121L93.432 57.0205L92.3092 62.9987L94.3191 62.5399C96.7172 67.5925 98.337 72.6292 98.5514 75.6293C98.637 76.8273 98.5431 77.861 98.0002 78.1186Z" fill="#0D98ED"/>
<path d="M94.5626 75.0475C95.365 76.5642 96.9902 78.5979 98.0002 78.1186C98.5431 77.861 98.637 76.8273 98.5514 75.6293C98.2991 75.6242 97.4578 75.3069 97.0825 74.099L94.5626 75.0475Z" fill="#067CC4"/>
</svg>
