<svg width="131" height="140" viewBox="0 0 131 140" fill="none" xmlns="http://www.w3.org/2000/svg">
<path d="M0 140H130.803V109H0V140Z" fill="#DBE7EE"/>
<path fill-rule="evenodd" clip-rule="evenodd" d="M0 0H130.803V107.5H0V0Z" fill="#DBECCA"/>
<path d="M0 109H130.803V107.5H0V109Z" fill="#18455F"/>
<path d="M82.1138 60.092H47.6138V98.092C54.1138 98.9254 70.1138 100.092 82.1138 98.092V60.092Z" fill="#4E9BC5"/>
<path d="M82.1138 57.092H47.6138V60.092H82.1138V57.092Z" fill="white"/>
<path d="M82.1138 54.592H80H76H54H50H47.6138V57.092H82.1138V54.592Z" fill="#4E9BC5"/>
<path d="M82.1138 98.092C70.1138 100.092 54.1138 98.9254 47.6138 98.092V100.342C54.4471 101.592 70.9138 103.342 82.1138 100.342V98.092Z" fill="white"/>
<path d="M47.6138 100.342V102.592C48.3102 102.731 49.111 102.876 50 103.021C50.1637 103.048 50.3304 103.074 50.5 103.101C51.276 103.222 52.1126 103.342 53 103.457C59.4004 104.288 68.445 104.856 76.5 103.727C77.6923 103.56 78.8629 103.356 80 103.11C80.719 102.954 81.4245 102.782 82.1138 102.592V100.342C70.9138 103.342 54.4471 101.592 47.6138 100.342Z" fill="#4E9BC5"/>
<path d="M55.5746 22.5921C55.783 22.4261 56.117 22.2576 56.6137 22.0921C56.7046 22.0618 56.8 22.031 56.8998 22C57.5794 21.7886 58.4636 21.5624 59.5 21.3652C62.6052 20.7742 67.0761 20.4432 71.5 21.5496C72.1097 21.7021 72.7185 21.8819 73.3227 22.0921C73.5874 22.1841 73.8512 22.282 74.1138 22.386V20.092V13.092C66.1138 7.49205 58.421 10.7587 55.5746 13.092V20.092V22.5921Z" fill="white"/>
<path d="M56.6137 26.592C52.2804 28.592 44.4138 36.992 47.6138 54.592H50C50 40.5 54.1667 29.7479 57.5 26.7798C57.1701 26.7164 56.8733 26.6531 56.6137 26.592Z" fill="#6A8099" fill-opacity="0.5"/>
<path d="M56.6137 24.0921V26.592C56.8733 26.6531 57.1701 26.7164 57.5 26.7798V23.5857C56.9565 23.7714 56.6913 23.9652 56.6137 24.0921Z" fill="#6A8099" fill-opacity="0.5"/>
<path d="M55.5746 22.5921C54.7761 23.228 55.8207 23.8277 56.6137 24.0921C56.6913 23.9652 56.9565 23.7714 57.5 23.5857V23.5C56.7 23.1 56.5758 22.3947 56.6137 22.0921C56.117 22.2576 55.783 22.4261 55.5746 22.5921Z" fill="#6A8099" fill-opacity="0.5"/>
<path d="M47.6138 102.592C46.1138 109.925 44.3139 125.292 49.1139 128.092C55.1139 131.592 79.0211 130.083 80.6138 128.092C82.6138 125.592 85.6138 116.592 82.1138 102.592C81.4245 102.782 80.719 102.954 80 103.11C80.5531 105.629 80.8923 107.92 81.048 110C81.0996 110.69 81.131 111.356 81.1434 112C81.444 127.679 70.4379 130.064 64 129C57.2593 128.831 53.3584 125.701 51.2505 121.5C48.355 115.729 48.8426 107.936 50 103.021C49.111 102.876 48.3102 102.731 47.6138 102.592Z" fill="#6A8099" fill-opacity="0.5"/>
<path d="M82.1138 54.592C83.4471 47.7587 83.5138 32.592 73.1138 26.592C72.7451 26.6842 72.3735 26.768 72 26.8439C78.8 29.919 80.1667 46.6239 80 54.592H82.1138Z" fill="#6A8099" fill-opacity="0.5"/>
<path d="M73.1138 26.592V23.592C72.7438 23.4335 72.4576 23.2749 72 23.1323V26.8439C72.3735 26.768 72.7451 26.6842 73.1138 26.592Z" fill="#6A8099" fill-opacity="0.5"/>
<path d="M73.1138 23.592C75.5138 23.592 75.1138 22.9254 74.6138 22.5921C74.4476 22.5209 74.2809 22.4522 74.1138 22.386C73.8512 22.282 73.5874 22.1841 73.3227 22.0921C73.1808 22.5657 72.3818 22.9829 72 23.1323C72.4576 23.2749 72.7438 23.4335 73.1138 23.592Z" fill="#6A8099" fill-opacity="0.5"/>
<path d="M56.6137 22.0921C56.5758 22.3947 56.7 23.1 57.5 23.5V23.5857C57.646 23.5358 57.8121 23.4866 58 23.4393C57.2 22.9908 56.9332 22.2929 56.8998 22C56.8 22.031 56.7046 22.0618 56.6137 22.0921Z" fill="white" fill-opacity="0.5"/>
<path d="M57.5 23.5857V26.7798C57.6591 26.8104 57.8259 26.841 58 26.8714V23.4393C57.8121 23.4866 57.646 23.5358 57.5 23.5857Z" fill="white" fill-opacity="0.5"/>
<path d="M57.5 26.7798C54.1667 29.7479 50 40.5 50 54.592C50.8 38.6657 55.6667 29.4756 58 26.8714C57.8259 26.841 57.6591 26.8104 57.5 26.7798Z" fill="white" fill-opacity="0.5"/>
<path d="M50.5 103.101C50.3304 103.074 50.1637 103.048 50 103.021C48.8426 107.936 48.355 115.729 51.2505 121.5C50.1287 117.875 49.6802 114.443 49.5998 111.5C49.5757 110.62 49.5846 109.784 49.6182 109C49.7326 106.329 50.134 104.258 50.5 103.101Z" fill="white" fill-opacity="0.5"/>
<path d="M58 26.8714C55.6667 29.4756 50.8 38.6657 50 54.592H54C52.8 43.8657 57.5 31.8366 60 27.1629C59.262 27.0745 58.5895 26.9742 58 26.8714Z" fill="#A9C3E1" fill-opacity="0.5"/>
<path d="M58 23.4393V26.8714C58.5895 26.9742 59.262 27.0745 60 27.1629V23.1329C59.1562 23.2022 58.5006 23.3135 58 23.4393Z" fill="#A9C3E1" fill-opacity="0.5"/>
<path d="M56.8998 22C56.9332 22.2929 57.2 22.9908 58 23.4393C58.5006 23.3135 59.1562 23.2022 60 23.1329C59.2 22.4392 59.3333 21.6654 59.5 21.3652C58.4636 21.5624 57.5794 21.7886 56.8998 22Z" fill="#A9C3E1" fill-opacity="0.5"/>
<path d="M51.2505 121.5C53.3584 125.701 57.2593 128.831 64 129C62.2049 128.872 60.6769 128.339 59.3807 127.5C52.5898 123.106 52.1603 110.327 53 103.457C52.1126 103.342 51.276 103.222 50.5 103.101C50.134 104.258 49.7326 106.329 49.6182 109C49.5846 109.784 49.5757 110.62 49.5998 111.5C49.6802 114.443 50.1287 117.875 51.2505 121.5Z" fill="#A9C3E1" fill-opacity="0.5"/>
<path d="M59.3807 127.5C60.5874 126.333 64.5 125.652 68.5004 127.5C68.5004 124 56.5 125.636 59.3807 127.5Z" fill="#A9C3E1" fill-opacity="0.5"/>
<path d="M72 26.8439V23.1323C71.4929 22.9742 70.7754 22.8357 69.5 22.7386V27.2384C70.3351 27.1417 71.1721 27.0121 72 26.8439Z" fill="#A9C3E1" fill-opacity="0.5"/>
<path d="M72 23.1323C72.3818 22.9829 73.1808 22.5657 73.3227 22.0921C72.7185 21.8819 72.1097 21.7021 71.5 21.5496L69.5 22.7386C70.7754 22.8357 71.4929 22.9742 72 23.1323Z" fill="#A9C3E1" fill-opacity="0.5"/>
<path d="M68.6712 127.406C72.5859 125.214 76.5759 120.604 77.0595 112.143C76.2032 112.039 75.1767 112.372 74.5 113.5C73 116 73.5 123 69 125C68.3269 125.299 68.1013 126.672 68.6712 127.406Z" fill="white" fill-opacity="0.5"/>
<path fill-rule="evenodd" clip-rule="evenodd" d="M81.1434 112C81.444 127.679 70.4379 130.064 64 129C65.3141 128.837 66.8966 128.37 68.5004 127.5C68.5573 127.469 68.6143 127.438 68.6712 127.406C69.0538 127.898 69.795 128.103 71 127.5C74.5 125.167 80.9 119 78.5 113C78.282 112.564 77.7216 112.223 77.0595 112.143C77.2005 109.677 77.0435 106.883 76.5 103.727C77.6923 103.56 78.8629 103.356 80 103.11C80.5531 105.629 80.8923 107.92 81.048 110C81.0996 110.69 81.131 111.356 81.1434 112Z" fill="#A9C3E1" fill-opacity="0.5"/>
<path d="M71 127.5C74.5 125.167 80.9 119 78.5 113C78.282 112.564 77.7216 112.223 77.0595 112.143C76.5759 120.604 72.5859 125.214 68.6712 127.406C69.0538 127.898 69.795 128.103 71 127.5Z" fill="white" fill-opacity="0.5"/>
<path fill-rule="evenodd" clip-rule="evenodd" d="M72 26.8439C78.8 29.919 80.1667 46.6239 80 54.592H76C76.1255 51.2271 75.7622 47.739 75.1324 44.3925C75.8569 39.8804 76.07 33.4116 73.1138 31C72.5349 30.5075 71.6732 30.1916 70.8492 30.2048C70.3585 29.032 69.8969 28.0292 69.5 27.2384C70.3351 27.1417 71.1721 27.0121 72 26.8439Z" fill="#A9C3E1" fill-opacity="0.5"/>
<path d="M75.1324 44.3925C75.8569 39.8804 76.07 33.4116 73.1138 31C72.5349 30.5075 71.6732 30.1916 70.8492 30.2048C72.3383 33.7634 74.0961 38.8861 75.1324 44.3925Z" fill="white" fill-opacity="0.5"/>
<path d="M68.5 32.5C68 37.5 74.6138 40 74.6138 47C74.7926 46.2651 74.9746 45.3752 75.1324 44.3925C74.0961 38.8861 72.3383 33.7634 70.8492 30.2048C69.7214 30.2229 68.6642 30.8576 68.5 32.5Z" fill="white" fill-opacity="0.5"/>
<path d="M56.6137 26.592C52.2804 28.592 44.4138 36.992 47.6138 54.592M56.6137 26.592C59.4471 27.2587 66.7138 28.192 73.1138 26.592M56.6137 26.592V24.0921M47.6138 54.592H82.1138M47.6138 54.592V57.092V60.092V98.092V100.342V102.592M47.6138 102.592C46.1138 109.925 44.3139 125.292 49.1139 128.092C55.1139 131.592 79.0211 130.083 80.6138 128.092C82.6138 125.592 85.6138 116.592 82.1138 102.592M47.6138 102.592C54.2804 103.925 70.5138 105.792 82.1138 102.592M82.1138 102.592V100.342V98.092V60.092V57.092V54.592M82.1138 54.592C83.4471 47.7587 83.5138 32.592 73.1138 26.592M73.1138 26.592V23.592M73.1138 23.592C71.9471 23.092 71.6138 22.5921 64.1138 22.5921M73.1138 23.592C75.5138 23.592 75.1138 22.9254 74.6138 22.5921C74.4476 22.5209 74.2809 22.4522 74.1138 22.386M56.6137 24.0921C56.7804 23.8193 57.8138 23.2375 60.6138 23.092M56.6137 24.0921C55.8207 23.8277 54.7761 23.228 55.5746 22.5921M55.5746 22.5921C55.783 22.4261 56.117 22.2576 56.6137 22.0921C59.5426 21.1158 67.2369 19.663 74.1138 22.386M55.5746 22.5921V20.092M74.1138 22.386V20.092M55.5746 20.092V13.092C58.421 10.7587 66.1138 7.49205 74.1138 13.092V20.092M55.5746 20.092C57.003 19.381 59.5354 18.5351 62.6138 18.2255M74.1138 20.092C72.2748 19.2209 70.4167 18.6836 68.6138 18.3907" stroke="black" stroke-width="0.5"/>
</svg>
