<svg width="132" height="140" viewBox="0 0 132 140" fill="none" xmlns="http://www.w3.org/2000/svg">
<path d="M1 140H131.803V109H1V140Z" fill="#DBE7EE"/>
<path fill-rule="evenodd" clip-rule="evenodd" d="M1 0H131.803V107.5H1V0Z" fill="#DBECCA"/>
<path d="M1 109H131.803V107.5H1V109Z" fill="#18455F"/>
<path d="M57.6138 26.592C53.2804 28.592 45.4138 36.992 48.6138 54.592M57.6138 26.592C60.4471 27.2587 67.7138 28.192 74.1138 26.592M57.6138 26.592V24.0921M48.6138 54.592V57.092V60.092V98.092V100.342V102.592M48.6138 54.592C41.5758 54.0614 26.2 53.5 21 55.5C18.3333 55.8333 12.4 56 10 54C10.1503 58.279 10.3818 63.9729 10.6756 70M48.6138 54.592L76.5 54.5V62M48.6138 102.592C47.1138 109.925 45.3139 125.292 50.1139 128.092C56.1139 131.592 80.0211 130.083 81.6138 128.092C83.6138 125.592 86.6138 116.592 83.1138 102.592V100.342V98.092V60.092V57.092V54.592C84.4471 47.7587 84.5138 32.592 74.1138 26.592M48.6138 102.592C54.9092 102.633 69.3 102.944 76.5 103.858V97M48.6138 102.592C42.7275 108.184 39 104.5 34 104.5C29 104.5 24.5 105.5 21 105.5C20.5126 105.5 20.008 105.467 19.5 105.409M74.1138 26.592V23.592M74.1138 23.592C72.9471 23.092 72.6138 22.5921 65.1138 22.5921M74.1138 23.592C76.5138 23.592 76.1138 22.9254 75.6138 22.5921C75.4476 22.5209 75.2809 22.4522 75.1138 22.386M57.6138 24.0921C57.7804 23.8193 58.8138 23.2375 61.6138 23.092M57.6138 24.0921C56.8207 23.8277 55.7761 23.228 56.5746 22.5921M56.5746 22.5921C56.783 22.4261 57.117 22.2576 57.6138 22.0921C60.5426 21.1158 68.2369 19.663 75.1138 22.386M56.5746 22.5921V20.092M75.1138 22.386V20.092M56.5746 20.092V13.092C59.421 10.7587 67.1138 7.49205 75.1138 13.092V20.092M56.5746 20.092C58.003 19.381 60.5354 18.5351 63.6138 18.2255M75.1138 20.092C73.2748 19.2209 71.4167 18.6836 69.6138 18.3907M1 90C2.30979 87.9807 4.24148 85.4075 6.50013 83M1 90V82.5L6.50013 83M1 90V119M1 119C1.39029 118.428 1.85125 117.749 2.3574 117M1 119V127.455C2.1652 123.399 2.39949 118.919 2.3574 117M2.3574 117C2.71837 116.466 3.10232 115.897 3.5 115.305M8 108.506C9.0778 106.842 9.98542 105.401 10.5 104.5C10.8656 103.86 11.7827 102.686 12.9824 101.163M8 108.506C10.3333 110.835 15.8 114.795 19 112C22.2 109.205 20.6667 106.441 19.5 105.409M8 108.506C7.6878 108.988 7.36133 109.489 7.02599 110M19.5 105.409C17.0895 105.135 14.6012 104.31 13.5 103.858C13.3248 103.232 13.1519 102.316 12.9824 101.163M3.5 115.305C4.16667 115.37 5.7 115.3 6.5 114.5C8.26573 112.734 7.5 111 7.02599 110M3.5 115.305C4.6351 113.615 5.8821 111.745 7.02599 110M11.1395 78.7862C14.7601 76.0887 18.6598 74.6444 22 76.5C29.3547 80.5859 18.3451 94.3548 12.9824 101.163M11.1395 78.7862C10.9719 75.8604 10.8166 72.8919 10.6756 70M11.1395 78.7862C9.88085 79.7239 8.65594 80.8131 7.5 81.9678M10.6756 70C9.95042 69.5 8.2 68.4 7 68C5.8 67.6 2.5 67.5 1 67.5V79.5C1.33333 79.5 2.3 79.6 3.5 80C5 80.5 5 80.9355 7.5 81.9678M7.5 81.9678C7.16046 82.3069 6.82688 82.6517 6.50013 83M76.5 63V70.5M76.5 73V80.5M76.5 82V88.5M76.5 90V95" stroke="black" stroke-width="0.5"/>
<path d="M48.6138 57.092V54.592C46.2717 54.4154 43.0064 54.2354 39.5 54.1476C40.4605 66.0747 41.8935 93.0431 39.9408 105.5C42.5528 105.956 45.2257 105.811 48.6138 102.592V100.342V98.092V60.092V57.092Z" fill="#CECECE"/>
<path d="M21 55.5C18.3333 55.8333 12.4 56 10 54C10.1503 58.279 10.3818 63.9729 10.6756 70C10.8166 72.8919 10.9719 75.8604 11.1395 78.7862C13.9557 76.688 16.9407 75.348 19.7 75.7294C20.0042 68.0173 20.5386 60.5752 21 55.5Z" fill="#CECECE"/>
<path d="M13.5 103.858C14.6012 104.31 17.0895 105.135 19.5 105.409C20.008 105.467 20.5126 105.5 21 105.5C20.123 102.619 19.681 97.8961 19.5232 92.3744C17.3244 95.6749 14.8214 98.828 12.9824 101.163C13.1519 102.316 13.3248 103.232 13.5 103.858Z" fill="#CECECE"/>
<path d="M21 105.5C24.5 105.5 29 104.5 34 104.5C36.122 104.5 38.0149 105.164 39.9408 105.5C41.8935 93.0431 40.4605 66.0747 39.5 54.1476C32.4694 53.9714 24.4696 54.1655 21 55.5C20.5386 60.5752 20.0042 68.0173 19.7 75.7294C20.4881 75.8383 21.2579 76.0877 22 76.5C26.8326 79.1848 23.7364 86.0502 19.5232 92.3744C19.681 97.8961 20.123 102.619 21 105.5Z" fill="#E5E5E5"/>
<path d="M1 119C1.39029 118.428 1.85125 117.749 2.3574 117C2.71837 116.466 3.10232 115.897 3.5 115.305C4.6351 113.615 5.8821 111.745 7.02599 110C7.36133 109.489 7.6878 108.988 8 108.506C9.0778 106.842 9.98542 105.401 10.5 104.5C10.8656 103.86 11.7827 102.686 12.9824 101.163C14.8214 98.828 17.3244 95.6749 19.5232 92.3744C23.7364 86.0502 26.8326 79.1848 22 76.5C21.2579 76.0877 20.4881 75.8383 19.7 75.7294C16.9407 75.348 13.9557 76.688 11.1395 78.7862C9.88085 79.7239 8.65594 80.8131 7.5 81.9678C7.16046 82.3069 6.82688 82.6517 6.50013 83C4.24148 85.4075 2.30979 87.9807 1 90V119Z" fill="#F7E1BE"/>
<path d="M11.1395 78.7862C10.9719 75.8604 10.8166 72.8919 10.6756 70C9.95042 69.5 8.2 68.4 7 68C5.8 67.6 2.5 67.5 1 67.5V79.5C1.33333 79.5 2.3 79.6 3.5 80C5 80.5 5 80.9355 7.5 81.9678C8.65594 80.8131 9.88085 79.7239 11.1395 78.7862Z" fill="#EECD98"/>
<path d="M10.5 104.5C9.98542 105.401 9.0778 106.842 8 108.506C10.3333 110.835 15.8 114.795 19 112C22.2 109.205 20.6667 106.441 19.5 105.409C17.0895 105.135 14.6012 104.31 13.5 103.858C13.3248 103.232 13.1519 102.316 12.9824 101.163C11.7827 102.686 10.8656 103.86 10.5 104.5Z" fill="#EECD98"/>
<path d="M1 90C2.30979 87.9807 4.24148 85.4075 6.50013 83L1 82.5V90Z" fill="#EECD98"/>
<path d="M3.5 115.305C4.16667 115.37 5.7 115.3 6.5 114.5C8.26573 112.734 7.5 111 7.02599 110C5.8821 111.745 4.6351 113.615 3.5 115.305Z" fill="#EECD98"/>
<path d="M2.3574 117C1.85125 117.749 1.39029 118.428 1 119V127.455C2.1652 123.399 2.39949 118.919 2.3574 117Z" fill="#F7E1BE"/>
</svg>
