<svg width="131" height="141" viewBox="0 0 131 141" fill="none" xmlns="http://www.w3.org/2000/svg">
<path fill-rule="evenodd" clip-rule="evenodd" d="M0 0H130.803V107.5H0V0Z" fill="#DBECCA"/>
<path d="M0 109H130.803V107.5H0V109Z" fill="#DBECCA"/>
<path d="M0 140H130.803V109H0V140Z" fill="#DBECCA"/>
<path d="M48 92.926C42.6667 99.9507 30.7 114.7 25.5 117.5C22.3333 120.167 16.2 126.5 17 130.5C16.1667 129 14.6 125.6 15 124C15.5 122 10 132 12.5 134C11.946 134.667 10.5542 136 9.419 136C10.3467 138.391 10.2459 139.631 10 140H38.9997L34 130.5C35.3333 128.333 37.5 122.9 35.5 118.5C33.5 114.1 43 99.6173 48 92.926Z" fill="white" fill-opacity="0.5"/>
<path d="M121 140C119.333 132.167 115.6 116.1 114 114.5C113.361 113.861 110.361 111.287 106.479 108C110.062 116 109.986 125 109.5 128.5C109.167 124.333 105.1 113.4 91.5 103C92.7294 105.459 94.2798 108.634 95.8676 112C100.092 120.954 104.581 131.256 104 133C103.2 135.4 97.6667 138.667 95 140H121Z" fill="white" fill-opacity="0.5"/>
<path d="M43.4997 56V61.861C43.5363 61.8511 43.5732 61.8413 43.6101 61.8314C44.356 61.6331 45.1607 61.4519 46 61.2871V58.5C49.6667 56.8094 61.1 53.3854 77.5 53.2141C61.452 50.2227 48.5952 53.521 43.4997 56Z" fill="white" fill-opacity="0.5"/>
<path d="M38.9997 65C39.1253 65.503 39.8012 66.4424 41.5 67.0451C40.7 64.6812 44.5 62.1578 46.5 61.1916C46.3321 61.2228 46.1654 61.2546 46 61.2871C45.1607 61.4519 44.356 61.6331 43.6101 61.8314C43.5732 61.8413 43.5363 61.8511 43.4997 61.861C40.6332 62.6357 38.6665 63.6676 38.9997 65Z" fill="white" fill-opacity="0.5"/>
<path d="M43.4997 77.5V75C44.1595 74.7556 44.8338 74.5289 45.5206 74.3191C45.7874 73.0953 48.5727 71.1145 50 70.2387C49.3333 70.3367 48.6631 70.444 48 70.5609C47.1472 70.7112 46.3062 70.8774 45.5 71.0601C44.8023 71.2181 44.1305 71.3885 43.4997 71.5717C41.2755 72.2173 39.559 73.021 38.9997 74C38.6663 74.5 39.0995 75.9 43.4997 77.5Z" fill="white" fill-opacity="0.5"/>
<path d="M43.4997 75V77.5V81.7434C44.1284 81.5768 44.8001 81.4168 45.5 81.2638V74.5C45.5 74.4418 45.5071 74.3814 45.5206 74.3191C44.8338 74.5289 44.1595 74.7556 43.4997 75Z" fill="white" fill-opacity="0.5"/>
<path d="M76 69.4104C71.0202 69.0146 66.0026 68.9339 62.4999 69C67.4999 69.459 77.7 70.9392 78.5 73.1884C80.6987 73.5027 82.7229 73.8565 84.5 74.2146C88.1 72.3863 80.3333 70.25 76 69.4104Z" fill="white" fill-opacity="0.5"/>
<path d="M92.9998 64C91.5514 63.1034 89.8543 62.3723 87.9997 61.7805C87.3285 61.5663 86.6367 61.3704 85.9286 61.1916C87.6191 62.2643 91 64.8688 91 66.7049C93.9009 65.6604 93.6592 64.5275 92.9998 64Z" fill="white" fill-opacity="0.5"/>
<path d="M87.9997 85V87C92.7995 86.2 93.3331 85 92.9998 84.5C92.1082 83.3111 90.3189 82.384 87.9997 81.667C87.0483 81.3729 86.0078 81.1141 84.9035 80.8871C80.652 80.0132 75.455 79.6103 70.7604 79.4751C75.6573 79.6802 84.3397 80.9742 87.9997 85Z" fill="white" fill-opacity="0.5"/>
<path d="M48 92.926C43 99.6173 33.5 114.1 35.5 118.5C36 111.362 46.9 98.3263 86.5 103.292C81.2132 98.8508 75.3012 94.7012 71.2771 94.0403C71.1829 94.0264 71.0905 94.0129 71 94C71.0913 94.0115 71.1837 94.025 71.2771 94.0403C75.6029 94.6814 83.666 96.3985 85.9847 98.767C85.1787 97.5066 84.2606 95.5395 83.7374 93.0995C82.3463 92.8612 80.9089 92.6628 79.4405 92.5C69.685 91.4181 58.5586 91.9036 50.5 92.6694C49.629 92.7522 48.7938 92.8383 48 92.926Z" fill="#A9C3E1" fill-opacity="0.5"/>
<path d="M48.6433 83.8679C47.5969 84.0628 46.5469 84.2792 45.4953 84.5184C45.6389 87.7991 46.2566 91.7207 48 92.926C48.7938 92.8383 49.629 92.7522 50.5 92.6694C49.6531 91.6826 49.0491 87.9697 48.6433 83.8679Z" fill="#A9C3E1" fill-opacity="0.5"/>
<path d="M48.3713 80.6992C47.3873 80.8743 46.4192 81.0629 45.5 81.2638C45.4544 82.1382 45.4412 83.2829 45.4953 84.5184C46.5469 84.2792 47.5969 84.0628 48.6433 83.8679C48.54 82.824 48.4496 81.7549 48.3713 80.6992Z" fill="#A9C3E1" fill-opacity="0.5"/>
<path d="M45.5 74.5V81.2638C46.4192 81.0629 47.3873 80.8743 48.3713 80.6992C48.176 78.0657 48.056 75.5151 48 73.6454C47.1581 73.8475 46.3306 74.0716 45.5206 74.3191C45.5071 74.3814 45.5 74.4418 45.5 74.5Z" fill="#A9C3E1" fill-opacity="0.5"/>
<path d="M48.5888 64.3333C47.7278 64.4924 46.9255 64.6564 46.1873 64.8211C45.8004 66.4983 45.5 68.6146 45.5 71.0601C46.3062 70.8774 47.1472 70.7112 48 70.5609C47.7924 68.3028 48.1145 66.1197 48.5888 64.3333Z" fill="#A9C3E1" fill-opacity="0.5"/>
<path d="M50 60.644C49.1618 60.7539 48.3217 60.8774 47.5 61.0151C47.1498 61.6464 46.6156 62.9648 46.1873 64.8211C46.9255 64.6564 47.7278 64.4924 48.5888 64.3333C49.0285 62.6772 49.5991 61.362 50 60.644Z" fill="#A9C3E1" fill-opacity="0.5"/>
<path d="M87.9997 61.7805V58.8902C74.898 57.2308 65.3517 57.4672 59 58.3078C61.4313 58.5564 64.694 58.968 68.1704 59.5271C73.678 59.4244 80.3155 59.7735 85.9286 61.1916C86.6367 61.3704 87.3285 61.5663 87.9997 61.7805Z" fill="#A9C3E1" fill-opacity="0.5"/>
<path d="M87.9997 67.5V65.5C83.103 64.2348 78.2131 63.4914 73.535 63.1196C77.8139 63.4625 86.0232 65.4236 84.9035 70.5609C86.01 70.7794 87.0507 71.0255 87.9997 71.3018V67.5Z" fill="#A9C3E1" fill-opacity="0.5"/>
<path d="M84.5 74.2146C82.7229 73.8565 80.6987 73.5027 78.5 73.1884C73.7393 72.5079 68.1606 72.0124 62.4999 72.0579C69.626 72.9634 84.0834 75.9968 84.9035 80.8871C86.0078 81.1141 87.0483 81.3729 87.9997 81.667C87.9997 79.4006 85.6666 75.7544 84.5 74.2146Z" fill="#A9C3E1" fill-opacity="0.5"/>
<path d="M84 84.0546C78.8359 83.0291 71.1837 82.1257 62.4999 82.3991C65.9355 82.587 74.3561 83.5674 81.9948 86C82.4982 86.1603 82.9981 86.3269 83.493 86.5C83.6043 85.7031 83.7703 84.8866 84 84.0546Z" fill="#A9C3E1" fill-opacity="0.5"/>
<path d="M83.493 86.5C82.9981 86.3269 82.4982 86.1603 81.9948 86L79.4405 92.5C80.9089 92.6628 82.3463 92.8612 83.7374 93.0995C83.3214 91.1594 83.155 88.9204 83.493 86.5Z" fill="#A9C3E1" fill-opacity="0.5"/>
<path d="M43.4997 93.5V92.5C39.9998 93.5 30 99.9 18 117.5C15.6666 119.5 10.4 123.8 7.99997 125C6.99997 125.833 5.59997 128.6 7.99997 133C8.62942 134.154 9.08921 135.15 9.419 136C10.5542 136 11.946 134.667 12.5 134C10 132 15.5 122 15 124C14.6 125.6 16.1667 129 17 130.5C16.2 126.5 22.3333 120.167 25.5 117.5C30.7 114.7 42.6667 99.9507 48 92.926C46.2885 93.1151 44.7696 93.3118 43.4997 93.5Z" fill="#6A8099" fill-opacity="0.5"/>
<path d="M43.4997 85V87.5V92.5V93.5C44.7696 93.3118 46.2885 93.1151 48 92.926C46.2566 91.7207 45.6389 87.7991 45.4953 84.5184C44.8306 84.6697 44.1652 84.8301 43.4997 85Z" fill="#6A8099" fill-opacity="0.5"/>
<path d="M43.4997 87.5V85C44.1652 84.8301 44.8306 84.6697 45.4953 84.5184C45.4412 83.2829 45.4544 82.1382 45.5 81.2638C44.8001 81.4168 44.1284 81.5768 43.4997 81.7434C40.5088 82.5357 38.4873 83.4753 38.9997 84.5C39.4999 85.5 40.4995 86.5 43.4997 87.5Z" fill="#6A8099" fill-opacity="0.5"/>
<path d="M43.4997 67.5V71.5717C44.1305 71.3885 44.8023 71.2181 45.5 71.0601C45.5 68.6146 45.8004 66.4983 46.1873 64.8211C45.1627 65.0496 44.2618 65.2796 43.4997 65.5V67.5Z" fill="#6A8099" fill-opacity="0.5"/>
<path d="M43.4997 67.5V65.5C44.2618 65.2796 45.1627 65.0496 46.1873 64.8211C46.6156 62.9648 47.1498 61.6464 47.5 61.0151C47.1631 61.0715 46.8293 61.1303 46.5 61.1916C44.5 62.1578 40.7 64.6812 41.5 67.0451C42.0528 67.2413 42.7139 67.4018 43.4997 67.5Z" fill="#6A8099" fill-opacity="0.5"/>
<path d="M46.5 61.1916C46.8293 61.1303 47.1631 61.0715 47.5 61.0151C48.3217 60.8774 49.1618 60.7539 50 60.644C51.3469 59.8835 54.2981 58.9301 59 58.3078C65.3517 57.4672 74.898 57.2308 87.9997 58.8902V56C84.3871 54.7495 80.873 53.8429 77.5 53.2141C61.1 53.3854 49.6667 56.8094 46 58.5V61.2871C46.1654 61.2546 46.3321 61.2228 46.5 61.1916Z" fill="#6A8099" fill-opacity="0.5"/>
<path d="M87.9997 65.5V67.5C89.2516 67.2496 90.2351 66.9803 91 66.7049C91 64.8688 87.6191 62.2643 85.9286 61.1916C80.3155 59.7735 73.678 59.4244 68.1704 59.5271C76.1323 60.8075 85.2153 62.8612 87.9997 65.5Z" fill="#6A8099" fill-opacity="0.5"/>
<path d="M87.9997 75V77.5C92.7994 75.9 93.333 74.5 92.9998 74C92.1853 72.88 90.3817 71.9955 87.9997 71.3018C87.0507 71.0255 86.01 70.7794 84.9035 70.5609C82.2022 70.0273 79.1084 69.6574 76 69.4104C80.3333 70.25 88.1 72.3863 84.5 74.2146C85.8106 74.4787 86.9869 74.7452 87.9997 75Z" fill="#6A8099" fill-opacity="0.5"/>
<path d="M87.9997 81.667V77.5V75C86.9869 74.7452 85.8106 74.4787 84.5 74.2146C85.6666 75.7544 87.9997 79.4006 87.9997 81.667Z" fill="#6A8099" fill-opacity="0.5"/>
<path d="M87.9997 87V85C86.9272 84.6936 85.58 84.3684 84 84.0546C83.7703 84.8866 83.6043 85.7031 83.493 86.5C83.155 88.9204 83.3214 91.1594 83.7374 93.0995C85.2164 93.3528 86.6433 93.6512 87.9997 94V92.5V87Z" fill="#6A8099" fill-opacity="0.5"/>
<path d="M87.9997 92.5V94C86.6433 93.6512 85.2164 93.3528 83.7374 93.0995C84.2606 95.5395 85.1787 97.5066 85.9847 98.767C86.2177 99.0049 86.3926 99.2494 86.5 99.5C86.3375 99.2923 86.1639 99.0471 85.9847 98.767C83.666 96.3985 75.6029 94.6814 71.2771 94.0403C75.3012 94.7012 81.2132 98.8508 86.5 103.292C90.2264 106.423 93.6423 109.699 95.8676 112C94.2798 108.634 92.7294 105.459 91.5 103C105.1 113.4 109.167 124.333 109.5 128.5C109.986 125 110.062 116 106.479 108C100.64 103.057 92.8046 96.5041 87.9997 92.5Z" fill="#6A8099" fill-opacity="0.5"/>
<path d="M56.9997 79.5C53.2748 79.882 47.514 80.68 43.4997 81.7434M43.4997 87.5V85C48.0608 83.8355 52.616 83.1183 56.9997 82.7284M43.4997 87.5C40.4995 86.5 39.4999 85.5 38.9997 84.5C38.4873 83.4753 40.5088 82.5357 43.4997 81.7434M43.4997 87.5V92.5M62.4999 79.5C69.02 79.2492 80.9548 79.489 87.9997 81.667M87.9997 87V85C83.422 83.6921 73.8406 82.042 62.4999 82.3991M87.9997 87C92.7995 86.2 93.3331 85 92.9998 84.5C92.1082 83.3111 90.3189 82.384 87.9997 81.667M87.9997 87V92.5M87.9997 81.667V77.5M43.4997 81.7434V77.5M56.9997 69.5C53.5309 69.7168 47.637 70.3707 43.4997 71.5717M43.4997 77.5V75C47.5926 73.484 52.2403 72.6502 56.9997 72.2844M43.4997 77.5C39.0995 75.9 38.6663 74.5 38.9997 74C39.559 73.021 41.2755 72.2173 43.4997 71.5717M62.4999 69C69.0848 68.8757 81.0231 69.2702 87.9997 71.3018M87.9997 77.5V75C82.64 73.6516 72.703 71.9759 62.4999 72.0579M87.9997 77.5C92.7994 75.9 93.333 74.5 92.9998 74C92.1853 72.88 90.3817 71.9955 87.9997 71.3018M43.4997 71.5717V67.5M87.9997 71.3018V67.5M56.9997 60C50.6662 60.3333 38.1994 61.8 38.9997 65C39.1662 65.6667 40.2994 67.1 43.4997 67.5M43.4997 67.5V65.5C46.336 64.6799 51.0932 63.7269 56.9997 63.2065M60.5 60C66.5688 59.3103 79.0982 58.9403 87.9997 61.7805M87.9997 67.5V65.5C78.2703 62.9862 68.5679 62.5322 60.5 62.9598M87.9997 67.5C93.9994 66.3 93.833 64.6667 92.9998 64C91.5514 63.1034 89.8543 62.3723 87.9997 61.7805M43.4997 61.5V56C49.6662 53 67.1994 48.8 87.9997 56V61.7805M43.4997 92.5V93.5C52.4997 92.1667 73.9997 90.4 87.9997 94V92.5M43.4997 92.5C39.9998 93.5 30 99.9 18 117.5C15.6666 119.5 10.4 123.8 7.99997 125C6.99997 125.833 5.59997 128.6 7.99997 133C10.4 137.4 10.3333 139.5 10 140M121 140C119.333 132.167 115.6 116.1 114 114.5C112.4 112.9 95.9998 99.1667 87.9997 92.5" stroke="black" stroke-width="0.5"/>
</svg>
