<svg width="40" height="40" viewBox="0 0 40 40" fill="none" xmlns="http://www.w3.org/2000/svg">
<path fill-rule="evenodd" clip-rule="evenodd" d="M40 10C40 4.47715 35.5228 0 30 0H10C4.47715 0 0 4.47715 0 10V30C0 35.5228 4.47715 40 10 40H30C35.5228 40 40 35.5228 40 30V10Z" fill="#62B6F9"/>
<path d="M14.0247 30.1258L15.0505 33.3844L11.4605 32.4533L12.6453 31.3779L14.0247 30.1258Z" fill="#074576"/>
<path d="M30.4358 28.7292V25.0051L33 26.4017L31.8628 27.4339L30.4358 28.7292Z" fill="#074576"/>
<path d="M15.0505 33.3844C12.6572 31.2895 7.2209 27.1462 6.33213 25.9362C5.30638 24.5396 6.84499 23.1431 8.38352 21.7465C9.40912 20.8156 10.9477 21.5138 11.9734 22.212L24.2817 30.5913C26.8459 32.2206 27.3556 26 26.5929 25.3077C25.915 24 24.8641 20.6462 26.0844 17.6923C26.9319 16.9231 28.1183 14.8769 26.0844 12.8462C24.0506 10.8154 22.6947 9.53846 22.2709 9.15385V5H17.4405V9.15385L13.627 12.8462C12.7796 13.6154 11.5931 15.6615 13.627 17.6923V20.6923M15.0505 33.3844L14.0247 30.1258L11.4605 32.4533L15.0505 33.3844ZM11.9734 25.9362L24.0252 34.0826C26.5894 35.9447 34.1283 35.3861 32.4872 28.4965L30.4358 25.0051M30.4358 25.0051V28.7292L33 26.4017L30.4358 25.0051Z" stroke="#074576" stroke-width="0.5"/>
</svg>
