<svg width="43" height="69" viewBox="0 0 43 69" fill="none" xmlns="http://www.w3.org/2000/svg">
<path d="M21.3239 0.319996C27.8519 0.319996 33.0679 2.112 36.9719 5.696C40.9399 9.27999 42.9239 14.176 42.9239 20.384C42.9239 26.848 40.8759 31.712 36.7799 34.976C32.6839 38.24 27.2439 39.872 20.4599 39.872L20.0759 47.456H10.5719L10.0919 32.384H13.2599C19.4679 32.384 24.2039 31.552 27.4679 29.888C30.7959 28.224 32.4599 25.056 32.4599 20.384C32.4599 16.992 31.4679 14.336 29.4839 12.416C27.5639 10.496 24.8759 9.536 21.4199 9.536C17.9639 9.536 15.2439 10.464 13.2599 12.32C11.2759 14.176 10.2839 16.768 10.2839 20.096H0.0118753C0.0118753 16.256 0.875875 12.832 2.60388 9.824C4.33188 6.816 6.79588 4.48 9.99588 2.816C13.2599 1.152 17.0359 0.319996 21.3239 0.319996ZM15.1799 68.672C13.1959 68.672 11.5319 68 10.1879 66.656C8.84388 65.312 8.17188 63.648 8.17188 61.664C8.17188 59.68 8.84388 58.016 10.1879 56.672C11.5319 55.328 13.1959 54.656 15.1799 54.656C17.0999 54.656 18.7319 55.328 20.0759 56.672C21.4199 58.016 22.0919 59.68 22.0919 61.664C22.0919 63.648 21.4199 65.312 20.0759 66.656C18.7319 68 17.0999 68.672 15.1799 68.672Z" fill="#B0B0B0"/>
</svg>
