<svg width="220" height="220" viewBox="0 0 220 220" fill="none" xmlns="http://www.w3.org/2000/svg">
<path fill-rule="evenodd" clip-rule="evenodd" d="M219 110C219 170.199 170.199 219 110 219C49.801 219 1 170.199 1 110C1 49.801 49.801 1 110 1C170.199 1 219 49.801 219 110ZM74 100C66.8203 100 61 105.82 61 113C61 116.59 62.4551 119.84 64.8076 122.192L93.8076 151.192C96.1602 153.545 99.4101 155 103 155C106.59 155 109.84 153.545 112.192 151.192L163.192 88.1924C165.545 85.8399 167 82.5899 167 79C167 71.8203 161.18 66 154 66C150.41 66 147.16 67.4551 144.808 69.8076L102 123L83.1924 103.808C80.8399 101.455 77.5899 100 74 100Z" fill="#59D296"/>
<path d="M61 113C61 105.82 66.8203 100 74 100C77.5899 100 80.8399 101.455 83.1924 103.808L102 123L144.808 69.8076C147.16 67.4551 150.41 66 154 66C161.18 66 167 71.8203 167 79C167 82.5899 165.545 85.8399 163.192 88.1924L112.192 151.192C109.84 153.545 106.59 155 103 155C99.4101 155 96.1602 153.545 93.8076 151.192L64.8076 122.192C62.4551 119.84 61 116.59 61 113Z" fill="white"/>
<path fill-rule="evenodd" clip-rule="evenodd" d="M219 110C219 170.199 170.199 219 110 219C49.801 219 1 170.199 1 110C1 49.801 49.801 1 110 1C170.199 1 219 49.801 219 110ZM74 100C66.8203 100 61 105.82 61 113C61 116.59 62.4551 119.84 64.8076 122.192L93.8076 151.192C96.1602 153.545 99.4101 155 103 155C106.59 155 109.84 153.545 112.192 151.192L163.192 88.1924C165.545 85.8399 167 82.5899 167 79C167 71.8203 161.18 66 154 66C150.41 66 147.16 67.4551 144.808 69.8076L102 123L83.1924 103.808C80.8399 101.455 77.5899 100 74 100Z" stroke="#E5E5E5"/>
<path d="M61 113C61 105.82 66.8203 100 74 100C77.5899 100 80.8399 101.455 83.1924 103.808L102 123L144.808 69.8076C147.16 67.4551 150.41 66 154 66C161.18 66 167 71.8203 167 79C167 82.5899 165.545 85.8399 163.192 88.1924L112.192 151.192C109.84 153.545 106.59 155 103 155C99.4101 155 96.1602 153.545 93.8076 151.192L64.8076 122.192C62.4551 119.84 61 116.59 61 113Z" stroke="#E5E5E5"/>
</svg>
