<svg width="40" height="40" viewBox="0 0 40 40" fill="none" xmlns="http://www.w3.org/2000/svg">
<path fill-rule="evenodd" clip-rule="evenodd" d="M40 10C40 4.47715 35.5228 0 30 0H10C4.47715 0 0 4.47715 0 10V30C0 35.5228 4.47715 40 10 40H30C35.5228 40 40 35.5228 40 30V10Z" fill="#DFC399"/>
<path d="M29.8846 28.5302V24.6878L32.2861 26.1287L31.2211 27.1937L29.8846 28.5302Z" fill="#825616"/>
<path fill-rule="evenodd" clip-rule="evenodd" d="M14.5153 29.971L13.2235 31.2629L12.1139 32.3725L15.476 33.3331L14.5153 29.971Z" fill="#825616"/>
<path d="M15.476 33.3331L14.5153 29.971L13.2235 31.2629M15.476 33.3331L12.1139 32.3725L13.2235 31.2629M15.476 33.3331C14.8814 32.7597 14.0864 32.0377 13.2235 31.2629M12.5942 25.6484L23.881 34.0535C26.2824 35.9747 33.3427 35.3983 31.8058 28.29L31.2211 27.1937M29.8846 24.6878V28.5302L31.2211 27.1937M29.8846 24.6878L32.2861 26.1287L31.2211 27.1937M29.8846 24.6878L31.2211 27.1937M23.881 27.8571C23.881 29.5238 22.4524 28.9774 21.7619 28.5302L12.5942 21.8061C11.6336 21.0857 10.1927 20.3653 9.23221 21.3258C7.79135 22.7667 6.35041 24.2075 7.31105 25.6484C7.92261 26.5657 10.8333 29.1168 13.2235 31.2629M23.881 27.8571C23.881 26.7354 23.881 21.0998 23.881 16.9048M23.881 27.8571V16.9048M23.881 14.2857L19.619 5L14.8571 14.2857V16.9048M23.881 14.2857C23.881 15.0308 23.881 15.9288 23.881 16.9048M23.881 14.2857V16.9048M14.8571 21.3258V16.9048M14.8571 16.9048H16.5238M23.881 16.9048H22.3452M16.5238 16.9048V18.3333M16.5238 16.9048H17.9524M17.9524 16.9048V15.4762M17.9524 16.9048H19.3809M19.3809 16.9048V18.3333M19.3809 16.9048H20.8095M20.8095 16.9048V15.4762M20.8095 16.9048H22.3452M22.3452 16.9048V18.3333" stroke="#825616" stroke-width="0.5"/>
</svg>
